<svg width="1006" height="336" viewBox="0 0 1006 336" fill="none" xmlns="http://www.w3.org/2000/svg">
<rect width="443" height="230" rx="30" fill="#FFD7B9"/>
<path d="M114.205 282.28C112.712 282.28 111.321 282.037 110.033 281.552C108.764 281.048 107.653 280.348 106.701 279.452C105.768 278.537 105.04 277.464 104.517 276.232C103.995 275 103.733 273.656 103.733 272.2C103.733 270.744 103.995 269.4 104.517 268.168C105.04 266.936 105.777 265.872 106.729 264.976C107.681 264.061 108.792 263.361 110.061 262.876C111.331 262.372 112.721 262.12 114.233 262.12C115.839 262.12 117.304 262.4 118.629 262.96C119.955 263.501 121.075 264.313 121.989 265.396L119.637 267.608C118.928 266.843 118.135 266.273 117.257 265.9C116.38 265.508 115.428 265.312 114.401 265.312C113.375 265.312 112.432 265.48 111.573 265.816C110.733 266.152 109.996 266.628 109.361 267.244C108.745 267.86 108.26 268.588 107.905 269.428C107.569 270.268 107.401 271.192 107.401 272.2C107.401 273.208 107.569 274.132 107.905 274.972C108.26 275.812 108.745 276.54 109.361 277.156C109.996 277.772 110.733 278.248 111.573 278.584C112.432 278.92 113.375 279.088 114.401 279.088C115.428 279.088 116.38 278.901 117.257 278.528C118.135 278.136 118.928 277.548 119.637 276.764L121.989 279.004C121.075 280.068 119.955 280.88 118.629 281.44C117.304 282 115.829 282.28 114.205 282.28ZM127.675 282V269.176L128.487 270.016H122.411V267.048H136.411V270.016H130.363L131.175 269.176V282H127.675ZM140.321 287.628C139.593 287.628 138.865 287.507 138.137 287.264C137.409 287.021 136.802 286.685 136.317 286.256L137.717 283.68C138.072 283.997 138.473 284.249 138.921 284.436C139.369 284.623 139.826 284.716 140.293 284.716C140.928 284.716 141.441 284.557 141.833 284.24C142.225 283.923 142.589 283.391 142.925 282.644L143.793 280.684L144.073 280.264L149.729 267.048H153.089L146.089 283.204C145.622 284.324 145.1 285.211 144.521 285.864C143.961 286.517 143.326 286.975 142.617 287.236C141.926 287.497 141.161 287.628 140.321 287.628ZM143.401 282.532L136.653 267.048H140.293L145.781 279.956L143.401 282.532ZM164.866 280.376V270.016H159.126L159.042 272.424C159.004 273.283 158.948 274.113 158.874 274.916C158.799 275.7 158.678 276.428 158.51 277.1C158.342 277.753 158.099 278.295 157.782 278.724C157.464 279.153 157.044 279.433 156.522 279.564L153.05 279.032C153.61 279.032 154.058 278.855 154.394 278.5C154.748 278.127 155.019 277.623 155.206 276.988C155.411 276.335 155.56 275.597 155.654 274.776C155.747 273.936 155.812 273.068 155.85 272.172L156.046 267.048H168.366V280.376H164.866ZM152.518 285.332V279.032H170.578V285.332H167.302V282H155.766V285.332H152.518ZM173.704 282V267.048H177.204V276.904L185.464 267.048H188.656V282H185.156V272.144L176.924 282H173.704ZM202.856 282V276.904L203.36 277.492H198.88C196.826 277.492 195.212 277.063 194.036 276.204C192.878 275.327 192.3 274.067 192.3 272.424C192.3 270.669 192.916 269.335 194.148 268.42C195.398 267.505 197.06 267.048 199.132 267.048H205.992V282H202.856ZM192.104 282L196.136 276.288H199.72L195.856 282H192.104ZM202.856 275.784V269.064L203.36 269.988H199.244C198.161 269.988 197.321 270.193 196.724 270.604C196.145 270.996 195.856 271.64 195.856 272.536C195.856 274.216 196.948 275.056 199.132 275.056H203.36L202.856 275.784ZM229.162 282L223.758 274.832L226.614 273.068L233.278 282H229.162ZM218.438 282V267.048H221.938V282H218.438ZM220.902 276.008V273.096H225.97V276.008H220.902ZM226.95 274.944L223.674 274.552L229.162 267.048H232.914L226.95 274.944ZM244.035 282.196C242.821 282.196 241.711 281.916 240.703 281.356C239.713 280.796 238.92 279.956 238.323 278.836C237.744 277.697 237.455 276.26 237.455 274.524C237.455 272.769 237.735 271.332 238.295 270.212C238.873 269.092 239.657 268.261 240.647 267.72C241.636 267.16 242.765 266.88 244.035 266.88C245.509 266.88 246.807 267.197 247.927 267.832C249.065 268.467 249.961 269.353 250.615 270.492C251.287 271.631 251.623 272.975 251.623 274.524C251.623 276.073 251.287 277.427 250.615 278.584C249.961 279.723 249.065 280.609 247.927 281.244C246.807 281.879 245.509 282.196 244.035 282.196ZM235.747 287.432V267.048H239.079V270.576L238.967 274.552L239.247 278.528V287.432H235.747ZM243.643 279.2C244.483 279.2 245.229 279.013 245.883 278.64C246.555 278.267 247.087 277.725 247.479 277.016C247.871 276.307 248.067 275.476 248.067 274.524C248.067 273.553 247.871 272.723 247.479 272.032C247.087 271.323 246.555 270.781 245.883 270.408C245.229 270.035 244.483 269.848 243.643 269.848C242.803 269.848 242.047 270.035 241.375 270.408C240.703 270.781 240.171 271.323 239.779 272.032C239.387 272.723 239.191 273.553 239.191 274.524C239.191 275.476 239.387 276.307 239.779 277.016C240.171 277.725 240.703 278.267 241.375 278.64C242.047 279.013 242.803 279.2 243.643 279.2ZM263.987 282V278.976L263.791 278.332V273.04C263.791 272.013 263.483 271.22 262.867 270.66C262.251 270.081 261.317 269.792 260.067 269.792C259.227 269.792 258.396 269.923 257.575 270.184C256.772 270.445 256.091 270.809 255.531 271.276L254.159 268.728C254.961 268.112 255.913 267.655 257.015 267.356C258.135 267.039 259.292 266.88 260.487 266.88C262.652 266.88 264.323 267.403 265.499 268.448C266.693 269.475 267.291 271.071 267.291 273.236V282H263.987ZM259.283 282.196C258.163 282.196 257.183 282.009 256.343 281.636C255.503 281.244 254.849 280.712 254.383 280.04C253.935 279.349 253.711 278.575 253.711 277.716C253.711 276.876 253.907 276.12 254.299 275.448C254.709 274.776 255.372 274.244 256.287 273.852C257.201 273.46 258.415 273.264 259.927 273.264H264.267V275.588H260.179C258.984 275.588 258.181 275.784 257.771 276.176C257.36 276.549 257.155 277.016 257.155 277.576C257.155 278.211 257.407 278.715 257.911 279.088C258.415 279.461 259.115 279.648 260.011 279.648C260.869 279.648 261.635 279.452 262.307 279.06C262.997 278.668 263.492 278.089 263.791 277.324L264.379 279.424C264.043 280.301 263.436 280.983 262.559 281.468C261.7 281.953 260.608 282.196 259.283 282.196ZM278.426 282.196C276.858 282.196 275.458 281.869 274.226 281.216C273.012 280.544 272.06 279.629 271.37 278.472C270.679 277.315 270.334 275.999 270.334 274.524C270.334 273.031 270.679 271.715 271.37 270.576C272.06 269.419 273.012 268.513 274.226 267.86C275.458 267.207 276.858 266.88 278.426 266.88C279.882 266.88 281.16 267.179 282.262 267.776C283.382 268.355 284.231 269.213 284.81 270.352L282.122 271.92C281.674 271.211 281.123 270.688 280.47 270.352C279.835 270.016 279.144 269.848 278.398 269.848C277.539 269.848 276.764 270.035 276.074 270.408C275.383 270.781 274.842 271.323 274.45 272.032C274.058 272.723 273.862 273.553 273.862 274.524C273.862 275.495 274.058 276.335 274.45 277.044C274.842 277.735 275.383 278.267 276.074 278.64C276.764 279.013 277.539 279.2 278.398 279.2C279.144 279.2 279.835 279.032 280.47 278.696C281.123 278.36 281.674 277.837 282.122 277.128L284.81 278.696C284.231 279.816 283.382 280.684 282.262 281.3C281.16 281.897 279.882 282.196 278.426 282.196ZM294.336 282.196C292.806 282.196 291.443 281.869 290.248 281.216C289.054 280.544 288.111 279.629 287.42 278.472C286.73 277.315 286.384 275.999 286.384 274.524C286.384 273.031 286.73 271.715 287.42 270.576C288.111 269.419 289.054 268.513 290.248 267.86C291.443 267.207 292.806 266.88 294.336 266.88C295.886 266.88 297.258 267.207 298.452 267.86C299.666 268.513 300.608 269.409 301.28 270.548C301.971 271.687 302.316 273.012 302.316 274.524C302.316 275.999 301.971 277.315 301.28 278.472C300.608 279.629 299.666 280.544 298.452 281.216C297.258 281.869 295.886 282.196 294.336 282.196ZM294.336 279.2C295.195 279.2 295.96 279.013 296.632 278.64C297.304 278.267 297.827 277.725 298.2 277.016C298.592 276.307 298.788 275.476 298.788 274.524C298.788 273.553 298.592 272.723 298.2 272.032C297.827 271.323 297.304 270.781 296.632 270.408C295.96 270.035 295.204 269.848 294.364 269.848C293.506 269.848 292.74 270.035 292.068 270.408C291.415 270.781 290.892 271.323 290.5 272.032C290.108 272.723 289.912 273.553 289.912 274.524C289.912 275.476 290.108 276.307 290.5 277.016C290.892 277.725 291.415 278.267 292.068 278.64C292.74 279.013 293.496 279.2 294.336 279.2ZM308.335 282V269.176L309.147 270.016H303.071V267.048H317.071V270.016H311.023L311.835 269.176V282H308.335ZM334.702 282V267.048H338.202V282H334.702ZM326.89 271.976C328.812 271.976 330.268 272.405 331.258 273.264C332.266 274.123 332.77 275.336 332.77 276.904C332.77 278.528 332.21 279.797 331.09 280.712C329.988 281.608 328.42 282.047 326.386 282.028L319.61 282V267.048H323.11V271.948L326.89 271.976ZM326.078 279.452C327.104 279.471 327.888 279.256 328.43 278.808C328.971 278.36 329.242 277.707 329.242 276.848C329.242 275.989 328.971 275.373 328.43 275C327.907 274.608 327.123 274.403 326.078 274.384L323.11 274.356V279.424L326.078 279.452ZM129.472 326.928L125.496 321.524L129.472 316.092H132.636L128.744 321.524L132.636 326.928H129.472ZM135.296 326.928L131.32 321.524L135.296 316.092H138.46L134.568 321.524L138.46 326.928H135.296ZM145.755 329V311.584L146.623 312.48H139.287V309.4H155.863V312.48H148.527L149.367 311.584V329H145.755ZM158.254 329V314.048H165.562C167.373 314.048 168.792 314.384 169.818 315.056C170.864 315.728 171.386 316.68 171.386 317.912C171.386 319.125 170.901 320.077 169.93 320.768C168.96 321.44 167.672 321.776 166.066 321.776L166.486 320.908C168.297 320.908 169.641 321.244 170.518 321.916C171.414 322.569 171.862 323.531 171.862 324.8C171.862 326.125 171.368 327.161 170.378 327.908C169.389 328.636 167.886 329 165.87 329H158.254ZM161.586 326.452H165.59C166.542 326.452 167.261 326.303 167.746 326.004C168.232 325.687 168.474 325.211 168.474 324.576C168.474 323.904 168.25 323.409 167.802 323.092C167.354 322.775 166.654 322.616 165.702 322.616H161.586V326.452ZM161.586 320.292H165.254C166.15 320.292 166.822 320.133 167.27 319.816C167.737 319.48 167.97 319.013 167.97 318.416C167.97 317.8 167.737 317.343 167.27 317.044C166.822 316.745 166.15 316.596 165.254 316.596H161.586V320.292ZM182.254 329.196C180.724 329.196 179.361 328.869 178.166 328.216C176.972 327.544 176.029 326.629 175.338 325.472C174.648 324.315 174.302 322.999 174.302 321.524C174.302 320.031 174.648 318.715 175.338 317.576C176.029 316.419 176.972 315.513 178.166 314.86C179.361 314.207 180.724 313.88 182.254 313.88C183.804 313.88 185.176 314.207 186.37 314.86C187.584 315.513 188.526 316.409 189.198 317.548C189.889 318.687 190.234 320.012 190.234 321.524C190.234 322.999 189.889 324.315 189.198 325.472C188.526 326.629 187.584 327.544 186.37 328.216C185.176 328.869 183.804 329.196 182.254 329.196ZM182.254 326.2C183.113 326.2 183.878 326.013 184.55 325.64C185.222 325.267 185.745 324.725 186.118 324.016C186.51 323.307 186.706 322.476 186.706 321.524C186.706 320.553 186.51 319.723 186.118 319.032C185.745 318.323 185.222 317.781 184.55 317.408C183.878 317.035 183.122 316.848 182.282 316.848C181.424 316.848 180.658 317.035 179.986 317.408C179.333 317.781 178.81 318.323 178.418 319.032C178.026 319.723 177.83 320.553 177.83 321.524C177.83 322.476 178.026 323.307 178.418 324.016C178.81 324.725 179.333 325.267 179.986 325.64C180.658 326.013 181.414 326.2 182.254 326.2ZM193.692 329V314.048H197.192V323.904L205.452 314.048H208.644V329H205.144V319.144L196.912 329H193.692ZM200.944 312.284C199.451 312.284 198.303 311.939 197.5 311.248C196.697 310.539 196.287 309.512 196.268 308.168H198.592C198.611 308.84 198.816 309.372 199.208 309.764C199.619 310.156 200.188 310.352 200.916 310.352C201.625 310.352 202.185 310.156 202.596 309.764C203.025 309.372 203.249 308.84 203.268 308.168H205.648C205.629 309.512 205.209 310.539 204.388 311.248C203.585 311.939 202.437 312.284 200.944 312.284ZM227.894 329.196C226.326 329.196 224.926 328.869 223.694 328.216C222.481 327.544 221.529 326.629 220.838 325.472C220.148 324.315 219.802 322.999 219.802 321.524C219.802 320.031 220.148 318.715 220.838 317.576C221.529 316.419 222.481 315.513 223.694 314.86C224.926 314.207 226.326 313.88 227.894 313.88C229.35 313.88 230.629 314.179 231.73 314.776C232.85 315.355 233.7 316.213 234.278 317.352L231.59 318.92C231.142 318.211 230.592 317.688 229.938 317.352C229.304 317.016 228.613 316.848 227.866 316.848C227.008 316.848 226.233 317.035 225.542 317.408C224.852 317.781 224.31 318.323 223.918 319.032C223.526 319.723 223.33 320.553 223.33 321.524C223.33 322.495 223.526 323.335 223.918 324.044C224.31 324.735 224.852 325.267 225.542 325.64C226.233 326.013 227.008 326.2 227.866 326.2C228.613 326.2 229.304 326.032 229.938 325.696C230.592 325.36 231.142 324.837 231.59 324.128L234.278 325.696C233.7 326.816 232.85 327.684 231.73 328.3C230.629 328.897 229.35 329.196 227.894 329.196ZM240.358 329V316.176L241.17 317.016H235.094V314.048H249.094V317.016H243.046L243.858 316.176V329H240.358ZM251.633 329V314.048H255.133V323.904L263.393 314.048H266.585V329H263.085V319.144L254.853 329H251.633ZM269.109 328.972L269.277 326.032C269.408 326.051 269.529 326.069 269.641 326.088C269.753 326.107 269.856 326.116 269.949 326.116C270.528 326.116 270.976 325.939 271.293 325.584C271.611 325.229 271.844 324.753 271.993 324.156C272.161 323.54 272.273 322.859 272.329 322.112C272.404 321.347 272.46 320.581 272.497 319.816L272.749 314.048H284.845V329H281.345V316.064L282.157 317.016H275.045L275.801 316.036L275.605 319.984C275.549 321.309 275.437 322.541 275.269 323.68C275.12 324.8 274.877 325.78 274.541 326.62C274.224 327.46 273.776 328.113 273.197 328.58C272.637 329.047 271.919 329.28 271.041 329.28C270.761 329.28 270.453 329.252 270.117 329.196C269.8 329.14 269.464 329.065 269.109 328.972ZM297.063 318.976C298.986 318.976 300.451 319.405 301.459 320.264C302.467 321.123 302.971 322.336 302.971 323.904C302.971 325.528 302.411 326.797 301.291 327.712C300.171 328.608 298.594 329.047 296.559 329.028L289.559 329V314.048H293.059V318.948L297.063 318.976ZM296.251 326.452C297.278 326.471 298.062 326.256 298.603 325.808C299.144 325.36 299.415 324.707 299.415 323.848C299.415 322.989 299.144 322.373 298.603 322C298.08 321.608 297.296 321.403 296.251 321.384L293.059 321.356V326.424L296.251 326.452ZM307.699 326.928H304.535L308.427 321.524L304.535 316.092H307.699L311.675 321.524L307.699 326.928ZM313.523 326.928H310.359L314.251 321.524L310.359 316.092H313.523L317.499 321.524L313.523 326.928Z" fill="#622900"/>
<rect x="563" width="443" height="230" rx="30" fill="#FFD7B9"/>
<path d="M597.042 282V264.584L597.91 265.48H590.574V262.4H607.15V265.48H599.814L600.654 264.584V282H597.042ZM609.541 282V267.048H616.849C618.66 267.048 620.079 267.384 621.105 268.056C622.151 268.728 622.673 269.68 622.673 270.912C622.673 272.125 622.188 273.077 621.217 273.768C620.247 274.44 618.959 274.776 617.353 274.776L617.773 273.908C619.584 273.908 620.928 274.244 621.805 274.916C622.701 275.569 623.149 276.531 623.149 277.8C623.149 279.125 622.655 280.161 621.665 280.908C620.676 281.636 619.173 282 617.157 282H609.541ZM612.873 279.452H616.877C617.829 279.452 618.548 279.303 619.033 279.004C619.519 278.687 619.761 278.211 619.761 277.576C619.761 276.904 619.537 276.409 619.089 276.092C618.641 275.775 617.941 275.616 616.989 275.616H612.873V279.452ZM612.873 273.292H616.541C617.437 273.292 618.109 273.133 618.557 272.816C619.024 272.48 619.257 272.013 619.257 271.416C619.257 270.8 619.024 270.343 618.557 270.044C618.109 269.745 617.437 269.596 616.541 269.596H612.873V273.292ZM633.541 282.196C632.011 282.196 630.648 281.869 629.453 281.216C628.259 280.544 627.316 279.629 626.625 278.472C625.935 277.315 625.589 275.999 625.589 274.524C625.589 273.031 625.935 271.715 626.625 270.576C627.316 269.419 628.259 268.513 629.453 267.86C630.648 267.207 632.011 266.88 633.541 266.88C635.091 266.88 636.463 267.207 637.657 267.86C638.871 268.513 639.813 269.409 640.485 270.548C641.176 271.687 641.521 273.012 641.521 274.524C641.521 275.999 641.176 277.315 640.485 278.472C639.813 279.629 638.871 280.544 637.657 281.216C636.463 281.869 635.091 282.196 633.541 282.196ZM633.541 279.2C634.4 279.2 635.165 279.013 635.837 278.64C636.509 278.267 637.032 277.725 637.405 277.016C637.797 276.307 637.993 275.476 637.993 274.524C637.993 273.553 637.797 272.723 637.405 272.032C637.032 271.323 636.509 270.781 635.837 270.408C635.165 270.035 634.409 269.848 633.569 269.848C632.711 269.848 631.945 270.035 631.273 270.408C630.62 270.781 630.097 271.323 629.705 272.032C629.313 272.723 629.117 273.553 629.117 274.524C629.117 275.476 629.313 276.307 629.705 277.016C630.097 277.725 630.62 278.267 631.273 278.64C631.945 279.013 632.701 279.2 633.541 279.2ZM653.267 282.196C652.054 282.196 650.943 281.916 649.935 281.356C648.946 280.796 648.152 279.956 647.555 278.836C646.976 277.697 646.687 276.26 646.687 274.524C646.687 272.769 646.967 271.332 647.527 270.212C648.106 269.092 648.89 268.261 649.879 267.72C650.868 267.16 651.998 266.88 653.267 266.88C654.742 266.88 656.039 267.197 657.159 267.832C658.298 268.467 659.194 269.353 659.847 270.492C660.519 271.631 660.855 272.975 660.855 274.524C660.855 276.073 660.519 277.427 659.847 278.584C659.194 279.723 658.298 280.609 657.159 281.244C656.039 281.879 654.742 282.196 653.267 282.196ZM644.979 287.432V267.048H648.311V270.576L648.199 274.552L648.479 278.528V287.432H644.979ZM652.875 279.2C653.715 279.2 654.462 279.013 655.115 278.64C655.787 278.267 656.319 277.725 656.711 277.016C657.103 276.307 657.299 275.476 657.299 274.524C657.299 273.553 657.103 272.723 656.711 272.032C656.319 271.323 655.787 270.781 655.115 270.408C654.462 270.035 653.715 269.848 652.875 269.848C652.035 269.848 651.279 270.035 650.607 270.408C649.935 270.781 649.403 271.323 649.011 272.032C648.619 272.723 648.423 273.553 648.423 274.524C648.423 275.476 648.619 276.307 649.011 277.016C649.403 277.725 649.935 278.267 650.607 278.64C651.279 279.013 652.035 279.2 652.875 279.2ZM673.774 276.092C673.065 276.428 672.309 276.708 671.506 276.932C670.722 277.137 669.892 277.24 669.014 277.24C667.129 277.24 665.664 276.801 664.618 275.924C663.573 275.047 663.05 273.684 663.05 271.836V267.048H666.55V271.612C666.55 272.601 666.83 273.32 667.39 273.768C667.969 274.216 668.762 274.44 669.77 274.44C670.442 274.44 671.114 274.356 671.786 274.188C672.458 274.02 673.121 273.787 673.774 273.488V276.092ZM673.522 282V267.048H677.022V282H673.522ZM688.701 282.196C687.04 282.196 685.584 281.869 684.333 281.216C683.101 280.544 682.14 279.629 681.449 278.472C680.777 277.315 680.441 275.999 680.441 274.524C680.441 273.031 680.768 271.715 681.421 270.576C682.093 269.419 683.008 268.513 684.165 267.86C685.341 267.207 686.676 266.88 688.169 266.88C689.625 266.88 690.922 267.197 692.061 267.832C693.2 268.467 694.096 269.363 694.749 270.52C695.402 271.677 695.729 273.04 695.729 274.608C695.729 274.757 695.72 274.925 695.701 275.112C695.701 275.299 695.692 275.476 695.673 275.644H683.213V273.32H693.825L692.453 274.048C692.472 273.189 692.294 272.433 691.921 271.78C691.548 271.127 691.034 270.613 690.381 270.24C689.746 269.867 689.009 269.68 688.169 269.68C687.31 269.68 686.554 269.867 685.901 270.24C685.266 270.613 684.762 271.136 684.389 271.808C684.034 272.461 683.857 273.236 683.857 274.132V274.692C683.857 275.588 684.062 276.381 684.473 277.072C684.884 277.763 685.462 278.295 686.209 278.668C686.956 279.041 687.814 279.228 688.785 279.228C689.625 279.228 690.381 279.097 691.053 278.836C691.725 278.575 692.322 278.164 692.845 277.604L694.721 279.76C694.049 280.544 693.2 281.151 692.173 281.58C691.165 281.991 690.008 282.196 688.701 282.196ZM706.361 282.196C704.793 282.196 703.393 281.869 702.161 281.216C700.948 280.544 699.996 279.629 699.305 278.472C698.614 277.315 698.269 275.999 698.269 274.524C698.269 273.031 698.614 271.715 699.305 270.576C699.996 269.419 700.948 268.513 702.161 267.86C703.393 267.207 704.793 266.88 706.361 266.88C707.817 266.88 709.096 267.179 710.197 267.776C711.317 268.355 712.166 269.213 712.745 270.352L710.057 271.92C709.609 271.211 709.058 270.688 708.405 270.352C707.77 270.016 707.08 269.848 706.333 269.848C705.474 269.848 704.7 270.035 704.009 270.408C703.318 270.781 702.777 271.323 702.385 272.032C701.993 272.723 701.797 273.553 701.797 274.524C701.797 275.495 701.993 276.335 702.385 277.044C702.777 277.735 703.318 278.267 704.009 278.64C704.7 279.013 705.474 279.2 706.333 279.2C707.08 279.2 707.77 279.032 708.405 278.696C709.058 278.36 709.609 277.837 710.057 277.128L712.745 278.696C712.166 279.816 711.317 280.684 710.197 281.3C709.096 281.897 707.817 282.196 706.361 282.196ZM726.551 282L721.147 274.832L724.003 273.068L730.667 282H726.551ZM715.827 282V267.048H719.327V282H715.827ZM718.291 276.008V273.096H723.359V276.008H718.291ZM724.339 274.944L721.063 274.552L726.551 267.048H730.303L724.339 274.944ZM739.307 282.196C737.776 282.196 736.414 281.869 735.219 281.216C734.024 280.544 733.082 279.629 732.391 278.472C731.7 277.315 731.355 275.999 731.355 274.524C731.355 273.031 731.7 271.715 732.391 270.576C733.082 269.419 734.024 268.513 735.219 267.86C736.414 267.207 737.776 266.88 739.307 266.88C740.856 266.88 742.228 267.207 743.423 267.86C744.636 268.513 745.579 269.409 746.251 270.548C746.942 271.687 747.287 273.012 747.287 274.524C747.287 275.999 746.942 277.315 746.251 278.472C745.579 279.629 744.636 280.544 743.423 281.216C742.228 281.869 740.856 282.196 739.307 282.196ZM739.307 279.2C740.166 279.2 740.931 279.013 741.603 278.64C742.275 278.267 742.798 277.725 743.171 277.016C743.563 276.307 743.759 275.476 743.759 274.524C743.759 273.553 743.563 272.723 743.171 272.032C742.798 271.323 742.275 270.781 741.603 270.408C740.931 270.035 740.175 269.848 739.335 269.848C738.476 269.848 737.711 270.035 737.039 270.408C736.386 270.781 735.863 271.323 735.471 272.032C735.079 272.723 734.883 273.553 734.883 274.524C734.883 275.476 735.079 276.307 735.471 277.016C735.863 277.725 736.386 278.267 737.039 278.64C737.711 279.013 738.467 279.2 739.307 279.2ZM757.717 282.196C756.055 282.196 754.599 281.869 753.349 281.216C752.117 280.544 751.155 279.629 750.465 278.472C749.793 277.315 749.457 275.999 749.457 274.524C749.457 273.031 749.783 271.715 750.437 270.576C751.109 269.419 752.023 268.513 753.181 267.86C754.357 267.207 755.691 266.88 757.185 266.88C758.641 266.88 759.938 267.197 761.077 267.832C762.215 268.467 763.111 269.363 763.765 270.52C764.418 271.677 764.745 273.04 764.745 274.608C764.745 274.757 764.735 274.925 764.717 275.112C764.717 275.299 764.707 275.476 764.689 275.644H752.229V273.32H762.841L761.469 274.048C761.487 273.189 761.31 272.433 760.937 271.78C760.563 271.127 760.05 270.613 759.397 270.24C758.762 269.867 758.025 269.68 757.185 269.68C756.326 269.68 755.57 269.867 754.917 270.24C754.282 270.613 753.778 271.136 753.405 271.808C753.05 272.461 752.873 273.236 752.873 274.132V274.692C752.873 275.588 753.078 276.381 753.489 277.072C753.899 277.763 754.478 278.295 755.225 278.668C755.971 279.041 756.83 279.228 757.801 279.228C758.641 279.228 759.397 279.097 760.069 278.836C760.741 278.575 761.338 278.164 761.861 277.604L763.737 279.76C763.065 280.544 762.215 281.151 761.189 281.58C760.181 281.991 759.023 282.196 757.717 282.196ZM782.975 282.196C781.444 282.196 780.082 281.869 778.887 281.216C777.692 280.544 776.75 279.629 776.059 278.472C775.368 277.315 775.023 275.999 775.023 274.524C775.023 273.031 775.368 271.715 776.059 270.576C776.75 269.419 777.692 268.513 778.887 267.86C780.082 267.207 781.444 266.88 782.975 266.88C784.524 266.88 785.896 267.207 787.091 267.86C788.304 268.513 789.247 269.409 789.919 270.548C790.61 271.687 790.955 273.012 790.955 274.524C790.955 275.999 790.61 277.315 789.919 278.472C789.247 279.629 788.304 280.544 787.091 281.216C785.896 281.869 784.524 282.196 782.975 282.196ZM782.975 279.2C783.834 279.2 784.599 279.013 785.271 278.64C785.943 278.267 786.466 277.725 786.839 277.016C787.231 276.307 787.427 275.476 787.427 274.524C787.427 273.553 787.231 272.723 786.839 272.032C786.466 271.323 785.943 270.781 785.271 270.408C784.599 270.035 783.843 269.848 783.003 269.848C782.144 269.848 781.379 270.035 780.707 270.408C780.054 270.781 779.531 271.323 779.139 272.032C778.747 272.723 778.551 273.553 778.551 274.524C778.551 275.476 778.747 276.307 779.139 277.016C779.531 277.725 780.054 278.267 780.707 278.64C781.379 279.013 782.135 279.2 782.975 279.2ZM801.553 282.28C800.321 282.28 799.219 282.093 798.249 281.72C797.278 281.347 796.438 280.777 795.729 280.012C795.038 279.228 794.506 278.239 794.133 277.044C793.759 275.849 793.573 274.431 793.573 272.788C793.573 271.593 793.675 270.501 793.881 269.512C794.086 268.523 794.394 267.636 794.805 266.852C795.215 266.049 795.729 265.34 796.345 264.724C796.979 264.108 797.717 263.595 798.557 263.184C799.397 262.773 800.349 262.456 801.413 262.232L808.357 260.748L808.861 263.884L802.561 265.172C802.206 265.247 801.777 265.359 801.273 265.508C800.787 265.639 800.283 265.844 799.761 266.124C799.257 266.385 798.781 266.768 798.333 267.272C797.903 267.757 797.549 268.392 797.269 269.176C797.007 269.941 796.877 270.903 796.877 272.06C796.877 272.415 796.886 272.685 796.905 272.872C796.942 273.04 796.97 273.227 796.989 273.432C797.026 273.619 797.045 273.899 797.045 274.272L795.729 272.9C796.102 271.948 796.615 271.136 797.269 270.464C797.941 269.773 798.715 269.251 799.593 268.896C800.489 268.523 801.459 268.336 802.505 268.336C803.905 268.336 805.146 268.625 806.229 269.204C807.311 269.783 808.161 270.595 808.777 271.64C809.393 272.685 809.701 273.871 809.701 275.196C809.701 276.577 809.365 277.8 808.693 278.864C808.021 279.928 807.069 280.768 805.837 281.384C804.623 281.981 803.195 282.28 801.553 282.28ZM801.833 279.452C802.673 279.452 803.41 279.275 804.045 278.92C804.698 278.547 805.202 278.043 805.557 277.408C805.93 276.773 806.117 276.064 806.117 275.28C806.117 274.496 805.93 273.815 805.557 273.236C805.202 272.639 804.698 272.163 804.045 271.808C803.41 271.453 802.654 271.276 801.777 271.276C800.937 271.276 800.181 271.444 799.509 271.78C798.855 272.116 798.342 272.583 797.969 273.18C797.614 273.759 797.437 274.431 797.437 275.196C797.437 275.98 797.623 276.699 797.997 277.352C798.37 278.005 798.883 278.519 799.537 278.892C800.209 279.265 800.974 279.452 801.833 279.452ZM822.117 271.948C824.021 271.948 825.468 272.387 826.457 273.264C827.447 274.123 827.941 275.327 827.941 276.876C827.941 278.519 827.381 279.788 826.261 280.684C825.16 281.561 823.592 282 821.557 282H814.809V270.016H810.385V267.048H818.309V271.948H822.117ZM821.389 279.424C822.379 279.424 823.125 279.2 823.629 278.752C824.133 278.304 824.385 277.651 824.385 276.792C824.385 275.187 823.387 274.384 821.389 274.384H818.309V279.424H821.389ZM837.998 282.196C836.336 282.196 834.88 281.869 833.63 281.216C832.398 280.544 831.436 279.629 830.746 278.472C830.074 277.315 829.738 275.999 829.738 274.524C829.738 273.031 830.064 271.715 830.718 270.576C831.39 269.419 832.304 268.513 833.462 267.86C834.638 267.207 835.972 266.88 837.466 266.88C838.922 266.88 840.219 267.197 841.358 267.832C842.496 268.467 843.392 269.363 844.046 270.52C844.699 271.677 845.026 273.04 845.026 274.608C845.026 274.757 845.016 274.925 844.998 275.112C844.998 275.299 844.988 275.476 844.97 275.644H832.51V273.32H843.122L841.75 274.048C841.768 273.189 841.591 272.433 841.218 271.78C840.844 271.127 840.331 270.613 839.678 270.24C839.043 269.867 838.306 269.68 837.466 269.68C836.607 269.68 835.851 269.867 835.198 270.24C834.563 270.613 834.059 271.136 833.686 271.808C833.331 272.461 833.154 273.236 833.154 274.132V274.692C833.154 275.588 833.359 276.381 833.77 277.072C834.18 277.763 834.759 278.295 835.506 278.668C836.252 279.041 837.111 279.228 838.082 279.228C838.922 279.228 839.678 279.097 840.35 278.836C841.022 278.575 841.619 278.164 842.142 277.604L844.018 279.76C843.346 280.544 842.496 281.151 841.47 281.58C840.462 281.991 839.304 282.196 837.998 282.196ZM858.911 280.376V270.016H853.171L853.087 272.424C853.049 273.283 852.993 274.113 852.919 274.916C852.844 275.7 852.723 276.428 852.555 277.1C852.387 277.753 852.144 278.295 851.827 278.724C851.509 279.153 851.089 279.433 850.567 279.564L847.095 279.032C847.655 279.032 848.103 278.855 848.439 278.5C848.793 278.127 849.064 277.623 849.251 276.988C849.456 276.335 849.605 275.597 849.699 274.776C849.792 273.936 849.857 273.068 849.895 272.172L850.091 267.048H862.411V280.376H858.911ZM846.563 285.332V279.032H864.623V285.332H861.347V282H849.811V285.332H846.563ZM867.748 282V267.048H871.248V276.904L879.508 267.048H882.7V282H879.2V272.144L870.968 282H867.748ZM887.409 282V267.048H890.909V273.124H898.441V267.048H901.941V282H898.441V276.092H890.909V282H887.409ZM913.603 282.196C911.942 282.196 910.486 281.869 909.235 281.216C908.003 280.544 907.042 279.629 906.351 278.472C905.679 277.315 905.343 275.999 905.343 274.524C905.343 273.031 905.67 271.715 906.323 270.576C906.995 269.419 907.91 268.513 909.067 267.86C910.243 267.207 911.578 266.88 913.071 266.88C914.527 266.88 915.825 267.197 916.963 267.832C918.102 268.467 918.998 269.363 919.651 270.52C920.305 271.677 920.631 273.04 920.631 274.608C920.631 274.757 920.622 274.925 920.603 275.112C920.603 275.299 920.594 275.476 920.575 275.644H908.115V273.32H918.727L917.355 274.048C917.374 273.189 917.197 272.433 916.823 271.78C916.45 271.127 915.937 270.613 915.283 270.24C914.649 269.867 913.911 269.68 913.071 269.68C912.213 269.68 911.457 269.867 910.803 270.24C910.169 270.613 909.665 271.136 909.291 271.808C908.937 272.461 908.759 273.236 908.759 274.132V274.692C908.759 275.588 908.965 276.381 909.375 277.072C909.786 277.763 910.365 278.295 911.111 278.668C911.858 279.041 912.717 279.228 913.687 279.228C914.527 279.228 915.283 279.097 915.955 278.836C916.627 278.575 917.225 278.164 917.747 277.604L919.623 279.76C918.951 280.544 918.102 281.151 917.075 281.58C916.067 281.991 914.91 282.196 913.603 282.196ZM924.459 282V267.048H927.959V273.124H935.491V267.048H938.991V282H935.491V276.092H927.959V282H924.459ZM943.682 282V267.048H947.182V276.904L955.442 267.048H958.634V282H955.134V272.144L946.902 282H943.682ZM970.314 282.196C968.653 282.196 967.197 281.869 965.946 281.216C964.714 280.544 963.753 279.629 963.062 278.472C962.39 277.315 962.054 275.999 962.054 274.524C962.054 273.031 962.381 271.715 963.034 270.576C963.706 269.419 964.621 268.513 965.778 267.86C966.954 267.207 968.289 266.88 969.782 266.88C971.238 266.88 972.536 267.197 973.674 267.832C974.813 268.467 975.709 269.363 976.362 270.52C977.016 271.677 977.342 273.04 977.342 274.608C977.342 274.757 977.333 274.925 977.314 275.112C977.314 275.299 977.305 275.476 977.286 275.644H964.826V273.32H975.438L974.066 274.048C974.085 273.189 973.908 272.433 973.534 271.78C973.161 271.127 972.648 270.613 971.994 270.24C971.36 269.867 970.622 269.68 969.782 269.68C968.924 269.68 968.168 269.867 967.514 270.24C966.88 270.613 966.376 271.136 966.002 271.808C965.648 272.461 965.47 273.236 965.47 274.132V274.692C965.47 275.588 965.676 276.381 966.086 277.072C966.497 277.763 967.076 278.295 967.822 278.668C968.569 279.041 969.428 279.228 970.398 279.228C971.238 279.228 971.994 279.097 972.666 278.836C973.338 278.575 973.936 278.164 974.458 277.604L976.334 279.76C975.662 280.544 974.813 281.151 973.786 281.58C972.778 281.991 971.621 282.196 970.314 282.196ZM656.215 326.928L652.239 321.524L656.215 316.092H659.379L655.487 321.524L659.379 326.928H656.215ZM662.039 326.928L658.062 321.524L662.039 316.092H665.202L661.311 321.524L665.202 326.928H662.039ZM681.755 329L675.119 319.452L678.059 317.632L685.871 329H681.755ZM668.791 329V309.4H672.375V329H668.791ZM671.283 320.74V317.604H677.891V320.74H671.283ZM678.395 319.62L675.063 319.172L681.755 309.4H685.619L678.395 319.62ZM689.102 334.628C688.374 334.628 687.646 334.507 686.918 334.264C686.19 334.021 685.584 333.685 685.098 333.256L686.498 330.68C686.853 330.997 687.254 331.249 687.702 331.436C688.15 331.623 688.608 331.716 689.074 331.716C689.709 331.716 690.222 331.557 690.614 331.24C691.006 330.923 691.37 330.391 691.706 329.644L692.574 327.684L692.854 327.264L698.51 314.048H701.87L694.87 330.204C694.404 331.324 693.881 332.211 693.302 332.864C692.742 333.517 692.108 333.975 691.398 334.236C690.708 334.497 689.942 334.628 689.102 334.628ZM692.182 329.532L685.434 314.048H689.074L694.562 326.956L692.182 329.532ZM715.025 329L709.621 321.832L712.477 320.068L719.141 329H715.025ZM704.301 329V314.048H707.801V329H704.301ZM706.765 323.008V320.096H711.833V323.008H706.765ZM712.813 321.944L709.537 321.552L715.025 314.048H718.777L712.813 321.944ZM727.782 329.196C726.251 329.196 724.888 328.869 723.694 328.216C722.499 327.544 721.556 326.629 720.866 325.472C720.175 324.315 719.83 322.999 719.83 321.524C719.83 320.031 720.175 318.715 720.866 317.576C721.556 316.419 722.499 315.513 723.694 314.86C724.888 314.207 726.251 313.88 727.782 313.88C729.331 313.88 730.703 314.207 731.898 314.86C733.111 315.513 734.054 316.409 734.726 317.548C735.416 318.687 735.762 320.012 735.762 321.524C735.762 322.999 735.416 324.315 734.726 325.472C734.054 326.629 733.111 327.544 731.898 328.216C730.703 328.869 729.331 329.196 727.782 329.196ZM727.782 326.2C728.64 326.2 729.406 326.013 730.078 325.64C730.75 325.267 731.272 324.725 731.646 324.016C732.038 323.307 732.234 322.476 732.234 321.524C732.234 320.553 732.038 319.723 731.646 319.032C731.272 318.323 730.75 317.781 730.078 317.408C729.406 317.035 728.65 316.848 727.81 316.848C726.951 316.848 726.186 317.035 725.514 317.408C724.86 317.781 724.338 318.323 723.946 319.032C723.554 319.723 723.358 320.553 723.358 321.524C723.358 322.476 723.554 323.307 723.946 324.016C724.338 324.725 724.86 325.267 725.514 325.64C726.186 326.013 726.942 326.2 727.782 326.2ZM736.871 328.972L737.039 326.032C737.17 326.051 737.291 326.069 737.403 326.088C737.515 326.107 737.618 326.116 737.711 326.116C738.29 326.116 738.738 325.939 739.055 325.584C739.372 325.229 739.606 324.753 739.755 324.156C739.923 323.54 740.035 322.859 740.091 322.112C740.166 321.347 740.222 320.581 740.259 319.816L740.511 314.048H752.607V329H749.107V316.064L749.919 317.016H742.807L743.563 316.036L743.367 319.984C743.311 321.309 743.199 322.541 743.031 323.68C742.882 324.8 742.639 325.78 742.303 326.62C741.986 327.46 741.538 328.113 740.959 328.58C740.399 329.047 739.68 329.28 738.803 329.28C738.523 329.28 738.215 329.252 737.879 329.196C737.562 329.14 737.226 329.065 736.871 328.972ZM764.825 318.976C766.747 318.976 768.213 319.405 769.221 320.264C770.229 321.123 770.733 322.336 770.733 323.904C770.733 325.528 770.173 326.797 769.053 327.712C767.933 328.608 766.355 329.047 764.321 329.028L757.321 329V314.048H760.821V318.948L764.825 318.976ZM764.013 326.452C765.039 326.471 765.823 326.256 766.365 325.808C766.906 325.36 767.177 324.707 767.177 323.848C767.177 322.989 766.906 322.373 766.365 322C765.842 321.608 765.058 321.403 764.013 321.384L760.821 321.356V326.424L764.013 326.452ZM773.809 329V314.048H777.309V320.124H784.841V314.048H788.341V329H784.841V323.092H777.309V329H773.809ZM808.124 329V314.048H811.624V329H808.124ZM800.312 318.976C802.234 318.976 803.69 319.405 804.68 320.264C805.688 321.123 806.192 322.336 806.192 323.904C806.192 325.528 805.632 326.797 804.512 327.712C803.41 328.608 801.842 329.047 799.808 329.028L793.032 329V314.048H796.532V318.948L800.312 318.976ZM799.5 326.452C800.526 326.471 801.31 326.256 801.852 325.808C802.393 325.36 802.664 324.707 802.664 323.848C802.664 322.989 802.393 322.373 801.852 322C801.329 321.608 800.545 321.403 799.5 321.384L796.532 321.356V326.424L799.5 326.452ZM816.329 329V314.048H819.829V323.904L828.089 314.048H831.281V329H827.781V319.144L819.549 329H816.329ZM823.581 312.284C822.087 312.284 820.939 311.939 820.137 311.248C819.334 310.539 818.923 309.512 818.905 308.168H821.229C821.247 308.84 821.453 309.372 821.845 309.764C822.255 310.156 822.825 310.352 823.553 310.352C824.262 310.352 824.822 310.156 825.233 309.764C825.662 309.372 825.886 308.84 825.905 308.168H828.285C828.266 309.512 827.846 310.539 827.025 311.248C826.222 311.939 825.074 312.284 823.581 312.284ZM843.727 329V314.048H847.395L853.415 324.66H851.959L858.287 314.048H861.563L861.591 329H858.427V317.8L858.987 318.164L853.387 327.432H851.875L846.247 317.912L846.919 317.744V329H843.727ZM866.286 329V314.048H869.786V323.904L878.046 314.048H881.238V329H877.738V319.144L869.506 329H866.286ZM894.234 329.196C893.02 329.196 891.91 328.916 890.902 328.356C889.912 327.796 889.119 326.956 888.522 325.836C887.943 324.697 887.654 323.26 887.654 321.524C887.654 319.769 887.934 318.332 888.494 317.212C889.072 316.092 889.856 315.261 890.846 314.72C891.835 314.16 892.964 313.88 894.234 313.88C895.708 313.88 897.006 314.197 898.126 314.832C899.264 315.467 900.16 316.353 900.814 317.492C901.486 318.631 901.822 319.975 901.822 321.524C901.822 323.073 901.486 324.427 900.814 325.584C900.16 326.723 899.264 327.609 898.126 328.244C897.006 328.879 895.708 329.196 894.234 329.196ZM885.946 334.432V314.048H889.278V317.576L889.166 321.552L889.446 325.528V334.432H885.946ZM893.842 326.2C894.682 326.2 895.428 326.013 896.082 325.64C896.754 325.267 897.286 324.725 897.678 324.016C898.07 323.307 898.266 322.476 898.266 321.524C898.266 320.553 898.07 319.723 897.678 319.032C897.286 318.323 896.754 317.781 896.082 317.408C895.428 317.035 894.682 316.848 893.842 316.848C893.002 316.848 892.246 317.035 891.574 317.408C890.902 317.781 890.37 318.323 889.978 319.032C889.586 319.723 889.39 320.553 889.39 321.524C889.39 322.476 889.586 323.307 889.978 324.016C890.37 324.725 890.902 325.267 891.574 325.64C892.246 326.013 893.002 326.2 893.842 326.2ZM906.957 326.928H903.793L907.685 321.524L903.793 316.092H906.957L910.933 321.524L906.957 326.928ZM912.781 326.928H909.617L913.509 321.524L909.617 316.092H912.781L916.757 321.524L912.781 326.928Z" fill="#622900"/>
</svg>
