<svg width="1006" height="336" viewBox="0 0 1006 336" fill="none" xmlns="http://www.w3.org/2000/svg">
<rect width="443" height="230" rx="30" fill="#FFD7B9"/>
<path d="M34.0416 282V264.584L34.9096 265.48H27.5736V262.4H44.1496V265.48H36.8136L37.6536 264.584V282H34.0416ZM46.5415 282V267.048H53.8495C55.6601 267.048 57.0788 267.384 58.1055 268.056C59.1508 268.728 59.6735 269.68 59.6735 270.912C59.6735 272.125 59.1881 273.077 58.2175 273.768C57.2468 274.44 55.9588 274.776 54.3535 274.776L54.7735 273.908C56.5841 273.908 57.9281 274.244 58.8055 274.916C59.7015 275.569 60.1495 276.531 60.1495 277.8C60.1495 279.125 59.6548 280.161 58.6655 280.908C57.6761 281.636 56.1735 282 54.1575 282H46.5415ZM49.8735 279.452H53.8775C54.8295 279.452 55.5481 279.303 56.0335 279.004C56.5188 278.687 56.7615 278.211 56.7615 277.576C56.7615 276.904 56.5375 276.409 56.0895 276.092C55.6415 275.775 54.9415 275.616 53.9895 275.616H49.8735V279.452ZM49.8735 273.292H53.5415C54.4375 273.292 55.1095 273.133 55.5575 272.816C56.0241 272.48 56.2575 272.013 56.2575 271.416C56.2575 270.8 56.0241 270.343 55.5575 270.044C55.1095 269.745 54.4375 269.596 53.5415 269.596H49.8735V273.292ZM70.5414 282.196C69.0107 282.196 67.6481 281.869 66.4534 281.216C65.2587 280.544 64.3161 279.629 63.6254 278.472C62.9347 277.315 62.5894 275.999 62.5894 274.524C62.5894 273.031 62.9347 271.715 63.6254 270.576C64.3161 269.419 65.2587 268.513 66.4534 267.86C67.6481 267.207 69.0107 266.88 70.5414 266.88C72.0907 266.88 73.4627 267.207 74.6574 267.86C75.8707 268.513 76.8134 269.409 77.4854 270.548C78.1761 271.687 78.5214 273.012 78.5214 274.524C78.5214 275.999 78.1761 277.315 77.4854 278.472C76.8134 279.629 75.8707 280.544 74.6574 281.216C73.4627 281.869 72.0907 282.196 70.5414 282.196ZM70.5414 279.2C71.4001 279.2 72.1654 279.013 72.8374 278.64C73.5094 278.267 74.0321 277.725 74.4054 277.016C74.7974 276.307 74.9934 275.476 74.9934 274.524C74.9934 273.553 74.7974 272.723 74.4054 272.032C74.0321 271.323 73.5094 270.781 72.8374 270.408C72.1654 270.035 71.4094 269.848 70.5694 269.848C69.7107 269.848 68.9454 270.035 68.2734 270.408C67.6201 270.781 67.0974 271.323 66.7054 272.032C66.3134 272.723 66.1174 273.553 66.1174 274.524C66.1174 275.476 66.3134 276.307 66.7054 277.016C67.0974 277.725 67.6201 278.267 68.2734 278.64C68.9454 279.013 69.7014 279.2 70.5414 279.2ZM90.267 282.196C89.0536 282.196 87.943 281.916 86.935 281.356C85.9456 280.796 85.1523 279.956 84.555 278.836C83.9763 277.697 83.687 276.26 83.687 274.524C83.687 272.769 83.967 271.332 84.527 270.212C85.1056 269.092 85.8896 268.261 86.879 267.72C87.8683 267.16 88.9976 266.88 90.267 266.88C91.7416 266.88 93.039 267.197 94.159 267.832C95.2976 268.467 96.1936 269.353 96.847 270.492C97.519 271.631 97.855 272.975 97.855 274.524C97.855 276.073 97.519 277.427 96.847 278.584C96.1936 279.723 95.2976 280.609 94.159 281.244C93.039 281.879 91.7416 282.196 90.267 282.196ZM81.979 287.432V267.048H85.311V270.576L85.199 274.552L85.479 278.528V287.432H81.979ZM89.875 279.2C90.715 279.2 91.4616 279.013 92.115 278.64C92.787 278.267 93.319 277.725 93.711 277.016C94.103 276.307 94.299 275.476 94.299 274.524C94.299 273.553 94.103 272.723 93.711 272.032C93.319 271.323 92.787 270.781 92.115 270.408C91.4616 270.035 90.715 269.848 89.875 269.848C89.035 269.848 88.279 270.035 87.607 270.408C86.935 270.781 86.403 271.323 86.011 272.032C85.619 272.723 85.423 273.553 85.423 274.524C85.423 275.476 85.619 276.307 86.011 277.016C86.403 277.725 86.935 278.267 87.607 278.64C88.279 279.013 89.035 279.2 89.875 279.2ZM110.774 276.092C110.065 276.428 109.309 276.708 108.506 276.932C107.722 277.137 106.892 277.24 106.014 277.24C104.129 277.24 102.664 276.801 101.618 275.924C100.573 275.047 100.05 273.684 100.05 271.836V267.048H103.55V271.612C103.55 272.601 103.83 273.32 104.39 273.768C104.969 274.216 105.762 274.44 106.77 274.44C107.442 274.44 108.114 274.356 108.786 274.188C109.458 274.02 110.121 273.787 110.774 273.488V276.092ZM110.522 282V267.048H114.022V282H110.522ZM125.701 282.196C124.04 282.196 122.584 281.869 121.333 281.216C120.101 280.544 119.14 279.629 118.449 278.472C117.777 277.315 117.441 275.999 117.441 274.524C117.441 273.031 117.768 271.715 118.421 270.576C119.093 269.419 120.008 268.513 121.165 267.86C122.341 267.207 123.676 266.88 125.169 266.88C126.625 266.88 127.922 267.197 129.061 267.832C130.2 268.467 131.096 269.363 131.749 270.52C132.402 271.677 132.729 273.04 132.729 274.608C132.729 274.757 132.72 274.925 132.701 275.112C132.701 275.299 132.692 275.476 132.673 275.644H120.213V273.32H130.825L129.453 274.048C129.472 273.189 129.294 272.433 128.921 271.78C128.548 271.127 128.034 270.613 127.381 270.24C126.746 269.867 126.009 269.68 125.169 269.68C124.31 269.68 123.554 269.867 122.901 270.24C122.266 270.613 121.762 271.136 121.389 271.808C121.034 272.461 120.857 273.236 120.857 274.132V274.692C120.857 275.588 121.062 276.381 121.473 277.072C121.884 277.763 122.462 278.295 123.209 278.668C123.956 279.041 124.814 279.228 125.785 279.228C126.625 279.228 127.381 279.097 128.053 278.836C128.725 278.575 129.322 278.164 129.845 277.604L131.721 279.76C131.049 280.544 130.2 281.151 129.173 281.58C128.165 281.991 127.008 282.196 125.701 282.196ZM143.361 282.196C141.793 282.196 140.393 281.869 139.161 281.216C137.948 280.544 136.996 279.629 136.305 278.472C135.614 277.315 135.269 275.999 135.269 274.524C135.269 273.031 135.614 271.715 136.305 270.576C136.996 269.419 137.948 268.513 139.161 267.86C140.393 267.207 141.793 266.88 143.361 266.88C144.817 266.88 146.096 267.179 147.197 267.776C148.317 268.355 149.166 269.213 149.745 270.352L147.057 271.92C146.609 271.211 146.058 270.688 145.405 270.352C144.77 270.016 144.08 269.848 143.333 269.848C142.474 269.848 141.7 270.035 141.009 270.408C140.318 270.781 139.777 271.323 139.385 272.032C138.993 272.723 138.797 273.553 138.797 274.524C138.797 275.495 138.993 276.335 139.385 277.044C139.777 277.735 140.318 278.267 141.009 278.64C141.7 279.013 142.474 279.2 143.333 279.2C144.08 279.2 144.77 279.032 145.405 278.696C146.058 278.36 146.609 277.837 147.057 277.128L149.745 278.696C149.166 279.816 148.317 280.684 147.197 281.3C146.096 281.897 144.817 282.196 143.361 282.196ZM163.551 282L158.147 274.832L161.003 273.068L167.667 282H163.551ZM152.827 282V267.048H156.327V282H152.827ZM155.291 276.008V273.096H160.359V276.008H155.291ZM161.339 274.944L158.063 274.552L163.551 267.048H167.303L161.339 274.944ZM176.307 282.196C174.776 282.196 173.414 281.869 172.219 281.216C171.024 280.544 170.082 279.629 169.391 278.472C168.7 277.315 168.355 275.999 168.355 274.524C168.355 273.031 168.7 271.715 169.391 270.576C170.082 269.419 171.024 268.513 172.219 267.86C173.414 267.207 174.776 266.88 176.307 266.88C177.856 266.88 179.228 267.207 180.423 267.86C181.636 268.513 182.579 269.409 183.251 270.548C183.942 271.687 184.287 273.012 184.287 274.524C184.287 275.999 183.942 277.315 183.251 278.472C182.579 279.629 181.636 280.544 180.423 281.216C179.228 281.869 177.856 282.196 176.307 282.196ZM176.307 279.2C177.166 279.2 177.931 279.013 178.603 278.64C179.275 278.267 179.798 277.725 180.171 277.016C180.563 276.307 180.759 275.476 180.759 274.524C180.759 273.553 180.563 272.723 180.171 272.032C179.798 271.323 179.275 270.781 178.603 270.408C177.931 270.035 177.175 269.848 176.335 269.848C175.476 269.848 174.711 270.035 174.039 270.408C173.386 270.781 172.863 271.323 172.471 272.032C172.079 272.723 171.883 273.553 171.883 274.524C171.883 275.476 172.079 276.307 172.471 277.016C172.863 277.725 173.386 278.267 174.039 278.64C174.711 279.013 175.467 279.2 176.307 279.2ZM194.717 282.196C193.055 282.196 191.599 281.869 190.349 281.216C189.117 280.544 188.155 279.629 187.465 278.472C186.793 277.315 186.457 275.999 186.457 274.524C186.457 273.031 186.783 271.715 187.437 270.576C188.109 269.419 189.023 268.513 190.181 267.86C191.357 267.207 192.691 266.88 194.185 266.88C195.641 266.88 196.938 267.197 198.077 267.832C199.215 268.467 200.111 269.363 200.765 270.52C201.418 271.677 201.745 273.04 201.745 274.608C201.745 274.757 201.735 274.925 201.717 275.112C201.717 275.299 201.707 275.476 201.689 275.644H189.229V273.32H199.841L198.469 274.048C198.487 273.189 198.31 272.433 197.937 271.78C197.563 271.127 197.05 270.613 196.397 270.24C195.762 269.867 195.025 269.68 194.185 269.68C193.326 269.68 192.57 269.867 191.917 270.24C191.282 270.613 190.778 271.136 190.405 271.808C190.05 272.461 189.873 273.236 189.873 274.132V274.692C189.873 275.588 190.078 276.381 190.489 277.072C190.899 277.763 191.478 278.295 192.225 278.668C192.971 279.041 193.83 279.228 194.801 279.228C195.641 279.228 196.397 279.097 197.069 278.836C197.741 278.575 198.338 278.164 198.861 277.604L200.737 279.76C200.065 280.544 199.215 281.151 198.189 281.58C197.181 281.991 196.023 282.196 194.717 282.196ZM219.975 282.196C218.444 282.196 217.082 281.869 215.887 281.216C214.692 280.544 213.75 279.629 213.059 278.472C212.368 277.315 212.023 275.999 212.023 274.524C212.023 273.031 212.368 271.715 213.059 270.576C213.75 269.419 214.692 268.513 215.887 267.86C217.082 267.207 218.444 266.88 219.975 266.88C221.524 266.88 222.896 267.207 224.091 267.86C225.304 268.513 226.247 269.409 226.919 270.548C227.61 271.687 227.955 273.012 227.955 274.524C227.955 275.999 227.61 277.315 226.919 278.472C226.247 279.629 225.304 280.544 224.091 281.216C222.896 281.869 221.524 282.196 219.975 282.196ZM219.975 279.2C220.834 279.2 221.599 279.013 222.271 278.64C222.943 278.267 223.466 277.725 223.839 277.016C224.231 276.307 224.427 275.476 224.427 274.524C224.427 273.553 224.231 272.723 223.839 272.032C223.466 271.323 222.943 270.781 222.271 270.408C221.599 270.035 220.843 269.848 220.003 269.848C219.144 269.848 218.379 270.035 217.707 270.408C217.054 270.781 216.531 271.323 216.139 272.032C215.747 272.723 215.551 273.553 215.551 274.524C215.551 275.476 215.747 276.307 216.139 277.016C216.531 277.725 217.054 278.267 217.707 278.64C218.379 279.013 219.135 279.2 219.975 279.2ZM238.553 282.28C237.321 282.28 236.219 282.093 235.249 281.72C234.278 281.347 233.438 280.777 232.729 280.012C232.038 279.228 231.506 278.239 231.133 277.044C230.759 275.849 230.573 274.431 230.573 272.788C230.573 271.593 230.675 270.501 230.881 269.512C231.086 268.523 231.394 267.636 231.805 266.852C232.215 266.049 232.729 265.34 233.345 264.724C233.979 264.108 234.717 263.595 235.557 263.184C236.397 262.773 237.349 262.456 238.413 262.232L245.357 260.748L245.861 263.884L239.561 265.172C239.206 265.247 238.777 265.359 238.273 265.508C237.787 265.639 237.283 265.844 236.761 266.124C236.257 266.385 235.781 266.768 235.333 267.272C234.903 267.757 234.549 268.392 234.269 269.176C234.007 269.941 233.877 270.903 233.877 272.06C233.877 272.415 233.886 272.685 233.905 272.872C233.942 273.04 233.97 273.227 233.989 273.432C234.026 273.619 234.045 273.899 234.045 274.272L232.729 272.9C233.102 271.948 233.615 271.136 234.269 270.464C234.941 269.773 235.715 269.251 236.593 268.896C237.489 268.523 238.459 268.336 239.505 268.336C240.905 268.336 242.146 268.625 243.229 269.204C244.311 269.783 245.161 270.595 245.777 271.64C246.393 272.685 246.701 273.871 246.701 275.196C246.701 276.577 246.365 277.8 245.693 278.864C245.021 279.928 244.069 280.768 242.837 281.384C241.623 281.981 240.195 282.28 238.553 282.28ZM238.833 279.452C239.673 279.452 240.41 279.275 241.045 278.92C241.698 278.547 242.202 278.043 242.557 277.408C242.93 276.773 243.117 276.064 243.117 275.28C243.117 274.496 242.93 273.815 242.557 273.236C242.202 272.639 241.698 272.163 241.045 271.808C240.41 271.453 239.654 271.276 238.777 271.276C237.937 271.276 237.181 271.444 236.509 271.78C235.855 272.116 235.342 272.583 234.969 273.18C234.614 273.759 234.437 274.431 234.437 275.196C234.437 275.98 234.623 276.699 234.997 277.352C235.37 278.005 235.883 278.519 236.537 278.892C237.209 279.265 237.974 279.452 238.833 279.452ZM259.117 271.948C261.021 271.948 262.468 272.387 263.457 273.264C264.447 274.123 264.941 275.327 264.941 276.876C264.941 278.519 264.381 279.788 263.261 280.684C262.16 281.561 260.592 282 258.557 282H251.809V270.016H247.385V267.048H255.309V271.948H259.117ZM258.389 279.424C259.379 279.424 260.125 279.2 260.629 278.752C261.133 278.304 261.385 277.651 261.385 276.792C261.385 275.187 260.387 274.384 258.389 274.384H255.309V279.424H258.389ZM274.998 282.196C273.336 282.196 271.88 281.869 270.63 281.216C269.398 280.544 268.436 279.629 267.746 278.472C267.074 277.315 266.738 275.999 266.738 274.524C266.738 273.031 267.064 271.715 267.718 270.576C268.39 269.419 269.304 268.513 270.462 267.86C271.638 267.207 272.972 266.88 274.466 266.88C275.922 266.88 277.219 267.197 278.358 267.832C279.496 268.467 280.392 269.363 281.046 270.52C281.699 271.677 282.026 273.04 282.026 274.608C282.026 274.757 282.016 274.925 281.998 275.112C281.998 275.299 281.988 275.476 281.97 275.644H269.51V273.32H280.122L278.75 274.048C278.768 273.189 278.591 272.433 278.218 271.78C277.844 271.127 277.331 270.613 276.678 270.24C276.043 269.867 275.306 269.68 274.466 269.68C273.607 269.68 272.851 269.867 272.198 270.24C271.563 270.613 271.059 271.136 270.686 271.808C270.331 272.461 270.154 273.236 270.154 274.132V274.692C270.154 275.588 270.359 276.381 270.77 277.072C271.18 277.763 271.759 278.295 272.506 278.668C273.252 279.041 274.111 279.228 275.082 279.228C275.922 279.228 276.678 279.097 277.35 278.836C278.022 278.575 278.619 278.164 279.142 277.604L281.018 279.76C280.346 280.544 279.496 281.151 278.47 281.58C277.462 281.991 276.304 282.196 274.998 282.196ZM295.911 280.376V270.016H290.171L290.087 272.424C290.049 273.283 289.993 274.113 289.919 274.916C289.844 275.7 289.723 276.428 289.555 277.1C289.387 277.753 289.144 278.295 288.827 278.724C288.509 279.153 288.089 279.433 287.567 279.564L284.095 279.032C284.655 279.032 285.103 278.855 285.439 278.5C285.793 278.127 286.064 277.623 286.251 276.988C286.456 276.335 286.605 275.597 286.699 274.776C286.792 273.936 286.857 273.068 286.895 272.172L287.091 267.048H299.411V280.376H295.911ZM283.563 285.332V279.032H301.623V285.332H298.347V282H286.811V285.332H283.563ZM304.748 282V267.048H308.248V276.904L316.508 267.048H319.7V282H316.2V272.144L307.968 282H304.748ZM324.409 282V267.048H327.909V273.124H335.441V267.048H338.941V282H335.441V276.092H327.909V282H324.409ZM350.603 282.196C348.942 282.196 347.486 281.869 346.235 281.216C345.003 280.544 344.042 279.629 343.351 278.472C342.679 277.315 342.343 275.999 342.343 274.524C342.343 273.031 342.67 271.715 343.323 270.576C343.995 269.419 344.91 268.513 346.067 267.86C347.243 267.207 348.578 266.88 350.071 266.88C351.527 266.88 352.825 267.197 353.963 267.832C355.102 268.467 355.998 269.363 356.651 270.52C357.305 271.677 357.631 273.04 357.631 274.608C357.631 274.757 357.622 274.925 357.603 275.112C357.603 275.299 357.594 275.476 357.575 275.644H345.115V273.32H355.727L354.355 274.048C354.374 273.189 354.197 272.433 353.823 271.78C353.45 271.127 352.937 270.613 352.283 270.24C351.649 269.867 350.911 269.68 350.071 269.68C349.213 269.68 348.457 269.867 347.803 270.24C347.169 270.613 346.665 271.136 346.291 271.808C345.937 272.461 345.759 273.236 345.759 274.132V274.692C345.759 275.588 345.965 276.381 346.375 277.072C346.786 277.763 347.365 278.295 348.111 278.668C348.858 279.041 349.717 279.228 350.687 279.228C351.527 279.228 352.283 279.097 352.955 278.836C353.627 278.575 354.225 278.164 354.747 277.604L356.623 279.76C355.951 280.544 355.102 281.151 354.075 281.58C353.067 281.991 351.91 282.196 350.603 282.196ZM361.459 282V267.048H364.959V273.124H372.491V267.048H375.991V282H372.491V276.092H364.959V282H361.459ZM380.682 282V267.048H384.182V276.904L392.442 267.048H395.634V282H392.134V272.144L383.902 282H380.682ZM407.314 282.196C405.653 282.196 404.197 281.869 402.946 281.216C401.714 280.544 400.753 279.629 400.062 278.472C399.39 277.315 399.054 275.999 399.054 274.524C399.054 273.031 399.381 271.715 400.034 270.576C400.706 269.419 401.621 268.513 402.778 267.86C403.954 267.207 405.289 266.88 406.782 266.88C408.238 266.88 409.536 267.197 410.674 267.832C411.813 268.467 412.709 269.363 413.362 270.52C414.016 271.677 414.342 273.04 414.342 274.608C414.342 274.757 414.333 274.925 414.314 275.112C414.314 275.299 414.305 275.476 414.286 275.644H401.826V273.32H412.438L411.066 274.048C411.085 273.189 410.908 272.433 410.534 271.78C410.161 271.127 409.648 270.613 408.994 270.24C408.36 269.867 407.622 269.68 406.782 269.68C405.924 269.68 405.168 269.867 404.514 270.24C403.88 270.613 403.376 271.136 403.002 271.808C402.648 272.461 402.47 273.236 402.47 274.132V274.692C402.47 275.588 402.676 276.381 403.086 277.072C403.497 277.763 404.076 278.295 404.822 278.668C405.569 279.041 406.428 279.228 407.398 279.228C408.238 279.228 408.994 279.097 409.666 278.836C410.338 278.575 410.936 278.164 411.458 277.604L413.334 279.76C412.662 280.544 411.813 281.151 410.786 281.58C409.778 281.991 408.621 282.196 407.314 282.196ZM129.787 326.928L125.811 321.524L129.787 316.092H132.951L129.059 321.524L132.951 326.928H129.787ZM135.611 326.928L131.635 321.524L135.611 316.092H138.775L134.883 321.524L138.775 326.928H135.611ZM142.363 329V309.4H150.427C152.163 309.4 153.647 309.68 154.879 310.24C156.13 310.8 157.091 311.603 157.763 312.648C158.435 313.693 158.771 314.935 158.771 316.372C158.771 317.809 158.435 319.051 157.763 320.096C157.091 321.141 156.13 321.944 154.879 322.504C153.647 323.064 152.163 323.344 150.427 323.344H144.379L146.003 321.636V329H142.363ZM146.003 322.028L144.379 320.264H150.259C151.864 320.264 153.068 319.928 153.871 319.256C154.692 318.565 155.103 317.604 155.103 316.372C155.103 315.121 154.692 314.16 153.871 313.488C153.068 312.816 151.864 312.48 150.259 312.48H144.379L146.003 310.688V322.028ZM163.303 334.628C162.575 334.628 161.847 334.507 161.119 334.264C160.391 334.021 159.785 333.685 159.299 333.256L160.699 330.68C161.054 330.997 161.455 331.249 161.903 331.436C162.351 331.623 162.809 331.716 163.275 331.716C163.91 331.716 164.423 331.557 164.815 331.24C165.207 330.923 165.571 330.391 165.907 329.644L166.775 327.684L167.055 327.264L172.711 314.048H176.071L169.071 330.204C168.605 331.324 168.082 332.211 167.503 332.864C166.943 333.517 166.309 333.975 165.599 334.236C164.909 334.497 164.143 334.628 163.303 334.628ZM166.383 329.532L159.635 314.048H163.275L168.763 326.956L166.383 329.532ZM189.226 329L183.822 321.832L186.678 320.068L193.342 329H189.226ZM178.502 329V314.048H182.002V329H178.502ZM180.966 323.008V320.096H186.034V323.008H180.966ZM187.014 321.944L183.738 321.552L189.226 314.048H192.978L187.014 321.944ZM201.983 329.196C200.452 329.196 199.089 328.869 197.895 328.216C196.7 327.544 195.757 326.629 195.067 325.472C194.376 324.315 194.031 322.999 194.031 321.524C194.031 320.031 194.376 318.715 195.067 317.576C195.757 316.419 196.7 315.513 197.895 314.86C199.089 314.207 200.452 313.88 201.983 313.88C203.532 313.88 204.904 314.207 206.099 314.86C207.312 315.513 208.255 316.409 208.927 317.548C209.617 318.687 209.963 320.012 209.963 321.524C209.963 322.999 209.617 324.315 208.927 325.472C208.255 326.629 207.312 327.544 206.099 328.216C204.904 328.869 203.532 329.196 201.983 329.196ZM201.983 326.2C202.841 326.2 203.607 326.013 204.279 325.64C204.951 325.267 205.473 324.725 205.847 324.016C206.239 323.307 206.435 322.476 206.435 321.524C206.435 320.553 206.239 319.723 205.847 319.032C205.473 318.323 204.951 317.781 204.279 317.408C203.607 317.035 202.851 316.848 202.011 316.848C201.152 316.848 200.387 317.035 199.715 317.408C199.061 317.781 198.539 318.323 198.147 319.032C197.755 319.723 197.559 320.553 197.559 321.524C197.559 322.476 197.755 323.307 198.147 324.016C198.539 324.725 199.061 325.267 199.715 325.64C200.387 326.013 201.143 326.2 201.983 326.2ZM223.504 327.376V317.016H217.764L217.68 319.424C217.643 320.283 217.587 321.113 217.512 321.916C217.438 322.7 217.316 323.428 217.148 324.1C216.98 324.753 216.738 325.295 216.42 325.724C216.103 326.153 215.683 326.433 215.16 326.564L211.688 326.032C212.248 326.032 212.696 325.855 213.032 325.5C213.387 325.127 213.658 324.623 213.844 323.988C214.05 323.335 214.199 322.597 214.292 321.776C214.386 320.936 214.451 320.068 214.488 319.172L214.684 314.048H227.004V327.376H223.504ZM211.156 332.332V326.032H229.216V332.332H225.94V329H214.404V332.332H211.156ZM239.314 329.196C237.653 329.196 236.197 328.869 234.946 328.216C233.714 327.544 232.753 326.629 232.062 325.472C231.39 324.315 231.054 322.999 231.054 321.524C231.054 320.031 231.381 318.715 232.034 317.576C232.706 316.419 233.621 315.513 234.778 314.86C235.954 314.207 237.289 313.88 238.782 313.88C240.238 313.88 241.536 314.197 242.674 314.832C243.813 315.467 244.709 316.363 245.362 317.52C246.016 318.677 246.342 320.04 246.342 321.608C246.342 321.757 246.333 321.925 246.314 322.112C246.314 322.299 246.305 322.476 246.286 322.644H233.826V320.32H244.438L243.066 321.048C243.085 320.189 242.908 319.433 242.534 318.78C242.161 318.127 241.648 317.613 240.994 317.24C240.36 316.867 239.622 316.68 238.782 316.68C237.924 316.68 237.168 316.867 236.514 317.24C235.88 317.613 235.376 318.136 235.002 318.808C234.648 319.461 234.47 320.236 234.47 321.132V321.692C234.47 322.588 234.676 323.381 235.086 324.072C235.497 324.763 236.076 325.295 236.822 325.668C237.569 326.041 238.428 326.228 239.398 326.228C240.238 326.228 240.994 326.097 241.666 325.836C242.338 325.575 242.936 325.164 243.458 324.604L245.334 326.76C244.662 327.544 243.813 328.151 242.786 328.58C241.778 328.991 240.621 329.196 239.314 329.196ZM247.795 328.972L247.963 326.032C248.094 326.051 248.215 326.069 248.327 326.088C248.439 326.107 248.542 326.116 248.635 326.116C249.214 326.116 249.662 325.939 249.979 325.584C250.296 325.229 250.53 324.753 250.679 324.156C250.847 323.54 250.959 322.859 251.015 322.112C251.09 321.347 251.146 320.581 251.183 319.816L251.435 314.048H263.531V329H260.031V316.064L260.843 317.016H253.731L254.487 316.036L254.291 319.984C254.235 321.309 254.123 322.541 253.955 323.68C253.806 324.8 253.563 325.78 253.227 326.62C252.91 327.46 252.462 328.113 251.883 328.58C251.323 329.047 250.604 329.28 249.727 329.28C249.447 329.28 249.139 329.252 248.803 329.196C248.486 329.14 248.15 329.065 247.795 328.972ZM268.245 329V314.048H271.745V323.904L280.005 314.048H283.197V329H279.697V319.144L271.465 329H268.245ZM294.877 329.196C293.215 329.196 291.759 328.869 290.509 328.216C289.277 327.544 288.315 326.629 287.625 325.472C286.953 324.315 286.617 322.999 286.617 321.524C286.617 320.031 286.943 318.715 287.597 317.576C288.269 316.419 289.183 315.513 290.341 314.86C291.517 314.207 292.851 313.88 294.345 313.88C295.801 313.88 297.098 314.197 298.237 314.832C299.375 315.467 300.271 316.363 300.925 317.52C301.578 318.677 301.905 320.04 301.905 321.608C301.905 321.757 301.895 321.925 301.877 322.112C301.877 322.299 301.867 322.476 301.849 322.644H289.389V320.32H300.001L298.629 321.048C298.647 320.189 298.47 319.433 298.097 318.78C297.723 318.127 297.21 317.613 296.557 317.24C295.922 316.867 295.185 316.68 294.345 316.68C293.486 316.68 292.73 316.867 292.077 317.24C291.442 317.613 290.938 318.136 290.565 318.808C290.21 319.461 290.033 320.236 290.033 321.132V321.692C290.033 322.588 290.238 323.381 290.649 324.072C291.059 324.763 291.638 325.295 292.385 325.668C293.131 326.041 293.99 326.228 294.961 326.228C295.801 326.228 296.557 326.097 297.229 325.836C297.901 325.575 298.498 325.164 299.021 324.604L300.897 326.76C300.225 327.544 299.375 328.151 298.349 328.58C297.341 328.991 296.183 329.196 294.877 329.196ZM307.385 326.928H304.221L308.113 321.524L304.221 316.092H307.385L311.361 321.524L307.385 326.928ZM313.209 326.928H310.045L313.937 321.524L310.045 316.092H313.209L317.185 321.524L313.209 326.928Z" fill="#622900"/>
<rect x="563" width="443" height="230" rx="30" fill="#FFD7B9"/>
<path d="M597.042 282V264.584L597.91 265.48H590.574V262.4H607.15V265.48H599.814L600.654 264.584V282H597.042ZM609.541 282V267.048H616.849C618.66 267.048 620.079 267.384 621.105 268.056C622.151 268.728 622.673 269.68 622.673 270.912C622.673 272.125 622.188 273.077 621.217 273.768C620.247 274.44 618.959 274.776 617.353 274.776L617.773 273.908C619.584 273.908 620.928 274.244 621.805 274.916C622.701 275.569 623.149 276.531 623.149 277.8C623.149 279.125 622.655 280.161 621.665 280.908C620.676 281.636 619.173 282 617.157 282H609.541ZM612.873 279.452H616.877C617.829 279.452 618.548 279.303 619.033 279.004C619.519 278.687 619.761 278.211 619.761 277.576C619.761 276.904 619.537 276.409 619.089 276.092C618.641 275.775 617.941 275.616 616.989 275.616H612.873V279.452ZM612.873 273.292H616.541C617.437 273.292 618.109 273.133 618.557 272.816C619.024 272.48 619.257 272.013 619.257 271.416C619.257 270.8 619.024 270.343 618.557 270.044C618.109 269.745 617.437 269.596 616.541 269.596H612.873V273.292ZM633.541 282.196C632.011 282.196 630.648 281.869 629.453 281.216C628.259 280.544 627.316 279.629 626.625 278.472C625.935 277.315 625.589 275.999 625.589 274.524C625.589 273.031 625.935 271.715 626.625 270.576C627.316 269.419 628.259 268.513 629.453 267.86C630.648 267.207 632.011 266.88 633.541 266.88C635.091 266.88 636.463 267.207 637.657 267.86C638.871 268.513 639.813 269.409 640.485 270.548C641.176 271.687 641.521 273.012 641.521 274.524C641.521 275.999 641.176 277.315 640.485 278.472C639.813 279.629 638.871 280.544 637.657 281.216C636.463 281.869 635.091 282.196 633.541 282.196ZM633.541 279.2C634.4 279.2 635.165 279.013 635.837 278.64C636.509 278.267 637.032 277.725 637.405 277.016C637.797 276.307 637.993 275.476 637.993 274.524C637.993 273.553 637.797 272.723 637.405 272.032C637.032 271.323 636.509 270.781 635.837 270.408C635.165 270.035 634.409 269.848 633.569 269.848C632.711 269.848 631.945 270.035 631.273 270.408C630.62 270.781 630.097 271.323 629.705 272.032C629.313 272.723 629.117 273.553 629.117 274.524C629.117 275.476 629.313 276.307 629.705 277.016C630.097 277.725 630.62 278.267 631.273 278.64C631.945 279.013 632.701 279.2 633.541 279.2ZM653.267 282.196C652.054 282.196 650.943 281.916 649.935 281.356C648.946 280.796 648.152 279.956 647.555 278.836C646.976 277.697 646.687 276.26 646.687 274.524C646.687 272.769 646.967 271.332 647.527 270.212C648.106 269.092 648.89 268.261 649.879 267.72C650.868 267.16 651.998 266.88 653.267 266.88C654.742 266.88 656.039 267.197 657.159 267.832C658.298 268.467 659.194 269.353 659.847 270.492C660.519 271.631 660.855 272.975 660.855 274.524C660.855 276.073 660.519 277.427 659.847 278.584C659.194 279.723 658.298 280.609 657.159 281.244C656.039 281.879 654.742 282.196 653.267 282.196ZM644.979 287.432V267.048H648.311V270.576L648.199 274.552L648.479 278.528V287.432H644.979ZM652.875 279.2C653.715 279.2 654.462 279.013 655.115 278.64C655.787 278.267 656.319 277.725 656.711 277.016C657.103 276.307 657.299 275.476 657.299 274.524C657.299 273.553 657.103 272.723 656.711 272.032C656.319 271.323 655.787 270.781 655.115 270.408C654.462 270.035 653.715 269.848 652.875 269.848C652.035 269.848 651.279 270.035 650.607 270.408C649.935 270.781 649.403 271.323 649.011 272.032C648.619 272.723 648.423 273.553 648.423 274.524C648.423 275.476 648.619 276.307 649.011 277.016C649.403 277.725 649.935 278.267 650.607 278.64C651.279 279.013 652.035 279.2 652.875 279.2ZM673.774 276.092C673.065 276.428 672.309 276.708 671.506 276.932C670.722 277.137 669.892 277.24 669.014 277.24C667.129 277.24 665.664 276.801 664.618 275.924C663.573 275.047 663.05 273.684 663.05 271.836V267.048H666.55V271.612C666.55 272.601 666.83 273.32 667.39 273.768C667.969 274.216 668.762 274.44 669.77 274.44C670.442 274.44 671.114 274.356 671.786 274.188C672.458 274.02 673.121 273.787 673.774 273.488V276.092ZM673.522 282V267.048H677.022V282H673.522ZM688.701 282.196C687.04 282.196 685.584 281.869 684.333 281.216C683.101 280.544 682.14 279.629 681.449 278.472C680.777 277.315 680.441 275.999 680.441 274.524C680.441 273.031 680.768 271.715 681.421 270.576C682.093 269.419 683.008 268.513 684.165 267.86C685.341 267.207 686.676 266.88 688.169 266.88C689.625 266.88 690.922 267.197 692.061 267.832C693.2 268.467 694.096 269.363 694.749 270.52C695.402 271.677 695.729 273.04 695.729 274.608C695.729 274.757 695.72 274.925 695.701 275.112C695.701 275.299 695.692 275.476 695.673 275.644H683.213V273.32H693.825L692.453 274.048C692.472 273.189 692.294 272.433 691.921 271.78C691.548 271.127 691.034 270.613 690.381 270.24C689.746 269.867 689.009 269.68 688.169 269.68C687.31 269.68 686.554 269.867 685.901 270.24C685.266 270.613 684.762 271.136 684.389 271.808C684.034 272.461 683.857 273.236 683.857 274.132V274.692C683.857 275.588 684.062 276.381 684.473 277.072C684.884 277.763 685.462 278.295 686.209 278.668C686.956 279.041 687.814 279.228 688.785 279.228C689.625 279.228 690.381 279.097 691.053 278.836C691.725 278.575 692.322 278.164 692.845 277.604L694.721 279.76C694.049 280.544 693.2 281.151 692.173 281.58C691.165 281.991 690.008 282.196 688.701 282.196ZM706.361 282.196C704.793 282.196 703.393 281.869 702.161 281.216C700.948 280.544 699.996 279.629 699.305 278.472C698.614 277.315 698.269 275.999 698.269 274.524C698.269 273.031 698.614 271.715 699.305 270.576C699.996 269.419 700.948 268.513 702.161 267.86C703.393 267.207 704.793 266.88 706.361 266.88C707.817 266.88 709.096 267.179 710.197 267.776C711.317 268.355 712.166 269.213 712.745 270.352L710.057 271.92C709.609 271.211 709.058 270.688 708.405 270.352C707.77 270.016 707.08 269.848 706.333 269.848C705.474 269.848 704.7 270.035 704.009 270.408C703.318 270.781 702.777 271.323 702.385 272.032C701.993 272.723 701.797 273.553 701.797 274.524C701.797 275.495 701.993 276.335 702.385 277.044C702.777 277.735 703.318 278.267 704.009 278.64C704.7 279.013 705.474 279.2 706.333 279.2C707.08 279.2 707.77 279.032 708.405 278.696C709.058 278.36 709.609 277.837 710.057 277.128L712.745 278.696C712.166 279.816 711.317 280.684 710.197 281.3C709.096 281.897 707.817 282.196 706.361 282.196ZM726.551 282L721.147 274.832L724.003 273.068L730.667 282H726.551ZM715.827 282V267.048H719.327V282H715.827ZM718.291 276.008V273.096H723.359V276.008H718.291ZM724.339 274.944L721.063 274.552L726.551 267.048H730.303L724.339 274.944ZM739.307 282.196C737.776 282.196 736.414 281.869 735.219 281.216C734.024 280.544 733.082 279.629 732.391 278.472C731.7 277.315 731.355 275.999 731.355 274.524C731.355 273.031 731.7 271.715 732.391 270.576C733.082 269.419 734.024 268.513 735.219 267.86C736.414 267.207 737.776 266.88 739.307 266.88C740.856 266.88 742.228 267.207 743.423 267.86C744.636 268.513 745.579 269.409 746.251 270.548C746.942 271.687 747.287 273.012 747.287 274.524C747.287 275.999 746.942 277.315 746.251 278.472C745.579 279.629 744.636 280.544 743.423 281.216C742.228 281.869 740.856 282.196 739.307 282.196ZM739.307 279.2C740.166 279.2 740.931 279.013 741.603 278.64C742.275 278.267 742.798 277.725 743.171 277.016C743.563 276.307 743.759 275.476 743.759 274.524C743.759 273.553 743.563 272.723 743.171 272.032C742.798 271.323 742.275 270.781 741.603 270.408C740.931 270.035 740.175 269.848 739.335 269.848C738.476 269.848 737.711 270.035 737.039 270.408C736.386 270.781 735.863 271.323 735.471 272.032C735.079 272.723 734.883 273.553 734.883 274.524C734.883 275.476 735.079 276.307 735.471 277.016C735.863 277.725 736.386 278.267 737.039 278.64C737.711 279.013 738.467 279.2 739.307 279.2ZM757.717 282.196C756.055 282.196 754.599 281.869 753.349 281.216C752.117 280.544 751.155 279.629 750.465 278.472C749.793 277.315 749.457 275.999 749.457 274.524C749.457 273.031 749.783 271.715 750.437 270.576C751.109 269.419 752.023 268.513 753.181 267.86C754.357 267.207 755.691 266.88 757.185 266.88C758.641 266.88 759.938 267.197 761.077 267.832C762.215 268.467 763.111 269.363 763.765 270.52C764.418 271.677 764.745 273.04 764.745 274.608C764.745 274.757 764.735 274.925 764.717 275.112C764.717 275.299 764.707 275.476 764.689 275.644H752.229V273.32H762.841L761.469 274.048C761.487 273.189 761.31 272.433 760.937 271.78C760.563 271.127 760.05 270.613 759.397 270.24C758.762 269.867 758.025 269.68 757.185 269.68C756.326 269.68 755.57 269.867 754.917 270.24C754.282 270.613 753.778 271.136 753.405 271.808C753.05 272.461 752.873 273.236 752.873 274.132V274.692C752.873 275.588 753.078 276.381 753.489 277.072C753.899 277.763 754.478 278.295 755.225 278.668C755.971 279.041 756.83 279.228 757.801 279.228C758.641 279.228 759.397 279.097 760.069 278.836C760.741 278.575 761.338 278.164 761.861 277.604L763.737 279.76C763.065 280.544 762.215 281.151 761.189 281.58C760.181 281.991 759.023 282.196 757.717 282.196ZM782.975 282.196C781.444 282.196 780.082 281.869 778.887 281.216C777.692 280.544 776.75 279.629 776.059 278.472C775.368 277.315 775.023 275.999 775.023 274.524C775.023 273.031 775.368 271.715 776.059 270.576C776.75 269.419 777.692 268.513 778.887 267.86C780.082 267.207 781.444 266.88 782.975 266.88C784.524 266.88 785.896 267.207 787.091 267.86C788.304 268.513 789.247 269.409 789.919 270.548C790.61 271.687 790.955 273.012 790.955 274.524C790.955 275.999 790.61 277.315 789.919 278.472C789.247 279.629 788.304 280.544 787.091 281.216C785.896 281.869 784.524 282.196 782.975 282.196ZM782.975 279.2C783.834 279.2 784.599 279.013 785.271 278.64C785.943 278.267 786.466 277.725 786.839 277.016C787.231 276.307 787.427 275.476 787.427 274.524C787.427 273.553 787.231 272.723 786.839 272.032C786.466 271.323 785.943 270.781 785.271 270.408C784.599 270.035 783.843 269.848 783.003 269.848C782.144 269.848 781.379 270.035 780.707 270.408C780.054 270.781 779.531 271.323 779.139 272.032C778.747 272.723 778.551 273.553 778.551 274.524C778.551 275.476 778.747 276.307 779.139 277.016C779.531 277.725 780.054 278.267 780.707 278.64C781.379 279.013 782.135 279.2 782.975 279.2ZM801.553 282.28C800.321 282.28 799.219 282.093 798.249 281.72C797.278 281.347 796.438 280.777 795.729 280.012C795.038 279.228 794.506 278.239 794.133 277.044C793.759 275.849 793.573 274.431 793.573 272.788C793.573 271.593 793.675 270.501 793.881 269.512C794.086 268.523 794.394 267.636 794.805 266.852C795.215 266.049 795.729 265.34 796.345 264.724C796.979 264.108 797.717 263.595 798.557 263.184C799.397 262.773 800.349 262.456 801.413 262.232L808.357 260.748L808.861 263.884L802.561 265.172C802.206 265.247 801.777 265.359 801.273 265.508C800.787 265.639 800.283 265.844 799.761 266.124C799.257 266.385 798.781 266.768 798.333 267.272C797.903 267.757 797.549 268.392 797.269 269.176C797.007 269.941 796.877 270.903 796.877 272.06C796.877 272.415 796.886 272.685 796.905 272.872C796.942 273.04 796.97 273.227 796.989 273.432C797.026 273.619 797.045 273.899 797.045 274.272L795.729 272.9C796.102 271.948 796.615 271.136 797.269 270.464C797.941 269.773 798.715 269.251 799.593 268.896C800.489 268.523 801.459 268.336 802.505 268.336C803.905 268.336 805.146 268.625 806.229 269.204C807.311 269.783 808.161 270.595 808.777 271.64C809.393 272.685 809.701 273.871 809.701 275.196C809.701 276.577 809.365 277.8 808.693 278.864C808.021 279.928 807.069 280.768 805.837 281.384C804.623 281.981 803.195 282.28 801.553 282.28ZM801.833 279.452C802.673 279.452 803.41 279.275 804.045 278.92C804.698 278.547 805.202 278.043 805.557 277.408C805.93 276.773 806.117 276.064 806.117 275.28C806.117 274.496 805.93 273.815 805.557 273.236C805.202 272.639 804.698 272.163 804.045 271.808C803.41 271.453 802.654 271.276 801.777 271.276C800.937 271.276 800.181 271.444 799.509 271.78C798.855 272.116 798.342 272.583 797.969 273.18C797.614 273.759 797.437 274.431 797.437 275.196C797.437 275.98 797.623 276.699 797.997 277.352C798.37 278.005 798.883 278.519 799.537 278.892C800.209 279.265 800.974 279.452 801.833 279.452ZM822.117 271.948C824.021 271.948 825.468 272.387 826.457 273.264C827.447 274.123 827.941 275.327 827.941 276.876C827.941 278.519 827.381 279.788 826.261 280.684C825.16 281.561 823.592 282 821.557 282H814.809V270.016H810.385V267.048H818.309V271.948H822.117ZM821.389 279.424C822.379 279.424 823.125 279.2 823.629 278.752C824.133 278.304 824.385 277.651 824.385 276.792C824.385 275.187 823.387 274.384 821.389 274.384H818.309V279.424H821.389ZM837.998 282.196C836.336 282.196 834.88 281.869 833.63 281.216C832.398 280.544 831.436 279.629 830.746 278.472C830.074 277.315 829.738 275.999 829.738 274.524C829.738 273.031 830.064 271.715 830.718 270.576C831.39 269.419 832.304 268.513 833.462 267.86C834.638 267.207 835.972 266.88 837.466 266.88C838.922 266.88 840.219 267.197 841.358 267.832C842.496 268.467 843.392 269.363 844.046 270.52C844.699 271.677 845.026 273.04 845.026 274.608C845.026 274.757 845.016 274.925 844.998 275.112C844.998 275.299 844.988 275.476 844.97 275.644H832.51V273.32H843.122L841.75 274.048C841.768 273.189 841.591 272.433 841.218 271.78C840.844 271.127 840.331 270.613 839.678 270.24C839.043 269.867 838.306 269.68 837.466 269.68C836.607 269.68 835.851 269.867 835.198 270.24C834.563 270.613 834.059 271.136 833.686 271.808C833.331 272.461 833.154 273.236 833.154 274.132V274.692C833.154 275.588 833.359 276.381 833.77 277.072C834.18 277.763 834.759 278.295 835.506 278.668C836.252 279.041 837.111 279.228 838.082 279.228C838.922 279.228 839.678 279.097 840.35 278.836C841.022 278.575 841.619 278.164 842.142 277.604L844.018 279.76C843.346 280.544 842.496 281.151 841.47 281.58C840.462 281.991 839.304 282.196 837.998 282.196ZM858.911 280.376V270.016H853.171L853.087 272.424C853.049 273.283 852.993 274.113 852.919 274.916C852.844 275.7 852.723 276.428 852.555 277.1C852.387 277.753 852.144 278.295 851.827 278.724C851.509 279.153 851.089 279.433 850.567 279.564L847.095 279.032C847.655 279.032 848.103 278.855 848.439 278.5C848.793 278.127 849.064 277.623 849.251 276.988C849.456 276.335 849.605 275.597 849.699 274.776C849.792 273.936 849.857 273.068 849.895 272.172L850.091 267.048H862.411V280.376H858.911ZM846.563 285.332V279.032H864.623V285.332H861.347V282H849.811V285.332H846.563ZM867.748 282V267.048H871.248V276.904L879.508 267.048H882.7V282H879.2V272.144L870.968 282H867.748ZM887.409 282V267.048H890.909V273.124H898.441V267.048H901.941V282H898.441V276.092H890.909V282H887.409ZM913.603 282.196C911.942 282.196 910.486 281.869 909.235 281.216C908.003 280.544 907.042 279.629 906.351 278.472C905.679 277.315 905.343 275.999 905.343 274.524C905.343 273.031 905.67 271.715 906.323 270.576C906.995 269.419 907.91 268.513 909.067 267.86C910.243 267.207 911.578 266.88 913.071 266.88C914.527 266.88 915.825 267.197 916.963 267.832C918.102 268.467 918.998 269.363 919.651 270.52C920.305 271.677 920.631 273.04 920.631 274.608C920.631 274.757 920.622 274.925 920.603 275.112C920.603 275.299 920.594 275.476 920.575 275.644H908.115V273.32H918.727L917.355 274.048C917.374 273.189 917.197 272.433 916.823 271.78C916.45 271.127 915.937 270.613 915.283 270.24C914.649 269.867 913.911 269.68 913.071 269.68C912.213 269.68 911.457 269.867 910.803 270.24C910.169 270.613 909.665 271.136 909.291 271.808C908.937 272.461 908.759 273.236 908.759 274.132V274.692C908.759 275.588 908.965 276.381 909.375 277.072C909.786 277.763 910.365 278.295 911.111 278.668C911.858 279.041 912.717 279.228 913.687 279.228C914.527 279.228 915.283 279.097 915.955 278.836C916.627 278.575 917.225 278.164 917.747 277.604L919.623 279.76C918.951 280.544 918.102 281.151 917.075 281.58C916.067 281.991 914.91 282.196 913.603 282.196ZM924.459 282V267.048H927.959V273.124H935.491V267.048H938.991V282H935.491V276.092H927.959V282H924.459ZM943.682 282V267.048H947.182V276.904L955.442 267.048H958.634V282H955.134V272.144L946.902 282H943.682ZM970.314 282.196C968.653 282.196 967.197 281.869 965.946 281.216C964.714 280.544 963.753 279.629 963.062 278.472C962.39 277.315 962.054 275.999 962.054 274.524C962.054 273.031 962.381 271.715 963.034 270.576C963.706 269.419 964.621 268.513 965.778 267.86C966.954 267.207 968.289 266.88 969.782 266.88C971.238 266.88 972.536 267.197 973.674 267.832C974.813 268.467 975.709 269.363 976.362 270.52C977.016 271.677 977.342 273.04 977.342 274.608C977.342 274.757 977.333 274.925 977.314 275.112C977.314 275.299 977.305 275.476 977.286 275.644H964.826V273.32H975.438L974.066 274.048C974.085 273.189 973.908 272.433 973.534 271.78C973.161 271.127 972.648 270.613 971.994 270.24C971.36 269.867 970.622 269.68 969.782 269.68C968.924 269.68 968.168 269.867 967.514 270.24C966.88 270.613 966.376 271.136 966.002 271.808C965.648 272.461 965.47 273.236 965.47 274.132V274.692C965.47 275.588 965.676 276.381 966.086 277.072C966.497 277.763 967.076 278.295 967.822 278.668C968.569 279.041 969.428 279.228 970.398 279.228C971.238 279.228 971.994 279.097 972.666 278.836C973.338 278.575 973.936 278.164 974.458 277.604L976.334 279.76C975.662 280.544 974.813 281.151 973.786 281.58C972.778 281.991 971.621 282.196 970.314 282.196ZM571.216 326.928L567.24 321.524L571.216 316.092H574.38L570.488 321.524L574.38 326.928H571.216ZM577.04 326.928L573.064 321.524L577.04 316.092H580.204L576.312 321.524L580.204 326.928H577.04ZM583.821 329V309.4H599.081V312.396H587.405V317.212H593.201C595.553 317.212 597.335 317.707 598.549 318.696C599.781 319.667 600.397 321.085 600.397 322.952C600.397 324.875 599.715 326.368 598.353 327.432C597.009 328.477 595.105 329 592.641 329H583.821ZM587.405 326.2H592.445C593.845 326.2 594.909 325.929 595.637 325.388C596.365 324.847 596.729 324.063 596.729 323.036C596.729 321.02 595.301 320.012 592.445 320.012H587.405V326.2ZM604.979 334.628C604.251 334.628 603.523 334.507 602.795 334.264C602.067 334.021 601.461 333.685 600.975 333.256L602.375 330.68C602.73 330.997 603.131 331.249 603.579 331.436C604.027 331.623 604.485 331.716 604.951 331.716C605.586 331.716 606.099 331.557 606.491 331.24C606.883 330.923 607.247 330.391 607.583 329.644L608.451 327.684L608.731 327.264L614.387 314.048H617.747L610.747 330.204C610.281 331.324 609.758 332.211 609.179 332.864C608.619 333.517 607.985 333.975 607.275 334.236C606.585 334.497 605.819 334.628 604.979 334.628ZM608.059 329.532L601.311 314.048H604.951L610.439 326.956L608.059 329.532ZM620.178 329V314.048H623.846L629.866 324.66H628.41L634.738 314.048H638.014L638.042 329H634.878V317.8L635.438 318.164L629.838 327.432H628.326L622.698 317.912L623.37 317.744V329H620.178ZM651.809 329V325.976L651.613 325.332V320.04C651.613 319.013 651.305 318.22 650.689 317.66C650.073 317.081 649.139 316.792 647.889 316.792C647.049 316.792 646.218 316.923 645.397 317.184C644.594 317.445 643.913 317.809 643.353 318.276L641.981 315.728C642.783 315.112 643.735 314.655 644.837 314.356C645.957 314.039 647.114 313.88 648.309 313.88C650.474 313.88 652.145 314.403 653.321 315.448C654.515 316.475 655.113 318.071 655.113 320.236V329H651.809ZM647.105 329.196C645.985 329.196 645.005 329.009 644.165 328.636C643.325 328.244 642.671 327.712 642.205 327.04C641.757 326.349 641.533 325.575 641.533 324.716C641.533 323.876 641.729 323.12 642.121 322.448C642.531 321.776 643.194 321.244 644.109 320.852C645.023 320.46 646.237 320.264 647.749 320.264H652.089V322.588H648.001C646.806 322.588 646.003 322.784 645.593 323.176C645.182 323.549 644.977 324.016 644.977 324.576C644.977 325.211 645.229 325.715 645.733 326.088C646.237 326.461 646.937 326.648 647.833 326.648C648.691 326.648 649.457 326.452 650.129 326.06C650.819 325.668 651.314 325.089 651.613 324.324L652.201 326.424C651.865 327.301 651.258 327.983 650.381 328.468C649.522 328.953 648.43 329.196 647.105 329.196ZM677.28 329L672.912 321.832L675.768 320.068L681.452 329H677.28ZM670.084 323.008V320.096H675.096V323.008H670.084ZM676.104 321.944L672.8 321.552L677.336 314.048H681.06L676.104 321.944ZM661.488 329H657.344L663 320.068L665.856 321.832L661.488 329ZM671.12 329H667.648V314.048H671.12V329ZM668.684 323.008H663.7V320.096H668.684V323.008ZM662.664 321.944L657.708 314.048H661.432L665.94 321.552L662.664 321.944ZM684.053 329V314.048H687.553V320.124H695.085V314.048H698.585V329H695.085V323.092H687.553V329H684.053ZM709.94 329.196C708.409 329.196 707.046 328.869 705.852 328.216C704.657 327.544 703.714 326.629 703.024 325.472C702.333 324.315 701.988 322.999 701.988 321.524C701.988 320.031 702.333 318.715 703.024 317.576C703.714 316.419 704.657 315.513 705.852 314.86C707.046 314.207 708.409 313.88 709.94 313.88C711.489 313.88 712.861 314.207 714.056 314.86C715.269 315.513 716.212 316.409 716.884 317.548C717.574 318.687 717.92 320.012 717.92 321.524C717.92 322.999 717.574 324.315 716.884 325.472C716.212 326.629 715.269 327.544 714.056 328.216C712.861 328.869 711.489 329.196 709.94 329.196ZM709.94 326.2C710.798 326.2 711.564 326.013 712.236 325.64C712.908 325.267 713.43 324.725 713.804 324.016C714.196 323.307 714.392 322.476 714.392 321.524C714.392 320.553 714.196 319.723 713.804 319.032C713.43 318.323 712.908 317.781 712.236 317.408C711.564 317.035 710.808 316.848 709.968 316.848C709.109 316.848 708.344 317.035 707.672 317.408C707.018 317.781 706.496 318.323 706.104 319.032C705.712 319.723 705.516 320.553 705.516 321.524C705.516 322.476 705.712 323.307 706.104 324.016C706.496 324.725 707.018 325.267 707.672 325.64C708.344 326.013 709.1 326.2 709.94 326.2ZM728.349 329.196C726.688 329.196 725.232 328.869 723.981 328.216C722.749 327.544 721.788 326.629 721.097 325.472C720.425 324.315 720.089 322.999 720.089 321.524C720.089 320.031 720.416 318.715 721.069 317.576C721.741 316.419 722.656 315.513 723.813 314.86C724.989 314.207 726.324 313.88 727.817 313.88C729.273 313.88 730.571 314.197 731.709 314.832C732.848 315.467 733.744 316.363 734.397 317.52C735.051 318.677 735.377 320.04 735.377 321.608C735.377 321.757 735.368 321.925 735.349 322.112C735.349 322.299 735.34 322.476 735.321 322.644H722.861V320.32H733.473L732.101 321.048C732.12 320.189 731.943 319.433 731.569 318.78C731.196 318.127 730.683 317.613 730.029 317.24C729.395 316.867 728.657 316.68 727.817 316.68C726.959 316.68 726.203 316.867 725.549 317.24C724.915 317.613 724.411 318.136 724.037 318.808C723.683 319.461 723.505 320.236 723.505 321.132V321.692C723.505 322.588 723.711 323.381 724.121 324.072C724.532 324.763 725.111 325.295 725.857 325.668C726.604 326.041 727.463 326.228 728.433 326.228C729.273 326.228 730.029 326.097 730.701 325.836C731.373 325.575 731.971 325.164 732.493 324.604L734.369 326.76C733.697 327.544 732.848 328.151 731.821 328.58C730.813 328.991 729.656 329.196 728.349 329.196ZM746.944 329V314.048H750.612L756.632 324.66H755.176L761.504 314.048H764.78L764.808 329H761.644V317.8L762.204 318.164L756.604 327.432H755.092L749.464 317.912L750.136 317.744V329H746.944ZM776.166 329.196C774.636 329.196 773.273 328.869 772.078 328.216C770.884 327.544 769.941 326.629 769.25 325.472C768.56 324.315 768.214 322.999 768.214 321.524C768.214 320.031 768.56 318.715 769.25 317.576C769.941 316.419 770.884 315.513 772.078 314.86C773.273 314.207 774.636 313.88 776.166 313.88C777.716 313.88 779.088 314.207 780.282 314.86C781.496 315.513 782.438 316.409 783.11 317.548C783.801 318.687 784.146 320.012 784.146 321.524C784.146 322.999 783.801 324.315 783.11 325.472C782.438 326.629 781.496 327.544 780.282 328.216C779.088 328.869 777.716 329.196 776.166 329.196ZM776.166 326.2C777.025 326.2 777.79 326.013 778.462 325.64C779.134 325.267 779.657 324.725 780.03 324.016C780.422 323.307 780.618 322.476 780.618 321.524C780.618 320.553 780.422 319.723 780.03 319.032C779.657 318.323 779.134 317.781 778.462 317.408C777.79 317.035 777.034 316.848 776.194 316.848C775.336 316.848 774.57 317.035 773.898 317.408C773.245 317.781 772.722 318.323 772.33 319.032C771.938 319.723 771.742 320.553 771.742 321.524C771.742 322.476 771.938 323.307 772.33 324.016C772.722 324.725 773.245 325.267 773.898 325.64C774.57 326.013 775.326 326.2 776.166 326.2ZM797.688 327.376V317.016H791.948L791.864 319.424C791.827 320.283 791.771 321.113 791.696 321.916C791.621 322.7 791.5 323.428 791.332 324.1C791.164 324.753 790.921 325.295 790.604 325.724C790.287 326.153 789.867 326.433 789.344 326.564L785.872 326.032C786.432 326.032 786.88 325.855 787.216 325.5C787.571 325.127 787.841 324.623 788.028 323.988C788.233 323.335 788.383 322.597 788.476 321.776C788.569 320.936 788.635 320.068 788.672 319.172L788.868 314.048H801.188V327.376H797.688ZM785.34 332.332V326.032H803.4V332.332H800.124V329H788.588V332.332H785.34ZM813.498 329.196C811.836 329.196 810.38 328.869 809.13 328.216C807.898 327.544 806.936 326.629 806.246 325.472C805.574 324.315 805.238 322.999 805.238 321.524C805.238 320.031 805.564 318.715 806.218 317.576C806.89 316.419 807.804 315.513 808.962 314.86C810.138 314.207 811.472 313.88 812.966 313.88C814.422 313.88 815.719 314.197 816.858 314.832C817.996 315.467 818.892 316.363 819.546 317.52C820.199 318.677 820.526 320.04 820.526 321.608C820.526 321.757 820.516 321.925 820.498 322.112C820.498 322.299 820.488 322.476 820.47 322.644H808.01V320.32H818.622L817.25 321.048C817.268 320.189 817.091 319.433 816.718 318.78C816.344 318.127 815.831 317.613 815.178 317.24C814.543 316.867 813.806 316.68 812.966 316.68C812.107 316.68 811.351 316.867 810.698 317.24C810.063 317.613 809.559 318.136 809.186 318.808C808.831 319.461 808.654 320.236 808.654 321.132V321.692C808.654 322.588 808.859 323.381 809.27 324.072C809.68 324.763 810.259 325.295 811.006 325.668C811.752 326.041 812.611 326.228 813.582 326.228C814.422 326.228 815.178 326.097 815.85 325.836C816.522 325.575 817.119 325.164 817.642 324.604L819.518 326.76C818.846 327.544 817.996 328.151 816.97 328.58C815.962 328.991 814.804 329.196 813.498 329.196ZM821.979 328.972L822.147 326.032C822.277 326.051 822.399 326.069 822.511 326.088C822.623 326.107 822.725 326.116 822.819 326.116C823.397 326.116 823.845 325.939 824.163 325.584C824.48 325.229 824.713 324.753 824.863 324.156C825.031 323.54 825.143 322.859 825.199 322.112C825.273 321.347 825.329 320.581 825.367 319.816L825.619 314.048H837.715V329H834.215V316.064L835.027 317.016H827.915L828.671 316.036L828.475 319.984C828.419 321.309 828.307 322.541 828.139 323.68C827.989 324.8 827.747 325.78 827.411 326.62C827.093 327.46 826.645 328.113 826.067 328.58C825.507 329.047 824.788 329.28 823.911 329.28C823.631 329.28 823.323 329.252 822.987 329.196C822.669 329.14 822.333 329.065 821.979 328.972ZM842.428 329V314.048H845.928V323.904L854.188 314.048H857.38V329H853.88V319.144L845.648 329H842.428ZM870.376 329.196C869.163 329.196 868.052 328.916 867.044 328.356C866.055 327.796 865.262 326.956 864.664 325.836C864.086 324.697 863.796 323.26 863.796 321.524C863.796 319.769 864.076 318.332 864.636 317.212C865.215 316.092 865.999 315.261 866.988 314.72C867.978 314.16 869.107 313.88 870.376 313.88C871.851 313.88 873.148 314.197 874.268 314.832C875.407 315.467 876.303 316.353 876.956 317.492C877.628 318.631 877.964 319.975 877.964 321.524C877.964 323.073 877.628 324.427 876.956 325.584C876.303 326.723 875.407 327.609 874.268 328.244C873.148 328.879 871.851 329.196 870.376 329.196ZM862.088 334.432V314.048H865.42V317.576L865.308 321.552L865.588 325.528V334.432H862.088ZM869.984 326.2C870.824 326.2 871.571 326.013 872.224 325.64C872.896 325.267 873.428 324.725 873.82 324.016C874.212 323.307 874.408 322.476 874.408 321.524C874.408 320.553 874.212 319.723 873.82 319.032C873.428 318.323 872.896 317.781 872.224 317.408C871.571 317.035 870.824 316.848 869.984 316.848C869.144 316.848 868.388 317.035 867.716 317.408C867.044 317.781 866.512 318.323 866.12 319.032C865.728 319.723 865.532 320.553 865.532 321.524C865.532 322.476 865.728 323.307 866.12 324.016C866.512 324.725 867.044 325.267 867.716 325.64C868.388 326.013 869.144 326.2 869.984 326.2ZM888.112 329.196C886.581 329.196 885.218 328.869 884.024 328.216C882.829 327.544 881.886 326.629 881.196 325.472C880.505 324.315 880.16 322.999 880.16 321.524C880.16 320.031 880.505 318.715 881.196 317.576C881.886 316.419 882.829 315.513 884.024 314.86C885.218 314.207 886.581 313.88 888.112 313.88C889.661 313.88 891.033 314.207 892.228 314.86C893.441 315.513 894.384 316.409 895.056 317.548C895.746 318.687 896.092 320.012 896.092 321.524C896.092 322.999 895.746 324.315 895.056 325.472C894.384 326.629 893.441 327.544 892.228 328.216C891.033 328.869 889.661 329.196 888.112 329.196ZM888.112 326.2C888.97 326.2 889.736 326.013 890.408 325.64C891.08 325.267 891.602 324.725 891.976 324.016C892.368 323.307 892.564 322.476 892.564 321.524C892.564 320.553 892.368 319.723 891.976 319.032C891.602 318.323 891.08 317.781 890.408 317.408C889.736 317.035 888.98 316.848 888.14 316.848C887.281 316.848 886.516 317.035 885.844 317.408C885.19 317.781 884.668 318.323 884.276 319.032C883.884 319.723 883.688 320.553 883.688 321.524C883.688 322.476 883.884 323.307 884.276 324.016C884.668 324.725 885.19 325.267 885.844 325.64C886.516 326.013 887.272 326.2 888.112 326.2ZM899.549 329V314.048H906.857C908.668 314.048 910.087 314.384 911.113 315.056C912.159 315.728 912.681 316.68 912.681 317.912C912.681 319.125 912.196 320.077 911.225 320.768C910.255 321.44 908.967 321.776 907.361 321.776L907.781 320.908C909.592 320.908 910.936 321.244 911.813 321.916C912.709 322.569 913.157 323.531 913.157 324.8C913.157 326.125 912.663 327.161 911.673 327.908C910.684 328.636 909.181 329 907.165 329H899.549ZM902.881 326.452H906.885C907.837 326.452 908.556 326.303 909.041 326.004C909.527 325.687 909.769 325.211 909.769 324.576C909.769 323.904 909.545 323.409 909.097 323.092C908.649 322.775 907.949 322.616 906.997 322.616H902.881V326.452ZM902.881 320.292H906.549C907.445 320.292 908.117 320.133 908.565 319.816C909.032 319.48 909.265 319.013 909.265 318.416C909.265 317.8 909.032 317.343 908.565 317.044C908.117 316.745 907.445 316.596 906.549 316.596H902.881V320.292ZM925.957 329V325.976L925.761 325.332V320.04C925.761 319.013 925.453 318.22 924.837 317.66C924.221 317.081 923.288 316.792 922.037 316.792C921.197 316.792 920.367 316.923 919.545 317.184C918.743 317.445 918.061 317.809 917.501 318.276L916.129 315.728C916.932 315.112 917.884 314.655 918.985 314.356C920.105 314.039 921.263 313.88 922.457 313.88C924.623 313.88 926.293 314.403 927.469 315.448C928.664 316.475 929.261 318.071 929.261 320.236V329H925.957ZM921.253 329.196C920.133 329.196 919.153 329.009 918.313 328.636C917.473 328.244 916.82 327.712 916.353 327.04C915.905 326.349 915.681 325.575 915.681 324.716C915.681 323.876 915.877 323.12 916.269 322.448C916.68 321.776 917.343 321.244 918.257 320.852C919.172 320.46 920.385 320.264 921.897 320.264H926.237V322.588H922.149C920.955 322.588 920.152 322.784 919.741 323.176C919.331 323.549 919.125 324.016 919.125 324.576C919.125 325.211 919.377 325.715 919.881 326.088C920.385 326.461 921.085 326.648 921.981 326.648C922.84 326.648 923.605 326.452 924.277 326.06C924.968 325.668 925.463 325.089 925.761 324.324L926.349 326.424C926.013 327.301 925.407 327.983 924.529 328.468C923.671 328.953 922.579 329.196 921.253 329.196ZM933.592 329V314.048H937.092V320.124H944.624V314.048H948.124V329H944.624V323.092H937.092V329H933.592ZM952.815 329V314.048H956.315V323.904L964.575 314.048H967.767V329H964.267V319.144L956.035 329H952.815ZM979.447 329.196C977.786 329.196 976.33 328.869 975.079 328.216C973.847 327.544 972.886 326.629 972.195 325.472C971.523 324.315 971.187 322.999 971.187 321.524C971.187 320.031 971.514 318.715 972.167 317.576C972.839 316.419 973.754 315.513 974.911 314.86C976.087 314.207 977.422 313.88 978.915 313.88C980.371 313.88 981.668 314.197 982.807 314.832C983.946 315.467 984.842 316.363 985.495 317.52C986.148 318.677 986.475 320.04 986.475 321.608C986.475 321.757 986.466 321.925 986.447 322.112C986.447 322.299 986.438 322.476 986.419 322.644H973.959V320.32H984.571L983.199 321.048C983.218 320.189 983.04 319.433 982.667 318.78C982.294 318.127 981.78 317.613 981.127 317.24C980.492 316.867 979.755 316.68 978.915 316.68C978.056 316.68 977.3 316.867 976.647 317.24C976.012 317.613 975.508 318.136 975.135 318.808C974.78 319.461 974.603 320.236 974.603 321.132V321.692C974.603 322.588 974.808 323.381 975.219 324.072C975.63 324.763 976.208 325.295 976.955 325.668C977.702 326.041 978.56 326.228 979.531 326.228C980.371 326.228 981.127 326.097 981.799 325.836C982.471 325.575 983.068 325.164 983.591 324.604L985.467 326.76C984.795 327.544 983.946 328.151 982.919 328.58C981.911 328.991 980.754 329.196 979.447 329.196ZM991.955 326.928H988.791L992.683 321.524L988.791 316.092H991.955L995.931 321.524L991.955 326.928ZM997.779 326.928H994.615L998.507 321.524L994.615 316.092H997.779L1001.76 321.524L997.779 326.928Z" fill="#622900"/>
</svg>
