<svg width="1008" height="336" viewBox="0 0 1008 336" fill="none" xmlns="http://www.w3.org/2000/svg">
<rect width="443" height="230" rx="30" fill="#FFD7B9"/>
<path d="M128.139 282.28C126.608 282.28 125.199 282.028 123.911 281.524C122.623 281.02 121.503 280.32 120.551 279.424C119.599 278.509 118.862 277.445 118.339 276.232C117.816 275 117.555 273.656 117.555 272.2C117.555 270.744 117.816 269.409 118.339 268.196C118.862 266.964 119.599 265.9 120.551 265.004C121.503 264.089 122.623 263.38 123.911 262.876C125.199 262.372 126.599 262.12 128.111 262.12C129.642 262.12 131.042 262.372 132.311 262.876C133.599 263.38 134.719 264.089 135.671 265.004C136.623 265.9 137.36 266.964 137.883 268.196C138.406 269.409 138.667 270.744 138.667 272.2C138.667 273.656 138.406 275 137.883 276.232C137.36 277.464 136.623 278.528 135.671 279.424C134.719 280.32 133.599 281.02 132.311 281.524C131.042 282.028 129.651 282.28 128.139 282.28ZM128.111 279.088C129.1 279.088 130.015 278.92 130.855 278.584C131.695 278.248 132.423 277.772 133.039 277.156C133.655 276.521 134.131 275.793 134.467 274.972C134.822 274.132 134.999 273.208 134.999 272.2C134.999 271.192 134.822 270.277 134.467 269.456C134.131 268.616 133.655 267.888 133.039 267.272C132.423 266.637 131.695 266.152 130.855 265.816C130.015 265.48 129.1 265.312 128.111 265.312C127.122 265.312 126.207 265.48 125.367 265.816C124.546 266.152 123.818 266.637 123.183 267.272C122.567 267.888 122.082 268.616 121.727 269.456C121.391 270.277 121.223 271.192 121.223 272.2C121.223 273.189 121.391 274.104 121.727 274.944C122.082 275.784 122.567 276.521 123.183 277.156C123.799 277.772 124.527 278.248 125.367 278.584C126.207 278.92 127.122 279.088 128.111 279.088ZM149.439 282.28C148.207 282.28 147.106 282.093 146.135 281.72C145.165 281.347 144.325 280.777 143.615 280.012C142.925 279.228 142.393 278.239 142.019 277.044C141.646 275.849 141.459 274.431 141.459 272.788C141.459 271.593 141.562 270.501 141.767 269.512C141.973 268.523 142.281 267.636 142.691 266.852C143.102 266.049 143.615 265.34 144.231 264.724C144.866 264.108 145.603 263.595 146.443 263.184C147.283 262.773 148.235 262.456 149.299 262.232L156.243 260.748L156.747 263.884L150.447 265.172C150.093 265.247 149.663 265.359 149.159 265.508C148.674 265.639 148.17 265.844 147.647 266.124C147.143 266.385 146.667 266.768 146.219 267.272C145.79 267.757 145.435 268.392 145.155 269.176C144.894 269.941 144.763 270.903 144.763 272.06C144.763 272.415 144.773 272.685 144.791 272.872C144.829 273.04 144.857 273.227 144.875 273.432C144.913 273.619 144.931 273.899 144.931 274.272L143.615 272.9C143.989 271.948 144.502 271.136 145.155 270.464C145.827 269.773 146.602 269.251 147.479 268.896C148.375 268.523 149.346 268.336 150.391 268.336C151.791 268.336 153.033 268.625 154.115 269.204C155.198 269.783 156.047 270.595 156.663 271.64C157.279 272.685 157.587 273.871 157.587 275.196C157.587 276.577 157.251 277.8 156.579 278.864C155.907 279.928 154.955 280.768 153.723 281.384C152.51 281.981 151.082 282.28 149.439 282.28ZM149.719 279.452C150.559 279.452 151.297 279.275 151.931 278.92C152.585 278.547 153.089 278.043 153.443 277.408C153.817 276.773 154.003 276.064 154.003 275.28C154.003 274.496 153.817 273.815 153.443 273.236C153.089 272.639 152.585 272.163 151.931 271.808C151.297 271.453 150.541 271.276 149.663 271.276C148.823 271.276 148.067 271.444 147.395 271.78C146.742 272.116 146.229 272.583 145.855 273.18C145.501 273.759 145.323 274.431 145.323 275.196C145.323 275.98 145.51 276.699 145.883 277.352C146.257 278.005 146.77 278.519 147.423 278.892C148.095 279.265 148.861 279.452 149.719 279.452ZM170.004 271.948C171.908 271.948 173.355 272.387 174.344 273.264C175.334 274.123 175.828 275.327 175.828 276.876C175.828 278.519 175.268 279.788 174.148 280.684C173.047 281.561 171.479 282 169.444 282H162.696V270.016H158.272V267.048H166.196V271.948H170.004ZM169.276 279.424C170.266 279.424 171.012 279.2 171.516 278.752C172.02 278.304 172.272 277.651 172.272 276.792C172.272 275.187 171.274 274.384 169.276 274.384H166.196V279.424H169.276ZM185.885 282.196C184.223 282.196 182.767 281.869 181.517 281.216C180.285 280.544 179.323 279.629 178.633 278.472C177.961 277.315 177.625 275.999 177.625 274.524C177.625 273.031 177.951 271.715 178.605 270.576C179.277 269.419 180.191 268.513 181.349 267.86C182.525 267.207 183.859 266.88 185.353 266.88C186.809 266.88 188.106 267.197 189.245 267.832C190.383 268.467 191.279 269.363 191.933 270.52C192.586 271.677 192.913 273.04 192.913 274.608C192.913 274.757 192.903 274.925 192.885 275.112C192.885 275.299 192.875 275.476 192.857 275.644H180.397V273.32H191.009L189.637 274.048C189.655 273.189 189.478 272.433 189.105 271.78C188.731 271.127 188.218 270.613 187.565 270.24C186.93 269.867 186.193 269.68 185.353 269.68C184.494 269.68 183.738 269.867 183.085 270.24C182.45 270.613 181.946 271.136 181.573 271.808C181.218 272.461 181.041 273.236 181.041 274.132V274.692C181.041 275.588 181.246 276.381 181.657 277.072C182.067 277.763 182.646 278.295 183.393 278.668C184.139 279.041 184.998 279.228 185.969 279.228C186.809 279.228 187.565 279.097 188.237 278.836C188.909 278.575 189.506 278.164 190.029 277.604L191.905 279.76C191.233 280.544 190.383 281.151 189.357 281.58C188.349 281.991 187.191 282.196 185.885 282.196ZM206.797 280.376V270.016H201.057L200.973 272.424C200.936 273.283 200.88 274.113 200.805 274.916C200.731 275.7 200.609 276.428 200.441 277.1C200.273 277.753 200.031 278.295 199.713 278.724C199.396 279.153 198.976 279.433 198.453 279.564L194.981 279.032C195.541 279.032 195.989 278.855 196.325 278.5C196.68 278.127 196.951 277.623 197.137 276.988C197.343 276.335 197.492 275.597 197.585 274.776C197.679 273.936 197.744 273.068 197.781 272.172L197.977 267.048H210.297V280.376H206.797ZM194.449 285.332V279.032H212.509V285.332H209.233V282H197.697V285.332H194.449ZM215.635 282V267.048H219.135V276.904L227.395 267.048H230.587V282H227.087V272.144L218.855 282H215.635ZM235.295 282V267.048H238.795V273.124H246.327V267.048H249.827V282H246.327V276.092H238.795V282H235.295ZM261.49 282.196C259.829 282.196 258.373 281.869 257.122 281.216C255.89 280.544 254.929 279.629 254.238 278.472C253.566 277.315 253.23 275.999 253.23 274.524C253.23 273.031 253.557 271.715 254.21 270.576C254.882 269.419 255.797 268.513 256.954 267.86C258.13 267.207 259.465 266.88 260.958 266.88C262.414 266.88 263.711 267.197 264.85 267.832C265.989 268.467 266.885 269.363 267.538 270.52C268.191 271.677 268.518 273.04 268.518 274.608C268.518 274.757 268.509 274.925 268.49 275.112C268.49 275.299 268.481 275.476 268.462 275.644H256.002V273.32H266.614L265.242 274.048C265.261 273.189 265.083 272.433 264.71 271.78C264.337 271.127 263.823 270.613 263.17 270.24C262.535 269.867 261.798 269.68 260.958 269.68C260.099 269.68 259.343 269.867 258.69 270.24C258.055 270.613 257.551 271.136 257.178 271.808C256.823 272.461 256.646 273.236 256.646 274.132V274.692C256.646 275.588 256.851 276.381 257.262 277.072C257.673 277.763 258.251 278.295 258.998 278.668C259.745 279.041 260.603 279.228 261.574 279.228C262.414 279.228 263.17 279.097 263.842 278.836C264.514 278.575 265.111 278.164 265.634 277.604L267.51 279.76C266.838 280.544 265.989 281.151 264.962 281.58C263.954 281.991 262.797 282.196 261.49 282.196ZM272.346 282V267.048H275.846V273.124H283.378V267.048H286.878V282H283.378V276.092H275.846V282H272.346ZM291.569 282V267.048H295.069V276.904L303.329 267.048H306.521V282H303.021V272.144L294.789 282H291.569ZM318.201 282.196C316.54 282.196 315.084 281.869 313.833 281.216C312.601 280.544 311.64 279.629 310.949 278.472C310.277 277.315 309.941 275.999 309.941 274.524C309.941 273.031 310.268 271.715 310.921 270.576C311.593 269.419 312.508 268.513 313.665 267.86C314.841 267.207 316.176 266.88 317.669 266.88C319.125 266.88 320.422 267.197 321.561 267.832C322.7 268.467 323.596 269.363 324.249 270.52C324.902 271.677 325.229 273.04 325.229 274.608C325.229 274.757 325.22 274.925 325.201 275.112C325.201 275.299 325.192 275.476 325.173 275.644H312.713V273.32H323.325L321.953 274.048C321.972 273.189 321.794 272.433 321.421 271.78C321.048 271.127 320.534 270.613 319.881 270.24C319.246 269.867 318.509 269.68 317.669 269.68C316.81 269.68 316.054 269.867 315.401 270.24C314.766 270.613 314.262 271.136 313.889 271.808C313.534 272.461 313.357 273.236 313.357 274.132V274.692C313.357 275.588 313.562 276.381 313.973 277.072C314.384 277.763 314.962 278.295 315.709 278.668C316.456 279.041 317.314 279.228 318.285 279.228C319.125 279.228 319.881 279.097 320.553 278.836C321.225 278.575 321.822 278.164 322.345 277.604L324.221 279.76C323.549 280.544 322.7 281.151 321.673 281.58C320.665 281.991 319.508 282.196 318.201 282.196ZM91.8544 303.708L93.4784 297.492L93.9544 299.592C93.3011 299.592 92.7504 299.387 92.3024 298.976C91.8731 298.565 91.6584 298.015 91.6584 297.324C91.6584 296.633 91.8731 296.083 92.3024 295.672C92.7504 295.243 93.2918 295.028 93.9264 295.028C94.5798 295.028 95.1211 295.243 95.5504 295.672C95.9798 296.101 96.1944 296.652 96.1944 297.324C96.1944 297.529 96.1758 297.744 96.1384 297.968C96.1198 298.173 96.0638 298.416 95.9704 298.696C95.8958 298.957 95.7651 299.303 95.5784 299.732L94.1224 303.708H91.8544ZM97.7904 303.708L99.4144 297.492L99.8904 299.592C99.2371 299.592 98.6864 299.387 98.2384 298.976C97.8091 298.565 97.5944 298.015 97.5944 297.324C97.5944 296.633 97.8091 296.083 98.2384 295.672C98.6864 295.243 99.2278 295.028 99.8624 295.028C100.516 295.028 101.057 295.243 101.486 295.672C101.916 296.101 102.13 296.652 102.13 297.324C102.13 297.529 102.112 297.744 102.074 297.968C102.056 298.173 102 298.416 101.906 298.696C101.832 298.957 101.701 299.303 101.514 299.732L100.058 303.708H97.7904ZM106.024 316V296.4H109.608V304.436H114.676V307.684H109.608V316H106.024ZM122.768 316.28C121.312 316.28 119.968 316.028 118.736 315.524C117.504 315.02 116.431 314.32 115.516 313.424C114.601 312.528 113.883 311.464 113.36 310.232C112.856 309 112.604 307.656 112.604 306.2C112.604 304.744 112.856 303.4 113.36 302.168C113.883 300.936 114.601 299.872 115.516 298.976C116.431 298.08 117.504 297.38 118.736 296.876C119.968 296.372 121.312 296.12 122.768 296.12C124.205 296.12 125.54 296.372 126.772 296.876C128.023 297.38 129.105 298.08 130.02 298.976C130.935 299.872 131.644 300.936 132.148 302.168C132.652 303.4 132.904 304.744 132.904 306.2C132.904 307.656 132.652 309 132.148 310.232C131.644 311.464 130.935 312.528 130.02 313.424C129.105 314.32 128.023 315.02 126.772 315.524C125.54 316.028 124.205 316.28 122.768 316.28ZM122.768 313.088C123.683 313.088 124.532 312.92 125.316 312.584C126.119 312.248 126.809 311.772 127.388 311.156C127.967 310.54 128.415 309.821 128.732 309C129.068 308.16 129.236 307.227 129.236 306.2C129.236 305.173 129.068 304.249 128.732 303.428C128.415 302.588 127.967 301.86 127.388 301.244C126.809 300.628 126.119 300.152 125.316 299.816C124.532 299.48 123.683 299.312 122.768 299.312C121.853 299.312 121.004 299.48 120.22 299.816C119.436 300.152 118.745 300.628 118.148 301.244C117.569 301.86 117.112 302.588 116.776 303.428C116.459 304.249 116.3 305.173 116.3 306.2C116.3 307.227 116.459 308.16 116.776 309C117.112 309.821 117.569 310.54 118.148 311.156C118.745 311.772 119.436 312.248 120.22 312.584C121.004 312.92 121.853 313.088 122.768 313.088ZM136.584 316V301.048H140.084V307.124H147.616V301.048H151.116V316H147.616V310.092H140.084V316H136.584ZM170.899 316V301.048H174.399V316H170.899ZM163.087 305.976C165.01 305.976 166.466 306.405 167.455 307.264C168.463 308.123 168.967 309.336 168.967 310.904C168.967 312.528 168.407 313.797 167.287 314.712C166.186 315.608 164.618 316.047 162.583 316.028L155.807 316V301.048H159.307V305.948L163.087 305.976ZM162.275 313.452C163.302 313.471 164.086 313.256 164.627 312.808C165.168 312.36 165.439 311.707 165.439 310.848C165.439 309.989 165.168 309.373 164.627 309C164.104 308.608 163.32 308.403 162.275 308.384L159.307 308.356V313.424L162.275 313.452ZM179.104 316V301.048H182.604V310.904L190.864 301.048H194.056V316H190.556V306.144L182.324 316H179.104ZM186.356 299.284C184.863 299.284 183.715 298.939 182.912 298.248C182.109 297.539 181.699 296.512 181.68 295.168H184.004C184.023 295.84 184.228 296.372 184.62 296.764C185.031 297.156 185.6 297.352 186.328 297.352C187.037 297.352 187.597 297.156 188.008 296.764C188.437 296.372 188.661 295.84 188.68 295.168H191.06C191.041 296.512 190.621 297.539 189.8 298.248C188.997 298.939 187.849 299.284 186.356 299.284ZM206.502 316V301.048H220.838V316H217.366V303.204L218.178 304.016H209.19L210.002 303.204V316H206.502ZM232.533 316.196C230.872 316.196 229.416 315.869 228.165 315.216C226.933 314.544 225.972 313.629 225.281 312.472C224.609 311.315 224.273 309.999 224.273 308.524C224.273 307.031 224.6 305.715 225.253 304.576C225.925 303.419 226.84 302.513 227.997 301.86C229.173 301.207 230.508 300.88 232.001 300.88C233.457 300.88 234.754 301.197 235.893 301.832C237.032 302.467 237.928 303.363 238.581 304.52C239.234 305.677 239.561 307.04 239.561 308.608C239.561 308.757 239.552 308.925 239.533 309.112C239.533 309.299 239.524 309.476 239.505 309.644H227.045V307.32H237.657L236.285 308.048C236.304 307.189 236.126 306.433 235.753 305.78C235.38 305.127 234.866 304.613 234.213 304.24C233.578 303.867 232.841 303.68 232.001 303.68C231.142 303.68 230.386 303.867 229.733 304.24C229.098 304.613 228.594 305.136 228.221 305.808C227.866 306.461 227.689 307.236 227.689 308.132V308.692C227.689 309.588 227.894 310.381 228.305 311.072C228.716 311.763 229.294 312.295 230.041 312.668C230.788 313.041 231.646 313.228 232.617 313.228C233.457 313.228 234.213 313.097 234.885 312.836C235.557 312.575 236.154 312.164 236.677 311.604L238.553 313.76C237.881 314.544 237.032 315.151 236.005 315.58C234.997 315.991 233.84 316.196 232.533 316.196ZM253.441 313.032L252.685 313.872V301.048H256.185V313.872L255.345 313.032H262.737L261.925 313.872V301.048H265.425V316H243.389V301.048H246.889V313.872L246.077 313.032H253.441ZM277.103 316.196C275.442 316.196 273.986 315.869 272.735 315.216C271.503 314.544 270.542 313.629 269.851 312.472C269.179 311.315 268.843 309.999 268.843 308.524C268.843 307.031 269.17 305.715 269.823 304.576C270.495 303.419 271.41 302.513 272.567 301.86C273.743 301.207 275.078 300.88 276.571 300.88C278.027 300.88 279.325 301.197 280.463 301.832C281.602 302.467 282.498 303.363 283.151 304.52C283.805 305.677 284.131 307.04 284.131 308.608C284.131 308.757 284.122 308.925 284.103 309.112C284.103 309.299 284.094 309.476 284.075 309.644H271.615V307.32H282.227L280.855 308.048C280.874 307.189 280.697 306.433 280.323 305.78C279.95 305.127 279.437 304.613 278.783 304.24C278.149 303.867 277.411 303.68 276.571 303.68C275.713 303.68 274.957 303.867 274.303 304.24C273.669 304.613 273.165 305.136 272.791 305.808C272.437 306.461 272.259 307.236 272.259 308.132V308.692C272.259 309.588 272.465 310.381 272.875 311.072C273.286 311.763 273.865 312.295 274.611 312.668C275.358 313.041 276.217 313.228 277.187 313.228C278.027 313.228 278.783 313.097 279.455 312.836C280.127 312.575 280.725 312.164 281.247 311.604L283.123 313.76C282.451 314.544 281.602 315.151 280.575 315.58C279.567 315.991 278.41 316.196 277.103 316.196ZM285.337 316L291.917 307.432L291.861 309.308L285.589 301.048H289.481L293.877 306.928H292.393L296.817 301.048H300.597L294.269 309.308L294.297 307.432L300.849 316H296.901L292.281 309.756L293.737 309.952L289.201 316H285.337ZM309.526 316.196C307.995 316.196 306.632 315.869 305.438 315.216C304.243 314.544 303.3 313.629 302.61 312.472C301.919 311.315 301.574 309.999 301.574 308.524C301.574 307.031 301.919 305.715 302.61 304.576C303.3 303.419 304.243 302.513 305.438 301.86C306.632 301.207 307.995 300.88 309.526 300.88C311.075 300.88 312.447 301.207 313.642 301.86C314.855 302.513 315.798 303.409 316.47 304.548C317.16 305.687 317.506 307.012 317.506 308.524C317.506 309.999 317.16 311.315 316.47 312.472C315.798 313.629 314.855 314.544 313.642 315.216C312.447 315.869 311.075 316.196 309.526 316.196ZM309.526 313.2C310.384 313.2 311.15 313.013 311.822 312.64C312.494 312.267 313.016 311.725 313.39 311.016C313.782 310.307 313.978 309.476 313.978 308.524C313.978 307.553 313.782 306.723 313.39 306.032C313.016 305.323 312.494 304.781 311.822 304.408C311.15 304.035 310.394 303.848 309.554 303.848C308.695 303.848 307.93 304.035 307.258 304.408C306.604 304.781 306.082 305.323 305.69 306.032C305.298 306.723 305.102 307.553 305.102 308.524C305.102 309.476 305.298 310.307 305.69 311.016C306.082 311.725 306.604 312.267 307.258 312.64C307.93 313.013 308.686 313.2 309.526 313.2ZM331.047 314.376V304.016H325.307L325.223 306.424C325.186 307.283 325.13 308.113 325.055 308.916C324.981 309.7 324.859 310.428 324.691 311.1C324.523 311.753 324.281 312.295 323.963 312.724C323.646 313.153 323.226 313.433 322.703 313.564L319.231 313.032C319.791 313.032 320.239 312.855 320.575 312.5C320.93 312.127 321.201 311.623 321.387 310.988C321.593 310.335 321.742 309.597 321.835 308.776C321.929 307.936 321.994 307.068 322.031 306.172L322.227 301.048H334.547V314.376H331.047ZM318.699 319.332V313.032H336.759V319.332H333.483V316H321.947V319.332H318.699ZM341.537 313.928H338.373L342.265 308.524L338.373 303.092H341.537L345.513 308.524L341.537 313.928ZM347.361 313.928H344.197L348.089 308.524L344.197 303.092H347.361L351.337 308.524L347.361 313.928Z" fill="#622900"/>
<rect x="563" width="443" height="230" rx="30" fill="#FFD7B9"/>
<path d="M691.139 282.28C689.608 282.28 688.199 282.028 686.911 281.524C685.623 281.02 684.503 280.32 683.551 279.424C682.599 278.509 681.862 277.445 681.339 276.232C680.816 275 680.555 273.656 680.555 272.2C680.555 270.744 680.816 269.409 681.339 268.196C681.862 266.964 682.599 265.9 683.551 265.004C684.503 264.089 685.623 263.38 686.911 262.876C688.199 262.372 689.599 262.12 691.111 262.12C692.642 262.12 694.042 262.372 695.311 262.876C696.599 263.38 697.719 264.089 698.671 265.004C699.623 265.9 700.36 266.964 700.883 268.196C701.406 269.409 701.667 270.744 701.667 272.2C701.667 273.656 701.406 275 700.883 276.232C700.36 277.464 699.623 278.528 698.671 279.424C697.719 280.32 696.599 281.02 695.311 281.524C694.042 282.028 692.651 282.28 691.139 282.28ZM691.111 279.088C692.1 279.088 693.015 278.92 693.855 278.584C694.695 278.248 695.423 277.772 696.039 277.156C696.655 276.521 697.131 275.793 697.467 274.972C697.822 274.132 697.999 273.208 697.999 272.2C697.999 271.192 697.822 270.277 697.467 269.456C697.131 268.616 696.655 267.888 696.039 267.272C695.423 266.637 694.695 266.152 693.855 265.816C693.015 265.48 692.1 265.312 691.111 265.312C690.122 265.312 689.207 265.48 688.367 265.816C687.546 266.152 686.818 266.637 686.183 267.272C685.567 267.888 685.082 268.616 684.727 269.456C684.391 270.277 684.223 271.192 684.223 272.2C684.223 273.189 684.391 274.104 684.727 274.944C685.082 275.784 685.567 276.521 686.183 277.156C686.799 277.772 687.527 278.248 688.367 278.584C689.207 278.92 690.122 279.088 691.111 279.088ZM712.439 282.28C711.207 282.28 710.106 282.093 709.135 281.72C708.165 281.347 707.325 280.777 706.615 280.012C705.925 279.228 705.393 278.239 705.019 277.044C704.646 275.849 704.459 274.431 704.459 272.788C704.459 271.593 704.562 270.501 704.767 269.512C704.973 268.523 705.281 267.636 705.691 266.852C706.102 266.049 706.615 265.34 707.231 264.724C707.866 264.108 708.603 263.595 709.443 263.184C710.283 262.773 711.235 262.456 712.299 262.232L719.243 260.748L719.747 263.884L713.447 265.172C713.093 265.247 712.663 265.359 712.159 265.508C711.674 265.639 711.17 265.844 710.647 266.124C710.143 266.385 709.667 266.768 709.219 267.272C708.79 267.757 708.435 268.392 708.155 269.176C707.894 269.941 707.763 270.903 707.763 272.06C707.763 272.415 707.773 272.685 707.791 272.872C707.829 273.04 707.857 273.227 707.875 273.432C707.913 273.619 707.931 273.899 707.931 274.272L706.615 272.9C706.989 271.948 707.502 271.136 708.155 270.464C708.827 269.773 709.602 269.251 710.479 268.896C711.375 268.523 712.346 268.336 713.391 268.336C714.791 268.336 716.033 268.625 717.115 269.204C718.198 269.783 719.047 270.595 719.663 271.64C720.279 272.685 720.587 273.871 720.587 275.196C720.587 276.577 720.251 277.8 719.579 278.864C718.907 279.928 717.955 280.768 716.723 281.384C715.51 281.981 714.082 282.28 712.439 282.28ZM712.719 279.452C713.559 279.452 714.297 279.275 714.931 278.92C715.585 278.547 716.089 278.043 716.443 277.408C716.817 276.773 717.003 276.064 717.003 275.28C717.003 274.496 716.817 273.815 716.443 273.236C716.089 272.639 715.585 272.163 714.931 271.808C714.297 271.453 713.541 271.276 712.663 271.276C711.823 271.276 711.067 271.444 710.395 271.78C709.742 272.116 709.229 272.583 708.855 273.18C708.501 273.759 708.323 274.431 708.323 275.196C708.323 275.98 708.51 276.699 708.883 277.352C709.257 278.005 709.77 278.519 710.423 278.892C711.095 279.265 711.861 279.452 712.719 279.452ZM733.004 271.948C734.908 271.948 736.355 272.387 737.344 273.264C738.334 274.123 738.828 275.327 738.828 276.876C738.828 278.519 738.268 279.788 737.148 280.684C736.047 281.561 734.479 282 732.444 282H725.696V270.016H721.272V267.048H729.196V271.948H733.004ZM732.276 279.424C733.266 279.424 734.012 279.2 734.516 278.752C735.02 278.304 735.272 277.651 735.272 276.792C735.272 275.187 734.274 274.384 732.276 274.384H729.196V279.424H732.276ZM748.885 282.196C747.223 282.196 745.767 281.869 744.517 281.216C743.285 280.544 742.323 279.629 741.633 278.472C740.961 277.315 740.625 275.999 740.625 274.524C740.625 273.031 740.951 271.715 741.605 270.576C742.277 269.419 743.191 268.513 744.349 267.86C745.525 267.207 746.859 266.88 748.353 266.88C749.809 266.88 751.106 267.197 752.245 267.832C753.383 268.467 754.279 269.363 754.933 270.52C755.586 271.677 755.913 273.04 755.913 274.608C755.913 274.757 755.903 274.925 755.885 275.112C755.885 275.299 755.875 275.476 755.857 275.644H743.397V273.32H754.009L752.637 274.048C752.655 273.189 752.478 272.433 752.105 271.78C751.731 271.127 751.218 270.613 750.565 270.24C749.93 269.867 749.193 269.68 748.353 269.68C747.494 269.68 746.738 269.867 746.085 270.24C745.45 270.613 744.946 271.136 744.573 271.808C744.218 272.461 744.041 273.236 744.041 274.132V274.692C744.041 275.588 744.246 276.381 744.657 277.072C745.067 277.763 745.646 278.295 746.393 278.668C747.139 279.041 747.998 279.228 748.969 279.228C749.809 279.228 750.565 279.097 751.237 278.836C751.909 278.575 752.506 278.164 753.029 277.604L754.905 279.76C754.233 280.544 753.383 281.151 752.357 281.58C751.349 281.991 750.191 282.196 748.885 282.196ZM769.797 280.376V270.016H764.057L763.973 272.424C763.936 273.283 763.88 274.113 763.805 274.916C763.731 275.7 763.609 276.428 763.441 277.1C763.273 277.753 763.031 278.295 762.713 278.724C762.396 279.153 761.976 279.433 761.453 279.564L757.981 279.032C758.541 279.032 758.989 278.855 759.325 278.5C759.68 278.127 759.951 277.623 760.137 276.988C760.343 276.335 760.492 275.597 760.585 274.776C760.679 273.936 760.744 273.068 760.781 272.172L760.977 267.048H773.297V280.376H769.797ZM757.449 285.332V279.032H775.509V285.332H772.233V282H760.697V285.332H757.449ZM778.635 282V267.048H782.135V276.904L790.395 267.048H793.587V282H790.087V272.144L781.855 282H778.635ZM798.295 282V267.048H801.795V273.124H809.327V267.048H812.827V282H809.327V276.092H801.795V282H798.295ZM824.49 282.196C822.829 282.196 821.373 281.869 820.122 281.216C818.89 280.544 817.929 279.629 817.238 278.472C816.566 277.315 816.23 275.999 816.23 274.524C816.23 273.031 816.557 271.715 817.21 270.576C817.882 269.419 818.797 268.513 819.954 267.86C821.13 267.207 822.465 266.88 823.958 266.88C825.414 266.88 826.711 267.197 827.85 267.832C828.989 268.467 829.885 269.363 830.538 270.52C831.191 271.677 831.518 273.04 831.518 274.608C831.518 274.757 831.509 274.925 831.49 275.112C831.49 275.299 831.481 275.476 831.462 275.644H819.002V273.32H829.614L828.242 274.048C828.261 273.189 828.083 272.433 827.71 271.78C827.337 271.127 826.823 270.613 826.17 270.24C825.535 269.867 824.798 269.68 823.958 269.68C823.099 269.68 822.343 269.867 821.69 270.24C821.055 270.613 820.551 271.136 820.178 271.808C819.823 272.461 819.646 273.236 819.646 274.132V274.692C819.646 275.588 819.851 276.381 820.262 277.072C820.673 277.763 821.251 278.295 821.998 278.668C822.745 279.041 823.603 279.228 824.574 279.228C825.414 279.228 826.17 279.097 826.842 278.836C827.514 278.575 828.111 278.164 828.634 277.604L830.51 279.76C829.838 280.544 828.989 281.151 827.962 281.58C826.954 281.991 825.797 282.196 824.49 282.196ZM835.346 282V267.048H838.846V273.124H846.378V267.048H849.878V282H846.378V276.092H838.846V282H835.346ZM854.569 282V267.048H858.069V276.904L866.329 267.048H869.521V282H866.021V272.144L857.789 282H854.569ZM881.201 282.196C879.54 282.196 878.084 281.869 876.833 281.216C875.601 280.544 874.64 279.629 873.949 278.472C873.277 277.315 872.941 275.999 872.941 274.524C872.941 273.031 873.268 271.715 873.921 270.576C874.593 269.419 875.508 268.513 876.665 267.86C877.841 267.207 879.176 266.88 880.669 266.88C882.125 266.88 883.422 267.197 884.561 267.832C885.7 268.467 886.596 269.363 887.249 270.52C887.902 271.677 888.229 273.04 888.229 274.608C888.229 274.757 888.22 274.925 888.201 275.112C888.201 275.299 888.192 275.476 888.173 275.644H875.713V273.32H886.325L884.953 274.048C884.972 273.189 884.794 272.433 884.421 271.78C884.048 271.127 883.534 270.613 882.881 270.24C882.246 269.867 881.509 269.68 880.669 269.68C879.81 269.68 879.054 269.867 878.401 270.24C877.766 270.613 877.262 271.136 876.889 271.808C876.534 272.461 876.357 273.236 876.357 274.132V274.692C876.357 275.588 876.562 276.381 876.973 277.072C877.384 277.763 877.962 278.295 878.709 278.668C879.456 279.041 880.314 279.228 881.285 279.228C882.125 279.228 882.881 279.097 883.553 278.836C884.225 278.575 884.822 278.164 885.345 277.604L887.221 279.76C886.549 280.544 885.7 281.151 884.673 281.58C883.665 281.991 882.508 282.196 881.201 282.196ZM565.529 326.928L561.553 321.524L565.529 316.092H568.693L564.801 321.524L568.693 326.928H565.529ZM571.353 326.928L567.377 321.524L571.353 316.092H574.517L570.625 321.524L574.517 326.928H571.353ZM578.133 329V309.4H581.101L589.697 323.708H588.101L596.557 309.4H599.525L599.581 329H596.109L596.081 314.804H596.809L589.641 326.76H588.017L580.737 314.804H581.577V329H578.133ZM606.018 334.628C605.29 334.628 604.562 334.507 603.834 334.264C603.106 334.021 602.5 333.685 602.014 333.256L603.414 330.68C603.769 330.997 604.17 331.249 604.618 331.436C605.066 331.623 605.524 331.716 605.99 331.716C606.625 331.716 607.138 331.557 607.53 331.24C607.922 330.923 608.286 330.391 608.622 329.644L609.49 327.684L609.77 327.264L615.426 314.048H618.786L611.786 330.204C611.32 331.324 610.797 332.211 610.218 332.864C609.658 333.517 609.024 333.975 608.314 334.236C607.624 334.497 606.858 334.628 606.018 334.628ZM609.098 329.532L602.35 314.048H605.99L611.478 326.956L609.098 329.532ZM625.594 329.252C624.455 329.252 623.326 329.121 622.206 328.86C621.104 328.58 620.106 328.188 619.21 327.684L620.19 325.08C620.918 325.491 621.739 325.808 622.654 326.032C623.568 326.256 624.483 326.368 625.398 326.368C626.182 326.368 626.854 326.293 627.414 326.144C627.974 325.976 628.403 325.733 628.702 325.416C629.019 325.099 629.178 324.735 629.178 324.324C629.178 323.727 628.916 323.279 628.394 322.98C627.89 322.663 627.162 322.504 626.21 322.504H623.326V320.152H625.93C626.527 320.152 627.031 320.087 627.442 319.956C627.871 319.825 628.198 319.629 628.422 319.368C628.646 319.107 628.758 318.799 628.758 318.444C628.758 318.089 628.618 317.781 628.338 317.52C628.076 317.24 627.694 317.035 627.19 316.904C626.686 316.755 626.079 316.68 625.37 316.68C624.623 316.68 623.848 316.773 623.046 316.96C622.262 317.147 621.459 317.417 620.638 317.772L619.742 315.196C620.694 314.767 621.618 314.44 622.514 314.216C623.428 313.973 624.334 313.843 625.23 313.824C626.592 313.768 627.806 313.908 628.87 314.244C629.934 314.58 630.774 315.065 631.39 315.7C632.006 316.335 632.314 317.081 632.314 317.94C632.314 318.649 632.09 319.293 631.642 319.872C631.212 320.432 630.615 320.871 629.85 321.188C629.103 321.505 628.244 321.664 627.274 321.664L627.386 320.908C629.047 320.908 630.354 321.244 631.306 321.916C632.258 322.569 632.734 323.465 632.734 324.604C632.734 325.519 632.426 326.331 631.81 327.04C631.194 327.731 630.344 328.272 629.262 328.664C628.198 329.056 626.975 329.252 625.594 329.252ZM651.43 329V314.048H654.93V329H651.43ZM643.618 318.976C645.541 318.976 646.997 319.405 647.986 320.264C648.994 321.123 649.498 322.336 649.498 323.904C649.498 325.528 648.938 326.797 647.818 327.712C646.717 328.608 645.149 329.047 643.114 329.028L636.338 329V314.048H639.838V318.948L643.618 318.976ZM642.806 326.452C643.833 326.471 644.617 326.256 645.158 325.808C645.7 325.36 645.97 324.707 645.97 323.848C645.97 322.989 645.7 322.373 645.158 322C644.636 321.608 643.852 321.403 642.806 321.384L639.838 321.356V326.424L642.806 326.452ZM670.359 329L664.955 321.832L667.811 320.068L674.475 329H670.359ZM659.635 329V314.048H663.135V329H659.635ZM662.099 323.008V320.096H667.167V323.008H662.099ZM668.147 321.944L664.871 321.552L670.359 314.048H674.111L668.147 321.944ZM685.742 329V325.976L685.546 325.332V320.04C685.546 319.013 685.238 318.22 684.622 317.66C684.006 317.081 683.073 316.792 681.822 316.792C680.982 316.792 680.152 316.923 679.33 317.184C678.528 317.445 677.846 317.809 677.286 318.276L675.914 315.728C676.717 315.112 677.669 314.655 678.77 314.356C679.89 314.039 681.048 313.88 682.242 313.88C684.408 313.88 686.078 314.403 687.254 315.448C688.449 316.475 689.046 318.071 689.046 320.236V329H685.742ZM681.038 329.196C679.918 329.196 678.938 329.009 678.098 328.636C677.258 328.244 676.605 327.712 676.138 327.04C675.69 326.349 675.466 325.575 675.466 324.716C675.466 323.876 675.662 323.12 676.054 322.448C676.465 321.776 677.128 321.244 678.042 320.852C678.957 320.46 680.17 320.264 681.682 320.264H686.022V322.588H681.934C680.74 322.588 679.937 322.784 679.526 323.176C679.116 323.549 678.91 324.016 678.91 324.576C678.91 325.211 679.162 325.715 679.666 326.088C680.17 326.461 680.87 326.648 681.766 326.648C682.625 326.648 683.39 326.452 684.062 326.06C684.753 325.668 685.248 325.089 685.546 324.324L686.134 326.424C685.798 327.301 685.192 327.983 684.314 328.468C683.456 328.953 682.364 329.196 681.038 329.196ZM691.193 328.972L691.361 326.032C691.492 326.051 691.613 326.069 691.725 326.088C691.837 326.107 691.94 326.116 692.033 326.116C692.612 326.116 693.06 325.939 693.377 325.584C693.695 325.229 693.928 324.753 694.077 324.156C694.245 323.54 694.357 322.859 694.413 322.112C694.488 321.347 694.544 320.581 694.581 319.816L694.833 314.048H706.929V329H703.429V316.064L704.241 317.016H697.129L697.885 316.036L697.689 319.984C697.633 321.309 697.521 322.541 697.353 323.68C697.204 324.8 696.961 325.78 696.625 326.62C696.308 327.46 695.86 328.113 695.281 328.58C694.721 329.047 694.003 329.28 693.125 329.28C692.845 329.28 692.537 329.252 692.201 329.196C691.884 329.14 691.548 329.065 691.193 328.972ZM719.147 318.976C721.07 318.976 722.535 319.405 723.543 320.264C724.551 321.123 725.055 322.336 725.055 323.904C725.055 325.528 724.495 326.797 723.375 327.712C722.255 328.608 720.678 329.047 718.643 329.028L711.643 329V314.048H715.143V318.948L719.147 318.976ZM718.335 326.452C719.362 326.471 720.146 326.256 720.687 325.808C721.228 325.36 721.499 324.707 721.499 323.848C721.499 322.989 721.228 322.373 720.687 322C720.164 321.608 719.38 321.403 718.335 321.384L715.143 321.356V326.424L718.335 326.452ZM728.131 329V314.048H731.631V320.124H739.163V314.048H742.663V329H739.163V323.092H731.631V329H728.131ZM762.446 329V314.048H765.946V329H762.446ZM754.634 318.976C756.557 318.976 758.013 319.405 759.002 320.264C760.01 321.123 760.514 322.336 760.514 323.904C760.514 325.528 759.954 326.797 758.834 327.712C757.733 328.608 756.165 329.047 754.13 329.028L747.354 329V314.048H750.854V318.948L754.634 318.976ZM753.822 326.452C754.849 326.471 755.633 326.256 756.174 325.808C756.715 325.36 756.986 324.707 756.986 323.848C756.986 322.989 756.715 322.373 756.174 322C755.651 321.608 754.867 321.403 753.822 321.384L750.854 321.356V326.424L753.822 326.452ZM770.651 329V314.048H774.151V323.904L782.411 314.048H785.603V329H782.103V319.144L773.871 329H770.651ZM777.903 312.284C776.409 312.284 775.261 311.939 774.459 311.248C773.656 310.539 773.245 309.512 773.227 308.168H775.551C775.569 308.84 775.775 309.372 776.167 309.764C776.577 310.156 777.147 310.352 777.875 310.352C778.584 310.352 779.144 310.156 779.555 309.764C779.984 309.372 780.208 308.84 780.227 308.168H782.607C782.588 309.512 782.168 310.539 781.347 311.248C780.544 311.939 779.396 312.284 777.903 312.284ZM808.773 329L803.369 321.832L806.225 320.068L812.889 329H808.773ZM798.049 329V314.048H801.549V329H798.049ZM800.513 323.008V320.096H805.581V323.008H800.513ZM806.561 321.944L803.285 321.552L808.773 314.048H812.525L806.561 321.944ZM821.53 329.196C819.999 329.196 818.636 328.869 817.442 328.216C816.247 327.544 815.304 326.629 814.614 325.472C813.923 324.315 813.578 322.999 813.578 321.524C813.578 320.031 813.923 318.715 814.614 317.576C815.304 316.419 816.247 315.513 817.442 314.86C818.636 314.207 819.999 313.88 821.53 313.88C823.079 313.88 824.451 314.207 825.646 314.86C826.859 315.513 827.802 316.409 828.474 317.548C829.164 318.687 829.51 320.012 829.51 321.524C829.51 322.999 829.164 324.315 828.474 325.472C827.802 326.629 826.859 327.544 825.646 328.216C824.451 328.869 823.079 329.196 821.53 329.196ZM821.53 326.2C822.388 326.2 823.154 326.013 823.826 325.64C824.498 325.267 825.02 324.725 825.394 324.016C825.786 323.307 825.982 322.476 825.982 321.524C825.982 320.553 825.786 319.723 825.394 319.032C825.02 318.323 824.498 317.781 823.826 317.408C823.154 317.035 822.398 316.848 821.558 316.848C820.699 316.848 819.934 317.035 819.262 317.408C818.608 317.781 818.086 318.323 817.694 319.032C817.302 319.723 817.106 320.553 817.106 321.524C817.106 322.476 817.302 323.307 817.694 324.016C818.086 324.725 818.608 325.267 819.262 325.64C819.934 326.013 820.69 326.2 821.53 326.2ZM830.619 328.972L830.787 326.032C830.918 326.051 831.039 326.069 831.151 326.088C831.263 326.107 831.366 326.116 831.459 326.116C832.038 326.116 832.486 325.939 832.803 325.584C833.121 325.229 833.354 324.753 833.503 324.156C833.671 323.54 833.783 322.859 833.839 322.112C833.914 321.347 833.97 320.581 834.007 319.816L834.259 314.048H846.355V329H842.855V316.064L843.667 317.016H836.555L837.311 316.036L837.115 319.984C837.059 321.309 836.947 322.541 836.779 323.68C836.63 324.8 836.387 325.78 836.051 326.62C835.734 327.46 835.286 328.113 834.707 328.58C834.147 329.047 833.429 329.28 832.551 329.28C832.271 329.28 831.963 329.252 831.627 329.196C831.31 329.14 830.974 329.065 830.619 328.972ZM858.041 329.196C856.379 329.196 854.923 328.869 853.673 328.216C852.441 327.544 851.479 326.629 850.789 325.472C850.117 324.315 849.781 322.999 849.781 321.524C849.781 320.031 850.107 318.715 850.761 317.576C851.433 316.419 852.347 315.513 853.505 314.86C854.681 314.207 856.015 313.88 857.509 313.88C858.965 313.88 860.262 314.197 861.401 314.832C862.539 315.467 863.435 316.363 864.089 317.52C864.742 318.677 865.069 320.04 865.069 321.608C865.069 321.757 865.059 321.925 865.041 322.112C865.041 322.299 865.031 322.476 865.013 322.644H852.553V320.32H863.165L861.793 321.048C861.811 320.189 861.634 319.433 861.261 318.78C860.887 318.127 860.374 317.613 859.721 317.24C859.086 316.867 858.349 316.68 857.509 316.68C856.65 316.68 855.894 316.867 855.241 317.24C854.606 317.613 854.102 318.136 853.729 318.808C853.374 319.461 853.197 320.236 853.197 321.132V321.692C853.197 322.588 853.402 323.381 853.813 324.072C854.223 324.763 854.802 325.295 855.549 325.668C856.295 326.041 857.154 326.228 858.125 326.228C858.965 326.228 859.721 326.097 860.393 325.836C861.065 325.575 861.662 325.164 862.185 324.604L864.061 326.76C863.389 327.544 862.539 328.151 861.513 328.58C860.505 328.991 859.347 329.196 858.041 329.196ZM868.897 329V314.048H872.397V323.904L880.657 314.048H883.849V329H880.349V319.144L872.117 329H868.897ZM876.149 312.284C874.656 312.284 873.508 311.939 872.705 311.248C871.902 310.539 871.492 309.512 871.473 308.168H873.797C873.816 308.84 874.021 309.372 874.413 309.764C874.824 310.156 875.393 310.352 876.121 310.352C876.83 310.352 877.39 310.156 877.801 309.764C878.23 309.372 878.454 308.84 878.473 308.168H880.853C880.834 309.512 880.414 310.539 879.593 311.248C878.79 311.939 877.642 312.284 876.149 312.284ZM898.805 327.376V317.016H893.065L892.981 319.424C892.944 320.283 892.888 321.113 892.813 321.916C892.738 322.7 892.617 323.428 892.449 324.1C892.281 324.753 892.038 325.295 891.721 325.724C891.404 326.153 890.984 326.433 890.461 326.564L886.989 326.032C887.549 326.032 887.997 325.855 888.333 325.5C888.688 325.127 888.958 324.623 889.145 323.988C889.35 323.335 889.5 322.597 889.593 321.776C889.686 320.936 889.752 320.068 889.789 319.172L889.985 314.048H902.305V327.376H898.805ZM886.457 332.332V326.032H904.517V332.332H901.241V329H889.705V332.332H886.457ZM914.307 329.196C912.776 329.196 911.414 328.869 910.219 328.216C909.024 327.544 908.082 326.629 907.391 325.472C906.7 324.315 906.355 322.999 906.355 321.524C906.355 320.031 906.7 318.715 907.391 317.576C908.082 316.419 909.024 315.513 910.219 314.86C911.414 314.207 912.776 313.88 914.307 313.88C915.856 313.88 917.228 314.207 918.423 314.86C919.636 315.513 920.579 316.409 921.251 317.548C921.942 318.687 922.287 320.012 922.287 321.524C922.287 322.999 921.942 324.315 921.251 325.472C920.579 326.629 919.636 327.544 918.423 328.216C917.228 328.869 915.856 329.196 914.307 329.196ZM914.307 326.2C915.166 326.2 915.931 326.013 916.603 325.64C917.275 325.267 917.798 324.725 918.171 324.016C918.563 323.307 918.759 322.476 918.759 321.524C918.759 320.553 918.563 319.723 918.171 319.032C917.798 318.323 917.275 317.781 916.603 317.408C915.931 317.035 915.175 316.848 914.335 316.848C913.476 316.848 912.711 317.035 912.039 317.408C911.386 317.781 910.863 318.323 910.471 319.032C910.079 319.723 909.883 320.553 909.883 321.524C909.883 322.476 910.079 323.307 910.471 324.016C910.863 324.725 911.386 325.267 912.039 325.64C912.711 326.013 913.467 326.2 914.307 326.2ZM932.549 329.196C930.981 329.196 929.581 328.869 928.349 328.216C927.135 327.544 926.183 326.629 925.493 325.472C924.802 324.315 924.457 322.999 924.457 321.524C924.457 320.031 924.802 318.715 925.493 317.576C926.183 316.419 927.135 315.513 928.349 314.86C929.581 314.207 930.981 313.88 932.549 313.88C934.005 313.88 935.283 314.179 936.385 314.776C937.505 315.355 938.354 316.213 938.933 317.352L936.245 318.92C935.797 318.211 935.246 317.688 934.593 317.352C933.958 317.016 933.267 316.848 932.521 316.848C931.662 316.848 930.887 317.035 930.197 317.408C929.506 317.781 928.965 318.323 928.573 319.032C928.181 319.723 927.985 320.553 927.985 321.524C927.985 322.495 928.181 323.335 928.573 324.044C928.965 324.735 929.506 325.267 930.197 325.64C930.887 326.013 931.662 326.2 932.521 326.2C933.267 326.2 933.958 326.032 934.593 325.696C935.246 325.36 935.797 324.837 936.245 324.128L938.933 325.696C938.354 326.816 937.505 327.684 936.385 328.3C935.283 328.897 934.005 329.196 932.549 329.196ZM952.738 329L947.334 321.832L950.19 320.068L956.854 329H952.738ZM942.014 329V314.048H945.514V329H942.014ZM944.478 323.008V320.096H949.546V323.008H944.478ZM950.526 321.944L947.25 321.552L952.738 314.048H956.49L950.526 321.944ZM965.495 329.196C963.964 329.196 962.601 328.869 961.407 328.216C960.212 327.544 959.269 326.629 958.579 325.472C957.888 324.315 957.543 322.999 957.543 321.524C957.543 320.031 957.888 318.715 958.579 317.576C959.269 316.419 960.212 315.513 961.407 314.86C962.601 314.207 963.964 313.88 965.495 313.88C967.044 313.88 968.416 314.207 969.611 314.86C970.824 315.513 971.767 316.409 972.439 317.548C973.129 318.687 973.475 320.012 973.475 321.524C973.475 322.999 973.129 324.315 972.439 325.472C971.767 326.629 970.824 327.544 969.611 328.216C968.416 328.869 967.044 329.196 965.495 329.196ZM965.495 326.2C966.353 326.2 967.119 326.013 967.791 325.64C968.463 325.267 968.985 324.725 969.359 324.016C969.751 323.307 969.947 322.476 969.947 321.524C969.947 320.553 969.751 319.723 969.359 319.032C968.985 318.323 968.463 317.781 967.791 317.408C967.119 317.035 966.363 316.848 965.523 316.848C964.664 316.848 963.899 317.035 963.227 317.408C962.573 317.781 962.051 318.323 961.659 319.032C961.267 319.723 961.071 320.553 961.071 321.524C961.071 322.476 961.267 323.307 961.659 324.016C962.051 324.725 962.573 325.267 963.227 325.64C963.899 326.013 964.655 326.2 965.495 326.2ZM976.932 329V314.048H991.268V329H987.796V316.204L988.608 317.016H979.62L980.432 316.204V329H976.932ZM997.643 326.928H994.479L998.371 321.524L994.479 316.092H997.643L1001.62 321.524L997.643 326.928ZM1003.47 326.928H1000.3L1004.19 321.524L1000.3 316.092H1003.47L1007.44 321.524L1003.47 326.928Z" fill="#622900"/>
</svg>
