<svg width="1006" height="336" viewBox="0 0 1006 336" fill="none" xmlns="http://www.w3.org/2000/svg">
<rect width="443" height="230" rx="30" fill="#FFD7B9"/>
<path d="M34.0416 282V264.584L34.9096 265.48H27.5736V262.4H44.1496V265.48H36.8136L37.6536 264.584V282H34.0416ZM46.5415 282V267.048H53.8495C55.6601 267.048 57.0788 267.384 58.1055 268.056C59.1508 268.728 59.6735 269.68 59.6735 270.912C59.6735 272.125 59.1881 273.077 58.2175 273.768C57.2468 274.44 55.9588 274.776 54.3535 274.776L54.7735 273.908C56.5841 273.908 57.9281 274.244 58.8055 274.916C59.7015 275.569 60.1495 276.531 60.1495 277.8C60.1495 279.125 59.6548 280.161 58.6655 280.908C57.6761 281.636 56.1735 282 54.1575 282H46.5415ZM49.8735 279.452H53.8775C54.8295 279.452 55.5481 279.303 56.0335 279.004C56.5188 278.687 56.7615 278.211 56.7615 277.576C56.7615 276.904 56.5375 276.409 56.0895 276.092C55.6415 275.775 54.9415 275.616 53.9895 275.616H49.8735V279.452ZM49.8735 273.292H53.5415C54.4375 273.292 55.1095 273.133 55.5575 272.816C56.0241 272.48 56.2575 272.013 56.2575 271.416C56.2575 270.8 56.0241 270.343 55.5575 270.044C55.1095 269.745 54.4375 269.596 53.5415 269.596H49.8735V273.292ZM70.5414 282.196C69.0107 282.196 67.6481 281.869 66.4534 281.216C65.2587 280.544 64.3161 279.629 63.6254 278.472C62.9347 277.315 62.5894 275.999 62.5894 274.524C62.5894 273.031 62.9347 271.715 63.6254 270.576C64.3161 269.419 65.2587 268.513 66.4534 267.86C67.6481 267.207 69.0107 266.88 70.5414 266.88C72.0907 266.88 73.4627 267.207 74.6574 267.86C75.8707 268.513 76.8134 269.409 77.4854 270.548C78.1761 271.687 78.5214 273.012 78.5214 274.524C78.5214 275.999 78.1761 277.315 77.4854 278.472C76.8134 279.629 75.8707 280.544 74.6574 281.216C73.4627 281.869 72.0907 282.196 70.5414 282.196ZM70.5414 279.2C71.4001 279.2 72.1654 279.013 72.8374 278.64C73.5094 278.267 74.0321 277.725 74.4054 277.016C74.7974 276.307 74.9934 275.476 74.9934 274.524C74.9934 273.553 74.7974 272.723 74.4054 272.032C74.0321 271.323 73.5094 270.781 72.8374 270.408C72.1654 270.035 71.4094 269.848 70.5694 269.848C69.7107 269.848 68.9454 270.035 68.2734 270.408C67.6201 270.781 67.0974 271.323 66.7054 272.032C66.3134 272.723 66.1174 273.553 66.1174 274.524C66.1174 275.476 66.3134 276.307 66.7054 277.016C67.0974 277.725 67.6201 278.267 68.2734 278.64C68.9454 279.013 69.7014 279.2 70.5414 279.2ZM90.267 282.196C89.0536 282.196 87.943 281.916 86.935 281.356C85.9456 280.796 85.1523 279.956 84.555 278.836C83.9763 277.697 83.687 276.26 83.687 274.524C83.687 272.769 83.967 271.332 84.527 270.212C85.1056 269.092 85.8896 268.261 86.879 267.72C87.8683 267.16 88.9976 266.88 90.267 266.88C91.7416 266.88 93.039 267.197 94.159 267.832C95.2976 268.467 96.1936 269.353 96.847 270.492C97.519 271.631 97.855 272.975 97.855 274.524C97.855 276.073 97.519 277.427 96.847 278.584C96.1936 279.723 95.2976 280.609 94.159 281.244C93.039 281.879 91.7416 282.196 90.267 282.196ZM81.979 287.432V267.048H85.311V270.576L85.199 274.552L85.479 278.528V287.432H81.979ZM89.875 279.2C90.715 279.2 91.4616 279.013 92.115 278.64C92.787 278.267 93.319 277.725 93.711 277.016C94.103 276.307 94.299 275.476 94.299 274.524C94.299 273.553 94.103 272.723 93.711 272.032C93.319 271.323 92.787 270.781 92.115 270.408C91.4616 270.035 90.715 269.848 89.875 269.848C89.035 269.848 88.279 270.035 87.607 270.408C86.935 270.781 86.403 271.323 86.011 272.032C85.619 272.723 85.423 273.553 85.423 274.524C85.423 275.476 85.619 276.307 86.011 277.016C86.403 277.725 86.935 278.267 87.607 278.64C88.279 279.013 89.035 279.2 89.875 279.2ZM110.774 276.092C110.065 276.428 109.309 276.708 108.506 276.932C107.722 277.137 106.892 277.24 106.014 277.24C104.129 277.24 102.664 276.801 101.618 275.924C100.573 275.047 100.05 273.684 100.05 271.836V267.048H103.55V271.612C103.55 272.601 103.83 273.32 104.39 273.768C104.969 274.216 105.762 274.44 106.77 274.44C107.442 274.44 108.114 274.356 108.786 274.188C109.458 274.02 110.121 273.787 110.774 273.488V276.092ZM110.522 282V267.048H114.022V282H110.522ZM125.701 282.196C124.04 282.196 122.584 281.869 121.333 281.216C120.101 280.544 119.14 279.629 118.449 278.472C117.777 277.315 117.441 275.999 117.441 274.524C117.441 273.031 117.768 271.715 118.421 270.576C119.093 269.419 120.008 268.513 121.165 267.86C122.341 267.207 123.676 266.88 125.169 266.88C126.625 266.88 127.922 267.197 129.061 267.832C130.2 268.467 131.096 269.363 131.749 270.52C132.402 271.677 132.729 273.04 132.729 274.608C132.729 274.757 132.72 274.925 132.701 275.112C132.701 275.299 132.692 275.476 132.673 275.644H120.213V273.32H130.825L129.453 274.048C129.472 273.189 129.294 272.433 128.921 271.78C128.548 271.127 128.034 270.613 127.381 270.24C126.746 269.867 126.009 269.68 125.169 269.68C124.31 269.68 123.554 269.867 122.901 270.24C122.266 270.613 121.762 271.136 121.389 271.808C121.034 272.461 120.857 273.236 120.857 274.132V274.692C120.857 275.588 121.062 276.381 121.473 277.072C121.884 277.763 122.462 278.295 123.209 278.668C123.956 279.041 124.814 279.228 125.785 279.228C126.625 279.228 127.381 279.097 128.053 278.836C128.725 278.575 129.322 278.164 129.845 277.604L131.721 279.76C131.049 280.544 130.2 281.151 129.173 281.58C128.165 281.991 127.008 282.196 125.701 282.196ZM143.361 282.196C141.793 282.196 140.393 281.869 139.161 281.216C137.948 280.544 136.996 279.629 136.305 278.472C135.614 277.315 135.269 275.999 135.269 274.524C135.269 273.031 135.614 271.715 136.305 270.576C136.996 269.419 137.948 268.513 139.161 267.86C140.393 267.207 141.793 266.88 143.361 266.88C144.817 266.88 146.096 267.179 147.197 267.776C148.317 268.355 149.166 269.213 149.745 270.352L147.057 271.92C146.609 271.211 146.058 270.688 145.405 270.352C144.77 270.016 144.08 269.848 143.333 269.848C142.474 269.848 141.7 270.035 141.009 270.408C140.318 270.781 139.777 271.323 139.385 272.032C138.993 272.723 138.797 273.553 138.797 274.524C138.797 275.495 138.993 276.335 139.385 277.044C139.777 277.735 140.318 278.267 141.009 278.64C141.7 279.013 142.474 279.2 143.333 279.2C144.08 279.2 144.77 279.032 145.405 278.696C146.058 278.36 146.609 277.837 147.057 277.128L149.745 278.696C149.166 279.816 148.317 280.684 147.197 281.3C146.096 281.897 144.817 282.196 143.361 282.196ZM163.551 282L158.147 274.832L161.003 273.068L167.667 282H163.551ZM152.827 282V267.048H156.327V282H152.827ZM155.291 276.008V273.096H160.359V276.008H155.291ZM161.339 274.944L158.063 274.552L163.551 267.048H167.303L161.339 274.944ZM176.307 282.196C174.776 282.196 173.414 281.869 172.219 281.216C171.024 280.544 170.082 279.629 169.391 278.472C168.7 277.315 168.355 275.999 168.355 274.524C168.355 273.031 168.7 271.715 169.391 270.576C170.082 269.419 171.024 268.513 172.219 267.86C173.414 267.207 174.776 266.88 176.307 266.88C177.856 266.88 179.228 267.207 180.423 267.86C181.636 268.513 182.579 269.409 183.251 270.548C183.942 271.687 184.287 273.012 184.287 274.524C184.287 275.999 183.942 277.315 183.251 278.472C182.579 279.629 181.636 280.544 180.423 281.216C179.228 281.869 177.856 282.196 176.307 282.196ZM176.307 279.2C177.166 279.2 177.931 279.013 178.603 278.64C179.275 278.267 179.798 277.725 180.171 277.016C180.563 276.307 180.759 275.476 180.759 274.524C180.759 273.553 180.563 272.723 180.171 272.032C179.798 271.323 179.275 270.781 178.603 270.408C177.931 270.035 177.175 269.848 176.335 269.848C175.476 269.848 174.711 270.035 174.039 270.408C173.386 270.781 172.863 271.323 172.471 272.032C172.079 272.723 171.883 273.553 171.883 274.524C171.883 275.476 172.079 276.307 172.471 277.016C172.863 277.725 173.386 278.267 174.039 278.64C174.711 279.013 175.467 279.2 176.307 279.2ZM194.717 282.196C193.055 282.196 191.599 281.869 190.349 281.216C189.117 280.544 188.155 279.629 187.465 278.472C186.793 277.315 186.457 275.999 186.457 274.524C186.457 273.031 186.783 271.715 187.437 270.576C188.109 269.419 189.023 268.513 190.181 267.86C191.357 267.207 192.691 266.88 194.185 266.88C195.641 266.88 196.938 267.197 198.077 267.832C199.215 268.467 200.111 269.363 200.765 270.52C201.418 271.677 201.745 273.04 201.745 274.608C201.745 274.757 201.735 274.925 201.717 275.112C201.717 275.299 201.707 275.476 201.689 275.644H189.229V273.32H199.841L198.469 274.048C198.487 273.189 198.31 272.433 197.937 271.78C197.563 271.127 197.05 270.613 196.397 270.24C195.762 269.867 195.025 269.68 194.185 269.68C193.326 269.68 192.57 269.867 191.917 270.24C191.282 270.613 190.778 271.136 190.405 271.808C190.05 272.461 189.873 273.236 189.873 274.132V274.692C189.873 275.588 190.078 276.381 190.489 277.072C190.899 277.763 191.478 278.295 192.225 278.668C192.971 279.041 193.83 279.228 194.801 279.228C195.641 279.228 196.397 279.097 197.069 278.836C197.741 278.575 198.338 278.164 198.861 277.604L200.737 279.76C200.065 280.544 199.215 281.151 198.189 281.58C197.181 281.991 196.023 282.196 194.717 282.196ZM219.975 282.196C218.444 282.196 217.082 281.869 215.887 281.216C214.692 280.544 213.75 279.629 213.059 278.472C212.368 277.315 212.023 275.999 212.023 274.524C212.023 273.031 212.368 271.715 213.059 270.576C213.75 269.419 214.692 268.513 215.887 267.86C217.082 267.207 218.444 266.88 219.975 266.88C221.524 266.88 222.896 267.207 224.091 267.86C225.304 268.513 226.247 269.409 226.919 270.548C227.61 271.687 227.955 273.012 227.955 274.524C227.955 275.999 227.61 277.315 226.919 278.472C226.247 279.629 225.304 280.544 224.091 281.216C222.896 281.869 221.524 282.196 219.975 282.196ZM219.975 279.2C220.834 279.2 221.599 279.013 222.271 278.64C222.943 278.267 223.466 277.725 223.839 277.016C224.231 276.307 224.427 275.476 224.427 274.524C224.427 273.553 224.231 272.723 223.839 272.032C223.466 271.323 222.943 270.781 222.271 270.408C221.599 270.035 220.843 269.848 220.003 269.848C219.144 269.848 218.379 270.035 217.707 270.408C217.054 270.781 216.531 271.323 216.139 272.032C215.747 272.723 215.551 273.553 215.551 274.524C215.551 275.476 215.747 276.307 216.139 277.016C216.531 277.725 217.054 278.267 217.707 278.64C218.379 279.013 219.135 279.2 219.975 279.2ZM238.553 282.28C237.321 282.28 236.219 282.093 235.249 281.72C234.278 281.347 233.438 280.777 232.729 280.012C232.038 279.228 231.506 278.239 231.133 277.044C230.759 275.849 230.573 274.431 230.573 272.788C230.573 271.593 230.675 270.501 230.881 269.512C231.086 268.523 231.394 267.636 231.805 266.852C232.215 266.049 232.729 265.34 233.345 264.724C233.979 264.108 234.717 263.595 235.557 263.184C236.397 262.773 237.349 262.456 238.413 262.232L245.357 260.748L245.861 263.884L239.561 265.172C239.206 265.247 238.777 265.359 238.273 265.508C237.787 265.639 237.283 265.844 236.761 266.124C236.257 266.385 235.781 266.768 235.333 267.272C234.903 267.757 234.549 268.392 234.269 269.176C234.007 269.941 233.877 270.903 233.877 272.06C233.877 272.415 233.886 272.685 233.905 272.872C233.942 273.04 233.97 273.227 233.989 273.432C234.026 273.619 234.045 273.899 234.045 274.272L232.729 272.9C233.102 271.948 233.615 271.136 234.269 270.464C234.941 269.773 235.715 269.251 236.593 268.896C237.489 268.523 238.459 268.336 239.505 268.336C240.905 268.336 242.146 268.625 243.229 269.204C244.311 269.783 245.161 270.595 245.777 271.64C246.393 272.685 246.701 273.871 246.701 275.196C246.701 276.577 246.365 277.8 245.693 278.864C245.021 279.928 244.069 280.768 242.837 281.384C241.623 281.981 240.195 282.28 238.553 282.28ZM238.833 279.452C239.673 279.452 240.41 279.275 241.045 278.92C241.698 278.547 242.202 278.043 242.557 277.408C242.93 276.773 243.117 276.064 243.117 275.28C243.117 274.496 242.93 273.815 242.557 273.236C242.202 272.639 241.698 272.163 241.045 271.808C240.41 271.453 239.654 271.276 238.777 271.276C237.937 271.276 237.181 271.444 236.509 271.78C235.855 272.116 235.342 272.583 234.969 273.18C234.614 273.759 234.437 274.431 234.437 275.196C234.437 275.98 234.623 276.699 234.997 277.352C235.37 278.005 235.883 278.519 236.537 278.892C237.209 279.265 237.974 279.452 238.833 279.452ZM259.117 271.948C261.021 271.948 262.468 272.387 263.457 273.264C264.447 274.123 264.941 275.327 264.941 276.876C264.941 278.519 264.381 279.788 263.261 280.684C262.16 281.561 260.592 282 258.557 282H251.809V270.016H247.385V267.048H255.309V271.948H259.117ZM258.389 279.424C259.379 279.424 260.125 279.2 260.629 278.752C261.133 278.304 261.385 277.651 261.385 276.792C261.385 275.187 260.387 274.384 258.389 274.384H255.309V279.424H258.389ZM274.998 282.196C273.336 282.196 271.88 281.869 270.63 281.216C269.398 280.544 268.436 279.629 267.746 278.472C267.074 277.315 266.738 275.999 266.738 274.524C266.738 273.031 267.064 271.715 267.718 270.576C268.39 269.419 269.304 268.513 270.462 267.86C271.638 267.207 272.972 266.88 274.466 266.88C275.922 266.88 277.219 267.197 278.358 267.832C279.496 268.467 280.392 269.363 281.046 270.52C281.699 271.677 282.026 273.04 282.026 274.608C282.026 274.757 282.016 274.925 281.998 275.112C281.998 275.299 281.988 275.476 281.97 275.644H269.51V273.32H280.122L278.75 274.048C278.768 273.189 278.591 272.433 278.218 271.78C277.844 271.127 277.331 270.613 276.678 270.24C276.043 269.867 275.306 269.68 274.466 269.68C273.607 269.68 272.851 269.867 272.198 270.24C271.563 270.613 271.059 271.136 270.686 271.808C270.331 272.461 270.154 273.236 270.154 274.132V274.692C270.154 275.588 270.359 276.381 270.77 277.072C271.18 277.763 271.759 278.295 272.506 278.668C273.252 279.041 274.111 279.228 275.082 279.228C275.922 279.228 276.678 279.097 277.35 278.836C278.022 278.575 278.619 278.164 279.142 277.604L281.018 279.76C280.346 280.544 279.496 281.151 278.47 281.58C277.462 281.991 276.304 282.196 274.998 282.196ZM295.911 280.376V270.016H290.171L290.087 272.424C290.049 273.283 289.993 274.113 289.919 274.916C289.844 275.7 289.723 276.428 289.555 277.1C289.387 277.753 289.144 278.295 288.827 278.724C288.509 279.153 288.089 279.433 287.567 279.564L284.095 279.032C284.655 279.032 285.103 278.855 285.439 278.5C285.793 278.127 286.064 277.623 286.251 276.988C286.456 276.335 286.605 275.597 286.699 274.776C286.792 273.936 286.857 273.068 286.895 272.172L287.091 267.048H299.411V280.376H295.911ZM283.563 285.332V279.032H301.623V285.332H298.347V282H286.811V285.332H283.563ZM304.748 282V267.048H308.248V276.904L316.508 267.048H319.7V282H316.2V272.144L307.968 282H304.748ZM324.409 282V267.048H327.909V273.124H335.441V267.048H338.941V282H335.441V276.092H327.909V282H324.409ZM350.603 282.196C348.942 282.196 347.486 281.869 346.235 281.216C345.003 280.544 344.042 279.629 343.351 278.472C342.679 277.315 342.343 275.999 342.343 274.524C342.343 273.031 342.67 271.715 343.323 270.576C343.995 269.419 344.91 268.513 346.067 267.86C347.243 267.207 348.578 266.88 350.071 266.88C351.527 266.88 352.825 267.197 353.963 267.832C355.102 268.467 355.998 269.363 356.651 270.52C357.305 271.677 357.631 273.04 357.631 274.608C357.631 274.757 357.622 274.925 357.603 275.112C357.603 275.299 357.594 275.476 357.575 275.644H345.115V273.32H355.727L354.355 274.048C354.374 273.189 354.197 272.433 353.823 271.78C353.45 271.127 352.937 270.613 352.283 270.24C351.649 269.867 350.911 269.68 350.071 269.68C349.213 269.68 348.457 269.867 347.803 270.24C347.169 270.613 346.665 271.136 346.291 271.808C345.937 272.461 345.759 273.236 345.759 274.132V274.692C345.759 275.588 345.965 276.381 346.375 277.072C346.786 277.763 347.365 278.295 348.111 278.668C348.858 279.041 349.717 279.228 350.687 279.228C351.527 279.228 352.283 279.097 352.955 278.836C353.627 278.575 354.225 278.164 354.747 277.604L356.623 279.76C355.951 280.544 355.102 281.151 354.075 281.58C353.067 281.991 351.91 282.196 350.603 282.196ZM361.459 282V267.048H364.959V273.124H372.491V267.048H375.991V282H372.491V276.092H364.959V282H361.459ZM380.682 282V267.048H384.182V276.904L392.442 267.048H395.634V282H392.134V272.144L383.902 282H380.682ZM407.314 282.196C405.653 282.196 404.197 281.869 402.946 281.216C401.714 280.544 400.753 279.629 400.062 278.472C399.39 277.315 399.054 275.999 399.054 274.524C399.054 273.031 399.381 271.715 400.034 270.576C400.706 269.419 401.621 268.513 402.778 267.86C403.954 267.207 405.289 266.88 406.782 266.88C408.238 266.88 409.536 267.197 410.674 267.832C411.813 268.467 412.709 269.363 413.362 270.52C414.016 271.677 414.342 273.04 414.342 274.608C414.342 274.757 414.333 274.925 414.314 275.112C414.314 275.299 414.305 275.476 414.286 275.644H401.826V273.32H412.438L411.066 274.048C411.085 273.189 410.908 272.433 410.534 271.78C410.161 271.127 409.648 270.613 408.994 270.24C408.36 269.867 407.622 269.68 406.782 269.68C405.924 269.68 405.168 269.867 404.514 270.24C403.88 270.613 403.376 271.136 403.002 271.808C402.648 272.461 402.47 273.236 402.47 274.132V274.692C402.47 275.588 402.676 276.381 403.086 277.072C403.497 277.763 404.076 278.295 404.822 278.668C405.569 279.041 406.428 279.228 407.398 279.228C408.238 279.228 408.994 279.097 409.666 278.836C410.338 278.575 410.936 278.164 411.458 277.604L413.334 279.76C412.662 280.544 411.813 281.151 410.786 281.58C409.778 281.991 408.621 282.196 407.314 282.196ZM78.9958 326.928L75.0198 321.524L78.9958 316.092H82.1598L78.2678 321.524L82.1598 326.928H78.9958ZM84.8198 326.928L80.8438 321.524L84.8198 316.092H87.9837L84.0918 321.524L87.9837 326.928H84.8198ZM91.6001 329V309.4H100.364C102.567 309.4 104.284 309.839 105.516 310.716C106.748 311.575 107.364 312.816 107.364 314.44C107.364 316.045 106.776 317.287 105.6 318.164C104.424 319.023 102.875 319.452 100.952 319.452L101.456 318.444C103.64 318.444 105.329 318.883 106.524 319.76C107.719 320.637 108.316 321.907 108.316 323.568C108.316 325.267 107.691 326.601 106.44 327.572C105.189 328.524 103.341 329 100.896 329H91.6001ZM95.1841 326.2H100.784C102.053 326.2 103.015 325.967 103.668 325.5C104.321 325.015 104.648 324.277 104.648 323.288C104.648 322.299 104.321 321.58 103.668 321.132C103.015 320.665 102.053 320.432 100.784 320.432H95.1841V326.2ZM95.1841 317.772H100.056C101.232 317.772 102.128 317.539 102.744 317.072C103.36 316.587 103.668 315.896 103.668 315C103.668 314.067 103.36 313.367 102.744 312.9C102.128 312.433 101.232 312.2 100.056 312.2H95.1841V317.772ZM118.735 329.196C117.204 329.196 115.841 328.869 114.647 328.216C113.452 327.544 112.509 326.629 111.819 325.472C111.128 324.315 110.783 322.999 110.783 321.524C110.783 320.031 111.128 318.715 111.819 317.576C112.509 316.419 113.452 315.513 114.647 314.86C115.841 314.207 117.204 313.88 118.735 313.88C120.284 313.88 121.656 314.207 122.851 314.86C124.064 315.513 125.007 316.409 125.679 317.548C126.369 318.687 126.715 320.012 126.715 321.524C126.715 322.999 126.369 324.315 125.679 325.472C125.007 326.629 124.064 327.544 122.851 328.216C121.656 328.869 120.284 329.196 118.735 329.196ZM118.735 326.2C119.593 326.2 120.359 326.013 121.031 325.64C121.703 325.267 122.225 324.725 122.599 324.016C122.991 323.307 123.187 322.476 123.187 321.524C123.187 320.553 122.991 319.723 122.599 319.032C122.225 318.323 121.703 317.781 121.031 317.408C120.359 317.035 119.603 316.848 118.763 316.848C117.904 316.848 117.139 317.035 116.467 317.408C115.813 317.781 115.291 318.323 114.899 319.032C114.507 319.723 114.311 320.553 114.311 321.524C114.311 322.476 114.507 323.307 114.899 324.016C115.291 324.725 115.813 325.267 116.467 325.64C117.139 326.013 117.895 326.2 118.735 326.2ZM127.824 328.972L127.992 326.032C128.123 326.051 128.244 326.069 128.356 326.088C128.468 326.107 128.571 326.116 128.664 326.116C129.243 326.116 129.691 325.939 130.008 325.584C130.326 325.229 130.559 324.753 130.708 324.156C130.876 323.54 130.988 322.859 131.044 322.112C131.119 321.347 131.175 320.581 131.212 319.816L131.464 314.048H143.56V329H140.06V316.064L140.872 317.016H133.76L134.516 316.036L134.32 319.984C134.264 321.309 134.152 322.541 133.984 323.68C133.835 324.8 133.592 325.78 133.256 326.62C132.939 327.46 132.491 328.113 131.912 328.58C131.352 329.047 130.634 329.28 129.756 329.28C129.476 329.28 129.168 329.252 128.832 329.196C128.515 329.14 128.179 329.065 127.824 328.972ZM158.326 326.032L157.57 326.872V314.048H161.07V326.872L160.23 326.032H167.622L166.81 326.872V314.048H170.31V329H148.274V314.048H151.774V326.872L150.962 326.032H158.326ZM181.988 329.196C180.327 329.196 178.871 328.869 177.62 328.216C176.388 327.544 175.427 326.629 174.736 325.472C174.064 324.315 173.728 322.999 173.728 321.524C173.728 320.031 174.055 318.715 174.708 317.576C175.38 316.419 176.295 315.513 177.452 314.86C178.628 314.207 179.963 313.88 181.456 313.88C182.912 313.88 184.209 314.197 185.348 314.832C186.487 315.467 187.383 316.363 188.036 317.52C188.689 318.677 189.016 320.04 189.016 321.608C189.016 321.757 189.007 321.925 188.988 322.112C188.988 322.299 188.979 322.476 188.96 322.644H176.5V320.32H187.112L185.74 321.048C185.759 320.189 185.581 319.433 185.208 318.78C184.835 318.127 184.321 317.613 183.668 317.24C183.033 316.867 182.296 316.68 181.456 316.68C180.597 316.68 179.841 316.867 179.188 317.24C178.553 317.613 178.049 318.136 177.676 318.808C177.321 319.461 177.144 320.236 177.144 321.132V321.692C177.144 322.588 177.349 323.381 177.76 324.072C178.171 324.763 178.749 325.295 179.496 325.668C180.243 326.041 181.101 326.228 182.072 326.228C182.912 326.228 183.668 326.097 184.34 325.836C185.012 325.575 185.609 325.164 186.132 324.604L188.008 326.76C187.336 327.544 186.487 328.151 185.46 328.58C184.452 328.991 183.295 329.196 181.988 329.196ZM199.984 329.28C198.752 329.28 197.651 329.093 196.68 328.72C195.71 328.347 194.87 327.777 194.16 327.012C193.47 326.228 192.938 325.239 192.564 324.044C192.191 322.849 192.004 321.431 192.004 319.788C192.004 318.593 192.107 317.501 192.312 316.512C192.518 315.523 192.826 314.636 193.236 313.852C193.647 313.049 194.16 312.34 194.776 311.724C195.411 311.108 196.148 310.595 196.988 310.184C197.828 309.773 198.78 309.456 199.844 309.232L206.788 307.748L207.292 310.884L200.992 312.172C200.638 312.247 200.208 312.359 199.704 312.508C199.219 312.639 198.715 312.844 198.192 313.124C197.688 313.385 197.212 313.768 196.764 314.272C196.335 314.757 195.98 315.392 195.7 316.176C195.439 316.941 195.308 317.903 195.308 319.06C195.308 319.415 195.318 319.685 195.336 319.872C195.374 320.04 195.402 320.227 195.42 320.432C195.458 320.619 195.476 320.899 195.476 321.272L194.16 319.9C194.534 318.948 195.047 318.136 195.7 317.464C196.372 316.773 197.147 316.251 198.024 315.896C198.92 315.523 199.891 315.336 200.936 315.336C202.336 315.336 203.578 315.625 204.66 316.204C205.743 316.783 206.592 317.595 207.208 318.64C207.824 319.685 208.132 320.871 208.132 322.196C208.132 323.577 207.796 324.8 207.124 325.864C206.452 326.928 205.5 327.768 204.268 328.384C203.055 328.981 201.627 329.28 199.984 329.28ZM200.264 326.452C201.104 326.452 201.842 326.275 202.476 325.92C203.13 325.547 203.634 325.043 203.988 324.408C204.362 323.773 204.548 323.064 204.548 322.28C204.548 321.496 204.362 320.815 203.988 320.236C203.634 319.639 203.13 319.163 202.476 318.808C201.842 318.453 201.086 318.276 200.208 318.276C199.368 318.276 198.612 318.444 197.94 318.78C197.287 319.116 196.774 319.583 196.4 320.18C196.046 320.759 195.868 321.431 195.868 322.196C195.868 322.98 196.055 323.699 196.428 324.352C196.802 325.005 197.315 325.519 197.968 325.892C198.64 326.265 199.406 326.452 200.264 326.452ZM211.52 329V314.048H215.02V320.124H222.552V314.048H226.052V329H222.552V323.092H215.02V329H211.52ZM239.815 329V325.976L239.619 325.332V320.04C239.619 319.013 239.311 318.22 238.695 317.66C238.079 317.081 237.145 316.792 235.895 316.792C235.055 316.792 234.224 316.923 233.403 317.184C232.6 317.445 231.919 317.809 231.359 318.276L229.987 315.728C230.789 315.112 231.741 314.655 232.843 314.356C233.963 314.039 235.12 313.88 236.315 313.88C238.48 313.88 240.151 314.403 241.327 315.448C242.521 316.475 243.119 318.071 243.119 320.236V329H239.815ZM235.111 329.196C233.991 329.196 233.011 329.009 232.171 328.636C231.331 328.244 230.677 327.712 230.211 327.04C229.763 326.349 229.539 325.575 229.539 324.716C229.539 323.876 229.735 323.12 230.127 322.448C230.537 321.776 231.2 321.244 232.115 320.852C233.029 320.46 234.243 320.264 235.755 320.264H240.095V322.588H236.007C234.812 322.588 234.009 322.784 233.599 323.176C233.188 323.549 232.983 324.016 232.983 324.576C232.983 325.211 233.235 325.715 233.739 326.088C234.243 326.461 234.943 326.648 235.839 326.648C236.697 326.648 237.463 326.452 238.135 326.06C238.825 325.668 239.32 325.089 239.619 324.324L240.207 326.424C239.871 327.301 239.264 327.983 238.387 328.468C237.528 328.953 236.436 329.196 235.111 329.196ZM256.942 329V323.904L257.446 324.492H252.966C250.912 324.492 249.298 324.063 248.122 323.204C246.964 322.327 246.386 321.067 246.386 319.424C246.386 317.669 247.002 316.335 248.234 315.42C249.484 314.505 251.146 314.048 253.218 314.048H260.078V329H256.942ZM246.19 329L250.222 323.288H253.806L249.942 329H246.19ZM256.942 322.784V316.064L257.446 316.988H253.33C252.247 316.988 251.407 317.193 250.81 317.604C250.231 317.996 249.942 318.64 249.942 319.536C249.942 321.216 251.034 322.056 253.218 322.056H257.446L256.942 322.784ZM283.248 329L277.844 321.832L280.7 320.068L287.364 329H283.248ZM272.524 329V314.048H276.024V329H272.524ZM274.988 323.008V320.096H280.056V323.008H274.988ZM281.036 321.944L277.76 321.552L283.248 314.048H287L281.036 321.944ZM289.832 329V314.048H293.332V323.904L301.592 314.048H304.784V329H301.284V319.144L293.052 329H289.832ZM316.297 329.196C314.729 329.196 313.329 328.869 312.097 328.216C310.883 327.544 309.931 326.629 309.241 325.472C308.55 324.315 308.205 322.999 308.205 321.524C308.205 320.031 308.55 318.715 309.241 317.576C309.931 316.419 310.883 315.513 312.097 314.86C313.329 314.207 314.729 313.88 316.297 313.88C317.753 313.88 319.031 314.179 320.133 314.776C321.253 315.355 322.102 316.213 322.681 317.352L319.993 318.92C319.545 318.211 318.994 317.688 318.341 317.352C317.706 317.016 317.015 316.848 316.269 316.848C315.41 316.848 314.635 317.035 313.945 317.408C313.254 317.781 312.713 318.323 312.321 319.032C311.929 319.723 311.733 320.553 311.733 321.524C311.733 322.495 311.929 323.335 312.321 324.044C312.713 324.735 313.254 325.267 313.945 325.64C314.635 326.013 315.41 326.2 316.269 326.2C317.015 326.2 317.706 326.032 318.341 325.696C318.994 325.36 319.545 324.837 319.993 324.128L322.681 325.696C322.102 326.816 321.253 327.684 320.133 328.3C319.031 328.897 317.753 329.196 316.297 329.196ZM328.761 329V316.176L329.573 317.016H323.497V314.048H337.497V317.016H331.449L332.261 316.176V329H328.761ZM347.54 318.976C349.462 318.976 350.928 319.405 351.936 320.264C352.944 321.123 353.448 322.336 353.448 323.904C353.448 325.528 352.888 326.797 351.768 327.712C350.648 328.608 349.07 329.047 347.036 329.028L340.036 329V314.048H343.536V318.948L347.54 318.976ZM346.728 326.452C347.754 326.471 348.538 326.256 349.08 325.808C349.621 325.36 349.892 324.707 349.892 323.848C349.892 322.989 349.621 322.373 349.08 322C348.557 321.608 347.773 321.403 346.728 321.384L343.536 321.356V326.424L346.728 326.452ZM358.176 326.928H355.012L358.904 321.524L355.012 316.092H358.176L362.152 321.524L358.176 326.928ZM364 326.928H360.836L364.728 321.524L360.836 316.092H364L367.976 321.524L364 326.928Z" fill="#622900"/>
<rect x="563" width="443" height="230" rx="30" fill="#FFD7B9"/>
<path d="M606.583 278.92L605.771 279.816V262.4H609.355V279.816L608.487 278.92H617.419L616.551 279.816V262.4H620.135V282H594.963V262.4H598.547V279.816L597.707 278.92H606.583ZM634.322 282V278.976L634.126 278.332V273.04C634.126 272.013 633.818 271.22 633.202 270.66C632.586 270.081 631.653 269.792 630.402 269.792C629.562 269.792 628.732 269.923 627.91 270.184C627.108 270.445 626.426 270.809 625.866 271.276L624.494 268.728C625.297 268.112 626.249 267.655 627.35 267.356C628.47 267.039 629.628 266.88 630.822 266.88C632.988 266.88 634.658 267.403 635.834 268.448C637.029 269.475 637.626 271.071 637.626 273.236V282H634.322ZM629.618 282.196C628.498 282.196 627.518 282.009 626.678 281.636C625.838 281.244 625.185 280.712 624.718 280.04C624.27 279.349 624.046 278.575 624.046 277.716C624.046 276.876 624.242 276.12 624.634 275.448C625.045 274.776 625.708 274.244 626.622 273.852C627.537 273.46 628.75 273.264 630.262 273.264H634.602V275.588H630.514C629.32 275.588 628.517 275.784 628.106 276.176C627.696 276.549 627.49 277.016 627.49 277.576C627.49 278.211 627.742 278.715 628.246 279.088C628.75 279.461 629.45 279.648 630.346 279.648C631.205 279.648 631.97 279.452 632.642 279.06C633.333 278.668 633.828 278.089 634.126 277.324L634.714 279.424C634.378 280.301 633.772 280.983 632.894 281.468C632.036 281.953 630.944 282.196 629.618 282.196ZM639.745 282L646.325 273.432L646.269 275.308L639.997 267.048H643.889L648.285 272.928H646.801L651.225 267.048H655.005L648.677 275.308L648.705 273.432L655.257 282H651.309L646.689 275.756L648.145 275.952L643.609 282H639.745ZM657.762 282V267.048H661.43L667.45 277.66H665.994L672.322 267.048H675.598L675.626 282H672.462V270.8L673.022 271.164L667.422 280.432H665.91L660.282 270.912L660.954 270.744V282H657.762ZM689.393 282V278.976L689.197 278.332V273.04C689.197 272.013 688.889 271.22 688.273 270.66C687.657 270.081 686.723 269.792 685.473 269.792C684.633 269.792 683.802 269.923 682.981 270.184C682.178 270.445 681.497 270.809 680.937 271.276L679.565 268.728C680.367 268.112 681.319 267.655 682.421 267.356C683.541 267.039 684.698 266.88 685.893 266.88C688.058 266.88 689.729 267.403 690.905 268.448C692.099 269.475 692.697 271.071 692.697 273.236V282H689.393ZM684.689 282.196C683.569 282.196 682.589 282.009 681.749 281.636C680.909 281.244 680.255 280.712 679.789 280.04C679.341 279.349 679.117 278.575 679.117 277.716C679.117 276.876 679.313 276.12 679.705 275.448C680.115 274.776 680.778 274.244 681.693 273.852C682.607 273.46 683.821 273.264 685.333 273.264H689.673V275.588H685.585C684.39 275.588 683.587 275.784 683.177 276.176C682.766 276.549 682.561 277.016 682.561 277.576C682.561 278.211 682.813 278.715 683.317 279.088C683.821 279.461 684.521 279.648 685.417 279.648C686.275 279.648 687.041 279.452 687.713 279.06C688.403 278.668 688.898 278.089 689.197 277.324L689.785 279.424C689.449 280.301 688.842 280.983 687.965 281.468C687.106 281.953 686.014 282.196 684.689 282.196ZM700.136 282V269.176L700.948 270.016H694.872V267.048H708.872V270.016H702.824L703.636 269.176V282H700.136ZM711.411 282V267.048H714.911V273.124H722.443V267.048H725.943V282H722.443V276.092H714.911V282H711.411ZM737.297 282.196C735.767 282.196 734.404 281.869 733.209 281.216C732.015 280.544 731.072 279.629 730.381 278.472C729.691 277.315 729.345 275.999 729.345 274.524C729.345 273.031 729.691 271.715 730.381 270.576C731.072 269.419 732.015 268.513 733.209 267.86C734.404 267.207 735.767 266.88 737.297 266.88C738.847 266.88 740.219 267.207 741.413 267.86C742.627 268.513 743.569 269.409 744.241 270.548C744.932 271.687 745.277 273.012 745.277 274.524C745.277 275.999 744.932 277.315 744.241 278.472C743.569 279.629 742.627 280.544 741.413 281.216C740.219 281.869 738.847 282.196 737.297 282.196ZM737.297 279.2C738.156 279.2 738.921 279.013 739.593 278.64C740.265 278.267 740.788 277.725 741.161 277.016C741.553 276.307 741.749 275.476 741.749 274.524C741.749 273.553 741.553 272.723 741.161 272.032C740.788 271.323 740.265 270.781 739.593 270.408C738.921 270.035 738.165 269.848 737.325 269.848C736.467 269.848 735.701 270.035 735.029 270.408C734.376 270.781 733.853 271.323 733.461 272.032C733.069 272.723 732.873 273.553 732.873 274.524C732.873 275.476 733.069 276.307 733.461 277.016C733.853 277.725 734.376 278.267 735.029 278.64C735.701 279.013 736.457 279.2 737.297 279.2ZM755.707 282.196C754.045 282.196 752.589 281.869 751.339 281.216C750.107 280.544 749.145 279.629 748.455 278.472C747.783 277.315 747.447 275.999 747.447 274.524C747.447 273.031 747.773 271.715 748.427 270.576C749.099 269.419 750.013 268.513 751.171 267.86C752.347 267.207 753.681 266.88 755.175 266.88C756.631 266.88 757.928 267.197 759.067 267.832C760.205 268.467 761.101 269.363 761.755 270.52C762.408 271.677 762.735 273.04 762.735 274.608C762.735 274.757 762.725 274.925 762.707 275.112C762.707 275.299 762.697 275.476 762.679 275.644H750.219V273.32H760.831L759.459 274.048C759.477 273.189 759.3 272.433 758.927 271.78C758.553 271.127 758.04 270.613 757.387 270.24C756.752 269.867 756.015 269.68 755.175 269.68C754.316 269.68 753.56 269.867 752.907 270.24C752.272 270.613 751.768 271.136 751.395 271.808C751.04 272.461 750.863 273.236 750.863 274.132V274.692C750.863 275.588 751.068 276.381 751.479 277.072C751.889 277.763 752.468 278.295 753.215 278.668C753.961 279.041 754.82 279.228 755.791 279.228C756.631 279.228 757.387 279.097 758.059 278.836C758.731 278.575 759.328 278.164 759.851 277.604L761.727 279.76C761.055 280.544 760.205 281.151 759.179 281.58C758.171 281.991 757.013 282.196 755.707 282.196ZM780.965 282.196C779.435 282.196 778.072 281.869 776.877 281.216C775.683 280.544 774.74 279.629 774.049 278.472C773.359 277.315 773.013 275.999 773.013 274.524C773.013 273.031 773.359 271.715 774.049 270.576C774.74 269.419 775.683 268.513 776.877 267.86C778.072 267.207 779.435 266.88 780.965 266.88C782.515 266.88 783.887 267.207 785.081 267.86C786.295 268.513 787.237 269.409 787.909 270.548C788.6 271.687 788.945 273.012 788.945 274.524C788.945 275.999 788.6 277.315 787.909 278.472C787.237 279.629 786.295 280.544 785.081 281.216C783.887 281.869 782.515 282.196 780.965 282.196ZM780.965 279.2C781.824 279.2 782.589 279.013 783.261 278.64C783.933 278.267 784.456 277.725 784.829 277.016C785.221 276.307 785.417 275.476 785.417 274.524C785.417 273.553 785.221 272.723 784.829 272.032C784.456 271.323 783.933 270.781 783.261 270.408C782.589 270.035 781.833 269.848 780.993 269.848C780.135 269.848 779.369 270.035 778.697 270.408C778.044 270.781 777.521 271.323 777.129 272.032C776.737 272.723 776.541 273.553 776.541 274.524C776.541 275.476 776.737 276.307 777.129 277.016C777.521 277.725 778.044 278.267 778.697 278.64C779.369 279.013 780.125 279.2 780.965 279.2ZM799.543 282.28C798.311 282.28 797.209 282.093 796.239 281.72C795.268 281.347 794.428 280.777 793.719 280.012C793.028 279.228 792.496 278.239 792.123 277.044C791.749 275.849 791.563 274.431 791.563 272.788C791.563 271.593 791.665 270.501 791.871 269.512C792.076 268.523 792.384 267.636 792.795 266.852C793.205 266.049 793.719 265.34 794.335 264.724C794.969 264.108 795.707 263.595 796.547 263.184C797.387 262.773 798.339 262.456 799.403 262.232L806.347 260.748L806.851 263.884L800.551 265.172C800.196 265.247 799.767 265.359 799.263 265.508C798.777 265.639 798.273 265.844 797.751 266.124C797.247 266.385 796.771 266.768 796.323 267.272C795.893 267.757 795.539 268.392 795.259 269.176C794.997 269.941 794.867 270.903 794.867 272.06C794.867 272.415 794.876 272.685 794.895 272.872C794.932 273.04 794.96 273.227 794.979 273.432C795.016 273.619 795.035 273.899 795.035 274.272L793.719 272.9C794.092 271.948 794.605 271.136 795.259 270.464C795.931 269.773 796.705 269.251 797.583 268.896C798.479 268.523 799.449 268.336 800.495 268.336C801.895 268.336 803.136 268.625 804.219 269.204C805.301 269.783 806.151 270.595 806.767 271.64C807.383 272.685 807.691 273.871 807.691 275.196C807.691 276.577 807.355 277.8 806.683 278.864C806.011 279.928 805.059 280.768 803.827 281.384C802.613 281.981 801.185 282.28 799.543 282.28ZM799.823 279.452C800.663 279.452 801.4 279.275 802.035 278.92C802.688 278.547 803.192 278.043 803.547 277.408C803.92 276.773 804.107 276.064 804.107 275.28C804.107 274.496 803.92 273.815 803.547 273.236C803.192 272.639 802.688 272.163 802.035 271.808C801.4 271.453 800.644 271.276 799.767 271.276C798.927 271.276 798.171 271.444 797.499 271.78C796.845 272.116 796.332 272.583 795.959 273.18C795.604 273.759 795.427 274.431 795.427 275.196C795.427 275.98 795.613 276.699 795.987 277.352C796.36 278.005 796.873 278.519 797.527 278.892C798.199 279.265 798.964 279.452 799.823 279.452ZM820.108 271.948C822.012 271.948 823.458 272.387 824.448 273.264C825.437 274.123 825.932 275.327 825.932 276.876C825.932 278.519 825.372 279.788 824.252 280.684C823.15 281.561 821.582 282 819.548 282H812.8V270.016H808.376V267.048H816.3V271.948H820.108ZM819.38 279.424C820.369 279.424 821.116 279.2 821.62 278.752C822.124 278.304 822.376 277.651 822.376 276.792C822.376 275.187 821.377 274.384 819.38 274.384H816.3V279.424H819.38ZM835.988 282.196C834.327 282.196 832.871 281.869 831.62 281.216C830.388 280.544 829.427 279.629 828.736 278.472C828.064 277.315 827.728 275.999 827.728 274.524C827.728 273.031 828.055 271.715 828.708 270.576C829.38 269.419 830.295 268.513 831.452 267.86C832.628 267.207 833.963 266.88 835.456 266.88C836.912 266.88 838.209 267.197 839.348 267.832C840.487 268.467 841.383 269.363 842.036 270.52C842.689 271.677 843.016 273.04 843.016 274.608C843.016 274.757 843.007 274.925 842.988 275.112C842.988 275.299 842.979 275.476 842.96 275.644H830.5V273.32H841.112L839.74 274.048C839.759 273.189 839.581 272.433 839.208 271.78C838.835 271.127 838.321 270.613 837.668 270.24C837.033 269.867 836.296 269.68 835.456 269.68C834.597 269.68 833.841 269.867 833.188 270.24C832.553 270.613 832.049 271.136 831.676 271.808C831.321 272.461 831.144 273.236 831.144 274.132V274.692C831.144 275.588 831.349 276.381 831.76 277.072C832.171 277.763 832.749 278.295 833.496 278.668C834.243 279.041 835.101 279.228 836.072 279.228C836.912 279.228 837.668 279.097 838.34 278.836C839.012 278.575 839.609 278.164 840.132 277.604L842.008 279.76C841.336 280.544 840.487 281.151 839.46 281.58C838.452 281.991 837.295 282.196 835.988 282.196ZM856.901 280.376V270.016H851.161L851.077 272.424C851.039 273.283 850.983 274.113 850.909 274.916C850.834 275.7 850.713 276.428 850.545 277.1C850.377 277.753 850.134 278.295 849.817 278.724C849.499 279.153 849.079 279.433 848.557 279.564L845.085 279.032C845.645 279.032 846.093 278.855 846.429 278.5C846.783 278.127 847.054 277.623 847.241 276.988C847.446 276.335 847.595 275.597 847.689 274.776C847.782 273.936 847.847 273.068 847.885 272.172L848.081 267.048H860.401V280.376H856.901ZM844.553 285.332V279.032H862.613V285.332H859.337V282H847.801V285.332H844.553ZM865.739 282V267.048H869.239V276.904L877.499 267.048H880.691V282H877.191V272.144L868.959 282H865.739ZM885.399 282V267.048H888.899V273.124H896.431V267.048H899.931V282H896.431V276.092H888.899V282H885.399ZM911.594 282.196C909.932 282.196 908.476 281.869 907.226 281.216C905.994 280.544 905.032 279.629 904.342 278.472C903.67 277.315 903.334 275.999 903.334 274.524C903.334 273.031 903.66 271.715 904.314 270.576C904.986 269.419 905.9 268.513 907.058 267.86C908.234 267.207 909.568 266.88 911.062 266.88C912.518 266.88 913.815 267.197 914.954 267.832C916.092 268.467 916.988 269.363 917.642 270.52C918.295 271.677 918.622 273.04 918.622 274.608C918.622 274.757 918.612 274.925 918.594 275.112C918.594 275.299 918.584 275.476 918.566 275.644H906.106V273.32H916.718L915.346 274.048C915.364 273.189 915.187 272.433 914.814 271.78C914.44 271.127 913.927 270.613 913.274 270.24C912.639 269.867 911.902 269.68 911.062 269.68C910.203 269.68 909.447 269.867 908.794 270.24C908.159 270.613 907.655 271.136 907.282 271.808C906.927 272.461 906.75 273.236 906.75 274.132V274.692C906.75 275.588 906.955 276.381 907.366 277.072C907.776 277.763 908.355 278.295 909.102 278.668C909.848 279.041 910.707 279.228 911.678 279.228C912.518 279.228 913.274 279.097 913.946 278.836C914.618 278.575 915.215 278.164 915.738 277.604L917.614 279.76C916.942 280.544 916.092 281.151 915.066 281.58C914.058 281.991 912.9 282.196 911.594 282.196ZM922.45 282V267.048H925.95V273.124H933.482V267.048H936.982V282H933.482V276.092H925.95V282H922.45ZM941.672 282V267.048H945.172V276.904L953.432 267.048H956.624V282H953.124V272.144L944.892 282H941.672ZM968.304 282.196C966.643 282.196 965.187 281.869 963.936 281.216C962.704 280.544 961.743 279.629 961.052 278.472C960.38 277.315 960.044 275.999 960.044 274.524C960.044 273.031 960.371 271.715 961.024 270.576C961.696 269.419 962.611 268.513 963.768 267.86C964.944 267.207 966.279 266.88 967.772 266.88C969.228 266.88 970.526 267.197 971.664 267.832C972.803 268.467 973.699 269.363 974.352 270.52C975.006 271.677 975.332 273.04 975.332 274.608C975.332 274.757 975.323 274.925 975.304 275.112C975.304 275.299 975.295 275.476 975.276 275.644H962.816V273.32H973.428L972.056 274.048C972.075 273.189 971.898 272.433 971.524 271.78C971.151 271.127 970.638 270.613 969.984 270.24C969.35 269.867 968.612 269.68 967.772 269.68C966.914 269.68 966.158 269.867 965.504 270.24C964.87 270.613 964.366 271.136 963.992 271.808C963.638 272.461 963.46 273.236 963.46 274.132V274.692C963.46 275.588 963.666 276.381 964.076 277.072C964.487 277.763 965.066 278.295 965.812 278.668C966.559 279.041 967.418 279.228 968.388 279.228C969.228 279.228 969.984 279.097 970.656 278.836C971.328 278.575 971.926 278.164 972.448 277.604L974.324 279.76C973.652 280.544 972.803 281.151 971.776 281.58C970.768 281.991 969.611 282.196 968.304 282.196ZM690.791 326.928L686.815 321.524L690.791 316.092H693.955L690.063 321.524L693.955 326.928H690.791ZM696.615 326.928L692.639 321.524L696.615 316.092H699.779L695.887 321.524L699.779 326.928H696.615ZM703.395 329V309.4H718.655V312.396H706.979V317.212H712.775C715.127 317.212 716.91 317.707 718.123 318.696C719.355 319.667 719.971 321.085 719.971 322.952C719.971 324.875 719.29 326.368 717.927 327.432C716.583 328.477 714.679 329 712.215 329H703.395ZM706.979 326.2H712.019C713.419 326.2 714.483 325.929 715.211 325.388C715.939 324.847 716.303 324.063 716.303 323.036C716.303 321.02 714.875 320.012 712.019 320.012H706.979V326.2ZM730.537 329.196C728.876 329.196 727.42 328.869 726.169 328.216C724.937 327.544 723.976 326.629 723.285 325.472C722.613 324.315 722.277 322.999 722.277 321.524C722.277 320.031 722.604 318.715 723.257 317.576C723.929 316.419 724.844 315.513 726.001 314.86C727.177 314.207 728.512 313.88 730.005 313.88C731.461 313.88 732.758 314.197 733.897 314.832C735.036 315.467 735.932 316.363 736.585 317.52C737.238 318.677 737.565 320.04 737.565 321.608C737.565 321.757 737.556 321.925 737.537 322.112C737.537 322.299 737.528 322.476 737.509 322.644H725.049V320.32H735.661L734.289 321.048C734.308 320.189 734.13 319.433 733.757 318.78C733.384 318.127 732.87 317.613 732.217 317.24C731.582 316.867 730.845 316.68 730.005 316.68C729.146 316.68 728.39 316.867 727.737 317.24C727.102 317.613 726.598 318.136 726.225 318.808C725.87 319.461 725.693 320.236 725.693 321.132V321.692C725.693 322.588 725.898 323.381 726.309 324.072C726.72 324.763 727.298 325.295 728.045 325.668C728.792 326.041 729.65 326.228 730.621 326.228C731.461 326.228 732.217 326.097 732.889 325.836C733.561 325.575 734.158 325.164 734.681 324.604L736.557 326.76C735.885 327.544 735.036 328.151 734.009 328.58C733.001 328.991 731.844 329.196 730.537 329.196ZM739.018 328.972L739.186 326.032C739.316 326.051 739.438 326.069 739.55 326.088C739.662 326.107 739.764 326.116 739.858 326.116C740.436 326.116 740.884 325.939 741.202 325.584C741.519 325.229 741.752 324.753 741.902 324.156C742.07 323.54 742.182 322.859 742.238 322.112C742.312 321.347 742.368 320.581 742.406 319.816L742.658 314.048H754.754V329H751.254V316.064L752.066 317.016H744.954L745.71 316.036L745.514 319.984C745.458 321.309 745.346 322.541 745.178 323.68C745.028 324.8 744.786 325.78 744.45 326.62C744.132 327.46 743.684 328.113 743.106 328.58C742.546 329.047 741.827 329.28 740.95 329.28C740.67 329.28 740.362 329.252 740.026 329.196C739.708 329.14 739.372 329.065 739.018 328.972ZM768.539 329V325.976L768.343 325.332V320.04C768.343 319.013 768.035 318.22 767.419 317.66C766.803 317.081 765.87 316.792 764.619 316.792C763.779 316.792 762.949 316.923 762.127 317.184C761.325 317.445 760.643 317.809 760.083 318.276L758.711 315.728C759.514 315.112 760.466 314.655 761.567 314.356C762.687 314.039 763.845 313.88 765.039 313.88C767.205 313.88 768.875 314.403 770.051 315.448C771.246 316.475 771.843 318.071 771.843 320.236V329H768.539ZM763.835 329.196C762.715 329.196 761.735 329.009 760.895 328.636C760.055 328.244 759.402 327.712 758.935 327.04C758.487 326.349 758.263 325.575 758.263 324.716C758.263 323.876 758.459 323.12 758.851 322.448C759.262 321.776 759.925 321.244 760.839 320.852C761.754 320.46 762.967 320.264 764.479 320.264H768.819V322.588H764.731C763.537 322.588 762.734 322.784 762.323 323.176C761.913 323.549 761.707 324.016 761.707 324.576C761.707 325.211 761.959 325.715 762.463 326.088C762.967 326.461 763.667 326.648 764.563 326.648C765.422 326.648 766.187 326.452 766.859 326.06C767.55 325.668 768.045 325.089 768.343 324.324L768.931 326.424C768.595 327.301 767.989 327.983 767.111 328.468C766.253 328.953 765.161 329.196 763.835 329.196ZM781.729 328.972L781.897 326.032C782.027 326.051 782.149 326.069 782.261 326.088C782.373 326.107 782.475 326.116 782.569 326.116C783.147 326.116 783.595 325.939 783.913 325.584C784.23 325.229 784.463 324.753 784.613 324.156C784.781 323.54 784.893 322.859 784.949 322.112C785.023 321.347 785.079 320.581 785.117 319.816L785.369 314.048H797.465V329H793.965V316.064L794.777 317.016H787.665L788.421 316.036L788.225 319.984C788.169 321.309 788.057 322.541 787.889 323.68C787.739 324.8 787.497 325.78 787.161 326.62C786.843 327.46 786.395 328.113 785.817 328.58C785.257 329.047 784.538 329.28 783.661 329.28C783.381 329.28 783.073 329.252 782.737 329.196C782.419 329.14 782.083 329.065 781.729 328.972ZM811.25 329V325.976L811.054 325.332V320.04C811.054 319.013 810.746 318.22 810.13 317.66C809.514 317.081 808.581 316.792 807.33 316.792C806.49 316.792 805.66 316.923 804.838 317.184C804.036 317.445 803.354 317.809 802.794 318.276L801.422 315.728C802.225 315.112 803.177 314.655 804.278 314.356C805.398 314.039 806.556 313.88 807.75 313.88C809.916 313.88 811.586 314.403 812.762 315.448C813.957 316.475 814.554 318.071 814.554 320.236V329H811.25ZM806.546 329.196C805.426 329.196 804.446 329.009 803.606 328.636C802.766 328.244 802.113 327.712 801.646 327.04C801.198 326.349 800.974 325.575 800.974 324.716C800.974 323.876 801.17 323.12 801.562 322.448C801.973 321.776 802.636 321.244 803.55 320.852C804.465 320.46 805.678 320.264 807.19 320.264H811.53V322.588H807.442C806.248 322.588 805.445 322.784 805.034 323.176C804.624 323.549 804.418 324.016 804.418 324.576C804.418 325.211 804.67 325.715 805.174 326.088C805.678 326.461 806.378 326.648 807.274 326.648C808.133 326.648 808.898 326.452 809.57 326.06C810.261 325.668 810.756 325.089 811.054 324.324L811.642 326.424C811.306 327.301 810.7 327.983 809.822 328.468C808.964 328.953 807.872 329.196 806.546 329.196ZM829.133 327.376V317.016H823.393L823.309 319.424C823.272 320.283 823.216 321.113 823.141 321.916C823.067 322.7 822.945 323.428 822.777 324.1C822.609 324.753 822.367 325.295 822.049 325.724C821.732 326.153 821.312 326.433 820.789 326.564L817.317 326.032C817.877 326.032 818.325 325.855 818.661 325.5C819.016 325.127 819.287 324.623 819.473 323.988C819.679 323.335 819.828 322.597 819.921 321.776C820.015 320.936 820.08 320.068 820.117 319.172L820.313 314.048H832.633V327.376H829.133ZM816.785 332.332V326.032H834.845V332.332H831.569V329H820.033V332.332H816.785ZM845.475 318.976C847.398 318.976 848.863 319.405 849.871 320.264C850.879 321.123 851.383 322.336 851.383 323.904C851.383 325.528 850.823 326.797 849.703 327.712C848.583 328.608 847.006 329.047 844.971 329.028L837.971 329V314.048H841.471V318.948L845.475 318.976ZM844.663 326.452C845.69 326.471 846.474 326.256 847.015 325.808C847.556 325.36 847.827 324.707 847.827 323.848C847.827 322.989 847.556 322.373 847.015 322C846.492 321.608 845.708 321.403 844.663 321.384L841.471 321.356V326.424L844.663 326.452ZM862.885 329V323.904L863.389 324.492H858.909C856.856 324.492 855.241 324.063 854.065 323.204C852.908 322.327 852.329 321.067 852.329 319.424C852.329 317.669 852.945 316.335 854.177 315.42C855.428 314.505 857.089 314.048 859.161 314.048H866.021V329H862.885ZM852.133 329L856.165 323.288H859.749L855.885 329H852.133ZM862.885 322.784V316.064L863.389 316.988H859.273C858.19 316.988 857.35 317.193 856.753 317.604C856.174 317.996 855.885 318.64 855.885 319.536C855.885 321.216 856.977 322.056 859.161 322.056H863.389L862.885 322.784ZM872.381 326.928H869.217L873.109 321.524L869.217 316.092H872.381L876.357 321.524L872.381 326.928ZM878.205 326.928H875.041L878.933 321.524L875.041 316.092H878.205L882.181 321.524L878.205 326.928Z" fill="#622900"/>
</svg>
