<svg width="1006" height="336" viewBox="0 0 1006 336" fill="none" xmlns="http://www.w3.org/2000/svg">
<rect width="443" height="230" rx="30" fill="#FFD7B9"/>
<path d="M34.0416 282V264.584L34.9096 265.48H27.5736V262.4H44.1496V265.48H36.8136L37.6536 264.584V282H34.0416ZM46.5415 282V267.048H53.8495C55.6601 267.048 57.0788 267.384 58.1055 268.056C59.1508 268.728 59.6735 269.68 59.6735 270.912C59.6735 272.125 59.1881 273.077 58.2175 273.768C57.2468 274.44 55.9588 274.776 54.3535 274.776L54.7735 273.908C56.5841 273.908 57.9281 274.244 58.8055 274.916C59.7015 275.569 60.1495 276.531 60.1495 277.8C60.1495 279.125 59.6548 280.161 58.6655 280.908C57.6761 281.636 56.1735 282 54.1575 282H46.5415ZM49.8735 279.452H53.8775C54.8295 279.452 55.5481 279.303 56.0335 279.004C56.5188 278.687 56.7615 278.211 56.7615 277.576C56.7615 276.904 56.5375 276.409 56.0895 276.092C55.6415 275.775 54.9415 275.616 53.9895 275.616H49.8735V279.452ZM49.8735 273.292H53.5415C54.4375 273.292 55.1095 273.133 55.5575 272.816C56.0241 272.48 56.2575 272.013 56.2575 271.416C56.2575 270.8 56.0241 270.343 55.5575 270.044C55.1095 269.745 54.4375 269.596 53.5415 269.596H49.8735V273.292ZM70.5414 282.196C69.0107 282.196 67.6481 281.869 66.4534 281.216C65.2587 280.544 64.3161 279.629 63.6254 278.472C62.9347 277.315 62.5894 275.999 62.5894 274.524C62.5894 273.031 62.9347 271.715 63.6254 270.576C64.3161 269.419 65.2587 268.513 66.4534 267.86C67.6481 267.207 69.0107 266.88 70.5414 266.88C72.0907 266.88 73.4627 267.207 74.6574 267.86C75.8707 268.513 76.8134 269.409 77.4854 270.548C78.1761 271.687 78.5214 273.012 78.5214 274.524C78.5214 275.999 78.1761 277.315 77.4854 278.472C76.8134 279.629 75.8707 280.544 74.6574 281.216C73.4627 281.869 72.0907 282.196 70.5414 282.196ZM70.5414 279.2C71.4001 279.2 72.1654 279.013 72.8374 278.64C73.5094 278.267 74.0321 277.725 74.4054 277.016C74.7974 276.307 74.9934 275.476 74.9934 274.524C74.9934 273.553 74.7974 272.723 74.4054 272.032C74.0321 271.323 73.5094 270.781 72.8374 270.408C72.1654 270.035 71.4094 269.848 70.5694 269.848C69.7107 269.848 68.9454 270.035 68.2734 270.408C67.6201 270.781 67.0974 271.323 66.7054 272.032C66.3134 272.723 66.1174 273.553 66.1174 274.524C66.1174 275.476 66.3134 276.307 66.7054 277.016C67.0974 277.725 67.6201 278.267 68.2734 278.64C68.9454 279.013 69.7014 279.2 70.5414 279.2ZM90.267 282.196C89.0536 282.196 87.943 281.916 86.935 281.356C85.9456 280.796 85.1523 279.956 84.555 278.836C83.9763 277.697 83.687 276.26 83.687 274.524C83.687 272.769 83.967 271.332 84.527 270.212C85.1056 269.092 85.8896 268.261 86.879 267.72C87.8683 267.16 88.9976 266.88 90.267 266.88C91.7416 266.88 93.039 267.197 94.159 267.832C95.2976 268.467 96.1936 269.353 96.847 270.492C97.519 271.631 97.855 272.975 97.855 274.524C97.855 276.073 97.519 277.427 96.847 278.584C96.1936 279.723 95.2976 280.609 94.159 281.244C93.039 281.879 91.7416 282.196 90.267 282.196ZM81.979 287.432V267.048H85.311V270.576L85.199 274.552L85.479 278.528V287.432H81.979ZM89.875 279.2C90.715 279.2 91.4616 279.013 92.115 278.64C92.787 278.267 93.319 277.725 93.711 277.016C94.103 276.307 94.299 275.476 94.299 274.524C94.299 273.553 94.103 272.723 93.711 272.032C93.319 271.323 92.787 270.781 92.115 270.408C91.4616 270.035 90.715 269.848 89.875 269.848C89.035 269.848 88.279 270.035 87.607 270.408C86.935 270.781 86.403 271.323 86.011 272.032C85.619 272.723 85.423 273.553 85.423 274.524C85.423 275.476 85.619 276.307 86.011 277.016C86.403 277.725 86.935 278.267 87.607 278.64C88.279 279.013 89.035 279.2 89.875 279.2ZM110.774 276.092C110.065 276.428 109.309 276.708 108.506 276.932C107.722 277.137 106.892 277.24 106.014 277.24C104.129 277.24 102.664 276.801 101.618 275.924C100.573 275.047 100.05 273.684 100.05 271.836V267.048H103.55V271.612C103.55 272.601 103.83 273.32 104.39 273.768C104.969 274.216 105.762 274.44 106.77 274.44C107.442 274.44 108.114 274.356 108.786 274.188C109.458 274.02 110.121 273.787 110.774 273.488V276.092ZM110.522 282V267.048H114.022V282H110.522ZM125.701 282.196C124.04 282.196 122.584 281.869 121.333 281.216C120.101 280.544 119.14 279.629 118.449 278.472C117.777 277.315 117.441 275.999 117.441 274.524C117.441 273.031 117.768 271.715 118.421 270.576C119.093 269.419 120.008 268.513 121.165 267.86C122.341 267.207 123.676 266.88 125.169 266.88C126.625 266.88 127.922 267.197 129.061 267.832C130.2 268.467 131.096 269.363 131.749 270.52C132.402 271.677 132.729 273.04 132.729 274.608C132.729 274.757 132.72 274.925 132.701 275.112C132.701 275.299 132.692 275.476 132.673 275.644H120.213V273.32H130.825L129.453 274.048C129.472 273.189 129.294 272.433 128.921 271.78C128.548 271.127 128.034 270.613 127.381 270.24C126.746 269.867 126.009 269.68 125.169 269.68C124.31 269.68 123.554 269.867 122.901 270.24C122.266 270.613 121.762 271.136 121.389 271.808C121.034 272.461 120.857 273.236 120.857 274.132V274.692C120.857 275.588 121.062 276.381 121.473 277.072C121.884 277.763 122.462 278.295 123.209 278.668C123.956 279.041 124.814 279.228 125.785 279.228C126.625 279.228 127.381 279.097 128.053 278.836C128.725 278.575 129.322 278.164 129.845 277.604L131.721 279.76C131.049 280.544 130.2 281.151 129.173 281.58C128.165 281.991 127.008 282.196 125.701 282.196ZM143.361 282.196C141.793 282.196 140.393 281.869 139.161 281.216C137.948 280.544 136.996 279.629 136.305 278.472C135.614 277.315 135.269 275.999 135.269 274.524C135.269 273.031 135.614 271.715 136.305 270.576C136.996 269.419 137.948 268.513 139.161 267.86C140.393 267.207 141.793 266.88 143.361 266.88C144.817 266.88 146.096 267.179 147.197 267.776C148.317 268.355 149.166 269.213 149.745 270.352L147.057 271.92C146.609 271.211 146.058 270.688 145.405 270.352C144.77 270.016 144.08 269.848 143.333 269.848C142.474 269.848 141.7 270.035 141.009 270.408C140.318 270.781 139.777 271.323 139.385 272.032C138.993 272.723 138.797 273.553 138.797 274.524C138.797 275.495 138.993 276.335 139.385 277.044C139.777 277.735 140.318 278.267 141.009 278.64C141.7 279.013 142.474 279.2 143.333 279.2C144.08 279.2 144.77 279.032 145.405 278.696C146.058 278.36 146.609 277.837 147.057 277.128L149.745 278.696C149.166 279.816 148.317 280.684 147.197 281.3C146.096 281.897 144.817 282.196 143.361 282.196ZM163.551 282L158.147 274.832L161.003 273.068L167.667 282H163.551ZM152.827 282V267.048H156.327V282H152.827ZM155.291 276.008V273.096H160.359V276.008H155.291ZM161.339 274.944L158.063 274.552L163.551 267.048H167.303L161.339 274.944ZM176.307 282.196C174.776 282.196 173.414 281.869 172.219 281.216C171.024 280.544 170.082 279.629 169.391 278.472C168.7 277.315 168.355 275.999 168.355 274.524C168.355 273.031 168.7 271.715 169.391 270.576C170.082 269.419 171.024 268.513 172.219 267.86C173.414 267.207 174.776 266.88 176.307 266.88C177.856 266.88 179.228 267.207 180.423 267.86C181.636 268.513 182.579 269.409 183.251 270.548C183.942 271.687 184.287 273.012 184.287 274.524C184.287 275.999 183.942 277.315 183.251 278.472C182.579 279.629 181.636 280.544 180.423 281.216C179.228 281.869 177.856 282.196 176.307 282.196ZM176.307 279.2C177.166 279.2 177.931 279.013 178.603 278.64C179.275 278.267 179.798 277.725 180.171 277.016C180.563 276.307 180.759 275.476 180.759 274.524C180.759 273.553 180.563 272.723 180.171 272.032C179.798 271.323 179.275 270.781 178.603 270.408C177.931 270.035 177.175 269.848 176.335 269.848C175.476 269.848 174.711 270.035 174.039 270.408C173.386 270.781 172.863 271.323 172.471 272.032C172.079 272.723 171.883 273.553 171.883 274.524C171.883 275.476 172.079 276.307 172.471 277.016C172.863 277.725 173.386 278.267 174.039 278.64C174.711 279.013 175.467 279.2 176.307 279.2ZM194.717 282.196C193.055 282.196 191.599 281.869 190.349 281.216C189.117 280.544 188.155 279.629 187.465 278.472C186.793 277.315 186.457 275.999 186.457 274.524C186.457 273.031 186.783 271.715 187.437 270.576C188.109 269.419 189.023 268.513 190.181 267.86C191.357 267.207 192.691 266.88 194.185 266.88C195.641 266.88 196.938 267.197 198.077 267.832C199.215 268.467 200.111 269.363 200.765 270.52C201.418 271.677 201.745 273.04 201.745 274.608C201.745 274.757 201.735 274.925 201.717 275.112C201.717 275.299 201.707 275.476 201.689 275.644H189.229V273.32H199.841L198.469 274.048C198.487 273.189 198.31 272.433 197.937 271.78C197.563 271.127 197.05 270.613 196.397 270.24C195.762 269.867 195.025 269.68 194.185 269.68C193.326 269.68 192.57 269.867 191.917 270.24C191.282 270.613 190.778 271.136 190.405 271.808C190.05 272.461 189.873 273.236 189.873 274.132V274.692C189.873 275.588 190.078 276.381 190.489 277.072C190.899 277.763 191.478 278.295 192.225 278.668C192.971 279.041 193.83 279.228 194.801 279.228C195.641 279.228 196.397 279.097 197.069 278.836C197.741 278.575 198.338 278.164 198.861 277.604L200.737 279.76C200.065 280.544 199.215 281.151 198.189 281.58C197.181 281.991 196.023 282.196 194.717 282.196ZM219.975 282.196C218.444 282.196 217.082 281.869 215.887 281.216C214.692 280.544 213.75 279.629 213.059 278.472C212.368 277.315 212.023 275.999 212.023 274.524C212.023 273.031 212.368 271.715 213.059 270.576C213.75 269.419 214.692 268.513 215.887 267.86C217.082 267.207 218.444 266.88 219.975 266.88C221.524 266.88 222.896 267.207 224.091 267.86C225.304 268.513 226.247 269.409 226.919 270.548C227.61 271.687 227.955 273.012 227.955 274.524C227.955 275.999 227.61 277.315 226.919 278.472C226.247 279.629 225.304 280.544 224.091 281.216C222.896 281.869 221.524 282.196 219.975 282.196ZM219.975 279.2C220.834 279.2 221.599 279.013 222.271 278.64C222.943 278.267 223.466 277.725 223.839 277.016C224.231 276.307 224.427 275.476 224.427 274.524C224.427 273.553 224.231 272.723 223.839 272.032C223.466 271.323 222.943 270.781 222.271 270.408C221.599 270.035 220.843 269.848 220.003 269.848C219.144 269.848 218.379 270.035 217.707 270.408C217.054 270.781 216.531 271.323 216.139 272.032C215.747 272.723 215.551 273.553 215.551 274.524C215.551 275.476 215.747 276.307 216.139 277.016C216.531 277.725 217.054 278.267 217.707 278.64C218.379 279.013 219.135 279.2 219.975 279.2ZM238.553 282.28C237.321 282.28 236.219 282.093 235.249 281.72C234.278 281.347 233.438 280.777 232.729 280.012C232.038 279.228 231.506 278.239 231.133 277.044C230.759 275.849 230.573 274.431 230.573 272.788C230.573 271.593 230.675 270.501 230.881 269.512C231.086 268.523 231.394 267.636 231.805 266.852C232.215 266.049 232.729 265.34 233.345 264.724C233.979 264.108 234.717 263.595 235.557 263.184C236.397 262.773 237.349 262.456 238.413 262.232L245.357 260.748L245.861 263.884L239.561 265.172C239.206 265.247 238.777 265.359 238.273 265.508C237.787 265.639 237.283 265.844 236.761 266.124C236.257 266.385 235.781 266.768 235.333 267.272C234.903 267.757 234.549 268.392 234.269 269.176C234.007 269.941 233.877 270.903 233.877 272.06C233.877 272.415 233.886 272.685 233.905 272.872C233.942 273.04 233.97 273.227 233.989 273.432C234.026 273.619 234.045 273.899 234.045 274.272L232.729 272.9C233.102 271.948 233.615 271.136 234.269 270.464C234.941 269.773 235.715 269.251 236.593 268.896C237.489 268.523 238.459 268.336 239.505 268.336C240.905 268.336 242.146 268.625 243.229 269.204C244.311 269.783 245.161 270.595 245.777 271.64C246.393 272.685 246.701 273.871 246.701 275.196C246.701 276.577 246.365 277.8 245.693 278.864C245.021 279.928 244.069 280.768 242.837 281.384C241.623 281.981 240.195 282.28 238.553 282.28ZM238.833 279.452C239.673 279.452 240.41 279.275 241.045 278.92C241.698 278.547 242.202 278.043 242.557 277.408C242.93 276.773 243.117 276.064 243.117 275.28C243.117 274.496 242.93 273.815 242.557 273.236C242.202 272.639 241.698 272.163 241.045 271.808C240.41 271.453 239.654 271.276 238.777 271.276C237.937 271.276 237.181 271.444 236.509 271.78C235.855 272.116 235.342 272.583 234.969 273.18C234.614 273.759 234.437 274.431 234.437 275.196C234.437 275.98 234.623 276.699 234.997 277.352C235.37 278.005 235.883 278.519 236.537 278.892C237.209 279.265 237.974 279.452 238.833 279.452ZM259.117 271.948C261.021 271.948 262.468 272.387 263.457 273.264C264.447 274.123 264.941 275.327 264.941 276.876C264.941 278.519 264.381 279.788 263.261 280.684C262.16 281.561 260.592 282 258.557 282H251.809V270.016H247.385V267.048H255.309V271.948H259.117ZM258.389 279.424C259.379 279.424 260.125 279.2 260.629 278.752C261.133 278.304 261.385 277.651 261.385 276.792C261.385 275.187 260.387 274.384 258.389 274.384H255.309V279.424H258.389ZM274.998 282.196C273.336 282.196 271.88 281.869 270.63 281.216C269.398 280.544 268.436 279.629 267.746 278.472C267.074 277.315 266.738 275.999 266.738 274.524C266.738 273.031 267.064 271.715 267.718 270.576C268.39 269.419 269.304 268.513 270.462 267.86C271.638 267.207 272.972 266.88 274.466 266.88C275.922 266.88 277.219 267.197 278.358 267.832C279.496 268.467 280.392 269.363 281.046 270.52C281.699 271.677 282.026 273.04 282.026 274.608C282.026 274.757 282.016 274.925 281.998 275.112C281.998 275.299 281.988 275.476 281.97 275.644H269.51V273.32H280.122L278.75 274.048C278.768 273.189 278.591 272.433 278.218 271.78C277.844 271.127 277.331 270.613 276.678 270.24C276.043 269.867 275.306 269.68 274.466 269.68C273.607 269.68 272.851 269.867 272.198 270.24C271.563 270.613 271.059 271.136 270.686 271.808C270.331 272.461 270.154 273.236 270.154 274.132V274.692C270.154 275.588 270.359 276.381 270.77 277.072C271.18 277.763 271.759 278.295 272.506 278.668C273.252 279.041 274.111 279.228 275.082 279.228C275.922 279.228 276.678 279.097 277.35 278.836C278.022 278.575 278.619 278.164 279.142 277.604L281.018 279.76C280.346 280.544 279.496 281.151 278.47 281.58C277.462 281.991 276.304 282.196 274.998 282.196ZM295.911 280.376V270.016H290.171L290.087 272.424C290.049 273.283 289.993 274.113 289.919 274.916C289.844 275.7 289.723 276.428 289.555 277.1C289.387 277.753 289.144 278.295 288.827 278.724C288.509 279.153 288.089 279.433 287.567 279.564L284.095 279.032C284.655 279.032 285.103 278.855 285.439 278.5C285.793 278.127 286.064 277.623 286.251 276.988C286.456 276.335 286.605 275.597 286.699 274.776C286.792 273.936 286.857 273.068 286.895 272.172L287.091 267.048H299.411V280.376H295.911ZM283.563 285.332V279.032H301.623V285.332H298.347V282H286.811V285.332H283.563ZM304.748 282V267.048H308.248V276.904L316.508 267.048H319.7V282H316.2V272.144L307.968 282H304.748ZM324.409 282V267.048H327.909V273.124H335.441V267.048H338.941V282H335.441V276.092H327.909V282H324.409ZM350.603 282.196C348.942 282.196 347.486 281.869 346.235 281.216C345.003 280.544 344.042 279.629 343.351 278.472C342.679 277.315 342.343 275.999 342.343 274.524C342.343 273.031 342.67 271.715 343.323 270.576C343.995 269.419 344.91 268.513 346.067 267.86C347.243 267.207 348.578 266.88 350.071 266.88C351.527 266.88 352.825 267.197 353.963 267.832C355.102 268.467 355.998 269.363 356.651 270.52C357.305 271.677 357.631 273.04 357.631 274.608C357.631 274.757 357.622 274.925 357.603 275.112C357.603 275.299 357.594 275.476 357.575 275.644H345.115V273.32H355.727L354.355 274.048C354.374 273.189 354.197 272.433 353.823 271.78C353.45 271.127 352.937 270.613 352.283 270.24C351.649 269.867 350.911 269.68 350.071 269.68C349.213 269.68 348.457 269.867 347.803 270.24C347.169 270.613 346.665 271.136 346.291 271.808C345.937 272.461 345.759 273.236 345.759 274.132V274.692C345.759 275.588 345.965 276.381 346.375 277.072C346.786 277.763 347.365 278.295 348.111 278.668C348.858 279.041 349.717 279.228 350.687 279.228C351.527 279.228 352.283 279.097 352.955 278.836C353.627 278.575 354.225 278.164 354.747 277.604L356.623 279.76C355.951 280.544 355.102 281.151 354.075 281.58C353.067 281.991 351.91 282.196 350.603 282.196ZM361.459 282V267.048H364.959V273.124H372.491V267.048H375.991V282H372.491V276.092H364.959V282H361.459ZM380.682 282V267.048H384.182V276.904L392.442 267.048H395.634V282H392.134V272.144L383.902 282H380.682ZM407.314 282.196C405.653 282.196 404.197 281.869 402.946 281.216C401.714 280.544 400.753 279.629 400.062 278.472C399.39 277.315 399.054 275.999 399.054 274.524C399.054 273.031 399.381 271.715 400.034 270.576C400.706 269.419 401.621 268.513 402.778 267.86C403.954 267.207 405.289 266.88 406.782 266.88C408.238 266.88 409.536 267.197 410.674 267.832C411.813 268.467 412.709 269.363 413.362 270.52C414.016 271.677 414.342 273.04 414.342 274.608C414.342 274.757 414.333 274.925 414.314 275.112C414.314 275.299 414.305 275.476 414.286 275.644H401.826V273.32H412.438L411.066 274.048C411.085 273.189 410.908 272.433 410.534 271.78C410.161 271.127 409.648 270.613 408.994 270.24C408.36 269.867 407.622 269.68 406.782 269.68C405.924 269.68 405.168 269.867 404.514 270.24C403.88 270.613 403.376 271.136 403.002 271.808C402.648 272.461 402.47 273.236 402.47 274.132V274.692C402.47 275.588 402.676 276.381 403.086 277.072C403.497 277.763 404.076 278.295 404.822 278.668C405.569 279.041 406.428 279.228 407.398 279.228C408.238 279.228 408.994 279.097 409.666 278.836C410.338 278.575 410.936 278.164 411.458 277.604L413.334 279.76C412.662 280.544 411.813 281.151 410.786 281.58C409.778 281.991 408.621 282.196 407.314 282.196ZM123.716 326.928L119.74 321.524L123.716 316.092H126.88L122.988 321.524L126.88 326.928H123.716ZM129.54 326.928L125.564 321.524L129.54 316.092H132.704L128.812 321.524L132.704 326.928H129.54ZM136.321 329V309.4H145.085C147.287 309.4 149.005 309.839 150.237 310.716C151.469 311.575 152.085 312.816 152.085 314.44C152.085 316.045 151.497 317.287 150.321 318.164C149.145 319.023 147.595 319.452 145.673 319.452L146.177 318.444C148.361 318.444 150.05 318.883 151.245 319.76C152.439 320.637 153.037 321.907 153.037 323.568C153.037 325.267 152.411 326.601 151.161 327.572C149.91 328.524 148.062 329 145.617 329H136.321ZM139.905 326.2H145.505C146.774 326.2 147.735 325.967 148.389 325.5C149.042 325.015 149.369 324.277 149.369 323.288C149.369 322.299 149.042 321.58 148.389 321.132C147.735 320.665 146.774 320.432 145.505 320.432H139.905V326.2ZM139.905 317.772H144.777C145.953 317.772 146.849 317.539 147.465 317.072C148.081 316.587 148.389 315.896 148.389 315C148.389 314.067 148.081 313.367 147.465 312.9C146.849 312.433 145.953 312.2 144.777 312.2H139.905V317.772ZM171.883 329V314.048H175.383V329H171.883ZM164.071 318.976C165.994 318.976 167.45 319.405 168.439 320.264C169.447 321.123 169.951 322.336 169.951 323.904C169.951 325.528 169.391 326.797 168.271 327.712C167.17 328.608 165.602 329.047 163.567 329.028L156.791 329V314.048H160.291V318.948L164.071 318.976ZM163.259 326.452C164.286 326.471 165.07 326.256 165.611 325.808C166.153 325.36 166.423 324.707 166.423 323.848C166.423 322.989 166.153 322.373 165.611 322C165.089 321.608 164.305 321.403 163.259 321.384L160.291 321.356V326.424L163.259 326.452ZM197.924 329L193.556 321.832L196.412 320.068L202.096 329H197.924ZM190.728 323.008V320.096H195.74V323.008H190.728ZM196.748 321.944L193.444 321.552L197.98 314.048H201.704L196.748 321.944ZM182.132 329H177.988L183.644 320.068L186.5 321.832L182.132 329ZM191.764 329H188.292V314.048H191.764V329ZM189.328 323.008H184.344V320.096H189.328V323.008ZM183.308 321.944L178.352 314.048H182.076L186.584 321.552L183.308 321.944ZM204.698 329V314.048H208.198V323.904L216.458 314.048H219.65V329H216.15V319.144L207.918 329H204.698ZM224.358 329V314.048H235.838V317.016H227.046L227.858 316.232V329H224.358ZM247.457 329V325.976L247.261 325.332V320.04C247.261 319.013 246.953 318.22 246.337 317.66C245.721 317.081 244.788 316.792 243.537 316.792C242.697 316.792 241.867 316.923 241.045 317.184C240.243 317.445 239.561 317.809 239.001 318.276L237.629 315.728C238.432 315.112 239.384 314.655 240.485 314.356C241.605 314.039 242.763 313.88 243.957 313.88C246.123 313.88 247.793 314.403 248.969 315.448C250.164 316.475 250.761 318.071 250.761 320.236V329H247.457ZM242.753 329.196C241.633 329.196 240.653 329.009 239.813 328.636C238.973 328.244 238.32 327.712 237.853 327.04C237.405 326.349 237.181 325.575 237.181 324.716C237.181 323.876 237.377 323.12 237.769 322.448C238.18 321.776 238.843 321.244 239.757 320.852C240.672 320.46 241.885 320.264 243.397 320.264H247.737V322.588H243.649C242.455 322.588 241.652 322.784 241.241 323.176C240.831 323.549 240.625 324.016 240.625 324.576C240.625 325.211 240.877 325.715 241.381 326.088C241.885 326.461 242.585 326.648 243.481 326.648C244.34 326.648 245.105 326.452 245.777 326.06C246.468 325.668 246.963 325.089 247.261 324.324L247.849 326.424C247.513 327.301 246.907 327.983 246.029 328.468C245.171 328.953 244.079 329.196 242.753 329.196ZM255.092 329V314.048H258.592V320.124H266.124V314.048H269.624V329H266.124V323.092H258.592V329H255.092ZM274.315 329V314.048H277.815V323.904L286.075 314.048H289.267V329H285.767V319.144L277.535 329H274.315ZM300.947 329.196C299.286 329.196 297.83 328.869 296.579 328.216C295.347 327.544 294.386 326.629 293.695 325.472C293.023 324.315 292.687 322.999 292.687 321.524C292.687 320.031 293.014 318.715 293.667 317.576C294.339 316.419 295.254 315.513 296.411 314.86C297.587 314.207 298.922 313.88 300.415 313.88C301.871 313.88 303.168 314.197 304.307 314.832C305.446 315.467 306.342 316.363 306.995 317.52C307.648 318.677 307.975 320.04 307.975 321.608C307.975 321.757 307.966 321.925 307.947 322.112C307.947 322.299 307.938 322.476 307.919 322.644H295.459V320.32H306.071L304.699 321.048C304.718 320.189 304.54 319.433 304.167 318.78C303.794 318.127 303.28 317.613 302.627 317.24C301.992 316.867 301.255 316.68 300.415 316.68C299.556 316.68 298.8 316.867 298.147 317.24C297.512 317.613 297.008 318.136 296.635 318.808C296.28 319.461 296.103 320.236 296.103 321.132V321.692C296.103 322.588 296.308 323.381 296.719 324.072C297.13 324.763 297.708 325.295 298.455 325.668C299.202 326.041 300.06 326.228 301.031 326.228C301.871 326.228 302.627 326.097 303.299 325.836C303.971 325.575 304.568 325.164 305.091 324.604L306.967 326.76C306.295 327.544 305.446 328.151 304.419 328.58C303.411 328.991 302.254 329.196 300.947 329.196ZM313.455 326.928H310.291L314.183 321.524L310.291 316.092H313.455L317.431 321.524L313.455 326.928ZM319.279 326.928H316.115L320.007 321.524L316.115 316.092H319.279L323.255 321.524L319.279 326.928Z" fill="#622900"/>
<rect x="563" width="443" height="230" rx="30" fill="#FFD7B9"/>
<path d="M597.042 282V264.584L597.91 265.48H590.574V262.4H607.15V265.48H599.814L600.654 264.584V282H597.042ZM609.541 282V267.048H616.849C618.66 267.048 620.079 267.384 621.105 268.056C622.151 268.728 622.673 269.68 622.673 270.912C622.673 272.125 622.188 273.077 621.217 273.768C620.247 274.44 618.959 274.776 617.353 274.776L617.773 273.908C619.584 273.908 620.928 274.244 621.805 274.916C622.701 275.569 623.149 276.531 623.149 277.8C623.149 279.125 622.655 280.161 621.665 280.908C620.676 281.636 619.173 282 617.157 282H609.541ZM612.873 279.452H616.877C617.829 279.452 618.548 279.303 619.033 279.004C619.519 278.687 619.761 278.211 619.761 277.576C619.761 276.904 619.537 276.409 619.089 276.092C618.641 275.775 617.941 275.616 616.989 275.616H612.873V279.452ZM612.873 273.292H616.541C617.437 273.292 618.109 273.133 618.557 272.816C619.024 272.48 619.257 272.013 619.257 271.416C619.257 270.8 619.024 270.343 618.557 270.044C618.109 269.745 617.437 269.596 616.541 269.596H612.873V273.292ZM633.541 282.196C632.011 282.196 630.648 281.869 629.453 281.216C628.259 280.544 627.316 279.629 626.625 278.472C625.935 277.315 625.589 275.999 625.589 274.524C625.589 273.031 625.935 271.715 626.625 270.576C627.316 269.419 628.259 268.513 629.453 267.86C630.648 267.207 632.011 266.88 633.541 266.88C635.091 266.88 636.463 267.207 637.657 267.86C638.871 268.513 639.813 269.409 640.485 270.548C641.176 271.687 641.521 273.012 641.521 274.524C641.521 275.999 641.176 277.315 640.485 278.472C639.813 279.629 638.871 280.544 637.657 281.216C636.463 281.869 635.091 282.196 633.541 282.196ZM633.541 279.2C634.4 279.2 635.165 279.013 635.837 278.64C636.509 278.267 637.032 277.725 637.405 277.016C637.797 276.307 637.993 275.476 637.993 274.524C637.993 273.553 637.797 272.723 637.405 272.032C637.032 271.323 636.509 270.781 635.837 270.408C635.165 270.035 634.409 269.848 633.569 269.848C632.711 269.848 631.945 270.035 631.273 270.408C630.62 270.781 630.097 271.323 629.705 272.032C629.313 272.723 629.117 273.553 629.117 274.524C629.117 275.476 629.313 276.307 629.705 277.016C630.097 277.725 630.62 278.267 631.273 278.64C631.945 279.013 632.701 279.2 633.541 279.2ZM653.267 282.196C652.054 282.196 650.943 281.916 649.935 281.356C648.946 280.796 648.152 279.956 647.555 278.836C646.976 277.697 646.687 276.26 646.687 274.524C646.687 272.769 646.967 271.332 647.527 270.212C648.106 269.092 648.89 268.261 649.879 267.72C650.868 267.16 651.998 266.88 653.267 266.88C654.742 266.88 656.039 267.197 657.159 267.832C658.298 268.467 659.194 269.353 659.847 270.492C660.519 271.631 660.855 272.975 660.855 274.524C660.855 276.073 660.519 277.427 659.847 278.584C659.194 279.723 658.298 280.609 657.159 281.244C656.039 281.879 654.742 282.196 653.267 282.196ZM644.979 287.432V267.048H648.311V270.576L648.199 274.552L648.479 278.528V287.432H644.979ZM652.875 279.2C653.715 279.2 654.462 279.013 655.115 278.64C655.787 278.267 656.319 277.725 656.711 277.016C657.103 276.307 657.299 275.476 657.299 274.524C657.299 273.553 657.103 272.723 656.711 272.032C656.319 271.323 655.787 270.781 655.115 270.408C654.462 270.035 653.715 269.848 652.875 269.848C652.035 269.848 651.279 270.035 650.607 270.408C649.935 270.781 649.403 271.323 649.011 272.032C648.619 272.723 648.423 273.553 648.423 274.524C648.423 275.476 648.619 276.307 649.011 277.016C649.403 277.725 649.935 278.267 650.607 278.64C651.279 279.013 652.035 279.2 652.875 279.2ZM673.774 276.092C673.065 276.428 672.309 276.708 671.506 276.932C670.722 277.137 669.892 277.24 669.014 277.24C667.129 277.24 665.664 276.801 664.618 275.924C663.573 275.047 663.05 273.684 663.05 271.836V267.048H666.55V271.612C666.55 272.601 666.83 273.32 667.39 273.768C667.969 274.216 668.762 274.44 669.77 274.44C670.442 274.44 671.114 274.356 671.786 274.188C672.458 274.02 673.121 273.787 673.774 273.488V276.092ZM673.522 282V267.048H677.022V282H673.522ZM688.701 282.196C687.04 282.196 685.584 281.869 684.333 281.216C683.101 280.544 682.14 279.629 681.449 278.472C680.777 277.315 680.441 275.999 680.441 274.524C680.441 273.031 680.768 271.715 681.421 270.576C682.093 269.419 683.008 268.513 684.165 267.86C685.341 267.207 686.676 266.88 688.169 266.88C689.625 266.88 690.922 267.197 692.061 267.832C693.2 268.467 694.096 269.363 694.749 270.52C695.402 271.677 695.729 273.04 695.729 274.608C695.729 274.757 695.72 274.925 695.701 275.112C695.701 275.299 695.692 275.476 695.673 275.644H683.213V273.32H693.825L692.453 274.048C692.472 273.189 692.294 272.433 691.921 271.78C691.548 271.127 691.034 270.613 690.381 270.24C689.746 269.867 689.009 269.68 688.169 269.68C687.31 269.68 686.554 269.867 685.901 270.24C685.266 270.613 684.762 271.136 684.389 271.808C684.034 272.461 683.857 273.236 683.857 274.132V274.692C683.857 275.588 684.062 276.381 684.473 277.072C684.884 277.763 685.462 278.295 686.209 278.668C686.956 279.041 687.814 279.228 688.785 279.228C689.625 279.228 690.381 279.097 691.053 278.836C691.725 278.575 692.322 278.164 692.845 277.604L694.721 279.76C694.049 280.544 693.2 281.151 692.173 281.58C691.165 281.991 690.008 282.196 688.701 282.196ZM706.361 282.196C704.793 282.196 703.393 281.869 702.161 281.216C700.948 280.544 699.996 279.629 699.305 278.472C698.614 277.315 698.269 275.999 698.269 274.524C698.269 273.031 698.614 271.715 699.305 270.576C699.996 269.419 700.948 268.513 702.161 267.86C703.393 267.207 704.793 266.88 706.361 266.88C707.817 266.88 709.096 267.179 710.197 267.776C711.317 268.355 712.166 269.213 712.745 270.352L710.057 271.92C709.609 271.211 709.058 270.688 708.405 270.352C707.77 270.016 707.08 269.848 706.333 269.848C705.474 269.848 704.7 270.035 704.009 270.408C703.318 270.781 702.777 271.323 702.385 272.032C701.993 272.723 701.797 273.553 701.797 274.524C701.797 275.495 701.993 276.335 702.385 277.044C702.777 277.735 703.318 278.267 704.009 278.64C704.7 279.013 705.474 279.2 706.333 279.2C707.08 279.2 707.77 279.032 708.405 278.696C709.058 278.36 709.609 277.837 710.057 277.128L712.745 278.696C712.166 279.816 711.317 280.684 710.197 281.3C709.096 281.897 707.817 282.196 706.361 282.196ZM726.551 282L721.147 274.832L724.003 273.068L730.667 282H726.551ZM715.827 282V267.048H719.327V282H715.827ZM718.291 276.008V273.096H723.359V276.008H718.291ZM724.339 274.944L721.063 274.552L726.551 267.048H730.303L724.339 274.944ZM739.307 282.196C737.776 282.196 736.414 281.869 735.219 281.216C734.024 280.544 733.082 279.629 732.391 278.472C731.7 277.315 731.355 275.999 731.355 274.524C731.355 273.031 731.7 271.715 732.391 270.576C733.082 269.419 734.024 268.513 735.219 267.86C736.414 267.207 737.776 266.88 739.307 266.88C740.856 266.88 742.228 267.207 743.423 267.86C744.636 268.513 745.579 269.409 746.251 270.548C746.942 271.687 747.287 273.012 747.287 274.524C747.287 275.999 746.942 277.315 746.251 278.472C745.579 279.629 744.636 280.544 743.423 281.216C742.228 281.869 740.856 282.196 739.307 282.196ZM739.307 279.2C740.166 279.2 740.931 279.013 741.603 278.64C742.275 278.267 742.798 277.725 743.171 277.016C743.563 276.307 743.759 275.476 743.759 274.524C743.759 273.553 743.563 272.723 743.171 272.032C742.798 271.323 742.275 270.781 741.603 270.408C740.931 270.035 740.175 269.848 739.335 269.848C738.476 269.848 737.711 270.035 737.039 270.408C736.386 270.781 735.863 271.323 735.471 272.032C735.079 272.723 734.883 273.553 734.883 274.524C734.883 275.476 735.079 276.307 735.471 277.016C735.863 277.725 736.386 278.267 737.039 278.64C737.711 279.013 738.467 279.2 739.307 279.2ZM757.717 282.196C756.055 282.196 754.599 281.869 753.349 281.216C752.117 280.544 751.155 279.629 750.465 278.472C749.793 277.315 749.457 275.999 749.457 274.524C749.457 273.031 749.783 271.715 750.437 270.576C751.109 269.419 752.023 268.513 753.181 267.86C754.357 267.207 755.691 266.88 757.185 266.88C758.641 266.88 759.938 267.197 761.077 267.832C762.215 268.467 763.111 269.363 763.765 270.52C764.418 271.677 764.745 273.04 764.745 274.608C764.745 274.757 764.735 274.925 764.717 275.112C764.717 275.299 764.707 275.476 764.689 275.644H752.229V273.32H762.841L761.469 274.048C761.487 273.189 761.31 272.433 760.937 271.78C760.563 271.127 760.05 270.613 759.397 270.24C758.762 269.867 758.025 269.68 757.185 269.68C756.326 269.68 755.57 269.867 754.917 270.24C754.282 270.613 753.778 271.136 753.405 271.808C753.05 272.461 752.873 273.236 752.873 274.132V274.692C752.873 275.588 753.078 276.381 753.489 277.072C753.899 277.763 754.478 278.295 755.225 278.668C755.971 279.041 756.83 279.228 757.801 279.228C758.641 279.228 759.397 279.097 760.069 278.836C760.741 278.575 761.338 278.164 761.861 277.604L763.737 279.76C763.065 280.544 762.215 281.151 761.189 281.58C760.181 281.991 759.023 282.196 757.717 282.196ZM782.975 282.196C781.444 282.196 780.082 281.869 778.887 281.216C777.692 280.544 776.75 279.629 776.059 278.472C775.368 277.315 775.023 275.999 775.023 274.524C775.023 273.031 775.368 271.715 776.059 270.576C776.75 269.419 777.692 268.513 778.887 267.86C780.082 267.207 781.444 266.88 782.975 266.88C784.524 266.88 785.896 267.207 787.091 267.86C788.304 268.513 789.247 269.409 789.919 270.548C790.61 271.687 790.955 273.012 790.955 274.524C790.955 275.999 790.61 277.315 789.919 278.472C789.247 279.629 788.304 280.544 787.091 281.216C785.896 281.869 784.524 282.196 782.975 282.196ZM782.975 279.2C783.834 279.2 784.599 279.013 785.271 278.64C785.943 278.267 786.466 277.725 786.839 277.016C787.231 276.307 787.427 275.476 787.427 274.524C787.427 273.553 787.231 272.723 786.839 272.032C786.466 271.323 785.943 270.781 785.271 270.408C784.599 270.035 783.843 269.848 783.003 269.848C782.144 269.848 781.379 270.035 780.707 270.408C780.054 270.781 779.531 271.323 779.139 272.032C778.747 272.723 778.551 273.553 778.551 274.524C778.551 275.476 778.747 276.307 779.139 277.016C779.531 277.725 780.054 278.267 780.707 278.64C781.379 279.013 782.135 279.2 782.975 279.2ZM801.553 282.28C800.321 282.28 799.219 282.093 798.249 281.72C797.278 281.347 796.438 280.777 795.729 280.012C795.038 279.228 794.506 278.239 794.133 277.044C793.759 275.849 793.573 274.431 793.573 272.788C793.573 271.593 793.675 270.501 793.881 269.512C794.086 268.523 794.394 267.636 794.805 266.852C795.215 266.049 795.729 265.34 796.345 264.724C796.979 264.108 797.717 263.595 798.557 263.184C799.397 262.773 800.349 262.456 801.413 262.232L808.357 260.748L808.861 263.884L802.561 265.172C802.206 265.247 801.777 265.359 801.273 265.508C800.787 265.639 800.283 265.844 799.761 266.124C799.257 266.385 798.781 266.768 798.333 267.272C797.903 267.757 797.549 268.392 797.269 269.176C797.007 269.941 796.877 270.903 796.877 272.06C796.877 272.415 796.886 272.685 796.905 272.872C796.942 273.04 796.97 273.227 796.989 273.432C797.026 273.619 797.045 273.899 797.045 274.272L795.729 272.9C796.102 271.948 796.615 271.136 797.269 270.464C797.941 269.773 798.715 269.251 799.593 268.896C800.489 268.523 801.459 268.336 802.505 268.336C803.905 268.336 805.146 268.625 806.229 269.204C807.311 269.783 808.161 270.595 808.777 271.64C809.393 272.685 809.701 273.871 809.701 275.196C809.701 276.577 809.365 277.8 808.693 278.864C808.021 279.928 807.069 280.768 805.837 281.384C804.623 281.981 803.195 282.28 801.553 282.28ZM801.833 279.452C802.673 279.452 803.41 279.275 804.045 278.92C804.698 278.547 805.202 278.043 805.557 277.408C805.93 276.773 806.117 276.064 806.117 275.28C806.117 274.496 805.93 273.815 805.557 273.236C805.202 272.639 804.698 272.163 804.045 271.808C803.41 271.453 802.654 271.276 801.777 271.276C800.937 271.276 800.181 271.444 799.509 271.78C798.855 272.116 798.342 272.583 797.969 273.18C797.614 273.759 797.437 274.431 797.437 275.196C797.437 275.98 797.623 276.699 797.997 277.352C798.37 278.005 798.883 278.519 799.537 278.892C800.209 279.265 800.974 279.452 801.833 279.452ZM822.117 271.948C824.021 271.948 825.468 272.387 826.457 273.264C827.447 274.123 827.941 275.327 827.941 276.876C827.941 278.519 827.381 279.788 826.261 280.684C825.16 281.561 823.592 282 821.557 282H814.809V270.016H810.385V267.048H818.309V271.948H822.117ZM821.389 279.424C822.379 279.424 823.125 279.2 823.629 278.752C824.133 278.304 824.385 277.651 824.385 276.792C824.385 275.187 823.387 274.384 821.389 274.384H818.309V279.424H821.389ZM837.998 282.196C836.336 282.196 834.88 281.869 833.63 281.216C832.398 280.544 831.436 279.629 830.746 278.472C830.074 277.315 829.738 275.999 829.738 274.524C829.738 273.031 830.064 271.715 830.718 270.576C831.39 269.419 832.304 268.513 833.462 267.86C834.638 267.207 835.972 266.88 837.466 266.88C838.922 266.88 840.219 267.197 841.358 267.832C842.496 268.467 843.392 269.363 844.046 270.52C844.699 271.677 845.026 273.04 845.026 274.608C845.026 274.757 845.016 274.925 844.998 275.112C844.998 275.299 844.988 275.476 844.97 275.644H832.51V273.32H843.122L841.75 274.048C841.768 273.189 841.591 272.433 841.218 271.78C840.844 271.127 840.331 270.613 839.678 270.24C839.043 269.867 838.306 269.68 837.466 269.68C836.607 269.68 835.851 269.867 835.198 270.24C834.563 270.613 834.059 271.136 833.686 271.808C833.331 272.461 833.154 273.236 833.154 274.132V274.692C833.154 275.588 833.359 276.381 833.77 277.072C834.18 277.763 834.759 278.295 835.506 278.668C836.252 279.041 837.111 279.228 838.082 279.228C838.922 279.228 839.678 279.097 840.35 278.836C841.022 278.575 841.619 278.164 842.142 277.604L844.018 279.76C843.346 280.544 842.496 281.151 841.47 281.58C840.462 281.991 839.304 282.196 837.998 282.196ZM858.911 280.376V270.016H853.171L853.087 272.424C853.049 273.283 852.993 274.113 852.919 274.916C852.844 275.7 852.723 276.428 852.555 277.1C852.387 277.753 852.144 278.295 851.827 278.724C851.509 279.153 851.089 279.433 850.567 279.564L847.095 279.032C847.655 279.032 848.103 278.855 848.439 278.5C848.793 278.127 849.064 277.623 849.251 276.988C849.456 276.335 849.605 275.597 849.699 274.776C849.792 273.936 849.857 273.068 849.895 272.172L850.091 267.048H862.411V280.376H858.911ZM846.563 285.332V279.032H864.623V285.332H861.347V282H849.811V285.332H846.563ZM867.748 282V267.048H871.248V276.904L879.508 267.048H882.7V282H879.2V272.144L870.968 282H867.748ZM887.409 282V267.048H890.909V273.124H898.441V267.048H901.941V282H898.441V276.092H890.909V282H887.409ZM913.603 282.196C911.942 282.196 910.486 281.869 909.235 281.216C908.003 280.544 907.042 279.629 906.351 278.472C905.679 277.315 905.343 275.999 905.343 274.524C905.343 273.031 905.67 271.715 906.323 270.576C906.995 269.419 907.91 268.513 909.067 267.86C910.243 267.207 911.578 266.88 913.071 266.88C914.527 266.88 915.825 267.197 916.963 267.832C918.102 268.467 918.998 269.363 919.651 270.52C920.305 271.677 920.631 273.04 920.631 274.608C920.631 274.757 920.622 274.925 920.603 275.112C920.603 275.299 920.594 275.476 920.575 275.644H908.115V273.32H918.727L917.355 274.048C917.374 273.189 917.197 272.433 916.823 271.78C916.45 271.127 915.937 270.613 915.283 270.24C914.649 269.867 913.911 269.68 913.071 269.68C912.213 269.68 911.457 269.867 910.803 270.24C910.169 270.613 909.665 271.136 909.291 271.808C908.937 272.461 908.759 273.236 908.759 274.132V274.692C908.759 275.588 908.965 276.381 909.375 277.072C909.786 277.763 910.365 278.295 911.111 278.668C911.858 279.041 912.717 279.228 913.687 279.228C914.527 279.228 915.283 279.097 915.955 278.836C916.627 278.575 917.225 278.164 917.747 277.604L919.623 279.76C918.951 280.544 918.102 281.151 917.075 281.58C916.067 281.991 914.91 282.196 913.603 282.196ZM924.459 282V267.048H927.959V273.124H935.491V267.048H938.991V282H935.491V276.092H927.959V282H924.459ZM943.682 282V267.048H947.182V276.904L955.442 267.048H958.634V282H955.134V272.144L946.902 282H943.682ZM970.314 282.196C968.653 282.196 967.197 281.869 965.946 281.216C964.714 280.544 963.753 279.629 963.062 278.472C962.39 277.315 962.054 275.999 962.054 274.524C962.054 273.031 962.381 271.715 963.034 270.576C963.706 269.419 964.621 268.513 965.778 267.86C966.954 267.207 968.289 266.88 969.782 266.88C971.238 266.88 972.536 267.197 973.674 267.832C974.813 268.467 975.709 269.363 976.362 270.52C977.016 271.677 977.342 273.04 977.342 274.608C977.342 274.757 977.333 274.925 977.314 275.112C977.314 275.299 977.305 275.476 977.286 275.644H964.826V273.32H975.438L974.066 274.048C974.085 273.189 973.908 272.433 973.534 271.78C973.161 271.127 972.648 270.613 971.994 270.24C971.36 269.867 970.622 269.68 969.782 269.68C968.924 269.68 968.168 269.867 967.514 270.24C966.88 270.613 966.376 271.136 966.002 271.808C965.648 272.461 965.47 273.236 965.47 274.132V274.692C965.47 275.588 965.676 276.381 966.086 277.072C966.497 277.763 967.076 278.295 967.822 278.668C968.569 279.041 969.428 279.228 970.398 279.228C971.238 279.228 971.994 279.097 972.666 278.836C973.338 278.575 973.936 278.164 974.458 277.604L976.334 279.76C975.662 280.544 974.813 281.151 973.786 281.58C972.778 281.991 971.621 282.196 970.314 282.196ZM648.75 326.928L644.774 321.524L648.75 316.092H651.914L648.022 321.524L651.914 326.928H648.75ZM654.574 326.928L650.598 321.524L654.574 316.092H657.738L653.846 321.524L657.738 326.928H654.574ZM661.354 329V309.4H670.118C672.321 309.4 674.038 309.839 675.27 310.716C676.502 311.575 677.118 312.816 677.118 314.44C677.118 316.045 676.53 317.287 675.354 318.164C674.178 319.023 672.629 319.452 670.706 319.452L671.21 318.444C673.394 318.444 675.083 318.883 676.278 319.76C677.473 320.637 678.07 321.907 678.07 323.568C678.07 325.267 677.445 326.601 676.194 327.572C674.943 328.524 673.095 329 670.65 329H661.354ZM664.938 326.2H670.538C671.807 326.2 672.769 325.967 673.422 325.5C674.075 325.015 674.402 324.277 674.402 323.288C674.402 322.299 674.075 321.58 673.422 321.132C672.769 320.665 671.807 320.432 670.538 320.432H664.938V326.2ZM664.938 317.772H669.81C670.986 317.772 671.882 317.539 672.498 317.072C673.114 316.587 673.422 315.896 673.422 315C673.422 314.067 673.114 313.367 672.498 312.9C671.882 312.433 670.986 312.2 669.81 312.2H664.938V317.772ZM688.489 329.196C686.958 329.196 685.595 328.869 684.401 328.216C683.206 327.544 682.263 326.629 681.573 325.472C680.882 324.315 680.537 322.999 680.537 321.524C680.537 320.031 680.882 318.715 681.573 317.576C682.263 316.419 683.206 315.513 684.401 314.86C685.595 314.207 686.958 313.88 688.489 313.88C690.038 313.88 691.41 314.207 692.605 314.86C693.818 315.513 694.761 316.409 695.433 317.548C696.123 318.687 696.469 320.012 696.469 321.524C696.469 322.999 696.123 324.315 695.433 325.472C694.761 326.629 693.818 327.544 692.605 328.216C691.41 328.869 690.038 329.196 688.489 329.196ZM688.489 326.2C689.347 326.2 690.113 326.013 690.785 325.64C691.457 325.267 691.979 324.725 692.353 324.016C692.745 323.307 692.941 322.476 692.941 321.524C692.941 320.553 692.745 319.723 692.353 319.032C691.979 318.323 691.457 317.781 690.785 317.408C690.113 317.035 689.357 316.848 688.517 316.848C687.658 316.848 686.893 317.035 686.221 317.408C685.567 317.781 685.045 318.323 684.653 319.032C684.261 319.723 684.065 320.553 684.065 321.524C684.065 322.476 684.261 323.307 684.653 324.016C685.045 324.725 685.567 325.267 686.221 325.64C686.893 326.013 687.649 326.2 688.489 326.2ZM697.578 328.972L697.746 326.032C697.877 326.051 697.998 326.069 698.11 326.088C698.222 326.107 698.325 326.116 698.418 326.116C698.997 326.116 699.445 325.939 699.762 325.584C700.079 325.229 700.313 324.753 700.462 324.156C700.63 323.54 700.742 322.859 700.798 322.112C700.873 321.347 700.929 320.581 700.966 319.816L701.218 314.048H713.314V329H709.814V316.064L710.626 317.016H703.514L704.27 316.036L704.074 319.984C704.018 321.309 703.906 322.541 703.738 323.68C703.589 324.8 703.346 325.78 703.01 326.62C702.693 327.46 702.245 328.113 701.666 328.58C701.106 329.047 700.387 329.28 699.51 329.28C699.23 329.28 698.922 329.252 698.586 329.196C698.269 329.14 697.933 329.065 697.578 328.972ZM728.08 326.032L727.324 326.872V314.048H730.824V326.872L729.984 326.032H737.376L736.564 326.872V314.048H740.064V329H718.028V314.048H721.528V326.872L720.716 326.032H728.08ZM751.742 329.196C750.081 329.196 748.625 328.869 747.374 328.216C746.142 327.544 745.181 326.629 744.49 325.472C743.818 324.315 743.482 322.999 743.482 321.524C743.482 320.031 743.809 318.715 744.462 317.576C745.134 316.419 746.049 315.513 747.206 314.86C748.382 314.207 749.717 313.88 751.21 313.88C752.666 313.88 753.963 314.197 755.102 314.832C756.241 315.467 757.137 316.363 757.79 317.52C758.443 318.677 758.77 320.04 758.77 321.608C758.77 321.757 758.761 321.925 758.742 322.112C758.742 322.299 758.733 322.476 758.714 322.644H746.254V320.32H756.866L755.494 321.048C755.513 320.189 755.335 319.433 754.962 318.78C754.589 318.127 754.075 317.613 753.422 317.24C752.787 316.867 752.05 316.68 751.21 316.68C750.351 316.68 749.595 316.867 748.942 317.24C748.307 317.613 747.803 318.136 747.43 318.808C747.075 319.461 746.898 320.236 746.898 321.132V321.692C746.898 322.588 747.103 323.381 747.514 324.072C747.925 324.763 748.503 325.295 749.25 325.668C749.997 326.041 750.855 326.228 751.826 326.228C752.666 326.228 753.422 326.097 754.094 325.836C754.766 325.575 755.363 325.164 755.886 324.604L757.762 326.76C757.09 327.544 756.241 328.151 755.214 328.58C754.206 328.991 753.049 329.196 751.742 329.196ZM769.738 329.28C768.506 329.28 767.405 329.093 766.434 328.72C765.463 328.347 764.623 327.777 763.914 327.012C763.223 326.228 762.691 325.239 762.318 324.044C761.945 322.849 761.758 321.431 761.758 319.788C761.758 318.593 761.861 317.501 762.066 316.512C762.271 315.523 762.579 314.636 762.99 313.852C763.401 313.049 763.914 312.34 764.53 311.724C765.165 311.108 765.902 310.595 766.742 310.184C767.582 309.773 768.534 309.456 769.598 309.232L776.542 307.748L777.046 310.884L770.746 312.172C770.391 312.247 769.962 312.359 769.458 312.508C768.973 312.639 768.469 312.844 767.946 313.124C767.442 313.385 766.966 313.768 766.518 314.272C766.089 314.757 765.734 315.392 765.454 316.176C765.193 316.941 765.062 317.903 765.062 319.06C765.062 319.415 765.071 319.685 765.09 319.872C765.127 320.04 765.155 320.227 765.174 320.432C765.211 320.619 765.23 320.899 765.23 321.272L763.914 319.9C764.287 318.948 764.801 318.136 765.454 317.464C766.126 316.773 766.901 316.251 767.778 315.896C768.674 315.523 769.645 315.336 770.69 315.336C772.09 315.336 773.331 315.625 774.414 316.204C775.497 316.783 776.346 317.595 776.962 318.64C777.578 319.685 777.886 320.871 777.886 322.196C777.886 323.577 777.55 324.8 776.878 325.864C776.206 326.928 775.254 327.768 774.022 328.384C772.809 328.981 771.381 329.28 769.738 329.28ZM770.018 326.452C770.858 326.452 771.595 326.275 772.23 325.92C772.883 325.547 773.387 325.043 773.742 324.408C774.115 323.773 774.302 323.064 774.302 322.28C774.302 321.496 774.115 320.815 773.742 320.236C773.387 319.639 772.883 319.163 772.23 318.808C771.595 318.453 770.839 318.276 769.962 318.276C769.122 318.276 768.366 318.444 767.694 318.78C767.041 319.116 766.527 319.583 766.154 320.18C765.799 320.759 765.622 321.431 765.622 322.196C765.622 322.98 765.809 323.699 766.182 324.352C766.555 325.005 767.069 325.519 767.722 325.892C768.394 326.265 769.159 326.452 770.018 326.452ZM781.274 329V314.048H784.774V320.124H792.306V314.048H795.806V329H792.306V323.092H784.774V329H781.274ZM815.589 329V314.048H819.089V329H815.589ZM807.777 318.976C809.699 318.976 811.155 319.405 812.145 320.264C813.153 321.123 813.657 322.336 813.657 323.904C813.657 325.528 813.097 326.797 811.977 327.712C810.875 328.608 809.307 329.047 807.273 329.028L800.497 329V314.048H803.997V318.948L807.777 318.976ZM806.965 326.452C807.991 326.471 808.775 326.256 809.317 325.808C809.858 325.36 810.129 324.707 810.129 323.848C810.129 322.989 809.858 322.373 809.317 322C808.794 321.608 808.01 321.403 806.965 321.384L803.997 321.356V326.424L806.965 326.452ZM823.793 329V314.048H827.293V323.904L835.553 314.048H838.745V329H835.245V319.144L827.013 329H823.793ZM831.045 312.284C829.552 312.284 828.404 311.939 827.601 311.248C826.799 310.539 826.388 309.512 826.369 308.168H828.693C828.712 308.84 828.917 309.372 829.309 309.764C829.72 310.156 830.289 310.352 831.017 310.352C831.727 310.352 832.287 310.156 832.697 309.764C833.127 309.372 833.351 308.84 833.369 308.168H835.749C835.731 309.512 835.311 310.539 834.489 311.248C833.687 311.939 832.539 312.284 831.045 312.284ZM851.192 329V314.048H854.86L860.88 324.66H859.424L865.752 314.048H869.028L869.056 329H865.892V317.8L866.452 318.164L860.852 327.432H859.34L853.712 317.912L854.384 317.744V329H851.192ZM873.75 329V314.048H877.25V323.904L885.51 314.048H888.702V329H885.202V319.144L876.97 329H873.75ZM901.699 329.196C900.485 329.196 899.375 328.916 898.367 328.356C897.377 327.796 896.584 326.956 895.987 325.836C895.408 324.697 895.119 323.26 895.119 321.524C895.119 319.769 895.399 318.332 895.959 317.212C896.537 316.092 897.321 315.261 898.311 314.72C899.3 314.16 900.429 313.88 901.699 313.88C903.173 313.88 904.471 314.197 905.591 314.832C906.729 315.467 907.625 316.353 908.279 317.492C908.951 318.631 909.287 319.975 909.287 321.524C909.287 323.073 908.951 324.427 908.279 325.584C907.625 326.723 906.729 327.609 905.591 328.244C904.471 328.879 903.173 329.196 901.699 329.196ZM893.411 334.432V314.048H896.743V317.576L896.631 321.552L896.911 325.528V334.432H893.411ZM901.307 326.2C902.147 326.2 902.893 326.013 903.547 325.64C904.219 325.267 904.751 324.725 905.143 324.016C905.535 323.307 905.731 322.476 905.731 321.524C905.731 320.553 905.535 319.723 905.143 319.032C904.751 318.323 904.219 317.781 903.547 317.408C902.893 317.035 902.147 316.848 901.307 316.848C900.467 316.848 899.711 317.035 899.039 317.408C898.367 317.781 897.835 318.323 897.443 319.032C897.051 319.723 896.855 320.553 896.855 321.524C896.855 322.476 897.051 323.307 897.443 324.016C897.835 324.725 898.367 325.267 899.039 325.64C899.711 326.013 900.467 326.2 901.307 326.2ZM914.422 326.928H911.258L915.15 321.524L911.258 316.092H914.422L918.398 321.524L914.422 326.928ZM920.246 326.928H917.082L920.974 321.524L917.082 316.092H920.246L924.222 321.524L920.246 326.928Z" fill="#622900"/>
</svg>
