<svg width="646" height="197" viewBox="0 0 646 197" fill="none" xmlns="http://www.w3.org/2000/svg">
<path d="M5.184 38.72C6.944 39.328 8.496 39.488 9.84 39.2C11.184 38.912 12.384 37.936 13.44 36.272L15.072 33.728L15.696 33.056L27.408 10.4H33.552L18.96 37.52C17.776 39.792 16.368 41.52 14.736 42.704C13.104 43.888 11.344 44.544 9.456 44.672C7.6 44.832 5.664 44.48 3.648 43.616L5.184 38.72ZM15.552 38.432L0.576 10.4H7.248L18.96 33.632L15.552 38.432ZM36.2351 44V18.368H60.8111V44H54.8591V22.064L56.2511 23.456H40.8431L42.2351 22.064V44H36.2351ZM80.571 44.336C77.883 44.336 75.483 43.776 73.371 42.656C71.291 41.504 69.659 39.936 68.475 37.952C67.291 35.968 66.699 33.712 66.699 31.184C66.699 28.624 67.291 26.368 68.475 24.416C69.659 22.432 71.291 20.88 73.371 19.76C75.483 18.64 77.883 18.08 80.571 18.08C83.067 18.08 85.259 18.592 87.147 19.616C89.067 20.608 90.523 22.08 91.515 24.032L86.907 26.72C86.139 25.504 85.195 24.608 84.075 24.032C82.987 23.456 81.803 23.168 80.523 23.168C79.051 23.168 77.723 23.488 76.539 24.128C75.355 24.768 74.427 25.696 73.755 26.912C73.083 28.096 72.747 29.52 72.747 31.184C72.747 32.848 73.083 34.288 73.755 35.504C74.427 36.688 75.355 37.6 76.539 38.24C77.723 38.88 79.051 39.2 80.523 39.2C81.803 39.2 82.987 38.912 84.075 38.336C85.195 37.76 86.139 36.864 86.907 35.648L91.515 38.336C90.523 40.256 89.067 41.744 87.147 42.8C85.259 43.824 83.067 44.336 80.571 44.336ZM99.5591 44.336C98.4711 44.336 97.5431 43.968 96.7751 43.232C96.0071 42.464 95.6231 41.504 95.6231 40.352C95.6231 39.136 96.0071 38.176 96.7751 37.472C97.5431 36.736 98.4711 36.368 99.5591 36.368C100.647 36.368 101.575 36.736 102.343 37.472C103.111 38.176 103.495 39.136 103.495 40.352C103.495 41.504 103.111 42.464 102.343 43.232C101.575 43.968 100.647 44.336 99.5591 44.336ZM111.278 44.336C110.19 44.336 109.262 43.968 108.494 43.232C107.726 42.464 107.342 41.504 107.342 40.352C107.342 39.136 107.726 38.176 108.494 37.472C109.262 36.736 110.19 36.368 111.278 36.368C112.366 36.368 113.294 36.736 114.062 37.472C114.83 38.176 115.214 39.136 115.214 40.352C115.214 41.504 114.83 42.464 114.062 43.232C113.294 43.968 112.366 44.336 111.278 44.336ZM150.614 33.872C149.398 34.448 148.102 34.928 146.726 35.312C145.382 35.664 143.958 35.84 142.454 35.84C139.222 35.84 136.71 35.088 134.918 33.584C133.126 32.08 132.23 29.744 132.23 26.576V18.368H138.23V26.192C138.23 27.888 138.71 29.12 139.67 29.888C140.662 30.656 142.022 31.04 143.75 31.04C144.902 31.04 146.054 30.896 147.206 30.608C148.358 30.32 149.494 29.92 150.614 29.408V33.872ZM150.182 44V18.368H156.182V44H150.182ZM169.579 44V22.016L170.971 23.456H160.555V18.368H184.555V23.456H174.187L175.579 22.016V44H169.579ZM199.206 44.336C196.582 44.336 194.246 43.776 192.198 42.656C190.15 41.504 188.534 39.936 187.35 37.952C186.166 35.968 185.574 33.712 185.574 31.184C185.574 28.624 186.166 26.368 187.35 24.416C188.534 22.432 190.15 20.88 192.198 19.76C194.246 18.64 196.582 18.08 199.206 18.08C201.862 18.08 204.214 18.64 206.262 19.76C208.342 20.88 209.958 22.416 211.11 24.368C212.294 26.32 212.886 28.592 212.886 31.184C212.886 33.712 212.294 35.968 211.11 37.952C209.958 39.936 208.342 41.504 206.262 42.656C204.214 43.776 201.862 44.336 199.206 44.336ZM199.206 39.2C200.678 39.2 201.99 38.88 203.142 38.24C204.294 37.6 205.19 36.672 205.83 35.456C206.502 34.24 206.838 32.816 206.838 31.184C206.838 29.52 206.502 28.096 205.83 26.912C205.19 25.696 204.294 24.768 203.142 24.128C201.99 23.488 200.694 23.168 199.254 23.168C197.782 23.168 196.47 23.488 195.318 24.128C194.198 24.768 193.302 25.696 192.63 26.912C191.958 28.096 191.622 29.52 191.622 31.184C191.622 32.816 191.958 34.24 192.63 35.456C193.302 36.672 194.198 37.6 195.318 38.24C196.47 38.88 197.766 39.2 199.206 39.2ZM217.89 33.152V28.16H231.09V33.152H217.89ZM242.376 44V22.016L243.768 23.456H233.352V18.368H257.352V23.456H246.984L248.376 22.016V44H242.376ZM272.003 44.336C269.379 44.336 267.043 43.776 264.995 42.656C262.947 41.504 261.331 39.936 260.147 37.952C258.963 35.968 258.371 33.712 258.371 31.184C258.371 28.624 258.963 26.368 260.147 24.416C261.331 22.432 262.947 20.88 264.995 19.76C267.043 18.64 269.379 18.08 272.003 18.08C274.659 18.08 277.011 18.64 279.059 19.76C281.139 20.88 282.755 22.416 283.907 24.368C285.091 26.32 285.683 28.592 285.683 31.184C285.683 33.712 285.091 35.968 283.907 37.952C282.755 39.936 281.139 41.504 279.059 42.656C277.011 43.776 274.659 44.336 272.003 44.336ZM272.003 39.2C273.475 39.2 274.787 38.88 275.939 38.24C277.091 37.6 277.987 36.672 278.627 35.456C279.299 34.24 279.635 32.816 279.635 31.184C279.635 29.52 279.299 28.096 278.627 26.912C277.987 25.696 277.091 24.768 275.939 24.128C274.787 23.488 273.491 23.168 272.051 23.168C270.579 23.168 269.267 23.488 268.115 24.128C266.995 24.768 266.099 25.696 265.427 26.912C264.755 28.096 264.419 29.52 264.419 31.184C264.419 32.816 264.755 34.24 265.427 35.456C266.099 36.672 266.995 37.6 268.115 38.24C269.267 38.88 270.563 39.2 272.003 39.2ZM304.876 44V18.368H329.452V44H323.5V22.064L324.892 23.456H309.484L310.876 22.064V44H304.876ZM348.972 44.336C346.348 44.336 344.012 43.776 341.964 42.656C339.916 41.504 338.3 39.936 337.116 37.952C335.932 35.968 335.34 33.712 335.34 31.184C335.34 28.624 335.932 26.368 337.116 24.416C338.3 22.432 339.916 20.88 341.964 19.76C344.012 18.64 346.348 18.08 348.972 18.08C351.628 18.08 353.98 18.64 356.028 19.76C358.108 20.88 359.724 22.416 360.876 24.368C362.06 26.32 362.652 28.592 362.652 31.184C362.652 33.712 362.06 35.968 360.876 37.952C359.724 39.936 358.108 41.504 356.028 42.656C353.98 43.776 351.628 44.336 348.972 44.336ZM348.972 39.2C350.444 39.2 351.756 38.88 352.908 38.24C354.06 37.6 354.956 36.672 355.596 35.456C356.268 34.24 356.604 32.816 356.604 31.184C356.604 29.52 356.268 28.096 355.596 26.912C354.956 25.696 354.06 24.768 352.908 24.128C351.756 23.488 350.46 23.168 349.02 23.168C347.548 23.168 346.236 23.488 345.084 24.128C343.964 24.768 343.068 25.696 342.396 26.912C341.724 28.096 341.388 29.52 341.388 31.184C341.388 32.816 341.724 34.24 342.396 35.456C343.068 36.672 343.964 37.6 345.084 38.24C346.236 38.88 347.532 39.2 348.972 39.2ZM385.811 38.912L384.515 40.352V18.368H390.515V40.352L389.075 38.912H401.747L400.355 40.352V18.368H406.355V44H368.579V18.368H374.579V40.352L373.187 38.912H385.811ZM410.679 43.952L410.967 38.912C411.191 38.944 411.399 38.976 411.591 39.008C411.783 39.04 411.959 39.056 412.119 39.056C413.111 39.056 413.879 38.752 414.423 38.144C414.967 37.536 415.367 36.72 415.623 35.696C415.911 34.64 416.103 33.472 416.199 32.192C416.327 30.88 416.423 29.568 416.487 28.256L416.919 18.368H437.655V44H431.655V21.824L433.047 23.456H420.855L422.151 21.776L421.815 28.544C421.719 30.816 421.527 32.928 421.239 34.88C420.983 36.8 420.567 38.48 419.991 39.92C419.447 41.36 418.679 42.48 417.687 43.28C416.727 44.08 415.495 44.48 413.991 44.48C413.511 44.48 412.983 44.432 412.407 44.336C411.863 44.24 411.287 44.112 410.679 43.952ZM457.159 44.336C454.535 44.336 452.199 43.776 450.151 42.656C448.103 41.504 446.487 39.936 445.303 37.952C444.119 35.968 443.527 33.712 443.527 31.184C443.527 28.624 444.119 26.368 445.303 24.416C446.487 22.432 448.103 20.88 450.151 19.76C452.199 18.64 454.535 18.08 457.159 18.08C459.815 18.08 462.167 18.64 464.215 19.76C466.295 20.88 467.911 22.416 469.063 24.368C470.247 26.32 470.839 28.592 470.839 31.184C470.839 33.712 470.247 35.968 469.063 37.952C467.911 39.936 466.295 41.504 464.215 42.656C462.167 43.776 459.815 44.336 457.159 44.336ZM457.159 39.2C458.631 39.2 459.943 38.88 461.095 38.24C462.247 37.6 463.143 36.672 463.783 35.456C464.455 34.24 464.791 32.816 464.791 31.184C464.791 29.52 464.455 28.096 463.783 26.912C463.143 25.696 462.247 24.768 461.095 24.128C459.943 23.488 458.647 23.168 457.207 23.168C455.735 23.168 454.423 23.488 453.271 24.128C452.151 24.768 451.255 25.696 450.583 26.912C449.911 28.096 449.575 29.52 449.575 31.184C449.575 32.816 449.911 34.24 450.583 35.456C451.255 36.672 452.151 37.6 453.271 38.24C454.423 38.88 455.719 39.2 457.159 39.2ZM490.032 44V18.368H496.032V28.784H508.944V18.368H514.944V44H508.944V33.872H496.032V44H490.032ZM534.937 44.336C532.089 44.336 529.593 43.776 527.449 42.656C525.337 41.504 523.689 39.936 522.505 37.952C521.353 35.968 520.777 33.712 520.777 31.184C520.777 28.624 521.337 26.368 522.457 24.416C523.609 22.432 525.177 20.88 527.161 19.76C529.177 18.64 531.465 18.08 534.025 18.08C536.521 18.08 538.745 18.624 540.697 19.712C542.649 20.8 544.185 22.336 545.305 24.32C546.425 26.304 546.985 28.64 546.985 31.328C546.985 31.584 546.969 31.872 546.937 32.192C546.937 32.512 546.921 32.816 546.889 33.104H525.529V29.12H543.721L541.369 30.368C541.401 28.896 541.097 27.6 540.457 26.48C539.817 25.36 538.937 24.48 537.817 23.84C536.729 23.2 535.465 22.88 534.025 22.88C532.553 22.88 531.257 23.2 530.137 23.84C529.049 24.48 528.185 25.376 527.545 26.528C526.937 27.648 526.633 28.976 526.633 30.512V31.472C526.633 33.008 526.985 34.368 527.689 35.552C528.393 36.736 529.385 37.648 530.665 38.288C531.945 38.928 533.417 39.248 535.081 39.248C536.521 39.248 537.817 39.024 538.969 38.576C540.121 38.128 541.145 37.424 542.041 36.464L545.257 40.16C544.105 41.504 542.649 42.544 540.889 43.28C539.161 43.984 537.177 44.336 534.937 44.336ZM572.141 44V22.016L573.533 23.456H563.117V18.368H587.117V23.456H576.749L578.141 22.016V44H572.141ZM607.022 44V38.816L606.686 37.712V28.64C606.686 26.88 606.158 25.52 605.102 24.56C604.046 23.568 602.446 23.072 600.302 23.072C598.862 23.072 597.438 23.296 596.03 23.744C594.654 24.192 593.486 24.816 592.526 25.616L590.174 21.248C591.55 20.192 593.182 19.408 595.07 18.896C596.99 18.352 598.974 18.08 601.022 18.08C604.734 18.08 607.598 18.976 609.614 20.768C611.662 22.528 612.686 25.264 612.686 28.976V44H607.022ZM598.958 44.336C597.038 44.336 595.358 44.016 593.918 43.376C592.478 42.704 591.358 41.792 590.558 40.64C589.79 39.456 589.406 38.128 589.406 36.656C589.406 35.216 589.742 33.92 590.414 32.768C591.118 31.616 592.254 30.704 593.822 30.032C595.39 29.36 597.47 29.024 600.062 29.024H607.502V33.008H600.494C598.446 33.008 597.07 33.344 596.366 34.016C595.662 34.656 595.31 35.456 595.31 36.416C595.31 37.504 595.742 38.368 596.606 39.008C597.47 39.648 598.67 39.968 600.206 39.968C601.678 39.968 602.99 39.632 604.142 38.96C605.326 38.288 606.174 37.296 606.686 35.984L607.694 39.584C607.118 41.088 606.078 42.256 604.574 43.088C603.102 43.92 601.23 44.336 598.958 44.336ZM638.494 44L629.23 31.712L634.126 28.688L645.55 44H638.494ZM620.11 44V18.368H626.11V44H620.11ZM624.334 33.728V28.736H633.022V33.728H624.334ZM634.702 31.904L629.086 31.232L638.494 18.368H644.926L634.702 31.904Z" fill="#622900"/>
<path d="M10.128 84.192C8.848 84.192 7.664 83.984 6.576 83.568C5.504 83.136 4.568 82.536 3.768 81.768C2.984 80.984 2.368 80.072 1.92 79.032C1.472 77.992 1.248 76.848 1.248 75.6C1.248 74.352 1.472 73.208 1.92 72.168C2.368 71.128 2.992 70.224 3.792 69.456C4.592 68.672 5.528 68.072 6.6 67.656C7.688 67.224 8.872 67.008 10.152 67.008C11.448 67.008 12.64 67.232 13.728 67.68C14.832 68.112 15.768 68.76 16.536 69.624L14.976 71.136C14.336 70.464 13.616 69.968 12.816 69.648C12.016 69.312 11.16 69.144 10.248 69.144C9.304 69.144 8.424 69.304 7.608 69.624C6.808 69.944 6.112 70.392 5.52 70.968C4.928 71.544 4.464 72.232 4.128 73.032C3.808 73.816 3.648 74.672 3.648 75.6C3.648 76.528 3.808 77.392 4.128 78.192C4.464 78.976 4.928 79.656 5.52 80.232C6.112 80.808 6.808 81.256 7.608 81.576C8.424 81.896 9.304 82.056 10.248 82.056C11.16 82.056 12.016 81.896 12.816 81.576C13.616 81.24 14.336 80.728 14.976 80.04L16.536 81.552C15.768 82.416 14.832 83.072 13.728 83.52C12.64 83.968 11.44 84.192 10.128 84.192ZM21.387 84V72.696L21.963 73.296H16.731V71.28H28.347V73.296H23.139L23.691 72.696V84H21.387ZM37.2069 84.144C36.1509 84.144 35.1829 83.904 34.3029 83.424C33.4389 82.928 32.7429 82.2 32.2149 81.24C31.7029 80.28 31.4469 79.08 31.4469 77.64C31.4469 76.2 31.6949 75 32.1909 74.04C32.7029 73.08 33.3909 72.36 34.2549 71.88C35.1349 71.4 36.1189 71.16 37.2069 71.16C38.4549 71.16 39.5589 71.432 40.5189 71.976C41.4789 72.52 42.2389 73.28 42.7989 74.256C43.3589 75.216 43.6389 76.344 43.6389 77.64C43.6389 78.936 43.3589 80.072 42.7989 81.048C42.2389 82.024 41.4789 82.784 40.5189 83.328C39.5589 83.872 38.4549 84.144 37.2069 84.144ZM30.4629 88.656V71.28H32.6709V74.712L32.5269 77.664L32.7669 80.616V88.656H30.4629ZM37.0149 82.128C37.8309 82.128 38.5589 81.944 39.1989 81.576C39.8549 81.208 40.3669 80.688 40.7349 80.016C41.1189 79.328 41.3109 78.536 41.3109 77.64C41.3109 76.728 41.1189 75.944 40.7349 75.288C40.3669 74.616 39.8549 74.096 39.1989 73.728C38.5589 73.36 37.8309 73.176 37.0149 73.176C36.2149 73.176 35.4869 73.36 34.8309 73.728C34.1909 74.096 33.6789 74.616 33.2949 75.288C32.9269 75.944 32.7429 76.728 32.7429 77.64C32.7429 78.536 32.9269 79.328 33.2949 80.016C33.6789 80.688 34.1909 81.208 34.8309 81.576C35.4869 81.944 36.2149 82.128 37.0149 82.128ZM54.4292 84V81.312L54.3092 80.808V76.224C54.3092 75.248 54.0212 74.496 53.4452 73.968C52.8852 73.424 52.0372 73.152 50.9012 73.152C50.1492 73.152 49.4132 73.28 48.6932 73.536C47.9732 73.776 47.3652 74.104 46.8692 74.52L45.9092 72.792C46.5652 72.264 47.3492 71.864 48.2612 71.592C49.1892 71.304 50.1572 71.16 51.1652 71.16C52.9092 71.16 54.2532 71.584 55.1972 72.432C56.1412 73.28 56.6132 74.576 56.6132 76.32V84H54.4292ZM50.2532 84.144C49.3092 84.144 48.4772 83.984 47.7572 83.664C47.0532 83.344 46.5092 82.904 46.1252 82.344C45.7412 81.768 45.5492 81.12 45.5492 80.4C45.5492 79.712 45.7092 79.088 46.0292 78.528C46.3652 77.968 46.9012 77.52 47.6372 77.184C48.3892 76.848 49.3972 76.68 50.6612 76.68H54.6932V78.336H50.7572C49.6052 78.336 48.8292 78.528 48.4292 78.912C48.0292 79.296 47.8292 79.76 47.8292 80.304C47.8292 80.928 48.0772 81.432 48.5732 81.816C49.0692 82.184 49.7572 82.368 50.6372 82.368C51.5012 82.368 52.2532 82.176 52.8932 81.792C53.5492 81.408 54.0212 80.848 54.3092 80.112L54.7652 81.696C54.4612 82.448 53.9252 83.048 53.1572 83.496C52.3892 83.928 51.4212 84.144 50.2532 84.144ZM60.522 84V71.28H62.826V76.68H70.074V71.28H72.378V84H70.074V78.672H62.826V84H60.522ZM76.6179 84V71.28H78.9219V80.544L86.7219 71.28H88.8099V84H86.5059V74.736L78.7299 84H76.6179ZM93.042 84V71.28H95.346V81.984H102.306V71.28H104.61V84H93.042ZM104.442 86.952V83.88L105.018 84H102.306V81.984H106.626V86.952H104.442ZM117.172 84V81.312L117.052 80.808V76.224C117.052 75.248 116.764 74.496 116.188 73.968C115.628 73.424 114.78 73.152 113.644 73.152C112.892 73.152 112.156 73.28 111.436 73.536C110.716 73.776 110.108 74.104 109.612 74.52L108.652 72.792C109.308 72.264 110.092 71.864 111.004 71.592C111.932 71.304 112.9 71.16 113.908 71.16C115.652 71.16 116.996 71.584 117.94 72.432C118.884 73.28 119.356 74.576 119.356 76.32V84H117.172ZM112.996 84.144C112.052 84.144 111.22 83.984 110.5 83.664C109.796 83.344 109.252 82.904 108.868 82.344C108.484 81.768 108.292 81.12 108.292 80.4C108.292 79.712 108.452 79.088 108.772 78.528C109.108 77.968 109.644 77.52 110.38 77.184C111.132 76.848 112.14 76.68 113.404 76.68H117.436V78.336H113.5C112.348 78.336 111.572 78.528 111.172 78.912C110.772 79.296 110.572 79.76 110.572 80.304C110.572 80.928 110.82 81.432 111.316 81.816C111.812 82.184 112.5 82.368 113.38 82.368C114.244 82.368 114.996 82.176 115.636 81.792C116.292 81.408 116.764 80.848 117.052 80.112L117.508 81.696C117.204 82.448 116.668 83.048 115.9 83.496C115.132 83.928 114.164 84.144 112.996 84.144ZM129.47 84V71.28H131.774V76.68H139.022V71.28H141.326V84H139.022V78.672H131.774V84H129.47ZM151.23 84.144C149.87 84.144 148.67 83.864 147.63 83.304C146.606 82.744 145.806 81.976 145.23 81C144.67 80.024 144.39 78.904 144.39 77.64C144.39 76.376 144.662 75.256 145.206 74.28C145.766 73.304 146.526 72.544 147.486 72C148.462 71.44 149.558 71.16 150.774 71.16C152.006 71.16 153.094 71.432 154.038 71.976C154.982 72.52 155.718 73.288 156.246 74.28C156.79 75.256 157.062 76.4 157.062 77.712C157.062 77.808 157.054 77.92 157.038 78.048C157.038 78.176 157.03 78.296 157.014 78.408H146.19V76.752H155.814L154.878 77.328C154.894 76.512 154.726 75.784 154.374 75.144C154.022 74.504 153.534 74.008 152.91 73.656C152.302 73.288 151.59 73.104 150.774 73.104C149.974 73.104 149.262 73.288 148.638 73.656C148.014 74.008 147.526 74.512 147.174 75.168C146.822 75.808 146.646 76.544 146.646 77.376V77.76C146.646 78.608 146.838 79.368 147.222 80.04C147.622 80.696 148.174 81.208 148.878 81.576C149.582 81.944 150.39 82.128 151.302 82.128C152.054 82.128 152.734 82 153.342 81.744C153.966 81.488 154.51 81.104 154.974 80.592L156.246 82.08C155.67 82.752 154.95 83.264 154.086 83.616C153.238 83.968 152.286 84.144 151.23 84.144ZM166.602 84V71.28H168.906V76.68H176.154V71.28H178.458V84H176.154V78.672H168.906V84H166.602ZM190.498 84V81.312L190.378 80.808V76.224C190.378 75.248 190.09 74.496 189.514 73.968C188.954 73.424 188.106 73.152 186.97 73.152C186.218 73.152 185.482 73.28 184.762 73.536C184.042 73.776 183.434 74.104 182.938 74.52L181.978 72.792C182.634 72.264 183.418 71.864 184.33 71.592C185.258 71.304 186.226 71.16 187.234 71.16C188.978 71.16 190.322 71.584 191.266 72.432C192.21 73.28 192.682 74.576 192.682 76.32V84H190.498ZM186.322 84.144C185.378 84.144 184.546 83.984 183.826 83.664C183.122 83.344 182.578 82.904 182.194 82.344C181.81 81.768 181.618 81.12 181.618 80.4C181.618 79.712 181.778 79.088 182.098 78.528C182.434 77.968 182.97 77.52 183.706 77.184C184.458 76.848 185.466 76.68 186.73 76.68H190.762V78.336H186.826C185.674 78.336 184.898 78.528 184.498 78.912C184.098 79.296 183.898 79.76 183.898 80.304C183.898 80.928 184.146 81.432 184.642 81.816C185.138 82.184 185.826 82.368 186.706 82.368C187.57 82.368 188.322 82.176 188.962 81.792C189.618 81.408 190.09 80.848 190.378 80.112L190.834 81.696C190.53 82.448 189.994 83.048 189.226 83.496C188.458 83.928 187.49 84.144 186.322 84.144ZM196.591 84V71.28H198.895V80.544L206.695 71.28H208.783V84H206.479V74.736L198.703 84H196.591ZM202.543 69.624C201.375 69.624 200.455 69.344 199.783 68.784C199.127 68.208 198.791 67.384 198.775 66.312H200.335C200.351 66.92 200.551 67.4 200.935 67.752C201.335 68.104 201.863 68.28 202.519 68.28C203.175 68.28 203.703 68.104 204.103 67.752C204.503 67.4 204.711 66.92 204.727 66.312H206.335C206.319 67.384 205.975 68.208 205.303 68.784C204.631 69.344 203.711 69.624 202.543 69.624ZM221.703 82.92V73.296H216.183L216.063 75.744C216.031 76.544 215.975 77.32 215.895 78.072C215.831 78.808 215.719 79.488 215.559 80.112C215.415 80.736 215.199 81.248 214.911 81.648C214.623 82.048 214.239 82.296 213.759 82.392L211.479 81.984C211.975 82 212.375 81.84 212.679 81.504C212.983 81.152 213.215 80.672 213.375 80.064C213.551 79.456 213.679 78.768 213.759 78C213.839 77.216 213.903 76.408 213.951 75.576L214.143 71.28H224.007V82.92H221.703ZM210.975 86.952V81.984H225.951V86.952H223.791V84H213.159V86.952H210.975ZM234.376 84.144C233.016 84.144 231.816 83.864 230.776 83.304C229.752 82.744 228.952 81.976 228.376 81C227.816 80.024 227.536 78.904 227.536 77.64C227.536 76.376 227.808 75.256 228.352 74.28C228.912 73.304 229.672 72.544 230.632 72C231.608 71.44 232.704 71.16 233.92 71.16C235.152 71.16 236.24 71.432 237.184 71.976C238.128 72.52 238.864 73.288 239.392 74.28C239.936 75.256 240.208 76.4 240.208 77.712C240.208 77.808 240.2 77.92 240.184 78.048C240.184 78.176 240.176 78.296 240.16 78.408H229.336V76.752H238.96L238.024 77.328C238.04 76.512 237.872 75.784 237.52 75.144C237.168 74.504 236.68 74.008 236.056 73.656C235.448 73.288 234.736 73.104 233.92 73.104C233.12 73.104 232.408 73.288 231.784 73.656C231.16 74.008 230.672 74.512 230.32 75.168C229.968 75.808 229.792 76.544 229.792 77.376V77.76C229.792 78.608 229.984 79.368 230.368 80.04C230.768 80.696 231.32 81.208 232.024 81.576C232.728 81.944 233.536 82.128 234.448 82.128C235.2 82.128 235.88 82 236.488 81.744C237.112 81.488 237.656 81.104 238.12 80.592L239.392 82.08C238.816 82.752 238.096 83.264 237.232 83.616C236.384 83.968 235.432 84.144 234.376 84.144ZM243.543 84V71.28H245.847V76.68H253.095V71.28H255.399V84H253.095V78.672H245.847V84H243.543ZM267.439 84V81.312L267.319 80.808V76.224C267.319 75.248 267.031 74.496 266.455 73.968C265.895 73.424 265.047 73.152 263.911 73.152C263.159 73.152 262.423 73.28 261.703 73.536C260.983 73.776 260.375 74.104 259.879 74.52L258.919 72.792C259.575 72.264 260.359 71.864 261.271 71.592C262.199 71.304 263.167 71.16 264.175 71.16C265.919 71.16 267.263 71.584 268.207 72.432C269.151 73.28 269.623 74.576 269.623 76.32V84H267.439ZM263.263 84.144C262.319 84.144 261.487 83.984 260.767 83.664C260.063 83.344 259.519 82.904 259.135 82.344C258.751 81.768 258.559 81.12 258.559 80.4C258.559 79.712 258.719 79.088 259.039 78.528C259.375 77.968 259.911 77.52 260.647 77.184C261.399 76.848 262.407 76.68 263.671 76.68H267.703V78.336H263.767C262.615 78.336 261.839 78.528 261.439 78.912C261.039 79.296 260.839 79.76 260.839 80.304C260.839 80.928 261.087 81.432 261.583 81.816C262.079 82.184 262.767 82.368 263.647 82.368C264.511 82.368 265.263 82.176 265.903 81.792C266.559 81.408 267.031 80.848 267.319 80.112L267.775 81.696C267.471 82.448 266.935 83.048 266.167 83.496C265.399 83.928 264.431 84.144 263.263 84.144ZM274.035 84.144C273.587 84.144 273.203 83.992 272.883 83.688C272.563 83.368 272.403 82.968 272.403 82.488C272.403 82.008 272.563 81.616 272.883 81.312C273.203 81.008 273.587 80.856 274.035 80.856C274.467 80.856 274.835 81.008 275.139 81.312C275.459 81.616 275.619 82.008 275.619 82.488C275.619 82.968 275.459 83.368 275.139 83.688C274.835 83.992 274.467 84.144 274.035 84.144Z" fill="#3F1A00"/>
<rect y="122" width="337" height="75" rx="30" fill="#F96C24"/>
<path d="M32.376 168V151.2H39.888C41.776 151.2 43.248 151.576 44.304 152.328C45.36 153.064 45.888 154.128 45.888 155.52C45.888 156.896 45.384 157.96 44.376 158.712C43.368 159.448 42.04 159.816 40.392 159.816L40.824 158.952C42.696 158.952 44.144 159.328 45.168 160.08C46.192 160.832 46.704 161.92 46.704 163.344C46.704 164.8 46.168 165.944 45.096 166.776C44.024 167.592 42.44 168 40.344 168H32.376ZM35.448 165.6H40.248C41.336 165.6 42.16 165.4 42.72 165C43.28 164.584 43.56 163.952 43.56 163.104C43.56 162.256 43.28 161.64 42.72 161.256C42.16 160.856 41.336 160.656 40.248 160.656H35.448V165.6ZM35.448 158.376H39.624C40.632 158.376 41.4 158.176 41.928 157.776C42.456 157.36 42.72 156.768 42.72 156C42.72 155.2 42.456 154.6 41.928 154.2C41.4 153.8 40.632 153.6 39.624 153.6H35.448V158.376ZM55.2982 168.168C53.8742 168.168 52.6262 167.888 51.5542 167.328C50.4982 166.752 49.6742 165.968 49.0822 164.976C48.5062 163.984 48.2182 162.856 48.2182 161.592C48.2182 160.312 48.4982 159.184 49.0582 158.208C49.6342 157.216 50.4182 156.44 51.4102 155.88C52.4182 155.32 53.5622 155.04 54.8422 155.04C56.0903 155.04 57.2023 155.312 58.1782 155.856C59.1542 156.4 59.9222 157.168 60.4823 158.16C61.0423 159.152 61.3223 160.32 61.3223 161.664C61.3223 161.792 61.3143 161.936 61.2982 162.096C61.2982 162.256 61.2902 162.408 61.2743 162.552H50.5942V160.56H59.6903L58.5142 161.184C58.5303 160.448 58.3783 159.8 58.0582 159.24C57.7383 158.68 57.2983 158.24 56.7382 157.92C56.1943 157.6 55.5623 157.44 54.8422 157.44C54.1062 157.44 53.4582 157.6 52.8982 157.92C52.3542 158.24 51.9222 158.688 51.6022 159.264C51.2982 159.824 51.1462 160.488 51.1462 161.256V161.736C51.1462 162.504 51.3222 163.184 51.6742 163.776C52.0262 164.368 52.5222 164.824 53.1623 165.144C53.8022 165.464 54.5382 165.624 55.3703 165.624C56.0903 165.624 56.7383 165.512 57.3143 165.288C57.8902 165.064 58.4023 164.712 58.8503 164.232L60.4583 166.08C59.8823 166.752 59.1543 167.272 58.2743 167.64C57.4103 167.992 56.4183 168.168 55.2982 168.168ZM71.1075 168.168C70.0675 168.168 69.1155 167.928 68.2515 167.448C67.4035 166.968 66.7235 166.248 66.2115 165.288C65.7155 164.312 65.4675 163.08 65.4675 161.592C65.4675 160.088 65.7075 158.856 66.1875 157.896C66.6835 156.936 67.3555 156.224 68.2035 155.76C69.0515 155.28 70.0195 155.04 71.1075 155.04C72.3715 155.04 73.4835 155.312 74.4435 155.856C75.4195 156.4 76.1875 157.16 76.7475 158.136C77.3235 159.112 77.6115 160.264 77.6115 161.592C77.6115 162.92 77.3235 164.08 76.7475 165.072C76.1875 166.048 75.4195 166.808 74.4435 167.352C73.4835 167.896 72.3715 168.168 71.1075 168.168ZM64.0035 172.656V155.184H66.8595V158.208L66.7635 161.616L67.0035 165.024V172.656H64.0035ZM70.7715 165.6C71.4915 165.6 72.1315 165.44 72.6915 165.12C73.2675 164.8 73.7235 164.336 74.0595 163.728C74.3955 163.12 74.5635 162.408 74.5635 161.592C74.5635 160.76 74.3955 160.048 74.0595 159.456C73.7235 158.848 73.2675 158.384 72.6915 158.064C72.1315 157.744 71.4915 157.584 70.7715 157.584C70.0515 157.584 69.4035 157.744 68.8275 158.064C68.2515 158.384 67.7955 158.848 67.4595 159.456C67.1235 160.048 66.9555 160.76 66.9555 161.592C66.9555 162.408 67.1235 163.12 67.4595 163.728C67.7955 164.336 68.2515 164.8 68.8275 165.12C69.4035 165.44 70.0515 165.6 70.7715 165.6ZM79.9973 168V155.184H82.9973V160.392H89.4533V155.184H92.4533V168H89.4533V162.936H82.9973V168H79.9973ZM97.0258 172.824C96.4018 172.824 95.7778 172.72 95.1538 172.512C94.5298 172.304 94.0098 172.016 93.5938 171.648L94.7938 169.44C95.0978 169.712 95.4418 169.928 95.8258 170.088C96.2098 170.248 96.6018 170.328 97.0018 170.328C97.5458 170.328 97.9858 170.192 98.3218 169.92C98.6578 169.648 98.9698 169.192 99.2578 168.552L100.002 166.872L100.242 166.512L105.09 155.184H107.97L101.97 169.032C101.57 169.992 101.122 170.752 100.626 171.312C100.146 171.872 99.6018 172.264 98.9938 172.488C98.4018 172.712 97.7458 172.824 97.0258 172.824ZM99.6658 168.456L93.8818 155.184H97.0018L101.706 166.248L99.6658 168.456ZM112.141 168V157.008L112.837 157.728H107.629V155.184H119.629V157.728H114.445L115.141 157.008V168H112.141ZM127.637 159.408C129.285 159.408 130.541 159.776 131.405 160.512C132.269 161.248 132.701 162.288 132.701 163.632C132.701 165.024 132.221 166.112 131.261 166.896C130.301 167.664 128.949 168.04 127.205 168.024L121.205 168V155.184H124.205V159.384L127.637 159.408ZM126.941 165.816C127.821 165.832 128.493 165.648 128.957 165.264C129.421 164.88 129.653 164.32 129.653 163.584C129.653 162.848 129.421 162.32 128.957 162C128.509 161.664 127.837 161.488 126.941 161.472L124.205 161.448V165.792L126.941 165.816ZM140.57 168.168C139.226 168.168 138.026 167.888 136.97 167.328C135.93 166.752 135.114 165.968 134.522 164.976C133.93 163.984 133.634 162.856 133.634 161.592C133.634 160.312 133.93 159.184 134.522 158.208C135.114 157.216 135.93 156.44 136.97 155.88C138.026 155.32 139.226 155.04 140.57 155.04C141.818 155.04 142.914 155.296 143.858 155.808C144.818 156.304 145.546 157.04 146.042 158.016L143.738 159.36C143.354 158.752 142.882 158.304 142.322 158.016C141.778 157.728 141.186 157.584 140.546 157.584C139.81 157.584 139.146 157.744 138.554 158.064C137.962 158.384 137.498 158.848 137.162 159.456C136.826 160.048 136.658 160.76 136.658 161.592C136.658 162.424 136.826 163.144 137.162 163.752C137.498 164.344 137.962 164.8 138.554 165.12C139.146 165.44 139.81 165.6 140.546 165.6C141.186 165.6 141.778 165.456 142.322 165.168C142.882 164.88 143.354 164.432 143.738 163.824L146.042 165.168C145.546 166.128 144.818 166.872 143.858 167.4C142.914 167.912 141.818 168.168 140.57 168.168ZM155.868 168V163.632L156.3 164.136H152.46C150.7 164.136 149.316 163.768 148.308 163.032C147.316 162.28 146.82 161.2 146.82 159.792C146.82 158.288 147.348 157.144 148.404 156.36C149.476 155.576 150.9 155.184 152.676 155.184H158.556V168H155.868ZM146.652 168L150.108 163.104H153.18L149.868 168H146.652ZM155.868 162.672V156.912L156.3 157.704H152.772C151.844 157.704 151.124 157.88 150.612 158.232C150.116 158.568 149.868 159.12 149.868 159.888C149.868 161.328 150.804 162.048 152.676 162.048H156.3L155.868 162.672ZM168.024 168V155.184H171.024V160.392H177.48V155.184H180.48V168H177.48V162.936H171.024V168H168.024ZM191.676 168V165.408L191.508 164.856V160.32C191.508 159.44 191.244 158.76 190.716 158.28C190.188 157.784 189.388 157.536 188.316 157.536C187.596 157.536 186.884 157.648 186.18 157.872C185.492 158.096 184.908 158.408 184.428 158.808L183.252 156.624C183.94 156.096 184.756 155.704 185.7 155.448C186.66 155.176 187.652 155.04 188.676 155.04C190.532 155.04 191.964 155.488 192.972 156.384C193.996 157.264 194.508 158.632 194.508 160.488V168H191.676ZM187.644 168.168C186.684 168.168 185.844 168.008 185.124 167.688C184.404 167.352 183.844 166.896 183.444 166.32C183.06 165.728 182.868 165.064 182.868 164.328C182.868 163.608 183.036 162.96 183.372 162.384C183.724 161.808 184.292 161.352 185.076 161.016C185.86 160.68 186.9 160.512 188.196 160.512H191.916V162.504H188.412C187.388 162.504 186.7 162.672 186.348 163.008C185.996 163.328 185.82 163.728 185.82 164.208C185.82 164.752 186.036 165.184 186.468 165.504C186.9 165.824 187.5 165.984 188.268 165.984C189.004 165.984 189.66 165.816 190.236 165.48C190.828 165.144 191.252 164.648 191.508 163.992L192.012 165.792C191.724 166.544 191.204 167.128 190.452 167.544C189.716 167.96 188.78 168.168 187.644 168.168ZM203.653 168V155.184H213.493V157.728H205.957L206.653 157.056V168H203.653ZM212.338 167.976L212.482 165.456C212.594 165.472 212.698 165.488 212.794 165.504C212.89 165.52 212.978 165.528 213.058 165.528C213.554 165.528 213.938 165.376 214.21 165.072C214.482 164.768 214.682 164.36 214.81 163.848C214.954 163.32 215.05 162.736 215.098 162.096C215.162 161.44 215.21 160.784 215.242 160.128L215.458 155.184H225.826V168H222.826V156.912L223.522 157.728H217.426L218.074 156.888L217.906 160.272C217.858 161.408 217.762 162.464 217.618 163.44C217.49 164.4 217.282 165.24 216.994 165.96C216.722 166.68 216.338 167.24 215.842 167.64C215.362 168.04 214.746 168.24 213.994 168.24C213.754 168.24 213.49 168.216 213.202 168.168C212.93 168.12 212.642 168.056 212.338 167.976ZM237.042 168V165.408L236.874 164.856V160.32C236.874 159.44 236.61 158.76 236.082 158.28C235.554 157.784 234.754 157.536 233.682 157.536C232.962 157.536 232.25 157.648 231.546 157.872C230.858 158.096 230.274 158.408 229.794 158.808L228.618 156.624C229.306 156.096 230.122 155.704 231.066 155.448C232.026 155.176 233.018 155.04 234.042 155.04C235.898 155.04 237.33 155.488 238.338 156.384C239.362 157.264 239.874 158.632 239.874 160.488V168H237.042ZM233.01 168.168C232.05 168.168 231.21 168.008 230.49 167.688C229.77 167.352 229.21 166.896 228.81 166.32C228.426 165.728 228.234 165.064 228.234 164.328C228.234 163.608 228.402 162.96 228.738 162.384C229.09 161.808 229.658 161.352 230.442 161.016C231.226 160.68 232.266 160.512 233.562 160.512H237.282V162.504H233.778C232.754 162.504 232.066 162.672 231.714 163.008C231.362 163.328 231.186 163.728 231.186 164.208C231.186 164.752 231.402 165.184 231.834 165.504C232.266 165.824 232.866 165.984 233.634 165.984C234.37 165.984 235.026 165.816 235.602 165.48C236.194 165.144 236.618 164.648 236.874 163.992L237.378 165.792C237.09 166.544 236.57 167.128 235.818 167.544C235.082 167.96 234.146 168.168 233.01 168.168ZM242.986 168V155.184H249.25C250.802 155.184 252.018 155.472 252.898 156.048C253.794 156.624 254.242 157.44 254.242 158.496C254.242 159.536 253.826 160.352 252.994 160.944C252.162 161.52 251.058 161.808 249.682 161.808L250.042 161.064C251.594 161.064 252.746 161.352 253.498 161.928C254.266 162.488 254.65 163.312 254.65 164.4C254.65 165.536 254.226 166.424 253.378 167.064C252.53 167.688 251.242 168 249.514 168H242.986ZM245.842 165.816H249.274C250.09 165.816 250.706 165.688 251.122 165.432C251.538 165.16 251.746 164.752 251.746 164.208C251.746 163.632 251.554 163.208 251.17 162.936C250.786 162.664 250.186 162.528 249.37 162.528H245.842V165.816ZM245.842 160.536H248.986C249.754 160.536 250.33 160.4 250.714 160.128C251.114 159.84 251.314 159.44 251.314 158.928C251.314 158.4 251.114 158.008 250.714 157.752C250.33 157.496 249.754 157.368 248.986 157.368H245.842V160.536ZM257.246 168V155.184H260.246V160.392H266.702V155.184H269.702V168H266.702V162.936H260.246V168H257.246ZM274.274 172.824C273.65 172.824 273.026 172.72 272.402 172.512C271.778 172.304 271.258 172.016 270.842 171.648L272.042 169.44C272.346 169.712 272.69 169.928 273.074 170.088C273.458 170.248 273.85 170.328 274.25 170.328C274.794 170.328 275.234 170.192 275.57 169.92C275.906 169.648 276.218 169.192 276.506 168.552L277.25 166.872L277.49 166.512L282.338 155.184H285.218L279.218 169.032C278.818 169.992 278.37 170.752 277.874 171.312C277.394 171.872 276.85 172.264 276.242 172.488C275.65 172.712 274.994 172.824 274.274 172.824ZM276.914 168.456L271.13 155.184H274.25L278.954 166.248L276.914 168.456ZM286.702 168V155.184H289.702V160.152H293.518V162.864H289.702V168H286.702ZM298.414 168.168C297.134 168.168 295.99 167.888 294.982 167.328C293.99 166.752 293.206 165.968 292.63 164.976C292.054 163.984 291.766 162.856 291.766 161.592C291.766 160.312 292.054 159.176 292.63 158.184C293.206 157.192 293.99 156.424 294.982 155.88C295.99 155.32 297.134 155.04 298.414 155.04C299.71 155.04 300.854 155.32 301.846 155.88C302.854 156.424 303.646 157.192 304.222 158.184C304.798 159.176 305.086 160.312 305.086 161.592C305.086 162.856 304.798 163.992 304.222 165C303.646 165.992 302.854 166.768 301.846 167.328C300.854 167.888 299.71 168.168 298.414 168.168ZM298.414 165.624C299.134 165.624 299.766 165.456 300.31 165.12C300.87 164.784 301.31 164.32 301.63 163.728C301.95 163.136 302.11 162.424 302.11 161.592C302.11 160.76 301.95 160.048 301.63 159.456C301.31 158.848 300.87 158.384 300.31 158.064C299.766 157.744 299.142 157.584 298.438 157.584C297.734 157.584 297.102 157.744 296.542 158.064C295.982 158.384 295.542 158.848 295.222 159.456C294.902 160.048 294.742 160.76 294.742 161.592C294.742 162.424 294.902 163.136 295.222 163.728C295.542 164.32 295.982 164.784 296.542 165.12C297.102 165.456 297.726 165.624 298.414 165.624Z" fill="#FFF8F3"/>
</svg>
