<svg width="1006" height="336" viewBox="0 0 1006 336" fill="none" xmlns="http://www.w3.org/2000/svg">
<rect width="443" height="230" rx="30" fill="#FFD7B9"/>
<path d="M129.704 282V264.584L130.572 265.48H123.236V262.4H139.812V265.48H132.476L133.316 264.584V282H129.704ZM148 282.196C146.338 282.196 144.882 281.869 143.632 281.216C142.4 280.544 141.438 279.629 140.748 278.472C140.076 277.315 139.74 275.999 139.74 274.524C139.74 273.031 140.066 271.715 140.72 270.576C141.392 269.419 142.306 268.513 143.464 267.86C144.64 267.207 145.974 266.88 147.468 266.88C148.924 266.88 150.221 267.197 151.36 267.832C152.498 268.467 153.394 269.363 154.048 270.52C154.701 271.677 155.028 273.04 155.028 274.608C155.028 274.757 155.018 274.925 155 275.112C155 275.299 154.99 275.476 154.972 275.644H142.512V273.32H153.124L151.752 274.048C151.77 273.189 151.593 272.433 151.22 271.78C150.846 271.127 150.333 270.613 149.68 270.24C149.045 269.867 148.308 269.68 147.468 269.68C146.609 269.68 145.853 269.867 145.2 270.24C144.565 270.613 144.061 271.136 143.688 271.808C143.333 272.461 143.156 273.236 143.156 274.132V274.692C143.156 275.588 143.361 276.381 143.772 277.072C144.182 277.763 144.761 278.295 145.508 278.668C146.254 279.041 147.113 279.228 148.084 279.228C148.924 279.228 149.68 279.097 150.352 278.836C151.024 278.575 151.621 278.164 152.144 277.604L154.02 279.76C153.348 280.544 152.498 281.151 151.472 281.58C150.464 281.991 149.306 282.196 148 282.196ZM167.518 282V278.976L167.322 278.332V273.04C167.322 272.013 167.014 271.22 166.398 270.66C165.782 270.081 164.848 269.792 163.598 269.792C162.758 269.792 161.927 269.923 161.106 270.184C160.303 270.445 159.622 270.809 159.062 271.276L157.69 268.728C158.492 268.112 159.444 267.655 160.546 267.356C161.666 267.039 162.823 266.88 164.018 266.88C166.183 266.88 167.854 267.403 169.03 268.448C170.224 269.475 170.822 271.071 170.822 273.236V282H167.518ZM162.814 282.196C161.694 282.196 160.714 282.009 159.874 281.636C159.034 281.244 158.38 280.712 157.914 280.04C157.466 279.349 157.242 278.575 157.242 277.716C157.242 276.876 157.438 276.12 157.83 275.448C158.24 274.776 158.903 274.244 159.818 273.852C160.732 273.46 161.946 273.264 163.458 273.264H167.798V275.588H163.71C162.515 275.588 161.712 275.784 161.302 276.176C160.891 276.549 160.686 277.016 160.686 277.576C160.686 278.211 160.938 278.715 161.442 279.088C161.946 279.461 162.646 279.648 163.542 279.648C164.4 279.648 165.166 279.452 165.838 279.06C166.528 278.668 167.023 278.089 167.322 277.324L167.91 279.424C167.574 280.301 166.967 280.983 166.09 281.468C165.231 281.953 164.139 282.196 162.814 282.196ZM178.261 282V269.176L179.073 270.016H172.997V267.048H186.997V270.016H180.949L181.761 269.176V282H178.261ZM197.824 282.196C196.61 282.196 195.5 281.916 194.492 281.356C193.502 280.796 192.709 279.956 192.112 278.836C191.533 277.697 191.244 276.26 191.244 274.524C191.244 272.769 191.524 271.332 192.084 270.212C192.662 269.092 193.446 268.261 194.436 267.72C195.425 267.16 196.554 266.88 197.824 266.88C199.298 266.88 200.596 267.197 201.716 267.832C202.854 268.467 203.75 269.353 204.404 270.492C205.076 271.631 205.412 272.975 205.412 274.524C205.412 276.073 205.076 277.427 204.404 278.584C203.75 279.723 202.854 280.609 201.716 281.244C200.596 281.879 199.298 282.196 197.824 282.196ZM189.536 287.432V267.048H192.868V270.576L192.756 274.552L193.036 278.528V287.432H189.536ZM197.432 279.2C198.272 279.2 199.018 279.013 199.672 278.64C200.344 278.267 200.876 277.725 201.268 277.016C201.66 276.307 201.856 275.476 201.856 274.524C201.856 273.553 201.66 272.723 201.268 272.032C200.876 271.323 200.344 270.781 199.672 270.408C199.018 270.035 198.272 269.848 197.432 269.848C196.592 269.848 195.836 270.035 195.164 270.408C194.492 270.781 193.96 271.323 193.568 272.032C193.176 272.723 192.98 273.553 192.98 274.524C192.98 275.476 193.176 276.307 193.568 277.016C193.96 277.725 194.492 278.267 195.164 278.64C195.836 279.013 196.592 279.2 197.432 279.2ZM208.356 275.672V272.76H216.056V275.672H208.356ZM227.019 282.196C225.451 282.196 224.051 281.869 222.819 281.216C221.606 280.544 220.654 279.629 219.963 278.472C219.273 277.315 218.927 275.999 218.927 274.524C218.927 273.031 219.273 271.715 219.963 270.576C220.654 269.419 221.606 268.513 222.819 267.86C224.051 267.207 225.451 266.88 227.019 266.88C228.475 266.88 229.754 267.179 230.855 267.776C231.975 268.355 232.825 269.213 233.403 270.352L230.715 271.92C230.267 271.211 229.717 270.688 229.063 270.352C228.429 270.016 227.738 269.848 226.991 269.848C226.133 269.848 225.358 270.035 224.667 270.408C223.977 270.781 223.435 271.323 223.043 272.032C222.651 272.723 222.455 273.553 222.455 274.524C222.455 275.495 222.651 276.335 223.043 277.044C223.435 277.735 223.977 278.267 224.667 278.64C225.358 279.013 226.133 279.2 226.991 279.2C227.738 279.2 228.429 279.032 229.063 278.696C229.717 278.36 230.267 277.837 230.715 277.128L233.403 278.696C232.825 279.816 231.975 280.684 230.855 281.3C229.754 281.897 228.475 282.196 227.019 282.196ZM239.483 282V269.176L240.295 270.016H234.219V267.048H248.219V270.016H242.171L242.983 269.176V282H239.483ZM252.13 287.628C251.402 287.628 250.674 287.507 249.946 287.264C249.218 287.021 248.611 286.685 248.126 286.256L249.526 283.68C249.88 283.997 250.282 284.249 250.73 284.436C251.178 284.623 251.635 284.716 252.102 284.716C252.736 284.716 253.25 284.557 253.642 284.24C254.034 283.923 254.398 283.391 254.734 282.644L255.602 280.684L255.882 280.264L261.538 267.048H264.898L257.898 283.204C257.431 284.324 256.908 285.211 256.33 285.864C255.77 286.517 255.135 286.975 254.426 287.236C253.735 287.497 252.97 287.628 252.13 287.628ZM255.21 282.532L248.462 267.048H252.102L257.59 279.956L255.21 282.532ZM276.674 280.376V270.016H270.934L270.85 272.424C270.813 273.283 270.757 274.113 270.682 274.916C270.608 275.7 270.486 276.428 270.318 277.1C270.15 277.753 269.908 278.295 269.59 278.724C269.273 279.153 268.853 279.433 268.33 279.564L264.858 279.032C265.418 279.032 265.866 278.855 266.202 278.5C266.557 278.127 266.828 277.623 267.014 276.988C267.22 276.335 267.369 275.597 267.462 274.776C267.556 273.936 267.621 273.068 267.658 272.172L267.854 267.048H280.174V280.376H276.674ZM264.326 285.332V279.032H282.386V285.332H279.11V282H267.574V285.332H264.326ZM285.512 282V267.048H289.012V276.904L297.272 267.048H300.464V282H296.964V272.144L288.732 282H285.512ZM314.664 282V276.904L315.168 277.492H310.688C308.635 277.492 307.02 277.063 305.844 276.204C304.687 275.327 304.108 274.067 304.108 272.424C304.108 270.669 304.724 269.335 305.956 268.42C307.207 267.505 308.868 267.048 310.94 267.048H317.8V282H314.664ZM303.912 282L307.944 276.288H311.528L307.664 282H303.912ZM314.664 275.784V269.064L315.168 269.988H311.052C309.97 269.988 309.13 270.193 308.532 270.604C307.954 270.996 307.664 271.64 307.664 272.536C307.664 274.216 308.756 275.056 310.94 275.056H315.168L314.664 275.784ZM152.489 303.708L154.113 297.492L154.589 299.592C153.936 299.592 153.385 299.387 152.937 298.976C152.508 298.565 152.293 298.015 152.293 297.324C152.293 296.633 152.508 296.083 152.937 295.672C153.385 295.243 153.927 295.028 154.561 295.028C155.215 295.028 155.756 295.243 156.185 295.672C156.615 296.101 156.829 296.652 156.829 297.324C156.829 297.529 156.811 297.744 156.773 297.968C156.755 298.173 156.699 298.416 156.605 298.696C156.531 298.957 156.4 299.303 156.213 299.732L154.757 303.708H152.489ZM158.425 303.708L160.049 297.492L160.525 299.592C159.872 299.592 159.321 299.387 158.873 298.976C158.444 298.565 158.229 298.015 158.229 297.324C158.229 296.633 158.444 296.083 158.873 295.672C159.321 295.243 159.863 295.028 160.497 295.028C161.151 295.028 161.692 295.243 162.121 295.672C162.551 296.101 162.765 296.652 162.765 297.324C162.765 297.529 162.747 297.744 162.709 297.968C162.691 298.173 162.635 298.416 162.541 298.696C162.467 298.957 162.336 299.303 162.149 299.732L160.693 303.708H158.425ZM166.631 316V296.4H174.695C176.431 296.4 177.915 296.68 179.147 297.24C180.397 297.8 181.359 298.603 182.031 299.648C182.703 300.693 183.039 301.935 183.039 303.372C183.039 304.809 182.703 306.051 182.031 307.096C181.359 308.141 180.397 308.944 179.147 309.504C177.915 310.064 176.431 310.344 174.695 310.344H168.647L170.271 308.636V316H166.631ZM170.271 309.028L168.647 307.264H174.527C176.132 307.264 177.336 306.928 178.139 306.256C178.96 305.565 179.371 304.604 179.371 303.372C179.371 302.121 178.96 301.16 178.139 300.488C177.336 299.816 176.132 299.48 174.527 299.48H168.647L170.271 297.688V309.028ZM192.7 316.196C191.169 316.196 189.806 315.869 188.612 315.216C187.417 314.544 186.474 313.629 185.784 312.472C185.093 311.315 184.748 309.999 184.748 308.524C184.748 307.031 185.093 305.715 185.784 304.576C186.474 303.419 187.417 302.513 188.612 301.86C189.806 301.207 191.169 300.88 192.7 300.88C194.249 300.88 195.621 301.207 196.816 301.86C198.029 302.513 198.972 303.409 199.644 304.548C200.334 305.687 200.68 307.012 200.68 308.524C200.68 309.999 200.334 311.315 199.644 312.472C198.972 313.629 198.029 314.544 196.816 315.216C195.621 315.869 194.249 316.196 192.7 316.196ZM192.7 313.2C193.558 313.2 194.324 313.013 194.996 312.64C195.668 312.267 196.19 311.725 196.564 311.016C196.956 310.307 197.152 309.476 197.152 308.524C197.152 307.553 196.956 306.723 196.564 306.032C196.19 305.323 195.668 304.781 194.996 304.408C194.324 304.035 193.568 303.848 192.728 303.848C191.869 303.848 191.104 304.035 190.432 304.408C189.778 304.781 189.256 305.323 188.864 306.032C188.472 306.723 188.276 307.553 188.276 308.524C188.276 309.476 188.472 310.307 188.864 311.016C189.256 311.725 189.778 312.267 190.432 312.64C191.104 313.013 191.86 313.2 192.7 313.2ZM214.221 314.376V304.016H208.481L208.397 306.424C208.36 307.283 208.304 308.113 208.229 308.916C208.154 309.7 208.033 310.428 207.865 311.1C207.697 311.753 207.454 312.295 207.137 312.724C206.82 313.153 206.4 313.433 205.877 313.564L202.405 313.032C202.965 313.032 203.413 312.855 203.749 312.5C204.104 312.127 204.374 311.623 204.561 310.988C204.766 310.335 204.916 309.597 205.009 308.776C205.102 307.936 205.168 307.068 205.205 306.172L205.401 301.048H217.721V314.376H214.221ZM201.873 319.332V313.032H219.933V319.332H216.657V316H205.121V319.332H201.873ZM223.059 316V301.048H226.559V307.124H234.091V301.048H237.591V316H234.091V310.092H226.559V316H223.059ZM242.282 316V301.048H245.782V310.904L254.042 301.048H257.234V316H253.734V306.144L245.502 316H242.282ZM272.666 316L267.262 308.832L270.118 307.068L276.782 316H272.666ZM261.942 316V301.048H265.442V316H261.942ZM264.406 310.008V307.096H269.474V310.008H264.406ZM270.454 308.944L267.178 308.552L272.666 301.048H276.418L270.454 308.944ZM280.902 313.928H277.738L281.63 308.524L277.738 303.092H280.902L284.878 308.524L280.902 313.928ZM286.726 313.928H283.562L287.454 308.524L283.562 303.092H286.726L290.702 308.524L286.726 313.928Z" fill="#622900"/>
<rect x="563" width="443" height="230" rx="30" fill="#FFD7B9"/>
<path d="M597.042 282V264.584L597.91 265.48H590.574V262.4H607.15V265.48H599.814L600.654 264.584V282H597.042ZM609.541 282V267.048H616.849C618.66 267.048 620.079 267.384 621.105 268.056C622.151 268.728 622.673 269.68 622.673 270.912C622.673 272.125 622.188 273.077 621.217 273.768C620.247 274.44 618.959 274.776 617.353 274.776L617.773 273.908C619.584 273.908 620.928 274.244 621.805 274.916C622.701 275.569 623.149 276.531 623.149 277.8C623.149 279.125 622.655 280.161 621.665 280.908C620.676 281.636 619.173 282 617.157 282H609.541ZM612.873 279.452H616.877C617.829 279.452 618.548 279.303 619.033 279.004C619.519 278.687 619.761 278.211 619.761 277.576C619.761 276.904 619.537 276.409 619.089 276.092C618.641 275.775 617.941 275.616 616.989 275.616H612.873V279.452ZM612.873 273.292H616.541C617.437 273.292 618.109 273.133 618.557 272.816C619.024 272.48 619.257 272.013 619.257 271.416C619.257 270.8 619.024 270.343 618.557 270.044C618.109 269.745 617.437 269.596 616.541 269.596H612.873V273.292ZM633.541 282.196C632.011 282.196 630.648 281.869 629.453 281.216C628.259 280.544 627.316 279.629 626.625 278.472C625.935 277.315 625.589 275.999 625.589 274.524C625.589 273.031 625.935 271.715 626.625 270.576C627.316 269.419 628.259 268.513 629.453 267.86C630.648 267.207 632.011 266.88 633.541 266.88C635.091 266.88 636.463 267.207 637.657 267.86C638.871 268.513 639.813 269.409 640.485 270.548C641.176 271.687 641.521 273.012 641.521 274.524C641.521 275.999 641.176 277.315 640.485 278.472C639.813 279.629 638.871 280.544 637.657 281.216C636.463 281.869 635.091 282.196 633.541 282.196ZM633.541 279.2C634.4 279.2 635.165 279.013 635.837 278.64C636.509 278.267 637.032 277.725 637.405 277.016C637.797 276.307 637.993 275.476 637.993 274.524C637.993 273.553 637.797 272.723 637.405 272.032C637.032 271.323 636.509 270.781 635.837 270.408C635.165 270.035 634.409 269.848 633.569 269.848C632.711 269.848 631.945 270.035 631.273 270.408C630.62 270.781 630.097 271.323 629.705 272.032C629.313 272.723 629.117 273.553 629.117 274.524C629.117 275.476 629.313 276.307 629.705 277.016C630.097 277.725 630.62 278.267 631.273 278.64C631.945 279.013 632.701 279.2 633.541 279.2ZM653.267 282.196C652.054 282.196 650.943 281.916 649.935 281.356C648.946 280.796 648.152 279.956 647.555 278.836C646.976 277.697 646.687 276.26 646.687 274.524C646.687 272.769 646.967 271.332 647.527 270.212C648.106 269.092 648.89 268.261 649.879 267.72C650.868 267.16 651.998 266.88 653.267 266.88C654.742 266.88 656.039 267.197 657.159 267.832C658.298 268.467 659.194 269.353 659.847 270.492C660.519 271.631 660.855 272.975 660.855 274.524C660.855 276.073 660.519 277.427 659.847 278.584C659.194 279.723 658.298 280.609 657.159 281.244C656.039 281.879 654.742 282.196 653.267 282.196ZM644.979 287.432V267.048H648.311V270.576L648.199 274.552L648.479 278.528V287.432H644.979ZM652.875 279.2C653.715 279.2 654.462 279.013 655.115 278.64C655.787 278.267 656.319 277.725 656.711 277.016C657.103 276.307 657.299 275.476 657.299 274.524C657.299 273.553 657.103 272.723 656.711 272.032C656.319 271.323 655.787 270.781 655.115 270.408C654.462 270.035 653.715 269.848 652.875 269.848C652.035 269.848 651.279 270.035 650.607 270.408C649.935 270.781 649.403 271.323 649.011 272.032C648.619 272.723 648.423 273.553 648.423 274.524C648.423 275.476 648.619 276.307 649.011 277.016C649.403 277.725 649.935 278.267 650.607 278.64C651.279 279.013 652.035 279.2 652.875 279.2ZM673.774 276.092C673.065 276.428 672.309 276.708 671.506 276.932C670.722 277.137 669.892 277.24 669.014 277.24C667.129 277.24 665.664 276.801 664.618 275.924C663.573 275.047 663.05 273.684 663.05 271.836V267.048H666.55V271.612C666.55 272.601 666.83 273.32 667.39 273.768C667.969 274.216 668.762 274.44 669.77 274.44C670.442 274.44 671.114 274.356 671.786 274.188C672.458 274.02 673.121 273.787 673.774 273.488V276.092ZM673.522 282V267.048H677.022V282H673.522ZM688.701 282.196C687.04 282.196 685.584 281.869 684.333 281.216C683.101 280.544 682.14 279.629 681.449 278.472C680.777 277.315 680.441 275.999 680.441 274.524C680.441 273.031 680.768 271.715 681.421 270.576C682.093 269.419 683.008 268.513 684.165 267.86C685.341 267.207 686.676 266.88 688.169 266.88C689.625 266.88 690.922 267.197 692.061 267.832C693.2 268.467 694.096 269.363 694.749 270.52C695.402 271.677 695.729 273.04 695.729 274.608C695.729 274.757 695.72 274.925 695.701 275.112C695.701 275.299 695.692 275.476 695.673 275.644H683.213V273.32H693.825L692.453 274.048C692.472 273.189 692.294 272.433 691.921 271.78C691.548 271.127 691.034 270.613 690.381 270.24C689.746 269.867 689.009 269.68 688.169 269.68C687.31 269.68 686.554 269.867 685.901 270.24C685.266 270.613 684.762 271.136 684.389 271.808C684.034 272.461 683.857 273.236 683.857 274.132V274.692C683.857 275.588 684.062 276.381 684.473 277.072C684.884 277.763 685.462 278.295 686.209 278.668C686.956 279.041 687.814 279.228 688.785 279.228C689.625 279.228 690.381 279.097 691.053 278.836C691.725 278.575 692.322 278.164 692.845 277.604L694.721 279.76C694.049 280.544 693.2 281.151 692.173 281.58C691.165 281.991 690.008 282.196 688.701 282.196ZM706.361 282.196C704.793 282.196 703.393 281.869 702.161 281.216C700.948 280.544 699.996 279.629 699.305 278.472C698.614 277.315 698.269 275.999 698.269 274.524C698.269 273.031 698.614 271.715 699.305 270.576C699.996 269.419 700.948 268.513 702.161 267.86C703.393 267.207 704.793 266.88 706.361 266.88C707.817 266.88 709.096 267.179 710.197 267.776C711.317 268.355 712.166 269.213 712.745 270.352L710.057 271.92C709.609 271.211 709.058 270.688 708.405 270.352C707.77 270.016 707.08 269.848 706.333 269.848C705.474 269.848 704.7 270.035 704.009 270.408C703.318 270.781 702.777 271.323 702.385 272.032C701.993 272.723 701.797 273.553 701.797 274.524C701.797 275.495 701.993 276.335 702.385 277.044C702.777 277.735 703.318 278.267 704.009 278.64C704.7 279.013 705.474 279.2 706.333 279.2C707.08 279.2 707.77 279.032 708.405 278.696C709.058 278.36 709.609 277.837 710.057 277.128L712.745 278.696C712.166 279.816 711.317 280.684 710.197 281.3C709.096 281.897 707.817 282.196 706.361 282.196ZM726.551 282L721.147 274.832L724.003 273.068L730.667 282H726.551ZM715.827 282V267.048H719.327V282H715.827ZM718.291 276.008V273.096H723.359V276.008H718.291ZM724.339 274.944L721.063 274.552L726.551 267.048H730.303L724.339 274.944ZM739.307 282.196C737.776 282.196 736.414 281.869 735.219 281.216C734.024 280.544 733.082 279.629 732.391 278.472C731.7 277.315 731.355 275.999 731.355 274.524C731.355 273.031 731.7 271.715 732.391 270.576C733.082 269.419 734.024 268.513 735.219 267.86C736.414 267.207 737.776 266.88 739.307 266.88C740.856 266.88 742.228 267.207 743.423 267.86C744.636 268.513 745.579 269.409 746.251 270.548C746.942 271.687 747.287 273.012 747.287 274.524C747.287 275.999 746.942 277.315 746.251 278.472C745.579 279.629 744.636 280.544 743.423 281.216C742.228 281.869 740.856 282.196 739.307 282.196ZM739.307 279.2C740.166 279.2 740.931 279.013 741.603 278.64C742.275 278.267 742.798 277.725 743.171 277.016C743.563 276.307 743.759 275.476 743.759 274.524C743.759 273.553 743.563 272.723 743.171 272.032C742.798 271.323 742.275 270.781 741.603 270.408C740.931 270.035 740.175 269.848 739.335 269.848C738.476 269.848 737.711 270.035 737.039 270.408C736.386 270.781 735.863 271.323 735.471 272.032C735.079 272.723 734.883 273.553 734.883 274.524C734.883 275.476 735.079 276.307 735.471 277.016C735.863 277.725 736.386 278.267 737.039 278.64C737.711 279.013 738.467 279.2 739.307 279.2ZM757.717 282.196C756.055 282.196 754.599 281.869 753.349 281.216C752.117 280.544 751.155 279.629 750.465 278.472C749.793 277.315 749.457 275.999 749.457 274.524C749.457 273.031 749.783 271.715 750.437 270.576C751.109 269.419 752.023 268.513 753.181 267.86C754.357 267.207 755.691 266.88 757.185 266.88C758.641 266.88 759.938 267.197 761.077 267.832C762.215 268.467 763.111 269.363 763.765 270.52C764.418 271.677 764.745 273.04 764.745 274.608C764.745 274.757 764.735 274.925 764.717 275.112C764.717 275.299 764.707 275.476 764.689 275.644H752.229V273.32H762.841L761.469 274.048C761.487 273.189 761.31 272.433 760.937 271.78C760.563 271.127 760.05 270.613 759.397 270.24C758.762 269.867 758.025 269.68 757.185 269.68C756.326 269.68 755.57 269.867 754.917 270.24C754.282 270.613 753.778 271.136 753.405 271.808C753.05 272.461 752.873 273.236 752.873 274.132V274.692C752.873 275.588 753.078 276.381 753.489 277.072C753.899 277.763 754.478 278.295 755.225 278.668C755.971 279.041 756.83 279.228 757.801 279.228C758.641 279.228 759.397 279.097 760.069 278.836C760.741 278.575 761.338 278.164 761.861 277.604L763.737 279.76C763.065 280.544 762.215 281.151 761.189 281.58C760.181 281.991 759.023 282.196 757.717 282.196ZM782.975 282.196C781.444 282.196 780.082 281.869 778.887 281.216C777.692 280.544 776.75 279.629 776.059 278.472C775.368 277.315 775.023 275.999 775.023 274.524C775.023 273.031 775.368 271.715 776.059 270.576C776.75 269.419 777.692 268.513 778.887 267.86C780.082 267.207 781.444 266.88 782.975 266.88C784.524 266.88 785.896 267.207 787.091 267.86C788.304 268.513 789.247 269.409 789.919 270.548C790.61 271.687 790.955 273.012 790.955 274.524C790.955 275.999 790.61 277.315 789.919 278.472C789.247 279.629 788.304 280.544 787.091 281.216C785.896 281.869 784.524 282.196 782.975 282.196ZM782.975 279.2C783.834 279.2 784.599 279.013 785.271 278.64C785.943 278.267 786.466 277.725 786.839 277.016C787.231 276.307 787.427 275.476 787.427 274.524C787.427 273.553 787.231 272.723 786.839 272.032C786.466 271.323 785.943 270.781 785.271 270.408C784.599 270.035 783.843 269.848 783.003 269.848C782.144 269.848 781.379 270.035 780.707 270.408C780.054 270.781 779.531 271.323 779.139 272.032C778.747 272.723 778.551 273.553 778.551 274.524C778.551 275.476 778.747 276.307 779.139 277.016C779.531 277.725 780.054 278.267 780.707 278.64C781.379 279.013 782.135 279.2 782.975 279.2ZM801.553 282.28C800.321 282.28 799.219 282.093 798.249 281.72C797.278 281.347 796.438 280.777 795.729 280.012C795.038 279.228 794.506 278.239 794.133 277.044C793.759 275.849 793.573 274.431 793.573 272.788C793.573 271.593 793.675 270.501 793.881 269.512C794.086 268.523 794.394 267.636 794.805 266.852C795.215 266.049 795.729 265.34 796.345 264.724C796.979 264.108 797.717 263.595 798.557 263.184C799.397 262.773 800.349 262.456 801.413 262.232L808.357 260.748L808.861 263.884L802.561 265.172C802.206 265.247 801.777 265.359 801.273 265.508C800.787 265.639 800.283 265.844 799.761 266.124C799.257 266.385 798.781 266.768 798.333 267.272C797.903 267.757 797.549 268.392 797.269 269.176C797.007 269.941 796.877 270.903 796.877 272.06C796.877 272.415 796.886 272.685 796.905 272.872C796.942 273.04 796.97 273.227 796.989 273.432C797.026 273.619 797.045 273.899 797.045 274.272L795.729 272.9C796.102 271.948 796.615 271.136 797.269 270.464C797.941 269.773 798.715 269.251 799.593 268.896C800.489 268.523 801.459 268.336 802.505 268.336C803.905 268.336 805.146 268.625 806.229 269.204C807.311 269.783 808.161 270.595 808.777 271.64C809.393 272.685 809.701 273.871 809.701 275.196C809.701 276.577 809.365 277.8 808.693 278.864C808.021 279.928 807.069 280.768 805.837 281.384C804.623 281.981 803.195 282.28 801.553 282.28ZM801.833 279.452C802.673 279.452 803.41 279.275 804.045 278.92C804.698 278.547 805.202 278.043 805.557 277.408C805.93 276.773 806.117 276.064 806.117 275.28C806.117 274.496 805.93 273.815 805.557 273.236C805.202 272.639 804.698 272.163 804.045 271.808C803.41 271.453 802.654 271.276 801.777 271.276C800.937 271.276 800.181 271.444 799.509 271.78C798.855 272.116 798.342 272.583 797.969 273.18C797.614 273.759 797.437 274.431 797.437 275.196C797.437 275.98 797.623 276.699 797.997 277.352C798.37 278.005 798.883 278.519 799.537 278.892C800.209 279.265 800.974 279.452 801.833 279.452ZM822.117 271.948C824.021 271.948 825.468 272.387 826.457 273.264C827.447 274.123 827.941 275.327 827.941 276.876C827.941 278.519 827.381 279.788 826.261 280.684C825.16 281.561 823.592 282 821.557 282H814.809V270.016H810.385V267.048H818.309V271.948H822.117ZM821.389 279.424C822.379 279.424 823.125 279.2 823.629 278.752C824.133 278.304 824.385 277.651 824.385 276.792C824.385 275.187 823.387 274.384 821.389 274.384H818.309V279.424H821.389ZM837.998 282.196C836.336 282.196 834.88 281.869 833.63 281.216C832.398 280.544 831.436 279.629 830.746 278.472C830.074 277.315 829.738 275.999 829.738 274.524C829.738 273.031 830.064 271.715 830.718 270.576C831.39 269.419 832.304 268.513 833.462 267.86C834.638 267.207 835.972 266.88 837.466 266.88C838.922 266.88 840.219 267.197 841.358 267.832C842.496 268.467 843.392 269.363 844.046 270.52C844.699 271.677 845.026 273.04 845.026 274.608C845.026 274.757 845.016 274.925 844.998 275.112C844.998 275.299 844.988 275.476 844.97 275.644H832.51V273.32H843.122L841.75 274.048C841.768 273.189 841.591 272.433 841.218 271.78C840.844 271.127 840.331 270.613 839.678 270.24C839.043 269.867 838.306 269.68 837.466 269.68C836.607 269.68 835.851 269.867 835.198 270.24C834.563 270.613 834.059 271.136 833.686 271.808C833.331 272.461 833.154 273.236 833.154 274.132V274.692C833.154 275.588 833.359 276.381 833.77 277.072C834.18 277.763 834.759 278.295 835.506 278.668C836.252 279.041 837.111 279.228 838.082 279.228C838.922 279.228 839.678 279.097 840.35 278.836C841.022 278.575 841.619 278.164 842.142 277.604L844.018 279.76C843.346 280.544 842.496 281.151 841.47 281.58C840.462 281.991 839.304 282.196 837.998 282.196ZM858.911 280.376V270.016H853.171L853.087 272.424C853.049 273.283 852.993 274.113 852.919 274.916C852.844 275.7 852.723 276.428 852.555 277.1C852.387 277.753 852.144 278.295 851.827 278.724C851.509 279.153 851.089 279.433 850.567 279.564L847.095 279.032C847.655 279.032 848.103 278.855 848.439 278.5C848.793 278.127 849.064 277.623 849.251 276.988C849.456 276.335 849.605 275.597 849.699 274.776C849.792 273.936 849.857 273.068 849.895 272.172L850.091 267.048H862.411V280.376H858.911ZM846.563 285.332V279.032H864.623V285.332H861.347V282H849.811V285.332H846.563ZM867.748 282V267.048H871.248V276.904L879.508 267.048H882.7V282H879.2V272.144L870.968 282H867.748ZM887.409 282V267.048H890.909V273.124H898.441V267.048H901.941V282H898.441V276.092H890.909V282H887.409ZM913.603 282.196C911.942 282.196 910.486 281.869 909.235 281.216C908.003 280.544 907.042 279.629 906.351 278.472C905.679 277.315 905.343 275.999 905.343 274.524C905.343 273.031 905.67 271.715 906.323 270.576C906.995 269.419 907.91 268.513 909.067 267.86C910.243 267.207 911.578 266.88 913.071 266.88C914.527 266.88 915.825 267.197 916.963 267.832C918.102 268.467 918.998 269.363 919.651 270.52C920.305 271.677 920.631 273.04 920.631 274.608C920.631 274.757 920.622 274.925 920.603 275.112C920.603 275.299 920.594 275.476 920.575 275.644H908.115V273.32H918.727L917.355 274.048C917.374 273.189 917.197 272.433 916.823 271.78C916.45 271.127 915.937 270.613 915.283 270.24C914.649 269.867 913.911 269.68 913.071 269.68C912.213 269.68 911.457 269.867 910.803 270.24C910.169 270.613 909.665 271.136 909.291 271.808C908.937 272.461 908.759 273.236 908.759 274.132V274.692C908.759 275.588 908.965 276.381 909.375 277.072C909.786 277.763 910.365 278.295 911.111 278.668C911.858 279.041 912.717 279.228 913.687 279.228C914.527 279.228 915.283 279.097 915.955 278.836C916.627 278.575 917.225 278.164 917.747 277.604L919.623 279.76C918.951 280.544 918.102 281.151 917.075 281.58C916.067 281.991 914.91 282.196 913.603 282.196ZM924.459 282V267.048H927.959V273.124H935.491V267.048H938.991V282H935.491V276.092H927.959V282H924.459ZM943.682 282V267.048H947.182V276.904L955.442 267.048H958.634V282H955.134V272.144L946.902 282H943.682ZM970.314 282.196C968.653 282.196 967.197 281.869 965.946 281.216C964.714 280.544 963.753 279.629 963.062 278.472C962.39 277.315 962.054 275.999 962.054 274.524C962.054 273.031 962.381 271.715 963.034 270.576C963.706 269.419 964.621 268.513 965.778 267.86C966.954 267.207 968.289 266.88 969.782 266.88C971.238 266.88 972.536 267.197 973.674 267.832C974.813 268.467 975.709 269.363 976.362 270.52C977.016 271.677 977.342 273.04 977.342 274.608C977.342 274.757 977.333 274.925 977.314 275.112C977.314 275.299 977.305 275.476 977.286 275.644H964.826V273.32H975.438L974.066 274.048C974.085 273.189 973.908 272.433 973.534 271.78C973.161 271.127 972.648 270.613 971.994 270.24C971.36 269.867 970.622 269.68 969.782 269.68C968.924 269.68 968.168 269.867 967.514 270.24C966.88 270.613 966.376 271.136 966.002 271.808C965.648 272.461 965.47 273.236 965.47 274.132V274.692C965.47 275.588 965.676 276.381 966.086 277.072C966.497 277.763 967.076 278.295 967.822 278.668C968.569 279.041 969.428 279.228 970.398 279.228C971.238 279.228 971.994 279.097 972.666 278.836C973.338 278.575 973.936 278.164 974.458 277.604L976.334 279.76C975.662 280.544 974.813 281.151 973.786 281.58C972.778 281.991 971.621 282.196 970.314 282.196ZM646.931 326.928L642.955 321.524L646.931 316.092H650.095L646.203 321.524L650.095 326.928H646.931ZM652.755 326.928L648.779 321.524L652.755 316.092H655.919L652.027 321.524L655.919 326.928H652.755ZM668.524 329.28C667.03 329.28 665.64 329.037 664.352 328.552C663.082 328.048 661.972 327.348 661.02 326.452C660.086 325.537 659.358 324.464 658.836 323.232C658.313 322 658.052 320.656 658.052 319.2C658.052 317.744 658.313 316.4 658.836 315.168C659.358 313.936 660.096 312.872 661.048 311.976C662 311.061 663.11 310.361 664.38 309.876C665.649 309.372 667.04 309.12 668.552 309.12C670.157 309.12 671.622 309.4 672.948 309.96C674.273 310.501 675.393 311.313 676.308 312.396L673.956 314.608C673.246 313.843 672.453 313.273 671.576 312.9C670.698 312.508 669.746 312.312 668.72 312.312C667.693 312.312 666.75 312.48 665.892 312.816C665.052 313.152 664.314 313.628 663.68 314.244C663.064 314.86 662.578 315.588 662.224 316.428C661.888 317.268 661.72 318.192 661.72 319.2C661.72 320.208 661.888 321.132 662.224 321.972C662.578 322.812 663.064 323.54 663.68 324.156C664.314 324.772 665.052 325.248 665.892 325.584C666.75 325.92 667.693 326.088 668.72 326.088C669.746 326.088 670.698 325.901 671.576 325.528C672.453 325.136 673.246 324.548 673.956 323.764L676.308 326.004C675.393 327.068 674.273 327.88 672.948 328.44C671.622 329 670.148 329.28 668.524 329.28ZM681.993 329V316.176L682.805 317.016H676.729V314.048H690.729V317.016H684.681L685.493 316.176V329H681.993ZM701.556 329.196C700.343 329.196 699.232 328.916 698.224 328.356C697.235 327.796 696.441 326.956 695.844 325.836C695.265 324.697 694.976 323.26 694.976 321.524C694.976 319.769 695.256 318.332 695.816 317.212C696.395 316.092 697.179 315.261 698.168 314.72C699.157 314.16 700.287 313.88 701.556 313.88C703.031 313.88 704.328 314.197 705.448 314.832C706.587 315.467 707.483 316.353 708.136 317.492C708.808 318.631 709.144 319.975 709.144 321.524C709.144 323.073 708.808 324.427 708.136 325.584C707.483 326.723 706.587 327.609 705.448 328.244C704.328 328.879 703.031 329.196 701.556 329.196ZM693.268 334.432V314.048H696.6V317.576L696.488 321.552L696.768 325.528V334.432H693.268ZM701.164 326.2C702.004 326.2 702.751 326.013 703.404 325.64C704.076 325.267 704.608 324.725 705 324.016C705.392 323.307 705.588 322.476 705.588 321.524C705.588 320.553 705.392 319.723 705 319.032C704.608 318.323 704.076 317.781 703.404 317.408C702.751 317.035 702.004 316.848 701.164 316.848C700.324 316.848 699.568 317.035 698.896 317.408C698.224 317.781 697.692 318.323 697.3 319.032C696.908 319.723 696.712 320.553 696.712 321.524C696.712 322.476 696.908 323.307 697.3 324.016C697.692 324.725 698.224 325.267 698.896 325.64C699.568 326.013 700.324 326.2 701.164 326.2ZM721.508 329V325.976L721.312 325.332V320.04C721.312 319.013 721.004 318.22 720.388 317.66C719.772 317.081 718.839 316.792 717.588 316.792C716.748 316.792 715.917 316.923 715.096 317.184C714.293 317.445 713.612 317.809 713.052 318.276L711.68 315.728C712.483 315.112 713.435 314.655 714.536 314.356C715.656 314.039 716.813 313.88 718.008 313.88C720.173 313.88 721.844 314.403 723.02 315.448C724.215 316.475 724.812 318.071 724.812 320.236V329H721.508ZM716.804 329.196C715.684 329.196 714.704 329.009 713.864 328.636C713.024 328.244 712.371 327.712 711.904 327.04C711.456 326.349 711.232 325.575 711.232 324.716C711.232 323.876 711.428 323.12 711.82 322.448C712.231 321.776 712.893 321.244 713.808 320.852C714.723 320.46 715.936 320.264 717.448 320.264H721.788V322.588H717.7C716.505 322.588 715.703 322.784 715.292 323.176C714.881 323.549 714.676 324.016 714.676 324.576C714.676 325.211 714.928 325.715 715.432 326.088C715.936 326.461 716.636 326.648 717.532 326.648C718.391 326.648 719.156 326.452 719.828 326.06C720.519 325.668 721.013 325.089 721.312 324.324L721.9 326.424C721.564 327.301 720.957 327.983 720.08 328.468C719.221 328.953 718.129 329.196 716.804 329.196ZM729.143 329V314.048H732.643V320.124H740.175V314.048H743.675V329H740.175V323.092H732.643V329H729.143ZM757.438 329V325.976L757.242 325.332V320.04C757.242 319.013 756.934 318.22 756.318 317.66C755.702 317.081 754.768 316.792 753.518 316.792C752.678 316.792 751.847 316.923 751.026 317.184C750.223 317.445 749.542 317.809 748.982 318.276L747.61 315.728C748.412 315.112 749.364 314.655 750.466 314.356C751.586 314.039 752.743 313.88 753.938 313.88C756.103 313.88 757.774 314.403 758.95 315.448C760.144 316.475 760.742 318.071 760.742 320.236V329H757.438ZM752.734 329.196C751.614 329.196 750.634 329.009 749.794 328.636C748.954 328.244 748.3 327.712 747.834 327.04C747.386 326.349 747.162 325.575 747.162 324.716C747.162 323.876 747.358 323.12 747.75 322.448C748.16 321.776 748.823 321.244 749.738 320.852C750.652 320.46 751.866 320.264 753.378 320.264H757.718V322.588H753.63C752.435 322.588 751.632 322.784 751.222 323.176C750.811 323.549 750.606 324.016 750.606 324.576C750.606 325.211 750.858 325.715 751.362 326.088C751.866 326.461 752.566 326.648 753.462 326.648C754.32 326.648 755.086 326.452 755.758 326.06C756.448 325.668 756.943 325.089 757.242 324.324L757.83 326.424C757.494 327.301 756.887 327.983 756.01 328.468C755.151 328.953 754.059 329.196 752.734 329.196ZM772.811 329V314.048H776.479L782.499 324.66H781.043L787.371 314.048H790.647L790.675 329H787.511V317.8L788.071 318.164L782.471 327.432H780.959L775.331 317.912L776.003 317.744V329H772.811ZM804.442 329V325.976L804.246 325.332V320.04C804.246 319.013 803.938 318.22 803.322 317.66C802.706 317.081 801.772 316.792 800.522 316.792C799.682 316.792 798.851 316.923 798.03 317.184C797.227 317.445 796.546 317.809 795.986 318.276L794.614 315.728C795.416 315.112 796.368 314.655 797.47 314.356C798.59 314.039 799.747 313.88 800.942 313.88C803.107 313.88 804.778 314.403 805.954 315.448C807.148 316.475 807.746 318.071 807.746 320.236V329H804.442ZM799.738 329.196C798.618 329.196 797.638 329.009 796.798 328.636C795.958 328.244 795.304 327.712 794.838 327.04C794.39 326.349 794.166 325.575 794.166 324.716C794.166 323.876 794.362 323.12 794.754 322.448C795.164 321.776 795.827 321.244 796.742 320.852C797.656 320.46 798.87 320.264 800.382 320.264H804.722V322.588H800.634C799.439 322.588 798.636 322.784 798.226 323.176C797.815 323.549 797.61 324.016 797.61 324.576C797.61 325.211 797.862 325.715 798.366 326.088C798.87 326.461 799.57 326.648 800.466 326.648C801.324 326.648 802.09 326.452 802.762 326.06C803.452 325.668 803.947 325.089 804.246 324.324L804.834 326.424C804.498 327.301 803.891 327.983 803.014 328.468C802.155 328.953 801.063 329.196 799.738 329.196ZM818.881 329.196C817.313 329.196 815.913 328.869 814.681 328.216C813.467 327.544 812.515 326.629 811.825 325.472C811.134 324.315 810.789 322.999 810.789 321.524C810.789 320.031 811.134 318.715 811.825 317.576C812.515 316.419 813.467 315.513 814.681 314.86C815.913 314.207 817.313 313.88 818.881 313.88C820.337 313.88 821.615 314.179 822.717 314.776C823.837 315.355 824.686 316.213 825.265 317.352L822.577 318.92C822.129 318.211 821.578 317.688 820.925 317.352C820.29 317.016 819.599 316.848 818.853 316.848C817.994 316.848 817.219 317.035 816.529 317.408C815.838 317.781 815.297 318.323 814.905 319.032C814.513 319.723 814.317 320.553 814.317 321.524C814.317 322.495 814.513 323.335 814.905 324.044C815.297 324.735 815.838 325.267 816.529 325.64C817.219 326.013 817.994 326.2 818.853 326.2C819.599 326.2 820.29 326.032 820.925 325.696C821.578 325.36 822.129 324.837 822.577 324.128L825.265 325.696C824.686 326.816 823.837 327.684 822.717 328.3C821.615 328.897 820.337 329.196 818.881 329.196ZM831.345 329V316.176L832.157 317.016H826.081V314.048H840.081V317.016H834.033L834.845 316.176V329H831.345ZM848.935 329.196C847.274 329.196 845.818 328.869 844.567 328.216C843.335 327.544 842.374 326.629 841.683 325.472C841.011 324.315 840.675 322.999 840.675 321.524C840.675 320.031 841.002 318.715 841.655 317.576C842.327 316.419 843.242 315.513 844.399 314.86C845.575 314.207 846.91 313.88 848.403 313.88C849.859 313.88 851.157 314.197 852.295 314.832C853.434 315.467 854.33 316.363 854.983 317.52C855.637 318.677 855.963 320.04 855.963 321.608C855.963 321.757 855.954 321.925 855.935 322.112C855.935 322.299 855.926 322.476 855.907 322.644H843.447V320.32H854.059L852.687 321.048C852.706 320.189 852.529 319.433 852.155 318.78C851.782 318.127 851.269 317.613 850.615 317.24C849.981 316.867 849.243 316.68 848.403 316.68C847.545 316.68 846.789 316.867 846.135 317.24C845.501 317.613 844.997 318.136 844.623 318.808C844.269 319.461 844.091 320.236 844.091 321.132V321.692C844.091 322.588 844.297 323.381 844.707 324.072C845.118 324.763 845.697 325.295 846.443 325.668C847.19 326.041 848.049 326.228 849.019 326.228C849.859 326.228 850.615 326.097 851.287 325.836C851.959 325.575 852.557 325.164 853.079 324.604L854.955 326.76C854.283 327.544 853.434 328.151 852.407 328.58C851.399 328.991 850.242 329.196 848.935 329.196ZM868.079 329.196C866.866 329.196 865.755 328.916 864.747 328.356C863.758 327.796 862.965 326.956 862.367 325.836C861.789 324.697 861.499 323.26 861.499 321.524C861.499 319.769 861.779 318.332 862.339 317.212C862.918 316.092 863.702 315.261 864.691 314.72C865.681 314.16 866.81 313.88 868.079 313.88C869.554 313.88 870.851 314.197 871.971 314.832C873.11 315.467 874.006 316.353 874.659 317.492C875.331 318.631 875.667 319.975 875.667 321.524C875.667 323.073 875.331 324.427 874.659 325.584C874.006 326.723 873.11 327.609 871.971 328.244C870.851 328.879 869.554 329.196 868.079 329.196ZM859.791 334.432V314.048H863.123V317.576L863.011 321.552L863.291 325.528V334.432H859.791ZM867.687 326.2C868.527 326.2 869.274 326.013 869.927 325.64C870.599 325.267 871.131 324.725 871.523 324.016C871.915 323.307 872.111 322.476 872.111 321.524C872.111 320.553 871.915 319.723 871.523 319.032C871.131 318.323 870.599 317.781 869.927 317.408C869.274 317.035 868.527 316.848 867.687 316.848C866.847 316.848 866.091 317.035 865.419 317.408C864.747 317.781 864.215 318.323 863.823 319.032C863.431 319.723 863.235 320.553 863.235 321.524C863.235 322.476 863.431 323.307 863.823 324.016C864.215 324.725 864.747 325.267 865.419 325.64C866.091 326.013 866.847 326.2 867.687 326.2ZM885.815 329.196C884.284 329.196 882.921 328.869 881.727 328.216C880.532 327.544 879.589 326.629 878.899 325.472C878.208 324.315 877.863 322.999 877.863 321.524C877.863 320.031 878.208 318.715 878.899 317.576C879.589 316.419 880.532 315.513 881.727 314.86C882.921 314.207 884.284 313.88 885.815 313.88C887.364 313.88 888.736 314.207 889.931 314.86C891.144 315.513 892.087 316.409 892.759 317.548C893.449 318.687 893.795 320.012 893.795 321.524C893.795 322.999 893.449 324.315 892.759 325.472C892.087 326.629 891.144 327.544 889.931 328.216C888.736 328.869 887.364 329.196 885.815 329.196ZM885.815 326.2C886.673 326.2 887.439 326.013 888.111 325.64C888.783 325.267 889.305 324.725 889.679 324.016C890.071 323.307 890.267 322.476 890.267 321.524C890.267 320.553 890.071 319.723 889.679 319.032C889.305 318.323 888.783 317.781 888.111 317.408C887.439 317.035 886.683 316.848 885.843 316.848C884.984 316.848 884.219 317.035 883.547 317.408C882.893 317.781 882.371 318.323 881.979 319.032C881.587 319.723 881.391 320.553 881.391 321.524C881.391 322.476 881.587 323.307 881.979 324.016C882.371 324.725 882.893 325.267 883.547 325.64C884.219 326.013 884.975 326.2 885.815 326.2ZM897.252 329V314.048H904.56C906.371 314.048 907.79 314.384 908.816 315.056C909.862 315.728 910.384 316.68 910.384 317.912C910.384 319.125 909.899 320.077 908.928 320.768C907.958 321.44 906.67 321.776 905.064 321.776L905.484 320.908C907.295 320.908 908.639 321.244 909.516 321.916C910.412 322.569 910.86 323.531 910.86 324.8C910.86 326.125 910.366 327.161 909.376 327.908C908.387 328.636 906.884 329 904.868 329H897.252ZM900.584 326.452H904.588C905.54 326.452 906.259 326.303 906.744 326.004C907.23 325.687 907.472 325.211 907.472 324.576C907.472 323.904 907.248 323.409 906.8 323.092C906.352 322.775 905.652 322.616 904.7 322.616H900.584V326.452ZM900.584 320.292H904.252C905.148 320.292 905.82 320.133 906.268 319.816C906.735 319.48 906.968 319.013 906.968 318.416C906.968 317.8 906.735 317.343 906.268 317.044C905.82 316.745 905.148 316.596 904.252 316.596H900.584V320.292ZM916.24 326.928H913.076L916.968 321.524L913.076 316.092H916.24L920.216 321.524L916.24 326.928ZM922.064 326.928H918.9L922.792 321.524L918.9 316.092H922.064L926.04 321.524L922.064 326.928Z" fill="#622900"/>
</svg>
