<svg width="1007" height="336" viewBox="0 0 1007 336" fill="none" xmlns="http://www.w3.org/2000/svg">
<rect width="443" height="230" rx="30" fill="#FFD7B9"/>
<path d="M35.2721 282V264.584L36.1401 265.48H28.8041V262.4H45.3801V265.48H38.0441L38.8841 264.584V282H35.2721ZM56.4064 282V278.976L56.2104 278.332V273.04C56.2104 272.013 55.9024 271.22 55.2864 270.66C54.6704 270.081 53.7371 269.792 52.4864 269.792C51.6464 269.792 50.8158 269.923 49.9944 270.184C49.1918 270.445 48.5104 270.809 47.9504 271.276L46.5784 268.728C47.3811 268.112 48.3331 267.655 49.4344 267.356C50.5544 267.039 51.7118 266.88 52.9064 266.88C55.0718 266.88 56.7424 267.403 57.9184 268.448C59.1131 269.475 59.7104 271.071 59.7104 273.236V282H56.4064ZM51.7024 282.196C50.5824 282.196 49.6024 282.009 48.7624 281.636C47.9224 281.244 47.2691 280.712 46.8024 280.04C46.3544 279.349 46.1304 278.575 46.1304 277.716C46.1304 276.876 46.3264 276.12 46.7184 275.448C47.1291 274.776 47.7918 274.244 48.7064 273.852C49.6211 273.46 50.8344 273.264 52.3464 273.264H56.6864V275.588H52.5984C51.4038 275.588 50.6011 275.784 50.1904 276.176C49.7798 276.549 49.5744 277.016 49.5744 277.576C49.5744 278.211 49.8264 278.715 50.3304 279.088C50.8344 279.461 51.5344 279.648 52.4304 279.648C53.2891 279.648 54.0544 279.452 54.7264 279.06C55.4171 278.668 55.9118 278.089 56.2104 277.324L56.7984 279.424C56.4624 280.301 55.8558 280.983 54.9784 281.468C54.1198 281.953 53.0278 282.196 51.7024 282.196ZM64.0415 282V267.048H67.5415V273.124H75.0735V267.048H78.5735V282H75.0735V276.092H67.5415V282H64.0415ZM83.2641 282V267.048H86.7641V279.032H93.9041V267.048H97.4041V282H83.2641ZM96.3961 285.332V281.916L97.2081 282H93.9041V279.032H99.6721V285.332H96.3961ZM109.76 282.196C108.098 282.196 106.642 281.869 105.392 281.216C104.16 280.544 103.198 279.629 102.508 278.472C101.836 277.315 101.5 275.999 101.5 274.524C101.5 273.031 101.826 271.715 102.48 270.576C103.152 269.419 104.066 268.513 105.224 267.86C106.4 267.207 107.734 266.88 109.228 266.88C110.684 266.88 111.981 267.197 113.12 267.832C114.258 268.467 115.154 269.363 115.808 270.52C116.461 271.677 116.788 273.04 116.788 274.608C116.788 274.757 116.778 274.925 116.76 275.112C116.76 275.299 116.75 275.476 116.732 275.644H104.272V273.32H114.884L113.512 274.048C113.53 273.189 113.353 272.433 112.98 271.78C112.606 271.127 112.093 270.613 111.44 270.24C110.805 269.867 110.068 269.68 109.228 269.68C108.369 269.68 107.613 269.867 106.96 270.24C106.325 270.613 105.821 271.136 105.448 271.808C105.093 272.461 104.916 273.236 104.916 274.132V274.692C104.916 275.588 105.121 276.381 105.532 277.072C105.942 277.763 106.521 278.295 107.268 278.668C108.014 279.041 108.873 279.228 109.844 279.228C110.684 279.228 111.44 279.097 112.112 278.836C112.784 278.575 113.381 278.164 113.904 277.604L115.78 279.76C115.108 280.544 114.258 281.151 113.232 281.58C112.224 281.991 111.066 282.196 109.76 282.196ZM120.616 282V267.048H127.924C129.734 267.048 131.153 267.384 132.18 268.056C133.225 268.728 133.748 269.68 133.748 270.912C133.748 272.125 133.262 273.077 132.292 273.768C131.321 274.44 130.033 274.776 128.428 274.776L128.848 273.908C130.658 273.908 132.002 274.244 132.88 274.916C133.776 275.569 134.224 276.531 134.224 277.8C134.224 279.125 133.729 280.161 132.74 280.908C131.75 281.636 130.248 282 128.232 282H120.616ZM123.948 279.452H127.952C128.904 279.452 129.622 279.303 130.108 279.004C130.593 278.687 130.836 278.211 130.836 277.576C130.836 276.904 130.612 276.409 130.164 276.092C129.716 275.775 129.016 275.616 128.064 275.616H123.948V279.452ZM123.948 273.292H127.616C128.512 273.292 129.184 273.133 129.632 272.816C130.098 272.48 130.332 272.013 130.332 271.416C130.332 270.8 130.098 270.343 129.632 270.044C129.184 269.745 128.512 269.596 127.616 269.596H123.948V273.292ZM147.024 282V278.976L146.828 278.332V273.04C146.828 272.013 146.52 271.22 145.904 270.66C145.288 270.081 144.354 269.792 143.104 269.792C142.264 269.792 141.433 269.923 140.612 270.184C139.809 270.445 139.128 270.809 138.568 271.276L137.196 268.728C137.998 268.112 138.95 267.655 140.052 267.356C141.172 267.039 142.329 266.88 143.524 266.88C145.689 266.88 147.36 267.403 148.536 268.448C149.73 269.475 150.328 271.071 150.328 273.236V282H147.024ZM142.32 282.196C141.2 282.196 140.22 282.009 139.38 281.636C138.54 281.244 137.886 280.712 137.42 280.04C136.972 279.349 136.748 278.575 136.748 277.716C136.748 276.876 136.944 276.12 137.336 275.448C137.746 274.776 138.409 274.244 139.324 273.852C140.238 273.46 141.452 273.264 142.964 273.264H147.304V275.588H143.216C142.021 275.588 141.218 275.784 140.808 276.176C140.397 276.549 140.192 277.016 140.192 277.576C140.192 278.211 140.444 278.715 140.948 279.088C141.452 279.461 142.152 279.648 143.048 279.648C143.906 279.648 144.672 279.452 145.344 279.06C146.034 278.668 146.529 278.089 146.828 277.324L147.416 279.424C147.08 280.301 146.473 280.983 145.596 281.468C144.737 281.953 143.645 282.196 142.32 282.196ZM152.475 281.972L152.643 279.032C152.773 279.051 152.895 279.069 153.007 279.088C153.119 279.107 153.221 279.116 153.315 279.116C153.893 279.116 154.341 278.939 154.659 278.584C154.976 278.229 155.209 277.753 155.359 277.156C155.527 276.54 155.639 275.859 155.695 275.112C155.769 274.347 155.825 273.581 155.863 272.816L156.115 267.048H168.211V282H164.711V269.064L165.523 270.016H158.411L159.167 269.036L158.971 272.984C158.915 274.309 158.803 275.541 158.635 276.68C158.485 277.8 158.243 278.78 157.907 279.62C157.589 280.46 157.141 281.113 156.563 281.58C156.003 282.047 155.284 282.28 154.407 282.28C154.127 282.28 153.819 282.252 153.483 282.196C153.165 282.14 152.829 282.065 152.475 281.972ZM180.428 271.976C182.351 271.976 183.816 272.405 184.824 273.264C185.832 274.123 186.336 275.336 186.336 276.904C186.336 278.528 185.776 279.797 184.656 280.712C183.536 281.608 181.959 282.047 179.924 282.028L172.924 282V267.048H176.424V271.948L180.428 271.976ZM179.616 279.452C180.643 279.471 181.427 279.256 181.968 278.808C182.51 278.36 182.78 277.707 182.78 276.848C182.78 275.989 182.51 275.373 181.968 275C181.446 274.608 180.662 274.403 179.616 274.384L176.424 274.356V279.424L179.616 279.452ZM189.413 282V267.048H192.913V273.124H200.445V267.048H203.945V282H200.445V276.092H192.913V282H189.413ZM223.727 282V267.048H227.227V282H223.727ZM215.915 271.976C217.838 271.976 219.294 272.405 220.283 273.264C221.291 274.123 221.795 275.336 221.795 276.904C221.795 278.528 221.235 279.797 220.115 280.712C219.014 281.608 217.446 282.047 215.411 282.028L208.635 282V267.048H212.135V271.948L215.915 271.976ZM215.103 279.452C216.13 279.471 216.914 279.256 217.455 278.808C217.997 278.36 218.267 277.707 218.267 276.848C218.267 275.989 217.997 275.373 217.455 275C216.933 274.608 216.149 274.403 215.103 274.384L212.135 274.356V279.424L215.103 279.452ZM231.932 282V267.048H235.432V276.904L243.692 267.048H246.884V282H243.384V272.144L235.152 282H231.932ZM239.184 265.284C237.691 265.284 236.543 264.939 235.74 264.248C234.937 263.539 234.527 262.512 234.508 261.168H236.832C236.851 261.84 237.056 262.372 237.448 262.764C237.859 263.156 238.428 263.352 239.156 263.352C239.865 263.352 240.425 263.156 240.836 262.764C241.265 262.372 241.489 261.84 241.508 261.168H243.888C243.869 262.512 243.449 263.539 242.628 264.248C241.825 264.939 240.677 265.284 239.184 265.284ZM270.055 282L264.651 274.832L267.507 273.068L274.171 282H270.055ZM259.331 282V267.048H262.831V282H259.331ZM261.795 276.008V273.096H266.863V276.008H261.795ZM267.843 274.944L264.567 274.552L270.055 267.048H273.807L267.843 274.944ZM282.811 282.196C281.28 282.196 279.918 281.869 278.723 281.216C277.528 280.544 276.586 279.629 275.895 278.472C275.204 277.315 274.859 275.999 274.859 274.524C274.859 273.031 275.204 271.715 275.895 270.576C276.586 269.419 277.528 268.513 278.723 267.86C279.918 267.207 281.28 266.88 282.811 266.88C284.36 266.88 285.732 267.207 286.927 267.86C288.14 268.513 289.083 269.409 289.755 270.548C290.446 271.687 290.791 273.012 290.791 274.524C290.791 275.999 290.446 277.315 289.755 278.472C289.083 279.629 288.14 280.544 286.927 281.216C285.732 281.869 284.36 282.196 282.811 282.196ZM282.811 279.2C283.67 279.2 284.435 279.013 285.107 278.64C285.779 278.267 286.302 277.725 286.675 277.016C287.067 276.307 287.263 275.476 287.263 274.524C287.263 273.553 287.067 272.723 286.675 272.032C286.302 271.323 285.779 270.781 285.107 270.408C284.435 270.035 283.679 269.848 282.839 269.848C281.98 269.848 281.215 270.035 280.543 270.408C279.89 270.781 279.367 271.323 278.975 272.032C278.583 272.723 278.387 273.553 278.387 274.524C278.387 275.476 278.583 276.307 278.975 277.016C279.367 277.725 279.89 278.267 280.543 278.64C281.215 279.013 281.971 279.2 282.811 279.2ZM291.9 281.972L292.068 279.032C292.199 279.051 292.32 279.069 292.432 279.088C292.544 279.107 292.647 279.116 292.74 279.116C293.319 279.116 293.767 278.939 294.084 278.584C294.402 278.229 294.635 277.753 294.784 277.156C294.952 276.54 295.064 275.859 295.12 275.112C295.195 274.347 295.251 273.581 295.288 272.816L295.54 267.048H307.636V282H304.136V269.064L304.948 270.016H297.836L298.592 269.036L298.396 272.984C298.34 274.309 298.228 275.541 298.06 276.68C297.911 277.8 297.668 278.78 297.332 279.62C297.015 280.46 296.567 281.113 295.988 281.58C295.428 282.047 294.71 282.28 293.832 282.28C293.552 282.28 293.244 282.252 292.908 282.196C292.591 282.14 292.255 282.065 291.9 281.972ZM310.166 281.972L310.334 279.032C310.465 279.051 310.586 279.069 310.698 279.088C310.81 279.107 310.913 279.116 311.006 279.116C311.585 279.116 312.033 278.939 312.35 278.584C312.667 278.229 312.901 277.753 313.05 277.156C313.218 276.54 313.33 275.859 313.386 275.112C313.461 274.347 313.517 273.581 313.554 272.816L313.806 267.048H325.902V282H322.402V269.064L323.214 270.016H316.102L316.858 269.036L316.662 272.984C316.606 274.309 316.494 275.541 316.326 276.68C316.177 277.8 315.934 278.78 315.598 279.62C315.281 280.46 314.833 281.113 314.254 281.58C313.694 282.047 312.975 282.28 312.098 282.28C311.818 282.28 311.51 282.252 311.174 282.196C310.857 282.14 310.521 282.065 310.166 281.972ZM337.588 282.196C335.926 282.196 334.47 281.869 333.22 281.216C331.988 280.544 331.026 279.629 330.336 278.472C329.664 277.315 329.328 275.999 329.328 274.524C329.328 273.031 329.654 271.715 330.308 270.576C330.98 269.419 331.894 268.513 333.052 267.86C334.228 267.207 335.562 266.88 337.056 266.88C338.512 266.88 339.809 267.197 340.948 267.832C342.086 268.467 342.982 269.363 343.636 270.52C344.289 271.677 344.616 273.04 344.616 274.608C344.616 274.757 344.606 274.925 344.588 275.112C344.588 275.299 344.578 275.476 344.56 275.644H332.1V273.32H342.712L341.34 274.048C341.358 273.189 341.181 272.433 340.808 271.78C340.434 271.127 339.921 270.613 339.268 270.24C338.633 269.867 337.896 269.68 337.056 269.68C336.197 269.68 335.441 269.867 334.788 270.24C334.153 270.613 333.649 271.136 333.276 271.808C332.921 272.461 332.744 273.236 332.744 274.132V274.692C332.744 275.588 332.949 276.381 333.36 277.072C333.77 277.763 334.349 278.295 335.096 278.668C335.842 279.041 336.701 279.228 337.672 279.228C338.512 279.228 339.268 279.097 339.94 278.836C340.612 278.575 341.209 278.164 341.732 277.604L343.608 279.76C342.936 280.544 342.086 281.151 341.06 281.58C340.052 281.991 338.894 282.196 337.588 282.196ZM359.168 282L353.764 274.832L356.62 273.068L363.284 282H359.168ZM348.444 282V267.048H351.944V282H348.444ZM350.908 276.008V273.096H355.976V276.008H350.908ZM356.956 274.944L353.68 274.552L359.168 267.048H362.92L356.956 274.944ZM368.669 282V269.176L369.481 270.016H363.405V267.048H377.405V270.016H371.357L372.169 269.176V282H368.669ZM379.944 282V267.048H383.444V276.904L391.704 267.048H394.896V282H391.396V272.144L383.164 282H379.944ZM399.604 282V267.048H406.912C408.723 267.048 410.141 267.384 411.168 268.056C412.213 268.728 412.736 269.68 412.736 270.912C412.736 272.125 412.251 273.077 411.28 273.768C410.309 274.44 409.021 274.776 407.416 274.776L407.836 273.908C409.647 273.908 410.991 274.244 411.868 274.916C412.764 275.569 413.212 276.531 413.212 277.8C413.212 279.125 412.717 280.161 411.728 280.908C410.739 281.636 409.236 282 407.22 282H399.604ZM402.936 279.452H406.94C407.892 279.452 408.611 279.303 409.096 279.004C409.581 278.687 409.824 278.211 409.824 277.576C409.824 276.904 409.6 276.409 409.152 276.092C408.704 275.775 408.004 275.616 407.052 275.616H402.936V279.452ZM402.936 273.292H406.604C407.5 273.292 408.172 273.133 408.62 272.816C409.087 272.48 409.32 272.013 409.32 271.416C409.32 270.8 409.087 270.343 408.62 270.044C408.172 269.745 407.5 269.596 406.604 269.596H402.936V273.292ZM155.517 326.928L151.541 321.524L155.517 316.092H158.681L154.789 321.524L158.681 326.928H155.517ZM161.341 326.928L157.365 321.524L161.341 316.092H164.505L160.613 321.524L164.505 326.928H161.341ZM168.073 325.92C169.099 326.275 170.005 326.368 170.789 326.2C171.573 326.032 172.273 325.463 172.889 324.492L173.841 323.008L174.205 322.616L181.037 309.4H184.621L176.109 325.22C175.418 326.545 174.597 327.553 173.645 328.244C172.693 328.935 171.666 329.317 170.565 329.392C169.482 329.485 168.353 329.28 167.177 328.776L168.073 325.92ZM174.121 325.752L165.385 309.4H169.277L176.109 322.952L174.121 325.752ZM183.838 328.972L184.006 326.032C184.137 326.051 184.258 326.069 184.37 326.088C184.482 326.107 184.585 326.116 184.678 326.116C185.257 326.116 185.705 325.939 186.022 325.584C186.339 325.229 186.573 324.753 186.722 324.156C186.89 323.54 187.002 322.859 187.058 322.112C187.133 321.347 187.189 320.581 187.226 319.816L187.478 314.048H199.574V329H196.074V316.064L196.886 317.016H189.774L190.53 316.036L190.334 319.984C190.278 321.309 190.166 322.541 189.998 323.68C189.849 324.8 189.606 325.78 189.27 326.62C188.953 327.46 188.505 328.113 187.926 328.58C187.366 329.047 186.647 329.28 185.77 329.28C185.49 329.28 185.182 329.252 184.846 329.196C184.529 329.14 184.193 329.065 183.838 328.972ZM219.38 329V314.048H222.88V329H219.38ZM211.568 318.976C213.49 318.976 214.946 319.405 215.936 320.264C216.944 321.123 217.448 322.336 217.448 323.904C217.448 325.528 216.888 326.797 215.768 327.712C214.666 328.608 213.098 329.047 211.064 329.028L204.288 329V314.048H207.788V318.948L211.568 318.976ZM210.756 326.452C211.782 326.471 212.566 326.256 213.108 325.808C213.649 325.36 213.92 324.707 213.92 323.848C213.92 322.989 213.649 322.373 213.108 322C212.585 321.608 211.801 321.403 210.756 321.384L207.788 321.356V326.424L210.756 326.452ZM234.724 329.28C233.492 329.28 232.391 329.093 231.42 328.72C230.45 328.347 229.61 327.777 228.9 327.012C228.21 326.228 227.678 325.239 227.304 324.044C226.931 322.849 226.744 321.431 226.744 319.788C226.744 318.593 226.847 317.501 227.052 316.512C227.258 315.523 227.566 314.636 227.976 313.852C228.387 313.049 228.9 312.34 229.516 311.724C230.151 311.108 230.888 310.595 231.728 310.184C232.568 309.773 233.52 309.456 234.584 309.232L241.528 307.748L242.032 310.884L235.732 312.172C235.378 312.247 234.948 312.359 234.444 312.508C233.959 312.639 233.455 312.844 232.932 313.124C232.428 313.385 231.952 313.768 231.504 314.272C231.075 314.757 230.72 315.392 230.44 316.176C230.179 316.941 230.048 317.903 230.048 319.06C230.048 319.415 230.058 319.685 230.076 319.872C230.114 320.04 230.142 320.227 230.16 320.432C230.198 320.619 230.216 320.899 230.216 321.272L228.9 319.9C229.274 318.948 229.787 318.136 230.44 317.464C231.112 316.773 231.887 316.251 232.764 315.896C233.66 315.523 234.631 315.336 235.676 315.336C237.076 315.336 238.318 315.625 239.4 316.204C240.483 316.783 241.332 317.595 241.948 318.64C242.564 319.685 242.872 320.871 242.872 322.196C242.872 323.577 242.536 324.8 241.864 325.864C241.192 326.928 240.24 327.768 239.008 328.384C237.795 328.981 236.367 329.28 234.724 329.28ZM235.004 326.452C235.844 326.452 236.582 326.275 237.216 325.92C237.87 325.547 238.374 325.043 238.728 324.408C239.102 323.773 239.288 323.064 239.288 322.28C239.288 321.496 239.102 320.815 238.728 320.236C238.374 319.639 237.87 319.163 237.216 318.808C236.582 318.453 235.826 318.276 234.948 318.276C234.108 318.276 233.352 318.444 232.68 318.78C232.027 319.116 231.514 319.583 231.14 320.18C230.786 320.759 230.608 321.431 230.608 322.196C230.608 322.98 230.795 323.699 231.168 324.352C231.542 325.005 232.055 325.519 232.708 325.892C233.38 326.265 234.146 326.452 235.004 326.452ZM256.984 329L251.58 321.832L254.436 320.068L261.1 329H256.984ZM246.26 329V314.048H249.76V329H246.26ZM248.724 323.008V320.096H253.792V323.008H248.724ZM254.772 321.944L251.496 321.552L256.984 314.048H260.736L254.772 321.944ZM272.367 329V325.976L272.171 325.332V320.04C272.171 319.013 271.863 318.22 271.247 317.66C270.631 317.081 269.698 316.792 268.447 316.792C267.607 316.792 266.777 316.923 265.955 317.184C265.153 317.445 264.471 317.809 263.911 318.276L262.539 315.728C263.342 315.112 264.294 314.655 265.395 314.356C266.515 314.039 267.673 313.88 268.867 313.88C271.033 313.88 272.703 314.403 273.879 315.448C275.074 316.475 275.671 318.071 275.671 320.236V329H272.367ZM267.663 329.196C266.543 329.196 265.563 329.009 264.723 328.636C263.883 328.244 263.23 327.712 262.763 327.04C262.315 326.349 262.091 325.575 262.091 324.716C262.091 323.876 262.287 323.12 262.679 322.448C263.09 321.776 263.753 321.244 264.667 320.852C265.582 320.46 266.795 320.264 268.307 320.264H272.647V322.588H268.559C267.365 322.588 266.562 322.784 266.151 323.176C265.741 323.549 265.535 324.016 265.535 324.576C265.535 325.211 265.787 325.715 266.291 326.088C266.795 326.461 267.495 326.648 268.391 326.648C269.25 326.648 270.015 326.452 270.687 326.06C271.378 325.668 271.873 325.089 272.171 324.324L272.759 326.424C272.423 327.301 271.817 327.983 270.939 328.468C270.081 328.953 268.989 329.196 267.663 329.196ZM281.654 326.928H278.49L282.382 321.524L278.49 316.092H281.654L285.63 321.524L281.654 326.928ZM287.478 326.928H284.314L288.206 321.524L284.314 316.092H287.478L291.454 321.524L287.478 326.928Z" fill="#622900"/>
<rect x="563" width="443" height="230" rx="30" fill="#FFD7B9"/>
<path d="M562.693 262.4H566.893L571.513 268.952L576.133 262.4H580.389L573.809 271.808L580.921 282H576.609L571.513 274.86L566.445 282H562.245L569.329 271.948L562.693 262.4ZM589.436 282.196C587.905 282.196 586.543 281.869 585.348 281.216C584.153 280.544 583.211 279.629 582.52 278.472C581.829 277.315 581.484 275.999 581.484 274.524C581.484 273.031 581.829 271.715 582.52 270.576C583.211 269.419 584.153 268.513 585.348 267.86C586.543 267.207 587.905 266.88 589.436 266.88C590.985 266.88 592.357 267.207 593.552 267.86C594.765 268.513 595.708 269.409 596.38 270.548C597.071 271.687 597.416 273.012 597.416 274.524C597.416 275.999 597.071 277.315 596.38 278.472C595.708 279.629 594.765 280.544 593.552 281.216C592.357 281.869 590.985 282.196 589.436 282.196ZM589.436 279.2C590.295 279.2 591.06 279.013 591.732 278.64C592.404 278.267 592.927 277.725 593.3 277.016C593.692 276.307 593.888 275.476 593.888 274.524C593.888 273.553 593.692 272.723 593.3 272.032C592.927 271.323 592.404 270.781 591.732 270.408C591.06 270.035 590.304 269.848 589.464 269.848C588.605 269.848 587.84 270.035 587.168 270.408C586.515 270.781 585.992 271.323 585.6 272.032C585.208 272.723 585.012 273.553 585.012 274.524C585.012 275.476 585.208 276.307 585.6 277.016C585.992 277.725 586.515 278.267 587.168 278.64C587.84 279.013 588.596 279.2 589.436 279.2ZM609.161 282.196C607.948 282.196 606.837 281.916 605.829 281.356C604.84 280.796 604.047 279.956 603.449 278.836C602.871 277.697 602.581 276.26 602.581 274.524C602.581 272.769 602.861 271.332 603.421 270.212C604 269.092 604.784 268.261 605.773 267.72C606.763 267.16 607.892 266.88 609.161 266.88C610.636 266.88 611.933 267.197 613.053 267.832C614.192 268.467 615.088 269.353 615.741 270.492C616.413 271.631 616.749 272.975 616.749 274.524C616.749 276.073 616.413 277.427 615.741 278.584C615.088 279.723 614.192 280.609 613.053 281.244C611.933 281.879 610.636 282.196 609.161 282.196ZM600.873 287.432V267.048H604.205V270.576L604.093 274.552L604.373 278.528V287.432H600.873ZM608.769 279.2C609.609 279.2 610.356 279.013 611.009 278.64C611.681 278.267 612.213 277.725 612.605 277.016C612.997 276.307 613.193 275.476 613.193 274.524C613.193 273.553 612.997 272.723 612.605 272.032C612.213 271.323 611.681 270.781 611.009 270.408C610.356 270.035 609.609 269.848 608.769 269.848C607.929 269.848 607.173 270.035 606.501 270.408C605.829 270.781 605.297 271.323 604.905 272.032C604.513 272.723 604.317 273.553 604.317 274.524C604.317 275.476 604.513 276.307 604.905 277.016C605.297 277.725 605.829 278.267 606.501 278.64C607.173 279.013 607.929 279.2 608.769 279.2ZM627.205 282.196C625.544 282.196 624.088 281.869 622.837 281.216C621.605 280.544 620.644 279.629 619.953 278.472C619.281 277.315 618.945 275.999 618.945 274.524C618.945 273.031 619.272 271.715 619.925 270.576C620.597 269.419 621.512 268.513 622.669 267.86C623.845 267.207 625.18 266.88 626.673 266.88C628.129 266.88 629.426 267.197 630.565 267.832C631.704 268.467 632.6 269.363 633.253 270.52C633.906 271.677 634.233 273.04 634.233 274.608C634.233 274.757 634.224 274.925 634.205 275.112C634.205 275.299 634.196 275.476 634.177 275.644H621.717V273.32H632.329L630.957 274.048C630.976 273.189 630.798 272.433 630.425 271.78C630.052 271.127 629.538 270.613 628.885 270.24C628.25 269.867 627.513 269.68 626.673 269.68C625.814 269.68 625.058 269.867 624.405 270.24C623.77 270.613 623.266 271.136 622.893 271.808C622.538 272.461 622.361 273.236 622.361 274.132V274.692C622.361 275.588 622.566 276.381 622.977 277.072C623.388 277.763 623.966 278.295 624.713 278.668C625.46 279.041 626.318 279.228 627.289 279.228C628.129 279.228 628.885 279.097 629.557 278.836C630.229 278.575 630.826 278.164 631.349 277.604L633.225 279.76C632.553 280.544 631.704 281.151 630.677 281.58C629.669 281.991 628.512 282.196 627.205 282.196ZM644.725 282.196C643.194 282.196 641.832 281.869 640.637 281.216C639.442 280.544 638.5 279.629 637.809 278.472C637.118 277.315 636.773 275.999 636.773 274.524C636.773 273.031 637.118 271.715 637.809 270.576C638.5 269.419 639.442 268.513 640.637 267.86C641.832 267.207 643.194 266.88 644.725 266.88C646.274 266.88 647.646 267.207 648.841 267.86C650.054 268.513 650.997 269.409 651.669 270.548C652.36 271.687 652.705 273.012 652.705 274.524C652.705 275.999 652.36 277.315 651.669 278.472C650.997 279.629 650.054 280.544 648.841 281.216C647.646 281.869 646.274 282.196 644.725 282.196ZM644.725 279.2C645.584 279.2 646.349 279.013 647.021 278.64C647.693 278.267 648.216 277.725 648.589 277.016C648.981 276.307 649.177 275.476 649.177 274.524C649.177 273.553 648.981 272.723 648.589 272.032C648.216 271.323 647.693 270.781 647.021 270.408C646.349 270.035 645.593 269.848 644.753 269.848C643.894 269.848 643.129 270.035 642.457 270.408C641.804 270.781 641.281 271.323 640.889 272.032C640.497 272.723 640.301 273.553 640.301 274.524C640.301 275.476 640.497 276.307 640.889 277.016C641.281 277.725 641.804 278.267 642.457 278.64C643.129 279.013 643.885 279.2 644.725 279.2ZM656.163 282V267.048H667.643V270.016H658.851L659.663 269.232V282H656.163ZM678.478 282.196C677.265 282.196 676.154 281.916 675.146 281.356C674.157 280.796 673.363 279.956 672.766 278.836C672.187 277.697 671.898 276.26 671.898 274.524C671.898 272.769 672.178 271.332 672.738 270.212C673.317 269.092 674.101 268.261 675.09 267.72C676.079 267.16 677.209 266.88 678.478 266.88C679.953 266.88 681.25 267.197 682.37 267.832C683.509 268.467 684.405 269.353 685.058 270.492C685.73 271.631 686.066 272.975 686.066 274.524C686.066 276.073 685.73 277.427 685.058 278.584C684.405 279.723 683.509 280.609 682.37 281.244C681.25 281.879 679.953 282.196 678.478 282.196ZM670.19 287.432V267.048H673.522V270.576L673.41 274.552L673.69 278.528V287.432H670.19ZM678.086 279.2C678.926 279.2 679.673 279.013 680.326 278.64C680.998 278.267 681.53 277.725 681.922 277.016C682.314 276.307 682.51 275.476 682.51 274.524C682.51 273.553 682.314 272.723 681.922 272.032C681.53 271.323 680.998 270.781 680.326 270.408C679.673 270.035 678.926 269.848 678.086 269.848C677.246 269.848 676.49 270.035 675.818 270.408C675.146 270.781 674.614 271.323 674.222 272.032C673.83 272.723 673.634 273.553 673.634 274.524C673.634 275.476 673.83 276.307 674.222 277.016C674.614 277.725 675.146 278.267 675.818 278.64C676.49 279.013 677.246 279.2 678.086 279.2ZM698.43 282V278.976L698.234 278.332V273.04C698.234 272.013 697.926 271.22 697.31 270.66C696.694 270.081 695.761 269.792 694.51 269.792C693.67 269.792 692.839 269.923 692.018 270.184C691.215 270.445 690.534 270.809 689.974 271.276L688.602 268.728C689.405 268.112 690.357 267.655 691.458 267.356C692.578 267.039 693.735 266.88 694.93 266.88C697.095 266.88 698.766 267.403 699.942 268.448C701.137 269.475 701.734 271.071 701.734 273.236V282H698.43ZM693.726 282.196C692.606 282.196 691.626 282.009 690.786 281.636C689.946 281.244 689.293 280.712 688.826 280.04C688.378 279.349 688.154 278.575 688.154 277.716C688.154 276.876 688.35 276.12 688.742 275.448C689.153 274.776 689.815 274.244 690.73 273.852C691.645 273.46 692.858 273.264 694.37 273.264H698.71V275.588H694.622C693.427 275.588 692.625 275.784 692.214 276.176C691.803 276.549 691.598 277.016 691.598 277.576C691.598 278.211 691.85 278.715 692.354 279.088C692.858 279.461 693.558 279.648 694.454 279.648C695.313 279.648 696.078 279.452 696.75 279.06C697.441 278.668 697.935 278.089 698.234 277.324L698.822 279.424C698.486 280.301 697.879 280.983 697.002 281.468C696.143 281.953 695.051 282.196 693.726 282.196ZM715.557 282.28C715.538 282.28 715.454 282.28 715.305 282.28C715.174 282.28 715.044 282.28 714.913 282.28C714.801 282.28 714.726 282.28 714.689 282.28C711.534 282.243 709.089 281.561 707.353 280.236C705.617 278.892 704.749 276.979 704.749 274.496C704.749 272.032 705.617 270.147 707.353 268.84C709.089 267.533 711.562 266.861 714.773 266.824C714.81 266.824 714.885 266.824 714.997 266.824C715.128 266.824 715.249 266.824 715.361 266.824C715.492 266.824 715.566 266.824 715.585 266.824C718.814 266.824 721.325 267.487 723.117 268.812C724.928 270.119 725.833 272.013 725.833 274.496C725.833 276.997 724.928 278.92 723.117 280.264C721.325 281.608 718.805 282.28 715.557 282.28ZM715.445 279.368C717.032 279.368 718.338 279.191 719.365 278.836C720.392 278.463 721.157 277.921 721.661 277.212C722.165 276.484 722.417 275.579 722.417 274.496C722.417 273.432 722.165 272.555 721.661 271.864C721.157 271.155 720.392 270.632 719.365 270.296C718.338 269.941 717.032 269.764 715.445 269.764C715.408 269.764 715.314 269.764 715.165 269.764C715.034 269.764 714.95 269.764 714.913 269.764C713.364 269.764 712.094 269.951 711.105 270.324C710.116 270.679 709.378 271.201 708.893 271.892C708.426 272.583 708.193 273.451 708.193 274.496C708.193 275.56 708.426 276.447 708.893 277.156C709.378 277.865 710.116 278.407 711.105 278.78C712.113 279.153 713.382 279.349 714.913 279.368C714.95 279.368 715.034 279.368 715.165 279.368C715.314 279.368 715.408 279.368 715.445 279.368ZM713.625 287.432V261.224H716.929V287.432H713.625ZM729.225 282V267.048H732.725V276.904L740.985 267.048H744.177V282H740.677V272.144L732.445 282H729.225ZM758.321 276.092C757.612 276.428 756.856 276.708 756.053 276.932C755.269 277.137 754.439 277.24 753.561 277.24C751.676 277.24 750.211 276.801 749.165 275.924C748.12 275.047 747.597 273.684 747.597 271.836V267.048H751.097V271.612C751.097 272.601 751.377 273.32 751.937 273.768C752.516 274.216 753.309 274.44 754.317 274.44C754.989 274.44 755.661 274.356 756.333 274.188C757.005 274.02 757.668 273.787 758.321 273.488V276.092ZM758.069 282V267.048H761.569V282H758.069ZM773.248 282.196C771.586 282.196 770.13 281.869 768.88 281.216C767.648 280.544 766.686 279.629 765.996 278.472C765.324 277.315 764.988 275.999 764.988 274.524C764.988 273.031 765.314 271.715 765.968 270.576C766.64 269.419 767.554 268.513 768.712 267.86C769.888 267.207 771.222 266.88 772.716 266.88C774.172 266.88 775.469 267.197 776.608 267.832C777.746 268.467 778.642 269.363 779.296 270.52C779.949 271.677 780.276 273.04 780.276 274.608C780.276 274.757 780.266 274.925 780.248 275.112C780.248 275.299 780.238 275.476 780.22 275.644H767.76V273.32H778.372L777 274.048C777.018 273.189 776.841 272.433 776.468 271.78C776.094 271.127 775.581 270.613 774.928 270.24C774.293 269.867 773.556 269.68 772.716 269.68C771.857 269.68 771.101 269.867 770.448 270.24C769.813 270.613 769.309 271.136 768.936 271.808C768.581 272.461 768.404 273.236 768.404 274.132V274.692C768.404 275.588 768.609 276.381 769.02 277.072C769.43 277.763 770.009 278.295 770.756 278.668C771.502 279.041 772.361 279.228 773.332 279.228C774.172 279.228 774.928 279.097 775.6 278.836C776.272 278.575 776.869 278.164 777.392 277.604L779.268 279.76C778.596 280.544 777.746 281.151 776.72 281.58C775.712 281.991 774.554 282.196 773.248 282.196ZM790.908 282.196C789.34 282.196 787.94 281.869 786.708 281.216C785.495 280.544 784.543 279.629 783.852 278.472C783.161 277.315 782.816 275.999 782.816 274.524C782.816 273.031 783.161 271.715 783.852 270.576C784.543 269.419 785.495 268.513 786.708 267.86C787.94 267.207 789.34 266.88 790.908 266.88C792.364 266.88 793.643 267.179 794.744 267.776C795.864 268.355 796.713 269.213 797.292 270.352L794.604 271.92C794.156 271.211 793.605 270.688 792.952 270.352C792.317 270.016 791.627 269.848 790.88 269.848C790.021 269.848 789.247 270.035 788.556 270.408C787.865 270.781 787.324 271.323 786.932 272.032C786.54 272.723 786.344 273.553 786.344 274.524C786.344 275.495 786.54 276.335 786.932 277.044C787.324 277.735 787.865 278.267 788.556 278.64C789.247 279.013 790.021 279.2 790.88 279.2C791.627 279.2 792.317 279.032 792.952 278.696C793.605 278.36 794.156 277.837 794.604 277.128L797.292 278.696C796.713 279.816 795.864 280.684 794.744 281.3C793.643 281.897 792.364 282.196 790.908 282.196ZM811.097 282L805.693 274.832L808.549 273.068L815.213 282H811.097ZM800.373 282V267.048H803.873V282H800.373ZM802.837 276.008V273.096H807.905V276.008H802.837ZM808.885 274.944L805.609 274.552L811.097 267.048H814.849L808.885 274.944ZM817.682 282V267.048H821.182V276.904L829.442 267.048H832.634V282H829.134V272.144L820.902 282H817.682ZM837.342 282V267.048H840.842V276.904L849.102 267.048H852.294V282H848.794V272.144L840.562 282H837.342ZM844.594 265.284C843.101 265.284 841.953 264.939 841.15 264.248C840.348 263.539 839.937 262.512 839.918 261.168H842.242C842.261 261.84 842.466 262.372 842.858 262.764C843.269 263.156 843.838 263.352 844.566 263.352C845.276 263.352 845.836 263.156 846.246 262.764C846.676 262.372 846.9 261.84 846.918 261.168H849.298C849.28 262.512 848.86 263.539 848.038 264.248C847.236 264.939 846.088 265.284 844.594 265.284ZM873.813 282V278.976L873.617 278.332V273.04C873.617 272.013 873.309 271.22 872.693 270.66C872.077 270.081 871.143 269.792 869.893 269.792C869.053 269.792 868.222 269.923 867.401 270.184C866.598 270.445 865.917 270.809 865.357 271.276L863.985 268.728C864.787 268.112 865.739 267.655 866.841 267.356C867.961 267.039 869.118 266.88 870.313 266.88C872.478 266.88 874.149 267.403 875.325 268.448C876.519 269.475 877.117 271.071 877.117 273.236V282H873.813ZM869.109 282.196C867.989 282.196 867.009 282.009 866.169 281.636C865.329 281.244 864.675 280.712 864.209 280.04C863.761 279.349 863.537 278.575 863.537 277.716C863.537 276.876 863.733 276.12 864.125 275.448C864.535 274.776 865.198 274.244 866.113 273.852C867.027 273.46 868.241 273.264 869.753 273.264H874.093V275.588H870.005C868.81 275.588 868.007 275.784 867.597 276.176C867.186 276.549 866.981 277.016 866.981 277.576C866.981 278.211 867.233 278.715 867.737 279.088C868.241 279.461 868.941 279.648 869.837 279.648C870.695 279.648 871.461 279.452 872.133 279.06C872.823 278.668 873.318 278.089 873.617 277.324L874.205 279.424C873.869 280.301 873.262 280.983 872.385 281.468C871.526 281.953 870.434 282.196 869.109 282.196ZM881.448 282V267.048H884.948V273.124H892.48V267.048H895.98V282H892.48V276.092H884.948V282H881.448ZM907.474 282.196C905.906 282.196 904.506 281.869 903.274 281.216C902.061 280.544 901.109 279.629 900.418 278.472C899.728 277.315 899.382 275.999 899.382 274.524C899.382 273.031 899.728 271.715 900.418 270.576C901.109 269.419 902.061 268.513 903.274 267.86C904.506 267.207 905.906 266.88 907.474 266.88C908.93 266.88 910.209 267.179 911.31 267.776C912.43 268.355 913.28 269.213 913.858 270.352L911.17 271.92C910.722 271.211 910.172 270.688 909.518 270.352C908.884 270.016 908.193 269.848 907.446 269.848C906.588 269.848 905.813 270.035 905.122 270.408C904.432 270.781 903.89 271.323 903.498 272.032C903.106 272.723 902.91 273.553 902.91 274.524C902.91 275.495 903.106 276.335 903.498 277.044C903.89 277.735 904.432 278.267 905.122 278.64C905.813 279.013 906.588 279.2 907.446 279.2C908.193 279.2 908.884 279.032 909.518 278.696C910.172 278.36 910.722 277.837 911.17 277.128L913.858 278.696C913.28 279.816 912.43 280.684 911.31 281.3C910.209 281.897 908.93 282.196 907.474 282.196ZM926.012 282V278.976L925.816 278.332V273.04C925.816 272.013 925.508 271.22 924.892 270.66C924.276 270.081 923.343 269.792 922.092 269.792C921.252 269.792 920.421 269.923 919.6 270.184C918.797 270.445 918.116 270.809 917.556 271.276L916.184 268.728C916.987 268.112 917.939 267.655 919.04 267.356C920.16 267.039 921.317 266.88 922.512 266.88C924.677 266.88 926.348 267.403 927.524 268.448C928.719 269.475 929.316 271.071 929.316 273.236V282H926.012ZM921.308 282.196C920.188 282.196 919.208 282.009 918.368 281.636C917.528 281.244 916.875 280.712 916.408 280.04C915.96 279.349 915.736 278.575 915.736 277.716C915.736 276.876 915.932 276.12 916.324 275.448C916.735 274.776 917.397 274.244 918.312 273.852C919.227 273.46 920.44 273.264 921.952 273.264H926.292V275.588H922.204C921.009 275.588 920.207 275.784 919.796 276.176C919.385 276.549 919.18 277.016 919.18 277.576C919.18 278.211 919.432 278.715 919.936 279.088C920.44 279.461 921.14 279.648 922.036 279.648C922.895 279.648 923.66 279.452 924.332 279.06C925.023 278.668 925.517 278.089 925.816 277.324L926.404 279.424C926.068 280.301 925.461 280.983 924.584 281.468C923.725 281.953 922.633 282.196 921.308 282.196ZM933.647 282V267.048H937.315L943.335 277.66H941.879L948.207 267.048H951.483L951.511 282H948.347V270.8L948.907 271.164L943.307 280.432H941.795L936.167 270.912L936.839 270.744V282H933.647ZM963.346 282.28C962.114 282.28 961.012 282.093 960.042 281.72C959.071 281.347 958.231 280.777 957.522 280.012C956.831 279.228 956.299 278.239 955.926 277.044C955.552 275.849 955.366 274.431 955.366 272.788C955.366 271.593 955.468 270.501 955.674 269.512C955.879 268.523 956.187 267.636 956.598 266.852C957.008 266.049 957.522 265.34 958.138 264.724C958.772 264.108 959.51 263.595 960.35 263.184C961.19 262.773 962.142 262.456 963.206 262.232L970.15 260.748L970.654 263.884L964.354 265.172C963.999 265.247 963.57 265.359 963.066 265.508C962.58 265.639 962.076 265.844 961.554 266.124C961.05 266.385 960.574 266.768 960.126 267.272C959.696 267.757 959.342 268.392 959.062 269.176C958.8 269.941 958.67 270.903 958.67 272.06C958.67 272.415 958.679 272.685 958.698 272.872C958.735 273.04 958.763 273.227 958.782 273.432C958.819 273.619 958.838 273.899 958.838 274.272L957.522 272.9C957.895 271.948 958.408 271.136 959.062 270.464C959.734 269.773 960.508 269.251 961.386 268.896C962.282 268.523 963.252 268.336 964.298 268.336C965.698 268.336 966.939 268.625 968.022 269.204C969.104 269.783 969.954 270.595 970.57 271.64C971.186 272.685 971.494 273.871 971.494 275.196C971.494 276.577 971.158 277.8 970.486 278.864C969.814 279.928 968.862 280.768 967.63 281.384C966.416 281.981 964.988 282.28 963.346 282.28ZM963.626 279.452C964.466 279.452 965.203 279.275 965.838 278.92C966.491 278.547 966.995 278.043 967.35 277.408C967.723 276.773 967.91 276.064 967.91 275.28C967.91 274.496 967.723 273.815 967.35 273.236C966.995 272.639 966.491 272.163 965.838 271.808C965.203 271.453 964.447 271.276 963.57 271.276C962.73 271.276 961.974 271.444 961.302 271.78C960.648 272.116 960.135 272.583 959.762 273.18C959.407 273.759 959.23 274.431 959.23 275.196C959.23 275.98 959.416 276.699 959.79 277.352C960.163 278.005 960.676 278.519 961.33 278.892C962.002 279.265 962.767 279.452 963.626 279.452ZM972.533 281.972L972.701 279.032C972.832 279.051 972.953 279.069 973.065 279.088C973.177 279.107 973.28 279.116 973.373 279.116C973.952 279.116 974.4 278.939 974.717 278.584C975.035 278.229 975.268 277.753 975.417 277.156C975.585 276.54 975.697 275.859 975.753 275.112C975.828 274.347 975.884 273.581 975.921 272.816L976.173 267.048H988.269V282H984.769V269.064L985.581 270.016H978.469L979.225 269.036L979.029 272.984C978.973 274.309 978.861 275.541 978.693 276.68C978.544 277.8 978.301 278.78 977.965 279.62C977.648 280.46 977.2 281.113 976.621 281.58C976.061 282.047 975.343 282.28 974.465 282.28C974.185 282.28 973.877 282.252 973.541 282.196C973.224 282.14 972.888 282.065 972.533 281.972ZM1000.49 271.976C1002.41 271.976 1003.87 272.405 1004.88 273.264C1005.89 274.123 1006.39 275.336 1006.39 276.904C1006.39 278.528 1005.83 279.797 1004.71 280.712C1003.59 281.608 1002.02 282.047 999.983 282.028L992.983 282V267.048H996.483V271.948L1000.49 271.976ZM999.675 279.452C1000.7 279.471 1001.49 279.256 1002.03 278.808C1002.57 278.36 1002.84 277.707 1002.84 276.848C1002.84 275.989 1002.57 275.373 1002.03 275C1001.5 274.608 1000.72 274.403 999.675 274.384L996.483 274.356V279.424L999.675 279.452ZM709.453 326.928L705.477 321.524L709.453 316.092H712.617L708.725 321.524L712.617 326.928H709.453ZM715.277 326.928L711.301 321.524L715.277 316.092H718.441L714.549 321.524L718.441 326.928H715.277ZM722.057 329V309.4H725.025L733.621 323.708H732.025L740.481 309.4H743.449L743.505 329H740.033L740.005 314.804H740.733L733.565 326.76H731.941L724.661 314.804H725.501V329H722.057ZM755.262 329.196C753.731 329.196 752.369 328.869 751.174 328.216C749.979 327.544 749.037 326.629 748.346 325.472C747.655 324.315 747.31 322.999 747.31 321.524C747.31 320.031 747.655 318.715 748.346 317.576C749.037 316.419 749.979 315.513 751.174 314.86C752.369 314.207 753.731 313.88 755.262 313.88C756.811 313.88 758.183 314.207 759.378 314.86C760.591 315.513 761.534 316.409 762.206 317.548C762.897 318.687 763.242 320.012 763.242 321.524C763.242 322.999 762.897 324.315 762.206 325.472C761.534 326.629 760.591 327.544 759.378 328.216C758.183 328.869 756.811 329.196 755.262 329.196ZM755.262 326.2C756.121 326.2 756.886 326.013 757.558 325.64C758.23 325.267 758.753 324.725 759.126 324.016C759.518 323.307 759.714 322.476 759.714 321.524C759.714 320.553 759.518 319.723 759.126 319.032C758.753 318.323 758.23 317.781 757.558 317.408C756.886 317.035 756.13 316.848 755.29 316.848C754.431 316.848 753.666 317.035 752.994 317.408C752.341 317.781 751.818 318.323 751.426 319.032C751.034 319.723 750.838 320.553 750.838 321.524C750.838 322.476 751.034 323.307 751.426 324.016C751.818 324.725 752.341 325.267 752.994 325.64C753.666 326.013 754.422 326.2 755.262 326.2ZM771.213 329.252C770.074 329.252 768.945 329.121 767.825 328.86C766.724 328.58 765.725 328.188 764.829 327.684L765.809 325.08C766.537 325.491 767.358 325.808 768.273 326.032C769.188 326.256 770.102 326.368 771.017 326.368C771.801 326.368 772.473 326.293 773.033 326.144C773.593 325.976 774.022 325.733 774.321 325.416C774.638 325.099 774.797 324.735 774.797 324.324C774.797 323.727 774.536 323.279 774.013 322.98C773.509 322.663 772.781 322.504 771.829 322.504H768.945V320.152H771.549C772.146 320.152 772.65 320.087 773.061 319.956C773.49 319.825 773.817 319.629 774.041 319.368C774.265 319.107 774.377 318.799 774.377 318.444C774.377 318.089 774.237 317.781 773.957 317.52C773.696 317.24 773.313 317.035 772.809 316.904C772.305 316.755 771.698 316.68 770.989 316.68C770.242 316.68 769.468 316.773 768.665 316.96C767.881 317.147 767.078 317.417 766.257 317.772L765.361 315.196C766.313 314.767 767.237 314.44 768.133 314.216C769.048 313.973 769.953 313.843 770.849 313.824C772.212 313.768 773.425 313.908 774.489 314.244C775.553 314.58 776.393 315.065 777.009 315.7C777.625 316.335 777.933 317.081 777.933 317.94C777.933 318.649 777.709 319.293 777.261 319.872C776.832 320.432 776.234 320.871 775.469 321.188C774.722 321.505 773.864 321.664 772.893 321.664L773.005 320.908C774.666 320.908 775.973 321.244 776.925 321.916C777.877 322.569 778.353 323.465 778.353 324.604C778.353 325.519 778.045 326.331 777.429 327.04C776.813 327.731 775.964 328.272 774.881 328.664C773.817 329.056 772.594 329.252 771.213 329.252ZM791.029 329V325.976L790.833 325.332V320.04C790.833 319.013 790.525 318.22 789.909 317.66C789.293 317.081 788.36 316.792 787.109 316.792C786.269 316.792 785.439 316.923 784.617 317.184C783.815 317.445 783.133 317.809 782.573 318.276L781.201 315.728C782.004 315.112 782.956 314.655 784.057 314.356C785.177 314.039 786.335 313.88 787.529 313.88C789.695 313.88 791.365 314.403 792.541 315.448C793.736 316.475 794.333 318.071 794.333 320.236V329H791.029ZM786.325 329.196C785.205 329.196 784.225 329.009 783.385 328.636C782.545 328.244 781.892 327.712 781.425 327.04C780.977 326.349 780.753 325.575 780.753 324.716C780.753 323.876 780.949 323.12 781.341 322.448C781.752 321.776 782.415 321.244 783.329 320.852C784.244 320.46 785.457 320.264 786.969 320.264H791.309V322.588H787.221C786.027 322.588 785.224 322.784 784.813 323.176C784.403 323.549 784.197 324.016 784.197 324.576C784.197 325.211 784.449 325.715 784.953 326.088C785.457 326.461 786.157 326.648 787.053 326.648C787.912 326.648 788.677 326.452 789.349 326.06C790.04 325.668 790.535 325.089 790.833 324.324L791.421 326.424C791.085 327.301 790.479 327.983 789.601 328.468C788.743 328.953 787.651 329.196 786.325 329.196ZM798.665 329V314.048H802.165V323.904L810.425 314.048H813.617V329H810.117V319.144L801.885 329H798.665ZM829.049 329L823.645 321.832L826.501 320.068L833.165 329H829.049ZM818.325 329V314.048H821.825V329H818.325ZM820.789 323.008V320.096H825.857V323.008H820.789ZM826.837 321.944L823.561 321.552L829.049 314.048H832.801L826.837 321.944ZM844.432 329V325.976L844.236 325.332V320.04C844.236 319.013 843.928 318.22 843.312 317.66C842.696 317.081 841.762 316.792 840.512 316.792C839.672 316.792 838.841 316.923 838.02 317.184C837.217 317.445 836.536 317.809 835.976 318.276L834.604 315.728C835.406 315.112 836.358 314.655 837.46 314.356C838.58 314.039 839.737 313.88 840.932 313.88C843.097 313.88 844.768 314.403 845.944 315.448C847.138 316.475 847.736 318.071 847.736 320.236V329H844.432ZM839.728 329.196C838.608 329.196 837.628 329.009 836.788 328.636C835.948 328.244 835.294 327.712 834.828 327.04C834.38 326.349 834.156 325.575 834.156 324.716C834.156 323.876 834.352 323.12 834.744 322.448C835.154 321.776 835.817 321.244 836.732 320.852C837.646 320.46 838.86 320.264 840.372 320.264H844.712V322.588H840.624C839.429 322.588 838.626 322.784 838.216 323.176C837.805 323.549 837.6 324.016 837.6 324.576C837.6 325.211 837.852 325.715 838.356 326.088C838.86 326.461 839.56 326.648 840.456 326.648C841.314 326.648 842.08 326.452 842.752 326.06C843.442 325.668 843.937 325.089 844.236 324.324L844.824 326.424C844.488 327.301 843.881 327.983 843.004 328.468C842.145 328.953 841.053 329.196 839.728 329.196ZM853.719 326.928H850.555L854.447 321.524L850.555 316.092H853.719L857.695 321.524L853.719 326.928ZM859.543 326.928H856.379L860.271 321.524L856.379 316.092H859.543L863.519 321.524L859.543 326.928Z" fill="#622900"/>
</svg>
