<svg width="1006" height="336" viewBox="0 0 1006 336" fill="none" xmlns="http://www.w3.org/2000/svg">
<rect width="443" height="230" rx="30" fill="#FFD7B9"/>
<path d="M46.3588 278.92L45.5468 279.816V262.4H49.1308V279.816L48.2628 278.92H57.1948L56.3268 279.816V262.4H59.9108V282H34.7388V262.4H38.3228V279.816L37.4828 278.92H46.3588ZM75.7498 282L70.3458 274.832L73.2018 273.068L79.8658 282H75.7498ZM65.0258 282V267.048H68.5258V282H65.0258ZM67.4898 276.008V273.096H72.5578V276.008H67.4898ZM73.5378 274.944L70.2618 274.552L75.7498 267.048H79.5018L73.5378 274.944ZM88.5062 282.196C86.9756 282.196 85.6129 281.869 84.4182 281.216C83.2236 280.544 82.2809 279.629 81.5902 278.472C80.8996 277.315 80.5542 275.999 80.5542 274.524C80.5542 273.031 80.8996 271.715 81.5902 270.576C82.2809 269.419 83.2236 268.513 84.4182 267.86C85.6129 267.207 86.9756 266.88 88.5062 266.88C90.0556 266.88 91.4276 267.207 92.6222 267.86C93.8356 268.513 94.7782 269.409 95.4502 270.548C96.1409 271.687 96.4862 273.012 96.4862 274.524C96.4862 275.999 96.1409 277.315 95.4502 278.472C94.7782 279.629 93.8356 280.544 92.6222 281.216C91.4276 281.869 90.0556 282.196 88.5062 282.196ZM88.5062 279.2C89.3649 279.2 90.1302 279.013 90.8022 278.64C91.4742 278.267 91.9969 277.725 92.3702 277.016C92.7622 276.307 92.9582 275.476 92.9582 274.524C92.9582 273.553 92.7622 272.723 92.3702 272.032C91.9969 271.323 91.4742 270.781 90.8022 270.408C90.1302 270.035 89.3742 269.848 88.5342 269.848C87.6756 269.848 86.9102 270.035 86.2382 270.408C85.5849 270.781 85.0622 271.323 84.6702 272.032C84.2782 272.723 84.0822 273.553 84.0822 274.524C84.0822 275.476 84.2782 276.307 84.6702 277.016C85.0622 277.725 85.5849 278.267 86.2382 278.64C86.9102 279.013 87.6662 279.2 88.5062 279.2ZM97.5957 281.972L97.7637 279.032C97.8944 279.051 98.0157 279.069 98.1277 279.088C98.2397 279.107 98.3424 279.116 98.4357 279.116C99.0144 279.116 99.4624 278.939 99.7797 278.584C100.097 278.229 100.33 277.753 100.48 277.156C100.648 276.54 100.76 275.859 100.816 275.112C100.89 274.347 100.946 273.581 100.984 272.816L101.236 267.048H113.332V282H109.832V269.064L110.644 270.016H103.532L104.288 269.036L104.092 272.984C104.036 274.309 103.924 275.541 103.756 276.68C103.606 277.8 103.364 278.78 103.028 279.62C102.71 280.46 102.262 281.113 101.684 281.58C101.124 282.047 100.405 282.28 99.5277 282.28C99.2477 282.28 98.9397 282.252 98.6037 282.196C98.2864 282.14 97.9504 282.065 97.5957 281.972ZM127.117 282V278.976L126.921 278.332V273.04C126.921 272.013 126.613 271.22 125.997 270.66C125.381 270.081 124.448 269.792 123.197 269.792C122.357 269.792 121.527 269.923 120.705 270.184C119.903 270.445 119.221 270.809 118.661 271.276L117.289 268.728C118.092 268.112 119.044 267.655 120.145 267.356C121.265 267.039 122.423 266.88 123.617 266.88C125.783 266.88 127.453 267.403 128.629 268.448C129.824 269.475 130.421 271.071 130.421 273.236V282H127.117ZM122.413 282.196C121.293 282.196 120.313 282.009 119.473 281.636C118.633 281.244 117.98 280.712 117.513 280.04C117.065 279.349 116.841 278.575 116.841 277.716C116.841 276.876 117.037 276.12 117.429 275.448C117.84 274.776 118.503 274.244 119.417 273.852C120.332 273.46 121.545 273.264 123.057 273.264H127.397V275.588H123.309C122.115 275.588 121.312 275.784 120.901 276.176C120.491 276.549 120.285 277.016 120.285 277.576C120.285 278.211 120.537 278.715 121.041 279.088C121.545 279.461 122.245 279.648 123.141 279.648C124 279.648 124.765 279.452 125.437 279.06C126.128 278.668 126.623 278.089 126.921 277.324L127.509 279.424C127.173 280.301 126.567 280.983 125.689 281.468C124.831 281.953 123.739 282.196 122.413 282.196ZM150.779 282.196C149.565 282.196 148.455 281.916 147.447 281.356C146.457 280.796 145.664 279.956 145.067 278.836C144.488 277.697 144.199 276.26 144.199 274.524C144.199 272.769 144.479 271.332 145.039 270.212C145.617 269.092 146.401 268.261 147.391 267.72C148.38 267.16 149.509 266.88 150.779 266.88C152.253 266.88 153.551 267.197 154.671 267.832C155.809 268.467 156.705 269.353 157.359 270.492C158.031 271.631 158.367 272.975 158.367 274.524C158.367 276.073 158.031 277.427 157.359 278.584C156.705 279.723 155.809 280.609 154.671 281.244C153.551 281.879 152.253 282.196 150.779 282.196ZM142.491 287.432V267.048H145.823V270.576L145.711 274.552L145.991 278.528V287.432H142.491ZM150.387 279.2C151.227 279.2 151.973 279.013 152.627 278.64C153.299 278.267 153.831 277.725 154.223 277.016C154.615 276.307 154.811 275.476 154.811 274.524C154.811 273.553 154.615 272.723 154.223 272.032C153.831 271.323 153.299 270.781 152.627 270.408C151.973 270.035 151.227 269.848 150.387 269.848C149.547 269.848 148.791 270.035 148.119 270.408C147.447 270.781 146.915 271.323 146.523 272.032C146.131 272.723 145.935 273.553 145.935 274.524C145.935 275.476 146.131 276.307 146.523 277.016C146.915 277.725 147.447 278.267 148.119 278.64C148.791 279.013 149.547 279.2 150.387 279.2ZM170.731 282V278.976L170.535 278.332V273.04C170.535 272.013 170.227 271.22 169.611 270.66C168.995 270.081 168.061 269.792 166.811 269.792C165.971 269.792 165.14 269.923 164.319 270.184C163.516 270.445 162.835 270.809 162.275 271.276L160.903 268.728C161.705 268.112 162.657 267.655 163.759 267.356C164.879 267.039 166.036 266.88 167.231 266.88C169.396 266.88 171.067 267.403 172.243 268.448C173.437 269.475 174.035 271.071 174.035 273.236V282H170.731ZM166.027 282.196C164.907 282.196 163.927 282.009 163.087 281.636C162.247 281.244 161.593 280.712 161.127 280.04C160.679 279.349 160.455 278.575 160.455 277.716C160.455 276.876 160.651 276.12 161.043 275.448C161.453 274.776 162.116 274.244 163.031 273.852C163.945 273.46 165.159 273.264 166.671 273.264H171.011V275.588H166.923C165.728 275.588 164.925 275.784 164.515 276.176C164.104 276.549 163.899 277.016 163.899 277.576C163.899 278.211 164.151 278.715 164.655 279.088C165.159 279.461 165.859 279.648 166.755 279.648C167.613 279.648 168.379 279.452 169.051 279.06C169.741 278.668 170.236 278.089 170.535 277.324L171.123 279.424C170.787 280.301 170.18 280.983 169.303 281.468C168.444 281.953 167.352 282.196 166.027 282.196ZM178.366 282V267.048H181.866V273.124H189.398V267.048H192.898V282H189.398V276.092H181.866V282H178.366ZM197.588 282V267.048H201.088V273.124H208.62V267.048H212.12V282H208.62V276.092H201.088V282H197.588ZM223.783 282.196C222.122 282.196 220.666 281.869 219.415 281.216C218.183 280.544 217.222 279.629 216.531 278.472C215.859 277.315 215.523 275.999 215.523 274.524C215.523 273.031 215.85 271.715 216.503 270.576C217.175 269.419 218.09 268.513 219.247 267.86C220.423 267.207 221.758 266.88 223.251 266.88C224.707 266.88 226.004 267.197 227.143 267.832C228.282 268.467 229.178 269.363 229.831 270.52C230.484 271.677 230.811 273.04 230.811 274.608C230.811 274.757 230.802 274.925 230.783 275.112C230.783 275.299 230.774 275.476 230.755 275.644H218.295V273.32H228.907L227.535 274.048C227.554 273.189 227.376 272.433 227.003 271.78C226.63 271.127 226.116 270.613 225.463 270.24C224.828 269.867 224.091 269.68 223.251 269.68C222.392 269.68 221.636 269.867 220.983 270.24C220.348 270.613 219.844 271.136 219.471 271.808C219.116 272.461 218.939 273.236 218.939 274.132V274.692C218.939 275.588 219.144 276.381 219.555 277.072C219.966 277.763 220.544 278.295 221.291 278.668C222.038 279.041 222.896 279.228 223.867 279.228C224.707 279.228 225.463 279.097 226.135 278.836C226.807 278.575 227.404 278.164 227.927 277.604L229.803 279.76C229.131 280.544 228.282 281.151 227.255 281.58C226.247 281.991 225.09 282.196 223.783 282.196ZM234.639 282V267.048H246.119V270.016H237.327L238.139 269.232V282H234.639ZM254.674 282.196C253.144 282.196 251.781 281.869 250.586 281.216C249.392 280.544 248.449 279.629 247.758 278.472C247.068 277.315 246.722 275.999 246.722 274.524C246.722 273.031 247.068 271.715 247.758 270.576C248.449 269.419 249.392 268.513 250.586 267.86C251.781 267.207 253.144 266.88 254.674 266.88C256.224 266.88 257.596 267.207 258.79 267.86C260.004 268.513 260.946 269.409 261.618 270.548C262.309 271.687 262.654 273.012 262.654 274.524C262.654 275.999 262.309 277.315 261.618 278.472C260.946 279.629 260.004 280.544 258.79 281.216C257.596 281.869 256.224 282.196 254.674 282.196ZM254.674 279.2C255.533 279.2 256.298 279.013 256.97 278.64C257.642 278.267 258.165 277.725 258.538 277.016C258.93 276.307 259.126 275.476 259.126 274.524C259.126 273.553 258.93 272.723 258.538 272.032C258.165 271.323 257.642 270.781 256.97 270.408C256.298 270.035 255.542 269.848 254.702 269.848C253.844 269.848 253.078 270.035 252.406 270.408C251.753 270.781 251.23 271.323 250.838 272.032C250.446 272.723 250.25 273.553 250.25 274.524C250.25 275.476 250.446 276.307 250.838 277.016C251.23 277.725 251.753 278.267 252.406 278.64C253.078 279.013 253.834 279.2 254.674 279.2ZM282.138 282.196C280.925 282.196 279.814 281.916 278.806 281.356C277.817 280.796 277.023 279.956 276.426 278.836C275.847 277.697 275.558 276.26 275.558 274.524C275.558 272.769 275.838 271.332 276.398 270.212C276.977 269.092 277.761 268.261 278.75 267.72C279.739 267.16 280.869 266.88 282.138 266.88C283.613 266.88 284.91 267.197 286.03 267.832C287.169 268.467 288.065 269.353 288.718 270.492C289.39 271.631 289.726 272.975 289.726 274.524C289.726 276.073 289.39 277.427 288.718 278.584C288.065 279.723 287.169 280.609 286.03 281.244C284.91 281.879 283.613 282.196 282.138 282.196ZM273.85 287.432V267.048H277.182V270.576L277.07 274.552L277.35 278.528V287.432H273.85ZM281.746 279.2C282.586 279.2 283.333 279.013 283.986 278.64C284.658 278.267 285.19 277.725 285.582 277.016C285.974 276.307 286.17 275.476 286.17 274.524C286.17 273.553 285.974 272.723 285.582 272.032C285.19 271.323 284.658 270.781 283.986 270.408C283.333 270.035 282.586 269.848 281.746 269.848C280.906 269.848 280.15 270.035 279.478 270.408C278.806 270.781 278.274 271.323 277.882 272.032C277.49 272.723 277.294 273.553 277.294 274.524C277.294 275.476 277.49 276.307 277.882 277.016C278.274 277.725 278.806 278.267 279.478 278.64C280.15 279.013 280.906 279.2 281.746 279.2ZM302.09 282V278.976L301.894 278.332V273.04C301.894 272.013 301.586 271.22 300.97 270.66C300.354 270.081 299.421 269.792 298.17 269.792C297.33 269.792 296.499 269.923 295.678 270.184C294.875 270.445 294.194 270.809 293.634 271.276L292.262 268.728C293.065 268.112 294.017 267.655 295.118 267.356C296.238 267.039 297.395 266.88 298.59 266.88C300.755 266.88 302.426 267.403 303.602 268.448C304.797 269.475 305.394 271.071 305.394 273.236V282H302.09ZM297.386 282.196C296.266 282.196 295.286 282.009 294.446 281.636C293.606 281.244 292.953 280.712 292.486 280.04C292.038 279.349 291.814 278.575 291.814 277.716C291.814 276.876 292.01 276.12 292.402 275.448C292.813 274.776 293.475 274.244 294.39 273.852C295.305 273.46 296.518 273.264 298.03 273.264H302.37V275.588H298.282C297.087 275.588 296.285 275.784 295.874 276.176C295.463 276.549 295.258 277.016 295.258 277.576C295.258 278.211 295.51 278.715 296.014 279.088C296.518 279.461 297.218 279.648 298.114 279.648C298.973 279.648 299.738 279.452 300.41 279.06C301.101 278.668 301.595 278.089 301.894 277.324L302.482 279.424C302.146 280.301 301.539 280.983 300.662 281.468C299.803 281.953 298.711 282.196 297.386 282.196ZM314.266 282.252C313.127 282.252 311.998 282.121 310.878 281.86C309.776 281.58 308.778 281.188 307.882 280.684L308.862 278.08C309.59 278.491 310.411 278.808 311.326 279.032C312.24 279.256 313.155 279.368 314.07 279.368C314.854 279.368 315.526 279.293 316.086 279.144C316.646 278.976 317.075 278.733 317.374 278.416C317.691 278.099 317.85 277.735 317.85 277.324C317.85 276.727 317.588 276.279 317.066 275.98C316.562 275.663 315.834 275.504 314.882 275.504H311.998V273.152H314.602C315.199 273.152 315.703 273.087 316.114 272.956C316.543 272.825 316.87 272.629 317.094 272.368C317.318 272.107 317.43 271.799 317.43 271.444C317.43 271.089 317.29 270.781 317.01 270.52C316.748 270.24 316.366 270.035 315.862 269.904C315.358 269.755 314.751 269.68 314.042 269.68C313.295 269.68 312.52 269.773 311.718 269.96C310.934 270.147 310.131 270.417 309.31 270.772L308.414 268.196C309.366 267.767 310.29 267.44 311.186 267.216C312.1 266.973 313.006 266.843 313.902 266.824C315.264 266.768 316.478 266.908 317.542 267.244C318.606 267.58 319.446 268.065 320.062 268.7C320.678 269.335 320.986 270.081 320.986 270.94C320.986 271.649 320.762 272.293 320.314 272.872C319.884 273.432 319.287 273.871 318.522 274.188C317.775 274.505 316.916 274.664 315.946 274.664L316.058 273.908C317.719 273.908 319.026 274.244 319.978 274.916C320.93 275.569 321.406 276.465 321.406 277.604C321.406 278.519 321.098 279.331 320.482 280.04C319.866 280.731 319.016 281.272 317.934 281.664C316.87 282.056 315.647 282.252 314.266 282.252ZM325.01 282V267.048H332.318C334.129 267.048 335.548 267.384 336.574 268.056C337.62 268.728 338.142 269.68 338.142 270.912C338.142 272.125 337.657 273.077 336.686 273.768C335.716 274.44 334.428 274.776 332.822 274.776L333.242 273.908C335.053 273.908 336.397 274.244 337.274 274.916C338.17 275.569 338.618 276.531 338.618 277.8C338.618 279.125 338.124 280.161 337.134 280.908C336.145 281.636 334.642 282 332.626 282H325.01ZM328.342 279.452H332.346C333.298 279.452 334.017 279.303 334.502 279.004C334.988 278.687 335.23 278.211 335.23 277.576C335.23 276.904 335.006 276.409 334.558 276.092C334.11 275.775 333.41 275.616 332.458 275.616H328.342V279.452ZM328.342 273.292H332.01C332.906 273.292 333.578 273.133 334.026 272.816C334.493 272.48 334.726 272.013 334.726 271.416C334.726 270.8 334.493 270.343 334.026 270.044C333.578 269.745 332.906 269.596 332.01 269.596H328.342V273.292ZM342.346 282V267.048H345.846V276.904L354.106 267.048H357.298V282H353.798V272.144L345.566 282H342.346ZM365.114 282V269.176L365.926 270.016H359.85V267.048H373.85V270.016H367.802L368.614 269.176V282H365.114ZM376.389 282V267.048H379.889V276.904L388.149 267.048H391.341V282H387.841V272.144L379.609 282H376.389ZM405.541 282V276.904L406.045 277.492H401.565C399.512 277.492 397.897 277.063 396.721 276.204C395.564 275.327 394.985 274.067 394.985 272.424C394.985 270.669 395.601 269.335 396.833 268.42C398.084 267.505 399.745 267.048 401.817 267.048H408.677V282H405.541ZM394.789 282L398.821 276.288H402.405L398.541 282H394.789ZM405.541 275.784V269.064L406.045 269.988H401.929C400.847 269.988 400.007 270.193 399.409 270.604C398.831 270.996 398.541 271.64 398.541 272.536C398.541 274.216 399.633 275.056 401.817 275.056H406.045L405.541 275.784ZM105.287 326.928L101.311 321.524L105.287 316.092H108.451L104.559 321.524L108.451 326.928H105.287ZM111.111 326.928L107.135 321.524L111.111 316.092H114.275L110.383 321.524L114.275 326.928H111.111ZM117.891 329V309.4H126.655C128.858 309.4 130.575 309.839 131.807 310.716C133.039 311.575 133.655 312.816 133.655 314.44C133.655 316.045 133.067 317.287 131.891 318.164C130.715 319.023 129.166 319.452 127.243 319.452L127.747 318.444C129.931 318.444 131.62 318.883 132.815 319.76C134.01 320.637 134.607 321.907 134.607 323.568C134.607 325.267 133.982 326.601 132.731 327.572C131.48 328.524 129.632 329 127.187 329H117.891ZM121.475 326.2H127.075C128.344 326.2 129.306 325.967 129.959 325.5C130.612 325.015 130.939 324.277 130.939 323.288C130.939 322.299 130.612 321.58 129.959 321.132C129.306 320.665 128.344 320.432 127.075 320.432H121.475V326.2ZM121.475 317.772H126.347C127.523 317.772 128.419 317.539 129.035 317.072C129.651 316.587 129.959 315.896 129.959 315C129.959 314.067 129.651 313.367 129.035 312.9C128.419 312.433 127.523 312.2 126.347 312.2H121.475V317.772ZM145.334 329.196C143.672 329.196 142.216 328.869 140.966 328.216C139.734 327.544 138.772 326.629 138.082 325.472C137.41 324.315 137.074 322.999 137.074 321.524C137.074 320.031 137.4 318.715 138.054 317.576C138.726 316.419 139.64 315.513 140.798 314.86C141.974 314.207 143.308 313.88 144.802 313.88C146.258 313.88 147.555 314.197 148.694 314.832C149.832 315.467 150.728 316.363 151.382 317.52C152.035 318.677 152.362 320.04 152.362 321.608C152.362 321.757 152.352 321.925 152.334 322.112C152.334 322.299 152.324 322.476 152.306 322.644H139.846V320.32H150.458L149.086 321.048C149.104 320.189 148.927 319.433 148.554 318.78C148.18 318.127 147.667 317.613 147.014 317.24C146.379 316.867 145.642 316.68 144.802 316.68C143.943 316.68 143.187 316.867 142.534 317.24C141.899 317.613 141.395 318.136 141.022 318.808C140.667 319.461 140.49 320.236 140.49 321.132V321.692C140.49 322.588 140.695 323.381 141.106 324.072C141.516 324.763 142.095 325.295 142.842 325.668C143.588 326.041 144.447 326.228 145.418 326.228C146.258 326.228 147.014 326.097 147.686 325.836C148.358 325.575 148.955 325.164 149.478 324.604L151.354 326.76C150.682 327.544 149.832 328.151 148.806 328.58C147.798 328.991 146.64 329.196 145.334 329.196ZM162.994 329.196C161.426 329.196 160.026 328.869 158.794 328.216C157.581 327.544 156.629 326.629 155.938 325.472C155.247 324.315 154.902 322.999 154.902 321.524C154.902 320.031 155.247 318.715 155.938 317.576C156.629 316.419 157.581 315.513 158.794 314.86C160.026 314.207 161.426 313.88 162.994 313.88C164.45 313.88 165.729 314.179 166.83 314.776C167.95 315.355 168.799 316.213 169.378 317.352L166.69 318.92C166.242 318.211 165.691 317.688 165.038 317.352C164.403 317.016 163.713 316.848 162.966 316.848C162.107 316.848 161.333 317.035 160.642 317.408C159.951 317.781 159.41 318.323 159.018 319.032C158.626 319.723 158.43 320.553 158.43 321.524C158.43 322.495 158.626 323.335 159.018 324.044C159.41 324.735 159.951 325.267 160.642 325.64C161.333 326.013 162.107 326.2 162.966 326.2C163.713 326.2 164.403 326.032 165.038 325.696C165.691 325.36 166.242 324.837 166.69 324.128L169.378 325.696C168.799 326.816 167.95 327.684 166.83 328.3C165.729 328.897 164.45 329.196 162.994 329.196ZM179.213 329.196C177.551 329.196 176.095 328.869 174.845 328.216C173.613 327.544 172.651 326.629 171.961 325.472C171.289 324.315 170.953 322.999 170.953 321.524C170.953 320.031 171.279 318.715 171.933 317.576C172.605 316.419 173.519 315.513 174.677 314.86C175.853 314.207 177.187 313.88 178.681 313.88C180.137 313.88 181.434 314.197 182.573 314.832C183.711 315.467 184.607 316.363 185.261 317.52C185.914 318.677 186.241 320.04 186.241 321.608C186.241 321.757 186.231 321.925 186.213 322.112C186.213 322.299 186.203 322.476 186.185 322.644H173.725V320.32H184.337L182.965 321.048C182.983 320.189 182.806 319.433 182.433 318.78C182.059 318.127 181.546 317.613 180.893 317.24C180.258 316.867 179.521 316.68 178.681 316.68C177.822 316.68 177.066 316.867 176.413 317.24C175.778 317.613 175.274 318.136 174.901 318.808C174.546 319.461 174.369 320.236 174.369 321.132V321.692C174.369 322.588 174.574 323.381 174.985 324.072C175.395 324.763 175.974 325.295 176.721 325.668C177.467 326.041 178.326 326.228 179.297 326.228C180.137 326.228 180.893 326.097 181.565 325.836C182.237 325.575 182.834 325.164 183.357 324.604L185.233 326.76C184.561 327.544 183.711 328.151 182.685 328.58C181.677 328.991 180.519 329.196 179.213 329.196ZM181.341 311.696C180.874 311.696 180.473 311.547 180.137 311.248C179.819 310.931 179.661 310.52 179.661 310.016C179.661 309.512 179.819 309.101 180.137 308.784C180.473 308.467 180.874 308.308 181.341 308.308C181.807 308.308 182.199 308.467 182.517 308.784C182.853 309.101 183.021 309.512 183.021 310.016C183.021 310.52 182.853 310.931 182.517 311.248C182.199 311.547 181.807 311.696 181.341 311.696ZM175.909 311.696C175.442 311.696 175.041 311.547 174.705 311.248C174.387 310.931 174.229 310.52 174.229 310.016C174.229 309.512 174.387 309.101 174.705 308.784C175.041 308.467 175.442 308.308 175.909 308.308C176.375 308.308 176.767 308.467 177.085 308.784C177.421 309.101 177.589 309.512 177.589 310.016C177.589 310.52 177.421 310.931 177.085 311.248C176.767 311.547 176.375 311.696 175.909 311.696ZM187.693 328.972L187.861 326.032C187.992 326.051 188.113 326.069 188.225 326.088C188.337 326.107 188.44 326.116 188.533 326.116C189.112 326.116 189.56 325.939 189.877 325.584C190.195 325.229 190.428 324.753 190.577 324.156C190.745 323.54 190.857 322.859 190.913 322.112C190.988 321.347 191.044 320.581 191.081 319.816L191.333 314.048H203.429V329H199.929V316.064L200.741 317.016H193.629L194.385 316.036L194.189 319.984C194.133 321.309 194.021 322.541 193.853 323.68C193.704 324.8 193.461 325.78 193.125 326.62C192.808 327.46 192.36 328.113 191.781 328.58C191.221 329.047 190.503 329.28 189.625 329.28C189.345 329.28 189.037 329.252 188.701 329.196C188.384 329.14 188.048 329.065 187.693 328.972ZM223.235 329V314.048H226.735V329H223.235ZM215.423 318.976C217.346 318.976 218.802 319.405 219.791 320.264C220.799 321.123 221.303 322.336 221.303 323.904C221.303 325.528 220.743 326.797 219.623 327.712C218.522 328.608 216.954 329.047 214.919 329.028L208.143 329V314.048H211.643V318.948L215.423 318.976ZM214.611 326.452C215.638 326.471 216.422 326.256 216.963 325.808C217.504 325.36 217.775 324.707 217.775 323.848C217.775 322.989 217.504 322.373 216.963 322C216.44 321.608 215.656 321.403 214.611 321.384L211.643 321.356V326.424L214.611 326.452ZM231.44 329V314.048H234.94V323.904L243.2 314.048H246.392V329H242.892V319.144L234.66 329H231.44ZM238.692 312.284C237.199 312.284 236.051 311.939 235.248 311.248C234.445 310.539 234.035 309.512 234.016 308.168H236.34C236.359 308.84 236.564 309.372 236.956 309.764C237.367 310.156 237.936 310.352 238.664 310.352C239.373 310.352 239.933 310.156 240.344 309.764C240.773 309.372 240.997 308.84 241.016 308.168H243.396C243.377 309.512 242.957 310.539 242.136 311.248C241.333 311.939 240.185 312.284 238.692 312.284ZM260.182 334.628C259.454 334.628 258.726 334.507 257.998 334.264C257.27 334.021 256.664 333.685 256.178 333.256L257.578 330.68C257.933 330.997 258.334 331.249 258.782 331.436C259.23 331.623 259.688 331.716 260.154 331.716C260.789 331.716 261.302 331.557 261.694 331.24C262.086 330.923 262.45 330.391 262.786 329.644L263.654 327.684L263.934 327.264L269.59 314.048H272.95L265.95 330.204C265.484 331.324 264.961 332.211 264.382 332.864C263.822 333.517 263.188 333.975 262.478 334.236C261.788 334.497 261.022 334.628 260.182 334.628ZM263.262 329.532L256.514 314.048H260.154L265.642 326.956L263.262 329.532ZM272.295 328.972L272.463 326.032C272.594 326.051 272.715 326.069 272.827 326.088C272.939 326.107 273.042 326.116 273.135 326.116C273.714 326.116 274.162 325.939 274.479 325.584C274.796 325.229 275.03 324.753 275.179 324.156C275.347 323.54 275.459 322.859 275.515 322.112C275.59 321.347 275.646 320.581 275.683 319.816L275.935 314.048H288.031V329H284.531V316.064L285.343 317.016H278.231L278.987 316.036L278.791 319.984C278.735 321.309 278.623 322.541 278.455 323.68C278.306 324.8 278.063 325.78 277.727 326.62C277.41 327.46 276.962 328.113 276.383 328.58C275.823 329.047 275.104 329.28 274.227 329.28C273.947 329.28 273.639 329.252 273.303 329.196C272.986 329.14 272.65 329.065 272.295 328.972ZM299.717 329.196C298.055 329.196 296.599 328.869 295.349 328.216C294.117 327.544 293.155 326.629 292.465 325.472C291.793 324.315 291.457 322.999 291.457 321.524C291.457 320.031 291.783 318.715 292.437 317.576C293.109 316.419 294.023 315.513 295.181 314.86C296.357 314.207 297.691 313.88 299.185 313.88C300.641 313.88 301.938 314.197 303.077 314.832C304.215 315.467 305.111 316.363 305.765 317.52C306.418 318.677 306.745 320.04 306.745 321.608C306.745 321.757 306.735 321.925 306.717 322.112C306.717 322.299 306.707 322.476 306.689 322.644H294.229V320.32H304.841L303.469 321.048C303.487 320.189 303.31 319.433 302.937 318.78C302.563 318.127 302.05 317.613 301.397 317.24C300.762 316.867 300.025 316.68 299.185 316.68C298.326 316.68 297.57 316.867 296.917 317.24C296.282 317.613 295.778 318.136 295.405 318.808C295.05 319.461 294.873 320.236 294.873 321.132V321.692C294.873 322.588 295.078 323.381 295.489 324.072C295.899 324.763 296.478 325.295 297.225 325.668C297.971 326.041 298.83 326.228 299.801 326.228C300.641 326.228 301.397 326.097 302.069 325.836C302.741 325.575 303.338 325.164 303.861 324.604L305.737 326.76C305.065 327.544 304.215 328.151 303.189 328.58C302.181 328.991 301.023 329.196 299.717 329.196ZM310.573 329V314.048H314.073V323.904L322.333 314.048H325.525V329H322.025V319.144L313.793 329H310.573ZM317.825 312.284C316.331 312.284 315.183 311.939 314.381 311.248C313.578 310.539 313.167 309.512 313.149 308.168H315.473C315.491 308.84 315.697 309.372 316.089 309.764C316.499 310.156 317.069 310.352 317.797 310.352C318.506 310.352 319.066 310.156 319.477 309.764C319.906 309.372 320.13 308.84 320.149 308.168H322.529C322.51 309.512 322.09 310.539 321.269 311.248C320.466 311.939 319.318 312.284 317.825 312.284ZM331.885 326.928H328.721L332.613 321.524L328.721 316.092H331.885L335.861 321.524L331.885 326.928ZM337.709 326.928H334.545L338.437 321.524L334.545 316.092H337.709L341.685 321.524L337.709 326.928Z" fill="#622900"/>
<rect x="563" width="443" height="230" rx="30" fill="#FFD7B9"/>
<path d="M573.799 282V262.4H582.563C584.766 262.4 586.483 262.839 587.715 263.716C588.947 264.575 589.563 265.816 589.563 267.44C589.563 269.045 588.975 270.287 587.799 271.164C586.623 272.023 585.074 272.452 583.151 272.452L583.655 271.444C585.839 271.444 587.529 271.883 588.723 272.76C589.918 273.637 590.515 274.907 590.515 276.568C590.515 278.267 589.89 279.601 588.639 280.572C587.389 281.524 585.541 282 583.095 282H573.799ZM577.383 279.2H582.983C584.253 279.2 585.214 278.967 585.867 278.5C586.521 278.015 586.847 277.277 586.847 276.288C586.847 275.299 586.521 274.58 585.867 274.132C585.214 273.665 584.253 273.432 582.983 273.432H577.383V279.2ZM577.383 270.772H582.255C583.431 270.772 584.327 270.539 584.943 270.072C585.559 269.587 585.867 268.896 585.867 268C585.867 267.067 585.559 266.367 584.943 265.9C584.327 265.433 583.431 265.2 582.255 265.2H577.383V270.772ZM600.934 282.196C599.403 282.196 598.041 281.869 596.846 281.216C595.651 280.544 594.709 279.629 594.018 278.472C593.327 277.315 592.982 275.999 592.982 274.524C592.982 273.031 593.327 271.715 594.018 270.576C594.709 269.419 595.651 268.513 596.846 267.86C598.041 267.207 599.403 266.88 600.934 266.88C602.483 266.88 603.855 267.207 605.05 267.86C606.263 268.513 607.206 269.409 607.878 270.548C608.569 271.687 608.914 273.012 608.914 274.524C608.914 275.999 608.569 277.315 607.878 278.472C607.206 279.629 606.263 280.544 605.05 281.216C603.855 281.869 602.483 282.196 600.934 282.196ZM600.934 279.2C601.793 279.2 602.558 279.013 603.23 278.64C603.902 278.267 604.425 277.725 604.798 277.016C605.19 276.307 605.386 275.476 605.386 274.524C605.386 273.553 605.19 272.723 604.798 272.032C604.425 271.323 603.902 270.781 603.23 270.408C602.558 270.035 601.802 269.848 600.962 269.848C600.103 269.848 599.338 270.035 598.666 270.408C598.013 270.781 597.49 271.323 597.098 272.032C596.706 272.723 596.51 273.553 596.51 274.524C596.51 275.476 596.706 276.307 597.098 277.016C597.49 277.725 598.013 278.267 598.666 278.64C599.338 279.013 600.094 279.2 600.934 279.2ZM610.023 281.972L610.191 279.032C610.322 279.051 610.443 279.069 610.555 279.088C610.667 279.107 610.77 279.116 610.863 279.116C611.442 279.116 611.89 278.939 612.207 278.584C612.525 278.229 612.758 277.753 612.907 277.156C613.075 276.54 613.187 275.859 613.243 275.112C613.318 274.347 613.374 273.581 613.411 272.816L613.663 267.048H625.759V282H622.259V269.064L623.071 270.016H615.959L616.715 269.036L616.519 272.984C616.463 274.309 616.351 275.541 616.183 276.68C616.034 277.8 615.791 278.78 615.455 279.62C615.138 280.46 614.69 281.113 614.111 281.58C613.551 282.047 612.833 282.28 611.955 282.28C611.675 282.28 611.367 282.252 611.031 282.196C610.714 282.14 610.378 282.065 610.023 281.972ZM637.137 282.196C635.606 282.196 634.244 281.869 633.049 281.216C631.854 280.544 630.912 279.629 630.221 278.472C629.53 277.315 629.185 275.999 629.185 274.524C629.185 273.031 629.53 271.715 630.221 270.576C630.912 269.419 631.854 268.513 633.049 267.86C634.244 267.207 635.606 266.88 637.137 266.88C638.686 266.88 640.058 267.207 641.253 267.86C642.466 268.513 643.409 269.409 644.081 270.548C644.772 271.687 645.117 273.012 645.117 274.524C645.117 275.999 644.772 277.315 644.081 278.472C643.409 279.629 642.466 280.544 641.253 281.216C640.058 281.869 638.686 282.196 637.137 282.196ZM637.137 279.2C637.996 279.2 638.761 279.013 639.433 278.64C640.105 278.267 640.628 277.725 641.001 277.016C641.393 276.307 641.589 275.476 641.589 274.524C641.589 273.553 641.393 272.723 641.001 272.032C640.628 271.323 640.105 270.781 639.433 270.408C638.761 270.035 638.005 269.848 637.165 269.848C636.306 269.848 635.541 270.035 634.869 270.408C634.216 270.781 633.693 271.323 633.301 272.032C632.909 272.723 632.713 273.553 632.713 274.524C632.713 275.476 632.909 276.307 633.301 277.016C633.693 277.725 634.216 278.267 634.869 278.64C635.541 279.013 636.297 279.2 637.137 279.2ZM648.575 282V267.048H652.075V273.124H659.607V267.048H663.107V282H659.607V276.092H652.075V282H648.575ZM670.905 282V269.176L671.717 270.016H665.641V267.048H679.641V270.016H673.593L674.405 269.176V282H670.905ZM688.496 282.196C686.835 282.196 685.379 281.869 684.128 281.216C682.896 280.544 681.935 279.629 681.244 278.472C680.572 277.315 680.236 275.999 680.236 274.524C680.236 273.031 680.563 271.715 681.216 270.576C681.888 269.419 682.803 268.513 683.96 267.86C685.136 267.207 686.471 266.88 687.964 266.88C689.42 266.88 690.717 267.197 691.856 267.832C692.995 268.467 693.891 269.363 694.544 270.52C695.197 271.677 695.524 273.04 695.524 274.608C695.524 274.757 695.515 274.925 695.496 275.112C695.496 275.299 695.487 275.476 695.468 275.644H683.008V273.32H693.62L692.248 274.048C692.267 273.189 692.089 272.433 691.716 271.78C691.343 271.127 690.829 270.613 690.176 270.24C689.541 269.867 688.804 269.68 687.964 269.68C687.105 269.68 686.349 269.867 685.696 270.24C685.061 270.613 684.557 271.136 684.184 271.808C683.829 272.461 683.652 273.236 683.652 274.132V274.692C683.652 275.588 683.857 276.381 684.268 277.072C684.679 277.763 685.257 278.295 686.004 278.668C686.751 279.041 687.609 279.228 688.58 279.228C689.42 279.228 690.176 279.097 690.848 278.836C691.52 278.575 692.117 278.164 692.64 277.604L694.516 279.76C693.844 280.544 692.995 281.151 691.968 281.58C690.96 281.991 689.803 282.196 688.496 282.196ZM690.624 264.696C690.157 264.696 689.756 264.547 689.42 264.248C689.103 263.931 688.944 263.52 688.944 263.016C688.944 262.512 689.103 262.101 689.42 261.784C689.756 261.467 690.157 261.308 690.624 261.308C691.091 261.308 691.483 261.467 691.8 261.784C692.136 262.101 692.304 262.512 692.304 263.016C692.304 263.52 692.136 263.931 691.8 264.248C691.483 264.547 691.091 264.696 690.624 264.696ZM685.192 264.696C684.725 264.696 684.324 264.547 683.988 264.248C683.671 263.931 683.512 263.52 683.512 263.016C683.512 262.512 683.671 262.101 683.988 261.784C684.324 261.467 684.725 261.308 685.192 261.308C685.659 261.308 686.051 261.467 686.368 261.784C686.704 262.101 686.872 262.512 686.872 263.016C686.872 263.52 686.704 263.931 686.368 264.248C686.051 264.547 685.659 264.696 685.192 264.696ZM707.64 282.196C706.427 282.196 705.316 281.916 704.308 281.356C703.319 280.796 702.525 279.956 701.928 278.836C701.349 277.697 701.06 276.26 701.06 274.524C701.06 272.769 701.34 271.332 701.9 270.212C702.479 269.092 703.263 268.261 704.252 267.72C705.241 267.16 706.371 266.88 707.64 266.88C709.115 266.88 710.412 267.197 711.532 267.832C712.671 268.467 713.567 269.353 714.22 270.492C714.892 271.631 715.228 272.975 715.228 274.524C715.228 276.073 714.892 277.427 714.22 278.584C713.567 279.723 712.671 280.609 711.532 281.244C710.412 281.879 709.115 282.196 707.64 282.196ZM699.352 287.432V267.048H702.684V270.576L702.572 274.552L702.852 278.528V287.432H699.352ZM707.248 279.2C708.088 279.2 708.835 279.013 709.488 278.64C710.16 278.267 710.692 277.725 711.084 277.016C711.476 276.307 711.672 275.476 711.672 274.524C711.672 273.553 711.476 272.723 711.084 272.032C710.692 271.323 710.16 270.781 709.488 270.408C708.835 270.035 708.088 269.848 707.248 269.848C706.408 269.848 705.652 270.035 704.98 270.408C704.308 270.781 703.776 271.323 703.384 272.032C702.992 272.723 702.796 273.553 702.796 274.524C702.796 275.476 702.992 276.307 703.384 277.016C703.776 277.725 704.308 278.267 704.98 278.64C705.652 279.013 706.408 279.2 707.248 279.2ZM725.515 282.196C723.947 282.196 722.547 281.869 721.315 281.216C720.102 280.544 719.15 279.629 718.459 278.472C717.769 277.315 717.423 275.999 717.423 274.524C717.423 273.031 717.769 271.715 718.459 270.576C719.15 269.419 720.102 268.513 721.315 267.86C722.547 267.207 723.947 266.88 725.515 266.88C726.971 266.88 728.25 267.179 729.351 267.776C730.471 268.355 731.321 269.213 731.899 270.352L729.211 271.92C728.763 271.211 728.213 270.688 727.559 270.352C726.925 270.016 726.234 269.848 725.487 269.848C724.629 269.848 723.854 270.035 723.163 270.408C722.473 270.781 721.931 271.323 721.539 272.032C721.147 272.723 720.951 273.553 720.951 274.524C720.951 275.495 721.147 276.335 721.539 277.044C721.931 277.735 722.473 278.267 723.163 278.64C723.854 279.013 724.629 279.2 725.487 279.2C726.234 279.2 726.925 279.032 727.559 278.696C728.213 278.36 728.763 277.837 729.211 277.128L731.899 278.696C731.321 279.816 730.471 280.684 729.351 281.3C728.25 281.897 726.971 282.196 725.515 282.196ZM745.705 282L740.301 274.832L743.157 273.068L749.821 282H745.705ZM734.981 282V267.048H738.481V282H734.981ZM737.445 276.008V273.096H742.513V276.008H737.445ZM743.493 274.944L740.217 274.552L745.705 267.048H749.457L743.493 274.944ZM758.461 282.196C756.931 282.196 755.568 281.869 754.373 281.216C753.179 280.544 752.236 279.629 751.545 278.472C750.855 277.315 750.509 275.999 750.509 274.524C750.509 273.031 750.855 271.715 751.545 270.576C752.236 269.419 753.179 268.513 754.373 267.86C755.568 267.207 756.931 266.88 758.461 266.88C760.011 266.88 761.383 267.207 762.577 267.86C763.791 268.513 764.733 269.409 765.405 270.548C766.096 271.687 766.441 273.012 766.441 274.524C766.441 275.999 766.096 277.315 765.405 278.472C764.733 279.629 763.791 280.544 762.577 281.216C761.383 281.869 760.011 282.196 758.461 282.196ZM758.461 279.2C759.32 279.2 760.085 279.013 760.757 278.64C761.429 278.267 761.952 277.725 762.325 277.016C762.717 276.307 762.913 275.476 762.913 274.524C762.913 273.553 762.717 272.723 762.325 272.032C761.952 271.323 761.429 270.781 760.757 270.408C760.085 270.035 759.329 269.848 758.489 269.848C757.631 269.848 756.865 270.035 756.193 270.408C755.54 270.781 755.017 271.323 754.625 272.032C754.233 272.723 754.037 273.553 754.037 274.524C754.037 275.476 754.233 276.307 754.625 277.016C755.017 277.725 755.54 278.267 756.193 278.64C756.865 279.013 757.621 279.2 758.461 279.2ZM776.871 282.196C775.21 282.196 773.754 281.869 772.503 281.216C771.271 280.544 770.31 279.629 769.619 278.472C768.947 277.315 768.611 275.999 768.611 274.524C768.611 273.031 768.938 271.715 769.591 270.576C770.263 269.419 771.178 268.513 772.335 267.86C773.511 267.207 774.846 266.88 776.339 266.88C777.795 266.88 779.092 267.197 780.231 267.832C781.37 268.467 782.266 269.363 782.919 270.52C783.572 271.677 783.899 273.04 783.899 274.608C783.899 274.757 783.89 274.925 783.871 275.112C783.871 275.299 783.862 275.476 783.843 275.644H771.383V273.32H781.995L780.623 274.048C780.642 273.189 780.464 272.433 780.091 271.78C779.718 271.127 779.204 270.613 778.551 270.24C777.916 269.867 777.179 269.68 776.339 269.68C775.48 269.68 774.724 269.867 774.071 270.24C773.436 270.613 772.932 271.136 772.559 271.808C772.204 272.461 772.027 273.236 772.027 274.132V274.692C772.027 275.588 772.232 276.381 772.643 277.072C773.054 277.763 773.632 278.295 774.379 278.668C775.126 279.041 775.984 279.228 776.955 279.228C777.795 279.228 778.551 279.097 779.223 278.836C779.895 278.575 780.492 278.164 781.015 277.604L782.891 279.76C782.219 280.544 781.37 281.151 780.343 281.58C779.335 281.991 778.178 282.196 776.871 282.196ZM802.129 282.196C800.599 282.196 799.236 281.869 798.041 281.216C796.847 280.544 795.904 279.629 795.213 278.472C794.523 277.315 794.177 275.999 794.177 274.524C794.177 273.031 794.523 271.715 795.213 270.576C795.904 269.419 796.847 268.513 798.041 267.86C799.236 267.207 800.599 266.88 802.129 266.88C803.679 266.88 805.051 267.207 806.245 267.86C807.459 268.513 808.401 269.409 809.073 270.548C809.764 271.687 810.109 273.012 810.109 274.524C810.109 275.999 809.764 277.315 809.073 278.472C808.401 279.629 807.459 280.544 806.245 281.216C805.051 281.869 803.679 282.196 802.129 282.196ZM802.129 279.2C802.988 279.2 803.753 279.013 804.425 278.64C805.097 278.267 805.62 277.725 805.993 277.016C806.385 276.307 806.581 275.476 806.581 274.524C806.581 273.553 806.385 272.723 805.993 272.032C805.62 271.323 805.097 270.781 804.425 270.408C803.753 270.035 802.997 269.848 802.157 269.848C801.299 269.848 800.533 270.035 799.861 270.408C799.208 270.781 798.685 271.323 798.293 272.032C797.901 272.723 797.705 273.553 797.705 274.524C797.705 275.476 797.901 276.307 798.293 277.016C798.685 277.725 799.208 278.267 799.861 278.64C800.533 279.013 801.289 279.2 802.129 279.2ZM820.707 282.28C819.475 282.28 818.374 282.093 817.403 281.72C816.432 281.347 815.592 280.777 814.883 280.012C814.192 279.228 813.66 278.239 813.287 277.044C812.914 275.849 812.727 274.431 812.727 272.788C812.727 271.593 812.83 270.501 813.035 269.512C813.24 268.523 813.548 267.636 813.959 266.852C814.37 266.049 814.883 265.34 815.499 264.724C816.134 264.108 816.871 263.595 817.711 263.184C818.551 262.773 819.503 262.456 820.567 262.232L827.511 260.748L828.015 263.884L821.715 265.172C821.36 265.247 820.931 265.359 820.427 265.508C819.942 265.639 819.438 265.844 818.915 266.124C818.411 266.385 817.935 266.768 817.487 267.272C817.058 267.757 816.703 268.392 816.423 269.176C816.162 269.941 816.031 270.903 816.031 272.06C816.031 272.415 816.04 272.685 816.059 272.872C816.096 273.04 816.124 273.227 816.143 273.432C816.18 273.619 816.199 273.899 816.199 274.272L814.883 272.9C815.256 271.948 815.77 271.136 816.423 270.464C817.095 269.773 817.87 269.251 818.747 268.896C819.643 268.523 820.614 268.336 821.659 268.336C823.059 268.336 824.3 268.625 825.383 269.204C826.466 269.783 827.315 270.595 827.931 271.64C828.547 272.685 828.855 273.871 828.855 275.196C828.855 276.577 828.519 277.8 827.847 278.864C827.175 279.928 826.223 280.768 824.991 281.384C823.778 281.981 822.35 282.28 820.707 282.28ZM820.987 279.452C821.827 279.452 822.564 279.275 823.199 278.92C823.852 278.547 824.356 278.043 824.711 277.408C825.084 276.773 825.271 276.064 825.271 275.28C825.271 274.496 825.084 273.815 824.711 273.236C824.356 272.639 823.852 272.163 823.199 271.808C822.564 271.453 821.808 271.276 820.931 271.276C820.091 271.276 819.335 271.444 818.663 271.78C818.01 272.116 817.496 272.583 817.123 273.18C816.768 273.759 816.591 274.431 816.591 275.196C816.591 275.98 816.778 276.699 817.151 277.352C817.524 278.005 818.038 278.519 818.691 278.892C819.363 279.265 820.128 279.452 820.987 279.452ZM841.272 271.948C843.176 271.948 844.622 272.387 845.612 273.264C846.601 274.123 847.096 275.327 847.096 276.876C847.096 278.519 846.536 279.788 845.416 280.684C844.314 281.561 842.746 282 840.712 282H833.964V270.016H829.54V267.048H837.464V271.948H841.272ZM840.544 279.424C841.533 279.424 842.28 279.2 842.784 278.752C843.288 278.304 843.54 277.651 843.54 276.792C843.54 275.187 842.541 274.384 840.544 274.384H837.464V279.424H840.544ZM857.152 282.196C855.491 282.196 854.035 281.869 852.784 281.216C851.552 280.544 850.591 279.629 849.9 278.472C849.228 277.315 848.892 275.999 848.892 274.524C848.892 273.031 849.219 271.715 849.872 270.576C850.544 269.419 851.459 268.513 852.616 267.86C853.792 267.207 855.127 266.88 856.62 266.88C858.076 266.88 859.373 267.197 860.512 267.832C861.651 268.467 862.547 269.363 863.2 270.52C863.853 271.677 864.18 273.04 864.18 274.608C864.18 274.757 864.171 274.925 864.152 275.112C864.152 275.299 864.143 275.476 864.124 275.644H851.664V273.32H862.276L860.904 274.048C860.923 273.189 860.745 272.433 860.372 271.78C859.999 271.127 859.485 270.613 858.832 270.24C858.197 269.867 857.46 269.68 856.62 269.68C855.761 269.68 855.005 269.867 854.352 270.24C853.717 270.613 853.213 271.136 852.84 271.808C852.485 272.461 852.308 273.236 852.308 274.132V274.692C852.308 275.588 852.513 276.381 852.924 277.072C853.335 277.763 853.913 278.295 854.66 278.668C855.407 279.041 856.265 279.228 857.236 279.228C858.076 279.228 858.832 279.097 859.504 278.836C860.176 278.575 860.773 278.164 861.296 277.604L863.172 279.76C862.5 280.544 861.651 281.151 860.624 281.58C859.616 281.991 858.459 282.196 857.152 282.196ZM878.065 280.376V270.016H872.325L872.241 272.424C872.204 273.283 872.148 274.113 872.073 274.916C871.998 275.7 871.877 276.428 871.709 277.1C871.541 277.753 871.298 278.295 870.981 278.724C870.664 279.153 870.244 279.433 869.721 279.564L866.249 279.032C866.809 279.032 867.257 278.855 867.593 278.5C867.948 278.127 868.218 277.623 868.405 276.988C868.61 276.335 868.76 275.597 868.853 274.776C868.946 273.936 869.012 273.068 869.049 272.172L869.245 267.048H881.565V280.376H878.065ZM865.717 285.332V279.032H883.777V285.332H880.501V282H868.965V285.332H865.717ZM886.903 282V267.048H890.403V276.904L898.663 267.048H901.855V282H898.355V272.144L890.123 282H886.903ZM906.563 282V267.048H910.063V273.124H917.595V267.048H921.095V282H917.595V276.092H910.063V282H906.563ZM932.758 282.196C931.096 282.196 929.64 281.869 928.39 281.216C927.158 280.544 926.196 279.629 925.506 278.472C924.834 277.315 924.498 275.999 924.498 274.524C924.498 273.031 924.824 271.715 925.478 270.576C926.15 269.419 927.064 268.513 928.222 267.86C929.398 267.207 930.732 266.88 932.226 266.88C933.682 266.88 934.979 267.197 936.118 267.832C937.256 268.467 938.152 269.363 938.806 270.52C939.459 271.677 939.786 273.04 939.786 274.608C939.786 274.757 939.776 274.925 939.758 275.112C939.758 275.299 939.748 275.476 939.73 275.644H927.27V273.32H937.882L936.51 274.048C936.528 273.189 936.351 272.433 935.978 271.78C935.604 271.127 935.091 270.613 934.438 270.24C933.803 269.867 933.066 269.68 932.226 269.68C931.367 269.68 930.611 269.867 929.958 270.24C929.323 270.613 928.819 271.136 928.446 271.808C928.091 272.461 927.914 273.236 927.914 274.132V274.692C927.914 275.588 928.119 276.381 928.53 277.072C928.94 277.763 929.519 278.295 930.266 278.668C931.012 279.041 931.871 279.228 932.842 279.228C933.682 279.228 934.438 279.097 935.11 278.836C935.782 278.575 936.379 278.164 936.902 277.604L938.778 279.76C938.106 280.544 937.256 281.151 936.23 281.58C935.222 281.991 934.064 282.196 932.758 282.196ZM943.614 282V267.048H947.114V273.124H954.646V267.048H958.146V282H954.646V276.092H947.114V282H943.614ZM962.836 282V267.048H966.336V276.904L974.596 267.048H977.788V282H974.288V272.144L966.056 282H962.836ZM989.469 282.196C987.807 282.196 986.351 281.869 985.101 281.216C983.869 280.544 982.907 279.629 982.217 278.472C981.545 277.315 981.209 275.999 981.209 274.524C981.209 273.031 981.535 271.715 982.189 270.576C982.861 269.419 983.775 268.513 984.933 267.86C986.109 267.207 987.443 266.88 988.937 266.88C990.393 266.88 991.69 267.197 992.829 267.832C993.967 268.467 994.863 269.363 995.517 270.52C996.17 271.677 996.497 273.04 996.497 274.608C996.497 274.757 996.487 274.925 996.469 275.112C996.469 275.299 996.459 275.476 996.441 275.644H983.981V273.32H994.593L993.221 274.048C993.239 273.189 993.062 272.433 992.689 271.78C992.315 271.127 991.802 270.613 991.149 270.24C990.514 269.867 989.777 269.68 988.937 269.68C988.078 269.68 987.322 269.867 986.669 270.24C986.034 270.613 985.53 271.136 985.157 271.808C984.802 272.461 984.625 273.236 984.625 274.132V274.692C984.625 275.588 984.83 276.381 985.241 277.072C985.651 277.763 986.23 278.295 986.977 278.668C987.723 279.041 988.582 279.228 989.553 279.228C990.393 279.228 991.149 279.097 991.821 278.836C992.493 278.575 993.09 278.164 993.613 277.604L995.489 279.76C994.817 280.544 993.967 281.151 992.941 281.58C991.933 281.991 990.775 282.196 989.469 282.196ZM685.882 326.928L681.906 321.524L685.882 316.092H689.046L685.154 321.524L689.046 326.928H685.882ZM691.706 326.928L687.73 321.524L691.706 316.092H694.87L690.978 321.524L694.87 326.928H691.706ZM698.487 329V309.4H713.747V312.396H702.071V317.212H707.867C710.219 317.212 712.002 317.707 713.215 318.696C714.447 319.667 715.063 321.085 715.063 322.952C715.063 324.875 714.382 326.368 713.019 327.432C711.675 328.477 709.771 329 707.307 329H698.487ZM702.071 326.2H707.111C708.511 326.2 709.575 325.929 710.303 325.388C711.031 324.847 711.395 324.063 711.395 323.036C711.395 321.02 709.967 320.012 707.111 320.012H702.071V326.2ZM719.645 334.628C718.917 334.628 718.189 334.507 717.461 334.264C716.733 334.021 716.127 333.685 715.641 333.256L717.041 330.68C717.396 330.997 717.797 331.249 718.245 331.436C718.693 331.623 719.151 331.716 719.617 331.716C720.252 331.716 720.765 331.557 721.157 331.24C721.549 330.923 721.913 330.391 722.249 329.644L723.117 327.684L723.397 327.264L729.053 314.048H732.413L725.413 330.204C724.947 331.324 724.424 332.211 723.845 332.864C723.285 333.517 722.651 333.975 721.941 334.236C721.251 334.497 720.485 334.628 719.645 334.628ZM722.725 329.532L715.977 314.048H719.617L725.105 326.956L722.725 329.532ZM744.19 327.376V317.016H738.45L738.366 319.424C738.329 320.283 738.273 321.113 738.198 321.916C738.123 322.7 738.002 323.428 737.834 324.1C737.666 324.753 737.423 325.295 737.106 325.724C736.789 326.153 736.369 326.433 735.846 326.564L732.374 326.032C732.934 326.032 733.382 325.855 733.718 325.5C734.073 325.127 734.343 324.623 734.53 323.988C734.735 323.335 734.885 322.597 734.978 321.776C735.071 320.936 735.137 320.068 735.174 319.172L735.37 314.048H747.69V327.376H744.19ZM731.842 332.332V326.032H749.902V332.332H746.626V329H735.09V332.332H731.842ZM760.532 318.976C762.454 318.976 763.92 319.405 764.928 320.264C765.936 321.123 766.44 322.336 766.44 323.904C766.44 325.528 765.88 326.797 764.76 327.712C763.64 328.608 762.062 329.047 760.028 329.028L753.028 329V314.048H756.528V318.948L760.532 318.976ZM759.72 326.452C760.746 326.471 761.53 326.256 762.072 325.808C762.613 325.36 762.884 324.707 762.884 323.848C762.884 322.989 762.613 322.373 762.072 322C761.549 321.608 760.765 321.403 759.72 321.384L756.528 321.356V326.424L759.72 326.452ZM784.394 329.28C783.162 329.28 782.061 329.093 781.09 328.72C780.12 328.347 779.28 327.777 778.57 327.012C777.88 326.228 777.348 325.239 776.974 324.044C776.601 322.849 776.414 321.431 776.414 319.788C776.414 318.593 776.517 317.501 776.722 316.512C776.928 315.523 777.236 314.636 777.646 313.852C778.057 313.049 778.57 312.34 779.186 311.724C779.821 311.108 780.558 310.595 781.398 310.184C782.238 309.773 783.19 309.456 784.254 309.232L791.198 307.748L791.702 310.884L785.402 312.172C785.048 312.247 784.618 312.359 784.114 312.508C783.629 312.639 783.125 312.844 782.602 313.124C782.098 313.385 781.622 313.768 781.174 314.272C780.745 314.757 780.39 315.392 780.11 316.176C779.849 316.941 779.718 317.903 779.718 319.06C779.718 319.415 779.728 319.685 779.746 319.872C779.784 320.04 779.812 320.227 779.83 320.432C779.868 320.619 779.886 320.899 779.886 321.272L778.57 319.9C778.944 318.948 779.457 318.136 780.11 317.464C780.782 316.773 781.557 316.251 782.434 315.896C783.33 315.523 784.301 315.336 785.346 315.336C786.746 315.336 787.988 315.625 789.07 316.204C790.153 316.783 791.002 317.595 791.618 318.64C792.234 319.685 792.542 320.871 792.542 322.196C792.542 323.577 792.206 324.8 791.534 325.864C790.862 326.928 789.91 327.768 788.678 328.384C787.465 328.981 786.037 329.28 784.394 329.28ZM784.674 326.452C785.514 326.452 786.252 326.275 786.886 325.92C787.54 325.547 788.044 325.043 788.398 324.408C788.772 323.773 788.958 323.064 788.958 322.28C788.958 321.496 788.772 320.815 788.398 320.236C788.044 319.639 787.54 319.163 786.886 318.808C786.252 318.453 785.496 318.276 784.618 318.276C783.778 318.276 783.022 318.444 782.35 318.78C781.697 319.116 781.184 319.583 780.81 320.18C780.456 320.759 780.278 321.431 780.278 322.196C780.278 322.98 780.465 323.699 780.838 324.352C781.212 325.005 781.725 325.519 782.378 325.892C783.05 326.265 783.816 326.452 784.674 326.452ZM793.582 328.972L793.75 326.032C793.881 326.051 794.002 326.069 794.114 326.088C794.226 326.107 794.329 326.116 794.422 326.116C795.001 326.116 795.449 325.939 795.766 325.584C796.083 325.229 796.317 324.753 796.466 324.156C796.634 323.54 796.746 322.859 796.802 322.112C796.877 321.347 796.933 320.581 796.97 319.816L797.222 314.048H809.318V329H805.818V316.064L806.63 317.016H799.518L800.274 316.036L800.078 319.984C800.022 321.309 799.91 322.541 799.742 323.68C799.593 324.8 799.35 325.78 799.014 326.62C798.697 327.46 798.249 328.113 797.67 328.58C797.11 329.047 796.391 329.28 795.514 329.28C795.234 329.28 794.926 329.252 794.59 329.196C794.273 329.14 793.937 329.065 793.582 328.972ZM814.032 329V314.048H817.532V323.904L825.792 314.048H828.984V329H825.484V319.144L817.252 329H814.032ZM851.528 329L847.16 321.832L850.016 320.068L855.7 329H851.528ZM844.332 323.008V320.096H849.344V323.008H844.332ZM850.352 321.944L847.048 321.552L851.584 314.048H855.308L850.352 321.944ZM835.736 329H831.592L837.248 320.068L840.104 321.832L835.736 329ZM845.368 329H841.896V314.048H845.368V329ZM842.932 323.008H837.948V320.096H842.932V323.008ZM836.912 321.944L831.956 314.048H835.68L840.188 321.552L836.912 321.944ZM864.781 329.196C863.12 329.196 861.664 328.869 860.413 328.216C859.181 327.544 858.22 326.629 857.529 325.472C856.857 324.315 856.521 322.999 856.521 321.524C856.521 320.031 856.848 318.715 857.501 317.576C858.173 316.419 859.088 315.513 860.245 314.86C861.421 314.207 862.756 313.88 864.249 313.88C865.705 313.88 867.002 314.197 868.141 314.832C869.28 315.467 870.176 316.363 870.829 317.52C871.482 318.677 871.809 320.04 871.809 321.608C871.809 321.757 871.8 321.925 871.781 322.112C871.781 322.299 871.772 322.476 871.753 322.644H859.293V320.32H869.905L868.533 321.048C868.552 320.189 868.374 319.433 868.001 318.78C867.628 318.127 867.114 317.613 866.461 317.24C865.826 316.867 865.089 316.68 864.249 316.68C863.39 316.68 862.634 316.867 861.981 317.24C861.346 317.613 860.842 318.136 860.469 318.808C860.114 319.461 859.937 320.236 859.937 321.132V321.692C859.937 322.588 860.142 323.381 860.553 324.072C860.964 324.763 861.542 325.295 862.289 325.668C863.036 326.041 863.894 326.228 864.865 326.228C865.705 326.228 866.461 326.097 867.133 325.836C867.805 325.575 868.402 325.164 868.925 324.604L870.801 326.76C870.129 327.544 869.28 328.151 868.253 328.58C867.245 328.991 866.088 329.196 864.781 329.196ZM877.289 326.928H874.125L878.017 321.524L874.125 316.092H877.289L881.265 321.524L877.289 326.928ZM883.113 326.928H879.949L883.841 321.524L879.949 316.092H883.113L887.089 321.524L883.113 326.928Z" fill="#622900"/>
</svg>
