<svg width="94" height="36" viewBox="0 0 94 36" fill="none" xmlns="http://www.w3.org/2000/svg">
<path d="M25.3023 24.0576H27.6255V32.8224H23.0847V28H7.42068V32.8224H2.87988V24.0576H5.20308C7.49108 20.0096 8.65268 13.04 8.65268 3.18403H25.3023V24.0576ZM9.74388 24.0576H20.7615V7.12643H13.0879C12.8415 14.9408 11.7151 20.5728 9.74388 24.0576Z" fill="#F96C24"/>
<path d="M49.6313 2.83203C53.2921 2.83203 56.0729 3.99363 58.0441 6.31683C60.0153 8.64003 61.0009 11.7376 61.0009 15.5744C61.0009 19.4464 60.0153 22.544 58.0441 24.8672C56.0729 27.1904 53.2921 28.352 49.6313 28.352C46.2873 28.352 43.6473 27.4016 41.7113 25.4656C39.7753 23.5296 38.6489 20.8896 38.3321 17.5456H34.9881V28H30.4473V3.18403H34.9881V13.6032H38.3321C38.6489 10.2944 39.7753 7.68963 41.7113 5.75363C43.6473 3.81763 46.2873 2.83203 49.6313 2.83203ZM49.6313 24.4096C54.2073 24.4096 56.4953 21.488 56.4953 15.5744C56.4953 9.73123 54.2073 6.77443 49.6313 6.77443C47.3785 6.77443 45.6537 7.54883 44.4921 9.02723C43.2953 10.5056 42.7321 12.688 42.7321 15.5744C42.7321 18.496 43.2953 20.7136 44.4921 22.192C45.6537 23.6704 47.3785 24.4096 49.6313 24.4096Z" fill="#F96C24"/>
<path d="M88.3768 24.0576C89.2216 24.0576 89.8552 24.304 90.3128 24.7616C90.7704 25.2192 91.0168 25.8528 91.0168 26.6976V32.8224H86.476V28H64.5816V3.18403H69.1224V24.0576H80.5624V3.18403H85.1032V24.0576H88.3768Z" fill="#F96C24"/>
<path fill-rule="evenodd" clip-rule="evenodd" d="M8.65249 3.18396H25.3021V24.0576H27.6253V32.8224H23.0845V28H7.42049V32.8224H2.87969V24.0576H5.20289C7.49089 20.0096 8.65249 13.04 8.65249 3.18396ZM3.84752 21.8576H0.679688V35.0224H9.62049V30.2H20.8845V35.0224H29.8253V30.2H37.1879V22.3953C37.8615 24.1537 38.8418 25.7076 40.1554 27.0212C42.5979 29.4637 45.8513 30.552 49.6311 30.552C53.8026 30.552 57.2519 29.201 59.7214 26.2905C60.9338 24.8616 61.8111 23.2194 62.3814 21.3939V30.2H84.2758V35.0224H93.2166V26.6976C93.2166 25.397 92.8207 24.1584 91.8683 23.2059C90.9158 22.2535 89.6772 21.8576 88.3766 21.8576H87.303V0.983958H78.3622V21.8576H71.3222V0.983958H62.3814V9.78542C61.8109 7.96394 60.9334 6.32188 59.7214 4.89341C57.2519 1.98294 53.8026 0.631958 49.6311 0.631958C45.8308 0.631958 42.586 1.76731 40.1554 4.19792C38.8437 5.50966 37.8625 7.05199 37.1879 8.79743V0.983958H28.2471V21.8576H27.5021V0.983958H6.45249V3.18396C6.45249 12.0325 5.49405 18.1614 3.84752 21.8576ZM34.9879 13.6032V3.18396H30.4471V28H34.9879V17.5456H38.3319C38.6487 20.8896 39.7751 23.5296 41.7111 25.4656C43.6471 27.4016 46.2871 28.352 49.6311 28.352C53.2919 28.352 56.0727 27.1904 58.0439 24.8672C60.0151 22.544 61.0007 19.4464 61.0007 15.5744C61.0007 11.7376 60.0151 8.63996 58.0439 6.31676C56.0727 3.99356 53.2919 2.83196 49.6311 2.83196C46.2871 2.83196 43.6471 3.81756 41.7111 5.75356C39.7751 7.68956 38.6487 10.2944 38.3319 13.6032H34.9879ZM44.4919 22.192C45.6535 23.6704 47.3783 24.4096 49.6311 24.4096C54.2071 24.4096 56.4951 21.488 56.4951 15.5744C56.4951 9.73116 54.2071 6.77436 49.6311 6.77436C47.3783 6.77436 45.6535 7.54876 44.4919 9.02716C43.2951 10.5056 42.7319 12.688 42.7319 15.5744C42.7319 18.496 43.2951 20.7136 44.4919 22.192ZM69.1222 24.0576V3.18396H64.5814V28H86.4758V32.8224H91.0166V26.6976C91.0166 25.8528 90.7702 25.2192 90.3126 24.7616C89.855 24.304 89.2214 24.0576 88.3766 24.0576H85.103V3.18396H80.5622V24.0576H69.1222ZM20.7613 24.0576H9.74369C10.1153 23.4006 10.4569 22.6674 10.7682 21.8576C12.1083 18.3717 12.8877 13.4676 13.0877 7.12636H20.7613V24.0576ZM18.5613 9.32636H15.1953C14.9207 14.3456 14.2467 18.5512 13.1085 21.8576H18.5613V9.32636ZM46.2119 10.399L46.2018 10.4114C45.4611 11.3264 44.9319 12.9145 44.9319 15.5744C44.9319 18.2808 45.4655 19.8982 46.2018 20.8077L46.2119 20.8202L46.2218 20.8328C46.8786 21.6687 47.8975 22.2096 49.6311 22.2096C51.4162 22.2096 52.4131 21.6674 53.043 20.8582C53.7554 19.9431 54.2951 18.3091 54.2951 15.5744C54.2951 12.8803 53.7575 11.2524 53.043 10.3345C52.4092 9.52029 51.4084 8.97436 49.6311 8.97436C47.928 8.97436 46.8945 9.53017 46.2218 10.3864L46.2119 10.399Z" fill="#3F1A00"/>
</svg>
