<svg width="443" height="289" viewBox="0 0 443 289" fill="none" xmlns="http://www.w3.org/2000/svg">
<rect width="443" height="230" rx="30" fill="#FFD7B9"/>
<path d="M138.168 279.928L134.192 274.524L138.168 269.092H141.332L137.44 274.524L141.332 279.928H138.168ZM143.992 279.928L140.016 274.524L143.992 269.092H147.156L143.264 274.524L147.156 279.928H143.992ZM150.772 282V262.4H153.74L162.336 276.708H160.74L169.196 262.4H172.164L172.22 282H168.748L168.72 267.804H169.448L162.28 279.76H160.656L153.376 267.804H154.216V282H150.772ZM183.977 282.196C182.446 282.196 181.084 281.869 179.889 281.216C178.694 280.544 177.752 279.629 177.061 278.472C176.37 277.315 176.025 275.999 176.025 274.524C176.025 273.031 176.37 271.715 177.061 270.576C177.752 269.419 178.694 268.513 179.889 267.86C181.084 267.207 182.446 266.88 183.977 266.88C185.526 266.88 186.898 267.207 188.093 267.86C189.306 268.513 190.249 269.409 190.921 270.548C191.612 271.687 191.957 273.012 191.957 274.524C191.957 275.999 191.612 277.315 190.921 278.472C190.249 279.629 189.306 280.544 188.093 281.216C186.898 281.869 185.526 282.196 183.977 282.196ZM183.977 279.2C184.836 279.2 185.601 279.013 186.273 278.64C186.945 278.267 187.468 277.725 187.841 277.016C188.233 276.307 188.429 275.476 188.429 274.524C188.429 273.553 188.233 272.723 187.841 272.032C187.468 271.323 186.945 270.781 186.273 270.408C185.601 270.035 184.845 269.848 184.005 269.848C183.146 269.848 182.381 270.035 181.709 270.408C181.056 270.781 180.533 271.323 180.141 272.032C179.749 272.723 179.553 273.553 179.553 274.524C179.553 275.476 179.749 276.307 180.141 277.016C180.533 277.725 181.056 278.267 181.709 278.64C182.381 279.013 183.137 279.2 183.977 279.2ZM197.976 282V269.176L198.788 270.016H192.712V267.048H206.712V270.016H200.664L201.476 269.176V282H197.976ZM215.258 282.196C213.728 282.196 212.365 281.869 211.17 281.216C209.976 280.544 209.033 279.629 208.342 278.472C207.652 277.315 207.306 275.999 207.306 274.524C207.306 273.031 207.652 271.715 208.342 270.576C209.033 269.419 209.976 268.513 211.17 267.86C212.365 267.207 213.728 266.88 215.258 266.88C216.808 266.88 218.18 267.207 219.374 267.86C220.588 268.513 221.53 269.409 222.202 270.548C222.893 271.687 223.238 273.012 223.238 274.524C223.238 275.999 222.893 277.315 222.202 278.472C221.53 279.629 220.588 280.544 219.374 281.216C218.18 281.869 216.808 282.196 215.258 282.196ZM215.258 279.2C216.117 279.2 216.882 279.013 217.554 278.64C218.226 278.267 218.749 277.725 219.122 277.016C219.514 276.307 219.71 275.476 219.71 274.524C219.71 273.553 219.514 272.723 219.122 272.032C218.749 271.323 218.226 270.781 217.554 270.408C216.882 270.035 216.126 269.848 215.286 269.848C214.428 269.848 213.662 270.035 212.99 270.408C212.337 270.781 211.814 271.323 211.422 272.032C211.03 272.723 210.834 273.553 210.834 274.524C210.834 275.476 211.03 276.307 211.422 277.016C211.814 277.725 212.337 278.267 212.99 278.64C213.662 279.013 214.418 279.2 215.258 279.2ZM237.42 282L232.016 274.832L234.872 273.068L241.536 282H237.42ZM226.696 282V267.048H230.196V282H226.696ZM229.16 276.008V273.096H234.228V276.008H229.16ZM235.208 274.944L231.932 274.552L237.42 267.048H241.172L235.208 274.944ZM241.82 281.972L241.988 279.032C242.119 279.051 242.24 279.069 242.352 279.088C242.464 279.107 242.567 279.116 242.66 279.116C243.239 279.116 243.687 278.939 244.004 278.584C244.322 278.229 244.555 277.753 244.704 277.156C244.872 276.54 244.984 275.859 245.04 275.112C245.115 274.347 245.171 273.581 245.208 272.816L245.46 267.048H257.556V282H254.056V269.064L254.868 270.016H247.756L248.512 269.036L248.316 272.984C248.26 274.309 248.148 275.541 247.98 276.68C247.831 277.8 247.588 278.78 247.252 279.62C246.935 280.46 246.487 281.113 245.908 281.58C245.348 282.047 244.63 282.28 243.752 282.28C243.472 282.28 243.164 282.252 242.828 282.196C242.511 282.14 242.175 282.065 241.82 281.972ZM263.614 287.628C262.886 287.628 262.158 287.507 261.43 287.264C260.702 287.021 260.095 286.685 259.61 286.256L261.01 283.68C261.365 283.997 261.766 284.249 262.214 284.436C262.662 284.623 263.119 284.716 263.586 284.716C264.221 284.716 264.734 284.557 265.126 284.24C265.518 283.923 265.882 283.391 266.218 282.644L267.086 280.684L267.366 280.264L273.022 267.048H276.382L269.382 283.204C268.915 284.324 268.393 285.211 267.814 285.864C267.254 286.517 266.619 286.975 265.91 287.236C265.219 287.497 264.454 287.628 263.614 287.628ZM266.694 282.532L259.946 267.048H263.586L269.074 279.956L266.694 282.532ZM285.816 282.28C284.584 282.28 283.483 282.093 282.512 281.72C281.542 281.347 280.702 280.777 279.992 280.012C279.302 279.228 278.77 278.239 278.396 277.044C278.023 275.849 277.836 274.431 277.836 272.788C277.836 271.593 277.939 270.501 278.144 269.512C278.35 268.523 278.658 267.636 279.068 266.852C279.479 266.049 279.992 265.34 280.608 264.724C281.243 264.108 281.98 263.595 282.82 263.184C283.66 262.773 284.612 262.456 285.676 262.232L292.62 260.748L293.124 263.884L286.824 265.172C286.47 265.247 286.04 265.359 285.536 265.508C285.051 265.639 284.547 265.844 284.024 266.124C283.52 266.385 283.044 266.768 282.596 267.272C282.167 267.757 281.812 268.392 281.532 269.176C281.271 269.941 281.14 270.903 281.14 272.06C281.14 272.415 281.15 272.685 281.168 272.872C281.206 273.04 281.234 273.227 281.252 273.432C281.29 273.619 281.308 273.899 281.308 274.272L279.992 272.9C280.366 271.948 280.879 271.136 281.532 270.464C282.204 269.773 282.979 269.251 283.856 268.896C284.752 268.523 285.723 268.336 286.768 268.336C288.168 268.336 289.41 268.625 290.492 269.204C291.575 269.783 292.424 270.595 293.04 271.64C293.656 272.685 293.964 273.871 293.964 275.196C293.964 276.577 293.628 277.8 292.956 278.864C292.284 279.928 291.332 280.768 290.1 281.384C288.887 281.981 287.459 282.28 285.816 282.28ZM286.096 279.452C286.936 279.452 287.674 279.275 288.308 278.92C288.962 278.547 289.466 278.043 289.82 277.408C290.194 276.773 290.38 276.064 290.38 275.28C290.38 274.496 290.194 273.815 289.82 273.236C289.466 272.639 288.962 272.163 288.308 271.808C287.674 271.453 286.918 271.276 286.04 271.276C285.2 271.276 284.444 271.444 283.772 271.78C283.119 272.116 282.606 272.583 282.232 273.18C281.878 273.759 281.7 274.431 281.7 275.196C281.7 275.98 281.887 276.699 282.26 277.352C282.634 278.005 283.147 278.519 283.8 278.892C284.472 279.265 285.238 279.452 286.096 279.452ZM299.004 279.928H295.84L299.732 274.524L295.84 269.092H299.004L302.98 274.524L299.004 279.928ZM304.828 279.928H301.664L305.556 274.524L301.664 269.092H304.828L308.804 274.524L304.828 279.928Z" fill="#622900"/>
</svg>
